%TF.GenerationSoftware,KiCad,Pcbnew,5.1.10-88a1d61d58~88~ubuntu20.10.1*%
%TF.CreationDate,2021-05-14T12:57:49-04:00*%
%TF.ProjectId,lick_detector_interface,6c69636b-5f64-4657-9465-63746f725f69,1.0*%
%TF.SameCoordinates,Original*%
%TF.FileFunction,Legend,Top*%
%TF.FilePolarity,Positive*%
%FSLAX46Y46*%
G04 Gerber Fmt 4.6, Leading zero omitted, Abs format (unit mm)*
G04 Created by KiCad (PCBNEW 5.1.10-88a1d61d58~88~ubuntu20.10.1) date 2021-05-14 12:57:49*
%MOMM*%
%LPD*%
G01*
G04 APERTURE LIST*
%ADD10C,0.254000*%
%ADD11C,0.177800*%
%ADD12C,0.381000*%
%ADD13C,0.250000*%
%ADD14C,0.228600*%
%ADD15C,0.120650*%
%ADD16C,0.127000*%
%ADD17O,2.540000X2.184400*%
%ADD18R,2.540000X2.184400*%
%ADD19R,0.800000X1.500000*%
%ADD20R,0.600000X1.500000*%
%ADD21C,1.000000*%
%ADD22C,3.556000*%
G04 APERTURE END LIST*
D10*
X173681619Y-87224761D02*
X173633238Y-87321523D01*
X173536476Y-87369904D01*
X172665619Y-87369904D01*
X173681619Y-86837714D02*
X173004285Y-86837714D01*
X172665619Y-86837714D02*
X172714000Y-86886095D01*
X172762380Y-86837714D01*
X172714000Y-86789333D01*
X172665619Y-86837714D01*
X172762380Y-86837714D01*
X173633238Y-85918476D02*
X173681619Y-86015238D01*
X173681619Y-86208761D01*
X173633238Y-86305523D01*
X173584857Y-86353904D01*
X173488095Y-86402285D01*
X173197809Y-86402285D01*
X173101047Y-86353904D01*
X173052666Y-86305523D01*
X173004285Y-86208761D01*
X173004285Y-86015238D01*
X173052666Y-85918476D01*
X173681619Y-85483047D02*
X172665619Y-85483047D01*
X173294571Y-85386285D02*
X173681619Y-85096000D01*
X173004285Y-85096000D02*
X173391333Y-85483047D01*
X173778380Y-84902476D02*
X173778380Y-84128380D01*
X173681619Y-83451047D02*
X172665619Y-83451047D01*
X173633238Y-83451047D02*
X173681619Y-83547809D01*
X173681619Y-83741333D01*
X173633238Y-83838095D01*
X173584857Y-83886476D01*
X173488095Y-83934857D01*
X173197809Y-83934857D01*
X173101047Y-83886476D01*
X173052666Y-83838095D01*
X173004285Y-83741333D01*
X173004285Y-83547809D01*
X173052666Y-83451047D01*
X173633238Y-82580190D02*
X173681619Y-82676952D01*
X173681619Y-82870476D01*
X173633238Y-82967238D01*
X173536476Y-83015619D01*
X173149428Y-83015619D01*
X173052666Y-82967238D01*
X173004285Y-82870476D01*
X173004285Y-82676952D01*
X173052666Y-82580190D01*
X173149428Y-82531809D01*
X173246190Y-82531809D01*
X173342952Y-83015619D01*
X173004285Y-82241523D02*
X173004285Y-81854476D01*
X172665619Y-82096380D02*
X173536476Y-82096380D01*
X173633238Y-82048000D01*
X173681619Y-81951238D01*
X173681619Y-81854476D01*
X173633238Y-81128761D02*
X173681619Y-81225523D01*
X173681619Y-81419047D01*
X173633238Y-81515809D01*
X173536476Y-81564190D01*
X173149428Y-81564190D01*
X173052666Y-81515809D01*
X173004285Y-81419047D01*
X173004285Y-81225523D01*
X173052666Y-81128761D01*
X173149428Y-81080380D01*
X173246190Y-81080380D01*
X173342952Y-81564190D01*
X173633238Y-80209523D02*
X173681619Y-80306285D01*
X173681619Y-80499809D01*
X173633238Y-80596571D01*
X173584857Y-80644952D01*
X173488095Y-80693333D01*
X173197809Y-80693333D01*
X173101047Y-80644952D01*
X173052666Y-80596571D01*
X173004285Y-80499809D01*
X173004285Y-80306285D01*
X173052666Y-80209523D01*
X173004285Y-79919238D02*
X173004285Y-79532190D01*
X172665619Y-79774095D02*
X173536476Y-79774095D01*
X173633238Y-79725714D01*
X173681619Y-79628952D01*
X173681619Y-79532190D01*
X173681619Y-79048380D02*
X173633238Y-79145142D01*
X173584857Y-79193523D01*
X173488095Y-79241904D01*
X173197809Y-79241904D01*
X173101047Y-79193523D01*
X173052666Y-79145142D01*
X173004285Y-79048380D01*
X173004285Y-78903238D01*
X173052666Y-78806476D01*
X173101047Y-78758095D01*
X173197809Y-78709714D01*
X173488095Y-78709714D01*
X173584857Y-78758095D01*
X173633238Y-78806476D01*
X173681619Y-78903238D01*
X173681619Y-79048380D01*
X173681619Y-78274285D02*
X173004285Y-78274285D01*
X173197809Y-78274285D02*
X173101047Y-78225904D01*
X173052666Y-78177523D01*
X173004285Y-78080761D01*
X173004285Y-77984000D01*
X173778380Y-77887238D02*
X173778380Y-77113142D01*
X173681619Y-76871238D02*
X173004285Y-76871238D01*
X172665619Y-76871238D02*
X172714000Y-76919619D01*
X172762380Y-76871238D01*
X172714000Y-76822857D01*
X172665619Y-76871238D01*
X172762380Y-76871238D01*
X173004285Y-76387428D02*
X173681619Y-76387428D01*
X173101047Y-76387428D02*
X173052666Y-76339047D01*
X173004285Y-76242285D01*
X173004285Y-76097142D01*
X173052666Y-76000380D01*
X173149428Y-75952000D01*
X173681619Y-75952000D01*
X173004285Y-75613333D02*
X173004285Y-75226285D01*
X172665619Y-75468190D02*
X173536476Y-75468190D01*
X173633238Y-75419809D01*
X173681619Y-75323047D01*
X173681619Y-75226285D01*
X173633238Y-74500571D02*
X173681619Y-74597333D01*
X173681619Y-74790857D01*
X173633238Y-74887619D01*
X173536476Y-74936000D01*
X173149428Y-74936000D01*
X173052666Y-74887619D01*
X173004285Y-74790857D01*
X173004285Y-74597333D01*
X173052666Y-74500571D01*
X173149428Y-74452190D01*
X173246190Y-74452190D01*
X173342952Y-74936000D01*
X173681619Y-74016761D02*
X173004285Y-74016761D01*
X173197809Y-74016761D02*
X173101047Y-73968380D01*
X173052666Y-73920000D01*
X173004285Y-73823238D01*
X173004285Y-73726476D01*
X173004285Y-73532952D02*
X173004285Y-73145904D01*
X173681619Y-73387809D02*
X172810761Y-73387809D01*
X172714000Y-73339428D01*
X172665619Y-73242666D01*
X172665619Y-73145904D01*
X173681619Y-72371809D02*
X173149428Y-72371809D01*
X173052666Y-72420190D01*
X173004285Y-72516952D01*
X173004285Y-72710476D01*
X173052666Y-72807238D01*
X173633238Y-72371809D02*
X173681619Y-72468571D01*
X173681619Y-72710476D01*
X173633238Y-72807238D01*
X173536476Y-72855619D01*
X173439714Y-72855619D01*
X173342952Y-72807238D01*
X173294571Y-72710476D01*
X173294571Y-72468571D01*
X173246190Y-72371809D01*
X173633238Y-71452571D02*
X173681619Y-71549333D01*
X173681619Y-71742857D01*
X173633238Y-71839619D01*
X173584857Y-71888000D01*
X173488095Y-71936380D01*
X173197809Y-71936380D01*
X173101047Y-71888000D01*
X173052666Y-71839619D01*
X173004285Y-71742857D01*
X173004285Y-71549333D01*
X173052666Y-71452571D01*
X173633238Y-70630095D02*
X173681619Y-70726857D01*
X173681619Y-70920380D01*
X173633238Y-71017142D01*
X173536476Y-71065523D01*
X173149428Y-71065523D01*
X173052666Y-71017142D01*
X173004285Y-70920380D01*
X173004285Y-70726857D01*
X173052666Y-70630095D01*
X173149428Y-70581714D01*
X173246190Y-70581714D01*
X173342952Y-71065523D01*
X174443619Y-81177142D02*
X175169333Y-81177142D01*
X175314476Y-81225523D01*
X175411238Y-81322285D01*
X175459619Y-81467428D01*
X175459619Y-81564190D01*
X175459619Y-80257904D02*
X174927428Y-80257904D01*
X174830666Y-80306285D01*
X174782285Y-80403047D01*
X174782285Y-80596571D01*
X174830666Y-80693333D01*
X175411238Y-80257904D02*
X175459619Y-80354666D01*
X175459619Y-80596571D01*
X175411238Y-80693333D01*
X175314476Y-80741714D01*
X175217714Y-80741714D01*
X175120952Y-80693333D01*
X175072571Y-80596571D01*
X175072571Y-80354666D01*
X175024190Y-80257904D01*
X174782285Y-79774095D02*
X175459619Y-79774095D01*
X174879047Y-79774095D02*
X174830666Y-79725714D01*
X174782285Y-79628952D01*
X174782285Y-79483809D01*
X174830666Y-79387047D01*
X174927428Y-79338666D01*
X175459619Y-79338666D01*
X175411238Y-78467809D02*
X175459619Y-78564571D01*
X175459619Y-78758095D01*
X175411238Y-78854857D01*
X175314476Y-78903238D01*
X174927428Y-78903238D01*
X174830666Y-78854857D01*
X174782285Y-78758095D01*
X174782285Y-78564571D01*
X174830666Y-78467809D01*
X174927428Y-78419428D01*
X175024190Y-78419428D01*
X175120952Y-78903238D01*
X175459619Y-77838857D02*
X175411238Y-77935619D01*
X175314476Y-77984000D01*
X174443619Y-77984000D01*
X175459619Y-77451809D02*
X174782285Y-77451809D01*
X174443619Y-77451809D02*
X174492000Y-77500190D01*
X174540380Y-77451809D01*
X174492000Y-77403428D01*
X174443619Y-77451809D01*
X174540380Y-77451809D01*
X175459619Y-76532571D02*
X174927428Y-76532571D01*
X174830666Y-76580952D01*
X174782285Y-76677714D01*
X174782285Y-76871238D01*
X174830666Y-76968000D01*
X175411238Y-76532571D02*
X175459619Y-76629333D01*
X175459619Y-76871238D01*
X175411238Y-76968000D01*
X175314476Y-77016380D01*
X175217714Y-77016380D01*
X175120952Y-76968000D01*
X175072571Y-76871238D01*
X175072571Y-76629333D01*
X175024190Y-76532571D01*
X176221619Y-85120190D02*
X176221619Y-85023428D01*
X176270000Y-84926666D01*
X176318380Y-84878285D01*
X176415142Y-84829904D01*
X176608666Y-84781523D01*
X176850571Y-84781523D01*
X177044095Y-84829904D01*
X177140857Y-84878285D01*
X177189238Y-84926666D01*
X177237619Y-85023428D01*
X177237619Y-85120190D01*
X177189238Y-85216952D01*
X177140857Y-85265333D01*
X177044095Y-85313714D01*
X176850571Y-85362095D01*
X176608666Y-85362095D01*
X176415142Y-85313714D01*
X176318380Y-85265333D01*
X176270000Y-85216952D01*
X176221619Y-85120190D01*
X176221619Y-83862285D02*
X176221619Y-84346095D01*
X176705428Y-84394476D01*
X176657047Y-84346095D01*
X176608666Y-84249333D01*
X176608666Y-84007428D01*
X176657047Y-83910666D01*
X176705428Y-83862285D01*
X176802190Y-83813904D01*
X177044095Y-83813904D01*
X177140857Y-83862285D01*
X177189238Y-83910666D01*
X177237619Y-84007428D01*
X177237619Y-84249333D01*
X177189238Y-84346095D01*
X177140857Y-84394476D01*
X176173238Y-82652761D02*
X177479523Y-83523619D01*
X176318380Y-82362476D02*
X176270000Y-82314095D01*
X176221619Y-82217333D01*
X176221619Y-81975428D01*
X176270000Y-81878666D01*
X176318380Y-81830285D01*
X176415142Y-81781904D01*
X176511904Y-81781904D01*
X176657047Y-81830285D01*
X177237619Y-82410857D01*
X177237619Y-81781904D01*
X176221619Y-81152952D02*
X176221619Y-81056190D01*
X176270000Y-80959428D01*
X176318380Y-80911047D01*
X176415142Y-80862666D01*
X176608666Y-80814285D01*
X176850571Y-80814285D01*
X177044095Y-80862666D01*
X177140857Y-80911047D01*
X177189238Y-80959428D01*
X177237619Y-81056190D01*
X177237619Y-81152952D01*
X177189238Y-81249714D01*
X177140857Y-81298095D01*
X177044095Y-81346476D01*
X176850571Y-81394857D01*
X176608666Y-81394857D01*
X176415142Y-81346476D01*
X176318380Y-81298095D01*
X176270000Y-81249714D01*
X176221619Y-81152952D01*
X176318380Y-80427238D02*
X176270000Y-80378857D01*
X176221619Y-80282095D01*
X176221619Y-80040190D01*
X176270000Y-79943428D01*
X176318380Y-79895047D01*
X176415142Y-79846666D01*
X176511904Y-79846666D01*
X176657047Y-79895047D01*
X177237619Y-80475619D01*
X177237619Y-79846666D01*
X177237619Y-78879047D02*
X177237619Y-79459619D01*
X177237619Y-79169333D02*
X176221619Y-79169333D01*
X176366761Y-79266095D01*
X176463523Y-79362857D01*
X176511904Y-79459619D01*
X176560285Y-77766285D02*
X177237619Y-77524380D01*
X176560285Y-77282476D01*
X177189238Y-76508380D02*
X177237619Y-76605142D01*
X177237619Y-76798666D01*
X177189238Y-76895428D01*
X177092476Y-76943809D01*
X176705428Y-76943809D01*
X176608666Y-76895428D01*
X176560285Y-76798666D01*
X176560285Y-76605142D01*
X176608666Y-76508380D01*
X176705428Y-76460000D01*
X176802190Y-76460000D01*
X176898952Y-76943809D01*
X177237619Y-76024571D02*
X176560285Y-76024571D01*
X176753809Y-76024571D02*
X176657047Y-75976190D01*
X176608666Y-75927809D01*
X176560285Y-75831047D01*
X176560285Y-75734285D01*
X177237619Y-74089333D02*
X177237619Y-74669904D01*
X177237619Y-74379619D02*
X176221619Y-74379619D01*
X176366761Y-74476380D01*
X176463523Y-74573142D01*
X176511904Y-74669904D01*
X177140857Y-73653904D02*
X177189238Y-73605523D01*
X177237619Y-73653904D01*
X177189238Y-73702285D01*
X177140857Y-73653904D01*
X177237619Y-73653904D01*
X176221619Y-72976571D02*
X176221619Y-72879809D01*
X176270000Y-72783047D01*
X176318380Y-72734666D01*
X176415142Y-72686285D01*
X176608666Y-72637904D01*
X176850571Y-72637904D01*
X177044095Y-72686285D01*
X177140857Y-72734666D01*
X177189238Y-72783047D01*
X177237619Y-72879809D01*
X177237619Y-72976571D01*
X177189238Y-73073333D01*
X177140857Y-73121714D01*
X177044095Y-73170095D01*
X176850571Y-73218476D01*
X176608666Y-73218476D01*
X176415142Y-73170095D01*
X176318380Y-73121714D01*
X176270000Y-73073333D01*
X176221619Y-72976571D01*
D11*
%TO.C,TEENSY1*%
X168890000Y-67050000D02*
G75*
G03*
X168890000Y-67050000I-1270000J0D01*
G01*
X168890000Y-72130000D02*
G75*
G03*
X168890000Y-72130000I-1270000J0D01*
G01*
X168890000Y-82290000D02*
G75*
G03*
X168890000Y-82290000I-1270000J0D01*
G01*
X168890000Y-84830000D02*
G75*
G03*
X168890000Y-84830000I-1270000J0D01*
G01*
X168890000Y-74670000D02*
G75*
G03*
X168890000Y-74670000I-1270000J0D01*
G01*
X168890000Y-69590000D02*
G75*
G03*
X168890000Y-69590000I-1270000J0D01*
G01*
X168890000Y-89910000D02*
G75*
G03*
X168890000Y-89910000I-1270000J0D01*
G01*
X168890000Y-77210000D02*
G75*
G03*
X168890000Y-77210000I-1270000J0D01*
G01*
X168890000Y-79750000D02*
G75*
G03*
X168890000Y-79750000I-1270000J0D01*
G01*
X168890000Y-87370000D02*
G75*
G03*
X168890000Y-87370000I-1270000J0D01*
G01*
X153650000Y-82290000D02*
G75*
G03*
X153650000Y-82290000I-1270000J0D01*
G01*
X153650000Y-79750000D02*
G75*
G03*
X153650000Y-79750000I-1270000J0D01*
G01*
X153650000Y-77210000D02*
G75*
G03*
X153650000Y-77210000I-1270000J0D01*
G01*
X153650000Y-89910000D02*
G75*
G03*
X153650000Y-89910000I-1270000J0D01*
G01*
X153650000Y-87370000D02*
G75*
G03*
X153650000Y-87370000I-1270000J0D01*
G01*
X153650000Y-84830000D02*
G75*
G03*
X153650000Y-84830000I-1270000J0D01*
G01*
X153650000Y-74670000D02*
G75*
G03*
X153650000Y-74670000I-1270000J0D01*
G01*
X153650000Y-72130000D02*
G75*
G03*
X153650000Y-72130000I-1270000J0D01*
G01*
X153650000Y-67050000D02*
G75*
G03*
X153650000Y-67050000I-1270000J0D01*
G01*
X153650000Y-69590000D02*
G75*
G03*
X153650000Y-69590000I-1270000J0D01*
G01*
X165080000Y-54350000D02*
X154920000Y-54350000D01*
X165080000Y-64510000D02*
X165080000Y-54350000D01*
X154920000Y-64510000D02*
X165080000Y-64510000D01*
X154920000Y-54350000D02*
X154920000Y-64510000D01*
X153650000Y-32760000D02*
X153650000Y-30220000D01*
X151110000Y-32760000D02*
X153650000Y-32760000D01*
X168890000Y-64510000D02*
G75*
G03*
X168890000Y-64510000I-1270000J0D01*
G01*
X168890000Y-61970000D02*
G75*
G03*
X168890000Y-61970000I-1270000J0D01*
G01*
X168890000Y-59430000D02*
G75*
G03*
X168890000Y-59430000I-1270000J0D01*
G01*
X168890000Y-56890000D02*
G75*
G03*
X168890000Y-56890000I-1270000J0D01*
G01*
X168890000Y-54350000D02*
G75*
G03*
X168890000Y-54350000I-1270000J0D01*
G01*
X168890000Y-51810000D02*
G75*
G03*
X168890000Y-51810000I-1270000J0D01*
G01*
X168890000Y-49270000D02*
G75*
G03*
X168890000Y-49270000I-1270000J0D01*
G01*
X168890000Y-46730000D02*
G75*
G03*
X168890000Y-46730000I-1270000J0D01*
G01*
X168890000Y-44190000D02*
G75*
G03*
X168890000Y-44190000I-1270000J0D01*
G01*
X168890000Y-41650000D02*
G75*
G03*
X168890000Y-41650000I-1270000J0D01*
G01*
X168890000Y-39110000D02*
G75*
G03*
X168890000Y-39110000I-1270000J0D01*
G01*
X168890000Y-36570000D02*
G75*
G03*
X168890000Y-36570000I-1270000J0D01*
G01*
X168890000Y-34030000D02*
G75*
G03*
X168890000Y-34030000I-1270000J0D01*
G01*
X168890000Y-31490000D02*
G75*
G03*
X168890000Y-31490000I-1270000J0D01*
G01*
X153650000Y-64510000D02*
G75*
G03*
X153650000Y-64510000I-1270000J0D01*
G01*
X153650000Y-61970000D02*
G75*
G03*
X153650000Y-61970000I-1270000J0D01*
G01*
X153650000Y-59430000D02*
G75*
G03*
X153650000Y-59430000I-1270000J0D01*
G01*
X153650000Y-56890000D02*
G75*
G03*
X153650000Y-56890000I-1270000J0D01*
G01*
X153650000Y-54350000D02*
G75*
G03*
X153650000Y-54350000I-1270000J0D01*
G01*
X153650000Y-51810000D02*
G75*
G03*
X153650000Y-51810000I-1270000J0D01*
G01*
X153650000Y-49270000D02*
G75*
G03*
X153650000Y-49270000I-1270000J0D01*
G01*
X153650000Y-46730000D02*
G75*
G03*
X153650000Y-46730000I-1270000J0D01*
G01*
X153650000Y-44190000D02*
G75*
G03*
X153650000Y-44190000I-1270000J0D01*
G01*
X153650000Y-41650000D02*
G75*
G03*
X153650000Y-41650000I-1270000J0D01*
G01*
X153650000Y-39110000D02*
G75*
G03*
X153650000Y-39110000I-1270000J0D01*
G01*
X153650000Y-36570000D02*
G75*
G03*
X153650000Y-36570000I-1270000J0D01*
G01*
X153650000Y-34030000D02*
G75*
G03*
X153650000Y-34030000I-1270000J0D01*
G01*
D12*
X161270000Y-73400000D02*
G75*
G03*
X161270000Y-73400000I-1270000J0D01*
G01*
X161270000Y-75940000D02*
X161270000Y-70860000D01*
X161270000Y-70860000D02*
X158730000Y-70860000D01*
X158730000Y-70860000D02*
X158730000Y-75940000D01*
X158730000Y-75940000D02*
X161270000Y-75940000D01*
X156190000Y-30220000D02*
X156190000Y-28950000D01*
X156190000Y-28950000D02*
X163810000Y-28950000D01*
X163810000Y-28950000D02*
X163810000Y-30220000D01*
X151110000Y-30220000D02*
X151110000Y-91180000D01*
X151110000Y-91180000D02*
X168890000Y-91180000D01*
X168890000Y-91180000D02*
X168890000Y-30220000D01*
X168890000Y-30220000D02*
X151110000Y-30220000D01*
D13*
%TO.C,P1*%
X143250000Y-97500000D02*
X143500000Y-98150000D01*
X143250000Y-97500000D02*
X143000000Y-98150000D01*
X148750000Y-95150000D02*
X151450000Y-95850000D01*
X142550000Y-95850000D02*
X145250000Y-95150000D01*
X145250000Y-95150000D02*
X148750000Y-95150000D01*
X142550000Y-95850000D02*
X142550000Y-98150000D01*
X151450000Y-95850000D02*
X151450000Y-98150000D01*
X142550000Y-98150000D02*
X151450000Y-98150000D01*
X142550000Y-95850000D02*
X151450000Y-95850000D01*
%TO.C,P2*%
X143250000Y-105500000D02*
X143500000Y-106150000D01*
X143250000Y-105500000D02*
X143000000Y-106150000D01*
X148750000Y-103150000D02*
X151450000Y-103850000D01*
X142550000Y-103850000D02*
X145250000Y-103150000D01*
X145250000Y-103150000D02*
X148750000Y-103150000D01*
X142550000Y-103850000D02*
X142550000Y-106150000D01*
X151450000Y-103850000D02*
X151450000Y-106150000D01*
X142550000Y-106150000D02*
X151450000Y-106150000D01*
X142550000Y-103850000D02*
X151450000Y-103850000D01*
%TO.C,P3*%
X143250000Y-113500000D02*
X143500000Y-114150000D01*
X143250000Y-113500000D02*
X143000000Y-114150000D01*
X148750000Y-111150000D02*
X151450000Y-111850000D01*
X142550000Y-111850000D02*
X145250000Y-111150000D01*
X145250000Y-111150000D02*
X148750000Y-111150000D01*
X142550000Y-111850000D02*
X142550000Y-114150000D01*
X151450000Y-111850000D02*
X151450000Y-114150000D01*
X142550000Y-114150000D02*
X151450000Y-114150000D01*
X142550000Y-111850000D02*
X151450000Y-111850000D01*
%TO.C,P4*%
X143250000Y-121500000D02*
X143500000Y-122150000D01*
X143250000Y-121500000D02*
X143000000Y-122150000D01*
X148750000Y-119150000D02*
X151450000Y-119850000D01*
X142550000Y-119850000D02*
X145250000Y-119150000D01*
X145250000Y-119150000D02*
X148750000Y-119150000D01*
X142550000Y-119850000D02*
X142550000Y-122150000D01*
X151450000Y-119850000D02*
X151450000Y-122150000D01*
X142550000Y-122150000D02*
X151450000Y-122150000D01*
X142550000Y-119850000D02*
X151450000Y-119850000D01*
%TO.C,P5*%
X156300000Y-97500000D02*
X156550000Y-98150000D01*
X156300000Y-97500000D02*
X156050000Y-98150000D01*
X161800000Y-95150000D02*
X164500000Y-95850000D01*
X155600000Y-95850000D02*
X158300000Y-95150000D01*
X158300000Y-95150000D02*
X161800000Y-95150000D01*
X155600000Y-95850000D02*
X155600000Y-98150000D01*
X164500000Y-95850000D02*
X164500000Y-98150000D01*
X155600000Y-98150000D02*
X164500000Y-98150000D01*
X155600000Y-95850000D02*
X164500000Y-95850000D01*
%TO.C,P6*%
X156250000Y-105500000D02*
X156500000Y-106150000D01*
X156250000Y-105500000D02*
X156000000Y-106150000D01*
X161750000Y-103150000D02*
X164450000Y-103850000D01*
X155550000Y-103850000D02*
X158250000Y-103150000D01*
X158250000Y-103150000D02*
X161750000Y-103150000D01*
X155550000Y-103850000D02*
X155550000Y-106150000D01*
X164450000Y-103850000D02*
X164450000Y-106150000D01*
X155550000Y-106150000D02*
X164450000Y-106150000D01*
X155550000Y-103850000D02*
X164450000Y-103850000D01*
%TO.C,P7*%
X156250000Y-113500000D02*
X156500000Y-114150000D01*
X156250000Y-113500000D02*
X156000000Y-114150000D01*
X161750000Y-111150000D02*
X164450000Y-111850000D01*
X155550000Y-111850000D02*
X158250000Y-111150000D01*
X158250000Y-111150000D02*
X161750000Y-111150000D01*
X155550000Y-111850000D02*
X155550000Y-114150000D01*
X164450000Y-111850000D02*
X164450000Y-114150000D01*
X155550000Y-114150000D02*
X164450000Y-114150000D01*
X155550000Y-111850000D02*
X164450000Y-111850000D01*
%TO.C,P8*%
X156250000Y-121500000D02*
X156500000Y-122150000D01*
X156250000Y-121500000D02*
X156000000Y-122150000D01*
X161750000Y-119150000D02*
X164450000Y-119850000D01*
X155550000Y-119850000D02*
X158250000Y-119150000D01*
X158250000Y-119150000D02*
X161750000Y-119150000D01*
X155550000Y-119850000D02*
X155550000Y-122150000D01*
X164450000Y-119850000D02*
X164450000Y-122150000D01*
X155550000Y-122150000D02*
X164450000Y-122150000D01*
X155550000Y-119850000D02*
X164450000Y-119850000D01*
%TO.C,P9*%
X169250000Y-97500000D02*
X169500000Y-98150000D01*
X169250000Y-97500000D02*
X169000000Y-98150000D01*
X174750000Y-95150000D02*
X177450000Y-95850000D01*
X168550000Y-95850000D02*
X171250000Y-95150000D01*
X171250000Y-95150000D02*
X174750000Y-95150000D01*
X168550000Y-95850000D02*
X168550000Y-98150000D01*
X177450000Y-95850000D02*
X177450000Y-98150000D01*
X168550000Y-98150000D02*
X177450000Y-98150000D01*
X168550000Y-95850000D02*
X177450000Y-95850000D01*
%TO.C,P10*%
X169250000Y-105500000D02*
X169500000Y-106150000D01*
X169250000Y-105500000D02*
X169000000Y-106150000D01*
X174750000Y-103150000D02*
X177450000Y-103850000D01*
X168550000Y-103850000D02*
X171250000Y-103150000D01*
X171250000Y-103150000D02*
X174750000Y-103150000D01*
X168550000Y-103850000D02*
X168550000Y-106150000D01*
X177450000Y-103850000D02*
X177450000Y-106150000D01*
X168550000Y-106150000D02*
X177450000Y-106150000D01*
X168550000Y-103850000D02*
X177450000Y-103850000D01*
%TO.C,P11*%
X169250000Y-113500000D02*
X169500000Y-114150000D01*
X169250000Y-113500000D02*
X169000000Y-114150000D01*
X174750000Y-111150000D02*
X177450000Y-111850000D01*
X168550000Y-111850000D02*
X171250000Y-111150000D01*
X171250000Y-111150000D02*
X174750000Y-111150000D01*
X168550000Y-111850000D02*
X168550000Y-114150000D01*
X177450000Y-111850000D02*
X177450000Y-114150000D01*
X168550000Y-114150000D02*
X177450000Y-114150000D01*
X168550000Y-111850000D02*
X177450000Y-111850000D01*
%TO.C,P12*%
X169250000Y-121500000D02*
X169500000Y-122150000D01*
X169250000Y-121500000D02*
X169000000Y-122150000D01*
X174750000Y-119150000D02*
X177450000Y-119850000D01*
X168550000Y-119850000D02*
X171250000Y-119150000D01*
X171250000Y-119150000D02*
X174750000Y-119150000D01*
X168550000Y-119850000D02*
X168550000Y-122150000D01*
X177450000Y-119850000D02*
X177450000Y-122150000D01*
X168550000Y-122150000D02*
X177450000Y-122150000D01*
X168550000Y-119850000D02*
X177450000Y-119850000D01*
D14*
%TO.C,MH1*%
X144540000Y-32000000D02*
G75*
G03*
X144540000Y-32000000I-2540000J0D01*
G01*
%TO.C,MH2*%
X180540000Y-32000000D02*
G75*
G03*
X180540000Y-32000000I-2540000J0D01*
G01*
%TO.C,MH3*%
X180540000Y-126000000D02*
G75*
G03*
X180540000Y-126000000I-2540000J0D01*
G01*
%TO.C,MH4*%
X144540000Y-126000000D02*
G75*
G03*
X144540000Y-126000000I-2540000J0D01*
G01*
%TO.C,TEENSY1*%
D10*
X149283619Y-63844761D02*
X149283619Y-63264190D01*
X150299619Y-63554476D02*
X149283619Y-63554476D01*
X149767428Y-62925523D02*
X149767428Y-62586857D01*
X150299619Y-62441714D02*
X150299619Y-62925523D01*
X149283619Y-62925523D01*
X149283619Y-62441714D01*
X149767428Y-62006285D02*
X149767428Y-61667619D01*
X150299619Y-61522476D02*
X150299619Y-62006285D01*
X149283619Y-62006285D01*
X149283619Y-61522476D01*
X150299619Y-61087047D02*
X149283619Y-61087047D01*
X150299619Y-60506476D01*
X149283619Y-60506476D01*
X150251238Y-60071047D02*
X150299619Y-59925904D01*
X150299619Y-59684000D01*
X150251238Y-59587238D01*
X150202857Y-59538857D01*
X150106095Y-59490476D01*
X150009333Y-59490476D01*
X149912571Y-59538857D01*
X149864190Y-59587238D01*
X149815809Y-59684000D01*
X149767428Y-59877523D01*
X149719047Y-59974285D01*
X149670666Y-60022666D01*
X149573904Y-60071047D01*
X149477142Y-60071047D01*
X149380380Y-60022666D01*
X149332000Y-59974285D01*
X149283619Y-59877523D01*
X149283619Y-59635619D01*
X149332000Y-59490476D01*
X149815809Y-58861523D02*
X150299619Y-58861523D01*
X149283619Y-59200190D02*
X149815809Y-58861523D01*
X149283619Y-58522857D01*
X150299619Y-57652000D02*
X150299619Y-58232571D01*
X150299619Y-57942285D02*
X149283619Y-57942285D01*
X149428761Y-58039047D01*
X149525523Y-58135809D01*
X149573904Y-58232571D01*
X169603619Y-64957523D02*
X169603619Y-64376952D01*
X170619619Y-64667238D02*
X169603619Y-64667238D01*
X170087428Y-64038285D02*
X170087428Y-63699619D01*
X170619619Y-63554476D02*
X170619619Y-64038285D01*
X169603619Y-64038285D01*
X169603619Y-63554476D01*
X170087428Y-63119047D02*
X170087428Y-62780380D01*
X170619619Y-62635238D02*
X170619619Y-63119047D01*
X169603619Y-63119047D01*
X169603619Y-62635238D01*
X170619619Y-62199809D02*
X169603619Y-62199809D01*
X170619619Y-61619238D01*
X169603619Y-61619238D01*
X170571238Y-61183809D02*
X170619619Y-61038666D01*
X170619619Y-60796761D01*
X170571238Y-60700000D01*
X170522857Y-60651619D01*
X170426095Y-60603238D01*
X170329333Y-60603238D01*
X170232571Y-60651619D01*
X170184190Y-60700000D01*
X170135809Y-60796761D01*
X170087428Y-60990285D01*
X170039047Y-61087047D01*
X169990666Y-61135428D01*
X169893904Y-61183809D01*
X169797142Y-61183809D01*
X169700380Y-61135428D01*
X169652000Y-61087047D01*
X169603619Y-60990285D01*
X169603619Y-60748380D01*
X169652000Y-60603238D01*
X170135809Y-59974285D02*
X170619619Y-59974285D01*
X169603619Y-60312952D02*
X170135809Y-59974285D01*
X169603619Y-59635619D01*
X170716380Y-59538857D02*
X170716380Y-58764761D01*
X169942285Y-58087428D02*
X170619619Y-58087428D01*
X169555238Y-58329333D02*
X170280952Y-58571238D01*
X170280952Y-57942285D01*
X170522857Y-57555238D02*
X170571238Y-57506857D01*
X170619619Y-57555238D01*
X170571238Y-57603619D01*
X170522857Y-57555238D01*
X170619619Y-57555238D01*
X170619619Y-56539238D02*
X170619619Y-57119809D01*
X170619619Y-56829523D02*
X169603619Y-56829523D01*
X169748761Y-56926285D01*
X169845523Y-57023047D01*
X169893904Y-57119809D01*
D15*
X154105385Y-66832285D02*
X153737690Y-67122571D01*
X154105385Y-67412857D01*
X154335195Y-67122571D02*
X154702890Y-67122571D01*
X155300395Y-67509619D02*
X155300395Y-66493619D01*
X155530204Y-66832285D02*
X155530204Y-67509619D01*
X155530204Y-66929047D02*
X155553185Y-66880666D01*
X155599147Y-66832285D01*
X155668090Y-66832285D01*
X155714052Y-66880666D01*
X155737033Y-66977428D01*
X155737033Y-67509619D01*
X155943861Y-67461238D02*
X155989823Y-67509619D01*
X156081747Y-67509619D01*
X156127709Y-67461238D01*
X156150690Y-67364476D01*
X156150690Y-67316095D01*
X156127709Y-67219333D01*
X156081747Y-67170952D01*
X156012804Y-67170952D01*
X155966842Y-67122571D01*
X155943861Y-67025809D01*
X155943861Y-66977428D01*
X155966842Y-66880666D01*
X156012804Y-66832285D01*
X156081747Y-66832285D01*
X156127709Y-66880666D01*
X156541366Y-67461238D02*
X156495404Y-67509619D01*
X156403480Y-67509619D01*
X156357519Y-67461238D01*
X156334538Y-67364476D01*
X156334538Y-66977428D01*
X156357519Y-66880666D01*
X156403480Y-66832285D01*
X156495404Y-66832285D01*
X156541366Y-66880666D01*
X156564347Y-66977428D01*
X156564347Y-67074190D01*
X156334538Y-67170952D01*
X156771176Y-67509619D02*
X156771176Y-66832285D01*
X156771176Y-67025809D02*
X156794157Y-66929047D01*
X156817138Y-66880666D01*
X156863100Y-66832285D01*
X156909061Y-66832285D01*
X157000985Y-66832285D02*
X157184833Y-66832285D01*
X157069928Y-66493619D02*
X157069928Y-67364476D01*
X157092909Y-67461238D01*
X157138871Y-67509619D01*
X157184833Y-67509619D01*
X157713395Y-67509619D02*
X157713395Y-66493619D01*
X157897242Y-66493619D01*
X157943204Y-66542000D01*
X157966185Y-66590380D01*
X157989166Y-66687142D01*
X157989166Y-66832285D01*
X157966185Y-66929047D01*
X157943204Y-66977428D01*
X157897242Y-67025809D01*
X157713395Y-67025809D01*
X158195995Y-67509619D02*
X158195995Y-66832285D01*
X158195995Y-66493619D02*
X158173014Y-66542000D01*
X158195995Y-66590380D01*
X158218976Y-66542000D01*
X158195995Y-66493619D01*
X158195995Y-66590380D01*
X158425804Y-66832285D02*
X158425804Y-67509619D01*
X158425804Y-66929047D02*
X158448785Y-66880666D01*
X158494747Y-66832285D01*
X158563690Y-66832285D01*
X158609652Y-66880666D01*
X158632633Y-66977428D01*
X158632633Y-67509619D01*
X159505909Y-67509619D02*
X159345042Y-67025809D01*
X159230138Y-67509619D02*
X159230138Y-66493619D01*
X159413985Y-66493619D01*
X159459947Y-66542000D01*
X159482928Y-66590380D01*
X159505909Y-66687142D01*
X159505909Y-66832285D01*
X159482928Y-66929047D01*
X159459947Y-66977428D01*
X159413985Y-67025809D01*
X159230138Y-67025809D01*
X159919566Y-67461238D02*
X159873604Y-67509619D01*
X159781680Y-67509619D01*
X159735719Y-67461238D01*
X159712738Y-67412857D01*
X159689757Y-67316095D01*
X159689757Y-67025809D01*
X159712738Y-66929047D01*
X159735719Y-66880666D01*
X159781680Y-66832285D01*
X159873604Y-66832285D01*
X159919566Y-66880666D01*
X160126395Y-66832285D02*
X160126395Y-67848285D01*
X160126395Y-66880666D02*
X160172357Y-66832285D01*
X160264280Y-66832285D01*
X160310242Y-66880666D01*
X160333223Y-66929047D01*
X160356204Y-67025809D01*
X160356204Y-67316095D01*
X160333223Y-67412857D01*
X160310242Y-67461238D01*
X160264280Y-67509619D01*
X160172357Y-67509619D01*
X160126395Y-67461238D01*
X160494090Y-66832285D02*
X160677938Y-66832285D01*
X160563033Y-66493619D02*
X160563033Y-67364476D01*
X160586014Y-67461238D01*
X160631976Y-67509619D01*
X160677938Y-67509619D01*
X160815823Y-67461238D02*
X160861785Y-67509619D01*
X160953709Y-67509619D01*
X160999671Y-67461238D01*
X161022652Y-67364476D01*
X161022652Y-67316095D01*
X160999671Y-67219333D01*
X160953709Y-67170952D01*
X160884766Y-67170952D01*
X160838804Y-67122571D01*
X160815823Y-67025809D01*
X160815823Y-66977428D01*
X160838804Y-66880666D01*
X160884766Y-66832285D01*
X160953709Y-66832285D01*
X160999671Y-66880666D01*
X161528233Y-66493619D02*
X161804004Y-66493619D01*
X161666119Y-67509619D02*
X161666119Y-66493619D01*
X161964871Y-67509619D02*
X161964871Y-66493619D01*
X162171700Y-67509619D02*
X162171700Y-66977428D01*
X162148719Y-66880666D01*
X162102757Y-66832285D01*
X162033814Y-66832285D01*
X161987852Y-66880666D01*
X161964871Y-66929047D01*
X162401509Y-67509619D02*
X162401509Y-66832285D01*
X162401509Y-66493619D02*
X162378528Y-66542000D01*
X162401509Y-66590380D01*
X162424490Y-66542000D01*
X162401509Y-66493619D01*
X162401509Y-66590380D01*
X162608338Y-67461238D02*
X162654300Y-67509619D01*
X162746223Y-67509619D01*
X162792185Y-67461238D01*
X162815166Y-67364476D01*
X162815166Y-67316095D01*
X162792185Y-67219333D01*
X162746223Y-67170952D01*
X162677280Y-67170952D01*
X162631319Y-67122571D01*
X162608338Y-67025809D01*
X162608338Y-66977428D01*
X162631319Y-66880666D01*
X162677280Y-66832285D01*
X162746223Y-66832285D01*
X162792185Y-66880666D01*
X163366709Y-67461238D02*
X163435652Y-67509619D01*
X163550557Y-67509619D01*
X163596519Y-67461238D01*
X163619500Y-67412857D01*
X163642480Y-67316095D01*
X163642480Y-67219333D01*
X163619500Y-67122571D01*
X163596519Y-67074190D01*
X163550557Y-67025809D01*
X163458633Y-66977428D01*
X163412671Y-66929047D01*
X163389690Y-66880666D01*
X163366709Y-66783904D01*
X163366709Y-66687142D01*
X163389690Y-66590380D01*
X163412671Y-66542000D01*
X163458633Y-66493619D01*
X163573538Y-66493619D01*
X163642480Y-66542000D01*
X163849309Y-67509619D02*
X163849309Y-66832285D01*
X163849309Y-66493619D02*
X163826328Y-66542000D01*
X163849309Y-66590380D01*
X163872290Y-66542000D01*
X163849309Y-66493619D01*
X163849309Y-66590380D01*
X164285947Y-67509619D02*
X164285947Y-66493619D01*
X164285947Y-67461238D02*
X164239985Y-67509619D01*
X164148061Y-67509619D01*
X164102100Y-67461238D01*
X164079119Y-67412857D01*
X164056138Y-67316095D01*
X164056138Y-67025809D01*
X164079119Y-66929047D01*
X164102100Y-66880666D01*
X164148061Y-66832285D01*
X164239985Y-66832285D01*
X164285947Y-66880666D01*
X164699604Y-67461238D02*
X164653642Y-67509619D01*
X164561719Y-67509619D01*
X164515757Y-67461238D01*
X164492776Y-67364476D01*
X164492776Y-66977428D01*
X164515757Y-66880666D01*
X164561719Y-66832285D01*
X164653642Y-66832285D01*
X164699604Y-66880666D01*
X164722585Y-66977428D01*
X164722585Y-67074190D01*
X164492776Y-67170952D01*
X165297109Y-67122571D02*
X165664804Y-67122571D01*
X165894614Y-66832285D02*
X166262309Y-67122571D01*
X165894614Y-67412857D01*
D11*
X156105333Y-58619619D02*
X156105333Y-57942285D01*
X156105333Y-57603619D02*
X156056952Y-57652000D01*
X156105333Y-57700380D01*
X156153714Y-57652000D01*
X156105333Y-57603619D01*
X156105333Y-57700380D01*
X156589142Y-58619619D02*
X156589142Y-57603619D01*
X156927809Y-58329333D01*
X157266476Y-57603619D01*
X157266476Y-58619619D01*
X157653523Y-57603619D02*
X158330857Y-58619619D01*
X158330857Y-57603619D02*
X157653523Y-58619619D01*
X159298476Y-58619619D02*
X158959809Y-58135809D01*
X158717904Y-58619619D02*
X158717904Y-57603619D01*
X159104952Y-57603619D01*
X159201714Y-57652000D01*
X159250095Y-57700380D01*
X159298476Y-57797142D01*
X159298476Y-57942285D01*
X159250095Y-58039047D01*
X159201714Y-58087428D01*
X159104952Y-58135809D01*
X158717904Y-58135809D01*
X159588761Y-57603619D02*
X160169333Y-57603619D01*
X159879047Y-58619619D02*
X159879047Y-57603619D01*
X161040190Y-58619619D02*
X160459619Y-58619619D01*
X160749904Y-58619619D02*
X160749904Y-57603619D01*
X160653142Y-57748761D01*
X160556380Y-57845523D01*
X160459619Y-57893904D01*
X161669142Y-57603619D02*
X161765904Y-57603619D01*
X161862666Y-57652000D01*
X161911047Y-57700380D01*
X161959428Y-57797142D01*
X162007809Y-57990666D01*
X162007809Y-58232571D01*
X161959428Y-58426095D01*
X161911047Y-58522857D01*
X161862666Y-58571238D01*
X161765904Y-58619619D01*
X161669142Y-58619619D01*
X161572380Y-58571238D01*
X161524000Y-58522857D01*
X161475619Y-58426095D01*
X161427238Y-58232571D01*
X161427238Y-57990666D01*
X161475619Y-57797142D01*
X161524000Y-57700380D01*
X161572380Y-57652000D01*
X161669142Y-57603619D01*
X162878666Y-57603619D02*
X162685142Y-57603619D01*
X162588380Y-57652000D01*
X162540000Y-57700380D01*
X162443238Y-57845523D01*
X162394857Y-58039047D01*
X162394857Y-58426095D01*
X162443238Y-58522857D01*
X162491619Y-58571238D01*
X162588380Y-58619619D01*
X162781904Y-58619619D01*
X162878666Y-58571238D01*
X162927047Y-58522857D01*
X162975428Y-58426095D01*
X162975428Y-58184190D01*
X162927047Y-58087428D01*
X162878666Y-58039047D01*
X162781904Y-57990666D01*
X162588380Y-57990666D01*
X162491619Y-58039047D01*
X162443238Y-58087428D01*
X162394857Y-58184190D01*
X163362476Y-57700380D02*
X163410857Y-57652000D01*
X163507619Y-57603619D01*
X163749523Y-57603619D01*
X163846285Y-57652000D01*
X163894666Y-57700380D01*
X163943047Y-57797142D01*
X163943047Y-57893904D01*
X163894666Y-58039047D01*
X163314095Y-58619619D01*
X163943047Y-58619619D01*
%TO.C,P1*%
D16*
X151070047Y-99134809D02*
X151070047Y-98626809D01*
X151263571Y-98626809D01*
X151311952Y-98651000D01*
X151336142Y-98675190D01*
X151360333Y-98723571D01*
X151360333Y-98796142D01*
X151336142Y-98844523D01*
X151311952Y-98868714D01*
X151263571Y-98892904D01*
X151070047Y-98892904D01*
X151844142Y-99134809D02*
X151553857Y-99134809D01*
X151699000Y-99134809D02*
X151699000Y-98626809D01*
X151650619Y-98699380D01*
X151602238Y-98747761D01*
X151553857Y-98771952D01*
D10*
X146951619Y-93268619D02*
X147048380Y-93268619D01*
X147145142Y-93317000D01*
X147193523Y-93365380D01*
X147241904Y-93462142D01*
X147290285Y-93655666D01*
X147290285Y-93897571D01*
X147241904Y-94091095D01*
X147193523Y-94187857D01*
X147145142Y-94236238D01*
X147048380Y-94284619D01*
X146951619Y-94284619D01*
X146854857Y-94236238D01*
X146806476Y-94187857D01*
X146758095Y-94091095D01*
X146709714Y-93897571D01*
X146709714Y-93655666D01*
X146758095Y-93462142D01*
X146806476Y-93365380D01*
X146854857Y-93317000D01*
X146951619Y-93268619D01*
%TO.C,P2*%
D16*
X151070047Y-107134809D02*
X151070047Y-106626809D01*
X151263571Y-106626809D01*
X151311952Y-106651000D01*
X151336142Y-106675190D01*
X151360333Y-106723571D01*
X151360333Y-106796142D01*
X151336142Y-106844523D01*
X151311952Y-106868714D01*
X151263571Y-106892904D01*
X151070047Y-106892904D01*
X151553857Y-106675190D02*
X151578047Y-106651000D01*
X151626428Y-106626809D01*
X151747380Y-106626809D01*
X151795761Y-106651000D01*
X151819952Y-106675190D01*
X151844142Y-106723571D01*
X151844142Y-106771952D01*
X151819952Y-106844523D01*
X151529666Y-107134809D01*
X151844142Y-107134809D01*
D10*
X147290285Y-102284619D02*
X146709714Y-102284619D01*
X147000000Y-102284619D02*
X147000000Y-101268619D01*
X146903238Y-101413761D01*
X146806476Y-101510523D01*
X146709714Y-101558904D01*
%TO.C,P3*%
D16*
X151070047Y-115134809D02*
X151070047Y-114626809D01*
X151263571Y-114626809D01*
X151311952Y-114651000D01*
X151336142Y-114675190D01*
X151360333Y-114723571D01*
X151360333Y-114796142D01*
X151336142Y-114844523D01*
X151311952Y-114868714D01*
X151263571Y-114892904D01*
X151070047Y-114892904D01*
X151529666Y-114626809D02*
X151844142Y-114626809D01*
X151674809Y-114820333D01*
X151747380Y-114820333D01*
X151795761Y-114844523D01*
X151819952Y-114868714D01*
X151844142Y-114917095D01*
X151844142Y-115038047D01*
X151819952Y-115086428D01*
X151795761Y-115110619D01*
X151747380Y-115134809D01*
X151602238Y-115134809D01*
X151553857Y-115110619D01*
X151529666Y-115086428D01*
D10*
X146709714Y-109365380D02*
X146758095Y-109317000D01*
X146854857Y-109268619D01*
X147096761Y-109268619D01*
X147193523Y-109317000D01*
X147241904Y-109365380D01*
X147290285Y-109462142D01*
X147290285Y-109558904D01*
X147241904Y-109704047D01*
X146661333Y-110284619D01*
X147290285Y-110284619D01*
%TO.C,P4*%
D16*
X151070047Y-123134809D02*
X151070047Y-122626809D01*
X151263571Y-122626809D01*
X151311952Y-122651000D01*
X151336142Y-122675190D01*
X151360333Y-122723571D01*
X151360333Y-122796142D01*
X151336142Y-122844523D01*
X151311952Y-122868714D01*
X151263571Y-122892904D01*
X151070047Y-122892904D01*
X151795761Y-122796142D02*
X151795761Y-123134809D01*
X151674809Y-122602619D02*
X151553857Y-122965476D01*
X151868333Y-122965476D01*
D10*
X146661333Y-117268619D02*
X147290285Y-117268619D01*
X146951619Y-117655666D01*
X147096761Y-117655666D01*
X147193523Y-117704047D01*
X147241904Y-117752428D01*
X147290285Y-117849190D01*
X147290285Y-118091095D01*
X147241904Y-118187857D01*
X147193523Y-118236238D01*
X147096761Y-118284619D01*
X146806476Y-118284619D01*
X146709714Y-118236238D01*
X146661333Y-118187857D01*
%TO.C,P5*%
D16*
X164120047Y-99134809D02*
X164120047Y-98626809D01*
X164313571Y-98626809D01*
X164361952Y-98651000D01*
X164386142Y-98675190D01*
X164410333Y-98723571D01*
X164410333Y-98796142D01*
X164386142Y-98844523D01*
X164361952Y-98868714D01*
X164313571Y-98892904D01*
X164120047Y-98892904D01*
X164869952Y-98626809D02*
X164628047Y-98626809D01*
X164603857Y-98868714D01*
X164628047Y-98844523D01*
X164676428Y-98820333D01*
X164797380Y-98820333D01*
X164845761Y-98844523D01*
X164869952Y-98868714D01*
X164894142Y-98917095D01*
X164894142Y-99038047D01*
X164869952Y-99086428D01*
X164845761Y-99110619D01*
X164797380Y-99134809D01*
X164676428Y-99134809D01*
X164628047Y-99110619D01*
X164603857Y-99086428D01*
D10*
X160243523Y-93607285D02*
X160243523Y-94284619D01*
X160001619Y-93220238D02*
X159759714Y-93945952D01*
X160388666Y-93945952D01*
%TO.C,P6*%
D16*
X164070047Y-107134809D02*
X164070047Y-106626809D01*
X164263571Y-106626809D01*
X164311952Y-106651000D01*
X164336142Y-106675190D01*
X164360333Y-106723571D01*
X164360333Y-106796142D01*
X164336142Y-106844523D01*
X164311952Y-106868714D01*
X164263571Y-106892904D01*
X164070047Y-106892904D01*
X164795761Y-106626809D02*
X164699000Y-106626809D01*
X164650619Y-106651000D01*
X164626428Y-106675190D01*
X164578047Y-106747761D01*
X164553857Y-106844523D01*
X164553857Y-107038047D01*
X164578047Y-107086428D01*
X164602238Y-107110619D01*
X164650619Y-107134809D01*
X164747380Y-107134809D01*
X164795761Y-107110619D01*
X164819952Y-107086428D01*
X164844142Y-107038047D01*
X164844142Y-106917095D01*
X164819952Y-106868714D01*
X164795761Y-106844523D01*
X164747380Y-106820333D01*
X164650619Y-106820333D01*
X164602238Y-106844523D01*
X164578047Y-106868714D01*
X164553857Y-106917095D01*
D10*
X160241904Y-101268619D02*
X159758095Y-101268619D01*
X159709714Y-101752428D01*
X159758095Y-101704047D01*
X159854857Y-101655666D01*
X160096761Y-101655666D01*
X160193523Y-101704047D01*
X160241904Y-101752428D01*
X160290285Y-101849190D01*
X160290285Y-102091095D01*
X160241904Y-102187857D01*
X160193523Y-102236238D01*
X160096761Y-102284619D01*
X159854857Y-102284619D01*
X159758095Y-102236238D01*
X159709714Y-102187857D01*
%TO.C,P7*%
D16*
X164070047Y-115134809D02*
X164070047Y-114626809D01*
X164263571Y-114626809D01*
X164311952Y-114651000D01*
X164336142Y-114675190D01*
X164360333Y-114723571D01*
X164360333Y-114796142D01*
X164336142Y-114844523D01*
X164311952Y-114868714D01*
X164263571Y-114892904D01*
X164070047Y-114892904D01*
X164529666Y-114626809D02*
X164868333Y-114626809D01*
X164650619Y-115134809D01*
D10*
X160193523Y-109268619D02*
X160000000Y-109268619D01*
X159903238Y-109317000D01*
X159854857Y-109365380D01*
X159758095Y-109510523D01*
X159709714Y-109704047D01*
X159709714Y-110091095D01*
X159758095Y-110187857D01*
X159806476Y-110236238D01*
X159903238Y-110284619D01*
X160096761Y-110284619D01*
X160193523Y-110236238D01*
X160241904Y-110187857D01*
X160290285Y-110091095D01*
X160290285Y-109849190D01*
X160241904Y-109752428D01*
X160193523Y-109704047D01*
X160096761Y-109655666D01*
X159903238Y-109655666D01*
X159806476Y-109704047D01*
X159758095Y-109752428D01*
X159709714Y-109849190D01*
%TO.C,P8*%
D16*
X164070047Y-123134809D02*
X164070047Y-122626809D01*
X164263571Y-122626809D01*
X164311952Y-122651000D01*
X164336142Y-122675190D01*
X164360333Y-122723571D01*
X164360333Y-122796142D01*
X164336142Y-122844523D01*
X164311952Y-122868714D01*
X164263571Y-122892904D01*
X164070047Y-122892904D01*
X164650619Y-122844523D02*
X164602238Y-122820333D01*
X164578047Y-122796142D01*
X164553857Y-122747761D01*
X164553857Y-122723571D01*
X164578047Y-122675190D01*
X164602238Y-122651000D01*
X164650619Y-122626809D01*
X164747380Y-122626809D01*
X164795761Y-122651000D01*
X164819952Y-122675190D01*
X164844142Y-122723571D01*
X164844142Y-122747761D01*
X164819952Y-122796142D01*
X164795761Y-122820333D01*
X164747380Y-122844523D01*
X164650619Y-122844523D01*
X164602238Y-122868714D01*
X164578047Y-122892904D01*
X164553857Y-122941285D01*
X164553857Y-123038047D01*
X164578047Y-123086428D01*
X164602238Y-123110619D01*
X164650619Y-123134809D01*
X164747380Y-123134809D01*
X164795761Y-123110619D01*
X164819952Y-123086428D01*
X164844142Y-123038047D01*
X164844142Y-122941285D01*
X164819952Y-122892904D01*
X164795761Y-122868714D01*
X164747380Y-122844523D01*
D10*
X159661333Y-117268619D02*
X160338666Y-117268619D01*
X159903238Y-118284619D01*
%TO.C,P9*%
D16*
X177070047Y-99134809D02*
X177070047Y-98626809D01*
X177263571Y-98626809D01*
X177311952Y-98651000D01*
X177336142Y-98675190D01*
X177360333Y-98723571D01*
X177360333Y-98796142D01*
X177336142Y-98844523D01*
X177311952Y-98868714D01*
X177263571Y-98892904D01*
X177070047Y-98892904D01*
X177602238Y-99134809D02*
X177699000Y-99134809D01*
X177747380Y-99110619D01*
X177771571Y-99086428D01*
X177819952Y-99013857D01*
X177844142Y-98917095D01*
X177844142Y-98723571D01*
X177819952Y-98675190D01*
X177795761Y-98651000D01*
X177747380Y-98626809D01*
X177650619Y-98626809D01*
X177602238Y-98651000D01*
X177578047Y-98675190D01*
X177553857Y-98723571D01*
X177553857Y-98844523D01*
X177578047Y-98892904D01*
X177602238Y-98917095D01*
X177650619Y-98941285D01*
X177747380Y-98941285D01*
X177795761Y-98917095D01*
X177819952Y-98892904D01*
X177844142Y-98844523D01*
D10*
X172903238Y-93704047D02*
X172806476Y-93655666D01*
X172758095Y-93607285D01*
X172709714Y-93510523D01*
X172709714Y-93462142D01*
X172758095Y-93365380D01*
X172806476Y-93317000D01*
X172903238Y-93268619D01*
X173096761Y-93268619D01*
X173193523Y-93317000D01*
X173241904Y-93365380D01*
X173290285Y-93462142D01*
X173290285Y-93510523D01*
X173241904Y-93607285D01*
X173193523Y-93655666D01*
X173096761Y-93704047D01*
X172903238Y-93704047D01*
X172806476Y-93752428D01*
X172758095Y-93800809D01*
X172709714Y-93897571D01*
X172709714Y-94091095D01*
X172758095Y-94187857D01*
X172806476Y-94236238D01*
X172903238Y-94284619D01*
X173096761Y-94284619D01*
X173193523Y-94236238D01*
X173241904Y-94187857D01*
X173290285Y-94091095D01*
X173290285Y-93897571D01*
X173241904Y-93800809D01*
X173193523Y-93752428D01*
X173096761Y-93704047D01*
%TO.C,P10*%
D16*
X176828142Y-107134809D02*
X176828142Y-106626809D01*
X177021666Y-106626809D01*
X177070047Y-106651000D01*
X177094238Y-106675190D01*
X177118428Y-106723571D01*
X177118428Y-106796142D01*
X177094238Y-106844523D01*
X177070047Y-106868714D01*
X177021666Y-106892904D01*
X176828142Y-106892904D01*
X177602238Y-107134809D02*
X177311952Y-107134809D01*
X177457095Y-107134809D02*
X177457095Y-106626809D01*
X177408714Y-106699380D01*
X177360333Y-106747761D01*
X177311952Y-106771952D01*
X177916714Y-106626809D02*
X177965095Y-106626809D01*
X178013476Y-106651000D01*
X178037666Y-106675190D01*
X178061857Y-106723571D01*
X178086047Y-106820333D01*
X178086047Y-106941285D01*
X178061857Y-107038047D01*
X178037666Y-107086428D01*
X178013476Y-107110619D01*
X177965095Y-107134809D01*
X177916714Y-107134809D01*
X177868333Y-107110619D01*
X177844142Y-107086428D01*
X177819952Y-107038047D01*
X177795761Y-106941285D01*
X177795761Y-106820333D01*
X177819952Y-106723571D01*
X177844142Y-106675190D01*
X177868333Y-106651000D01*
X177916714Y-106626809D01*
D10*
X172806476Y-102284619D02*
X173000000Y-102284619D01*
X173096761Y-102236238D01*
X173145142Y-102187857D01*
X173241904Y-102042714D01*
X173290285Y-101849190D01*
X173290285Y-101462142D01*
X173241904Y-101365380D01*
X173193523Y-101317000D01*
X173096761Y-101268619D01*
X172903238Y-101268619D01*
X172806476Y-101317000D01*
X172758095Y-101365380D01*
X172709714Y-101462142D01*
X172709714Y-101704047D01*
X172758095Y-101800809D01*
X172806476Y-101849190D01*
X172903238Y-101897571D01*
X173096761Y-101897571D01*
X173193523Y-101849190D01*
X173241904Y-101800809D01*
X173290285Y-101704047D01*
%TO.C,P11*%
D16*
X176828142Y-115134809D02*
X176828142Y-114626809D01*
X177021666Y-114626809D01*
X177070047Y-114651000D01*
X177094238Y-114675190D01*
X177118428Y-114723571D01*
X177118428Y-114796142D01*
X177094238Y-114844523D01*
X177070047Y-114868714D01*
X177021666Y-114892904D01*
X176828142Y-114892904D01*
X177602238Y-115134809D02*
X177311952Y-115134809D01*
X177457095Y-115134809D02*
X177457095Y-114626809D01*
X177408714Y-114699380D01*
X177360333Y-114747761D01*
X177311952Y-114771952D01*
X178086047Y-115134809D02*
X177795761Y-115134809D01*
X177940904Y-115134809D02*
X177940904Y-114626809D01*
X177892523Y-114699380D01*
X177844142Y-114747761D01*
X177795761Y-114771952D01*
D10*
X172806476Y-110284619D02*
X172225904Y-110284619D01*
X172516190Y-110284619D02*
X172516190Y-109268619D01*
X172419428Y-109413761D01*
X172322666Y-109510523D01*
X172225904Y-109558904D01*
X173435428Y-109268619D02*
X173532190Y-109268619D01*
X173628952Y-109317000D01*
X173677333Y-109365380D01*
X173725714Y-109462142D01*
X173774095Y-109655666D01*
X173774095Y-109897571D01*
X173725714Y-110091095D01*
X173677333Y-110187857D01*
X173628952Y-110236238D01*
X173532190Y-110284619D01*
X173435428Y-110284619D01*
X173338666Y-110236238D01*
X173290285Y-110187857D01*
X173241904Y-110091095D01*
X173193523Y-109897571D01*
X173193523Y-109655666D01*
X173241904Y-109462142D01*
X173290285Y-109365380D01*
X173338666Y-109317000D01*
X173435428Y-109268619D01*
%TO.C,P12*%
D16*
X176828142Y-123134809D02*
X176828142Y-122626809D01*
X177021666Y-122626809D01*
X177070047Y-122651000D01*
X177094238Y-122675190D01*
X177118428Y-122723571D01*
X177118428Y-122796142D01*
X177094238Y-122844523D01*
X177070047Y-122868714D01*
X177021666Y-122892904D01*
X176828142Y-122892904D01*
X177602238Y-123134809D02*
X177311952Y-123134809D01*
X177457095Y-123134809D02*
X177457095Y-122626809D01*
X177408714Y-122699380D01*
X177360333Y-122747761D01*
X177311952Y-122771952D01*
X177795761Y-122675190D02*
X177819952Y-122651000D01*
X177868333Y-122626809D01*
X177989285Y-122626809D01*
X178037666Y-122651000D01*
X178061857Y-122675190D01*
X178086047Y-122723571D01*
X178086047Y-122771952D01*
X178061857Y-122844523D01*
X177771571Y-123134809D01*
X178086047Y-123134809D01*
D10*
X172806476Y-118284619D02*
X172225904Y-118284619D01*
X172516190Y-118284619D02*
X172516190Y-117268619D01*
X172419428Y-117413761D01*
X172322666Y-117510523D01*
X172225904Y-117558904D01*
X173774095Y-118284619D02*
X173193523Y-118284619D01*
X173483809Y-118284619D02*
X173483809Y-117268619D01*
X173387047Y-117413761D01*
X173290285Y-117510523D01*
X173193523Y-117558904D01*
%TD*%
%LPC*%
D17*
%TO.C,TEENSY1*%
X167620000Y-67050000D03*
X167620000Y-89910000D03*
X167620000Y-87370000D03*
X167620000Y-77210000D03*
X167620000Y-79750000D03*
X167620000Y-69590000D03*
X167620000Y-74670000D03*
X167620000Y-84830000D03*
X167620000Y-82290000D03*
X167620000Y-72130000D03*
X152380000Y-67050000D03*
X152380000Y-89910000D03*
X152380000Y-87370000D03*
X152380000Y-77210000D03*
X152380000Y-84830000D03*
X152380000Y-72130000D03*
X152380000Y-79750000D03*
X152380000Y-82290000D03*
X152380000Y-69590000D03*
X152380000Y-74670000D03*
X167620000Y-31490000D03*
X167620000Y-34030000D03*
X167620000Y-36570000D03*
X167620000Y-39110000D03*
X167620000Y-41650000D03*
X167620000Y-44190000D03*
X167620000Y-46730000D03*
X167620000Y-49270000D03*
X167620000Y-51810000D03*
X167620000Y-54350000D03*
X167620000Y-56890000D03*
X167620000Y-59430000D03*
X167620000Y-61970000D03*
X167620000Y-64510000D03*
X152380000Y-64510000D03*
X152380000Y-61970000D03*
X152380000Y-59430000D03*
X152380000Y-56890000D03*
X152380000Y-54350000D03*
X152380000Y-51810000D03*
X152380000Y-49270000D03*
X152380000Y-46730000D03*
X152380000Y-44190000D03*
X152380000Y-41650000D03*
X152380000Y-39110000D03*
X152380000Y-36570000D03*
X152380000Y-34030000D03*
D18*
X152380000Y-31490000D03*
%TD*%
D19*
%TO.C,P1*%
X144250000Y-98400000D03*
X144250000Y-95600000D03*
X149750000Y-95600000D03*
X149750000Y-98400000D03*
D20*
X145250000Y-98400000D03*
X145750000Y-95600000D03*
X146250000Y-98400000D03*
X146750000Y-95600000D03*
X147250000Y-98400000D03*
X147750000Y-95600000D03*
X148250000Y-98400000D03*
X148750000Y-95600000D03*
%TD*%
D19*
%TO.C,P2*%
X144250000Y-106400000D03*
X144250000Y-103600000D03*
X149750000Y-103600000D03*
X149750000Y-106400000D03*
D20*
X145250000Y-106400000D03*
X145750000Y-103600000D03*
X146250000Y-106400000D03*
X146750000Y-103600000D03*
X147250000Y-106400000D03*
X147750000Y-103600000D03*
X148250000Y-106400000D03*
X148750000Y-103600000D03*
%TD*%
D19*
%TO.C,P3*%
X144250000Y-114400000D03*
X144250000Y-111600000D03*
X149750000Y-111600000D03*
X149750000Y-114400000D03*
D20*
X145250000Y-114400000D03*
X145750000Y-111600000D03*
X146250000Y-114400000D03*
X146750000Y-111600000D03*
X147250000Y-114400000D03*
X147750000Y-111600000D03*
X148250000Y-114400000D03*
X148750000Y-111600000D03*
%TD*%
D19*
%TO.C,P4*%
X144250000Y-122400000D03*
X144250000Y-119600000D03*
X149750000Y-119600000D03*
X149750000Y-122400000D03*
D20*
X145250000Y-122400000D03*
X145750000Y-119600000D03*
X146250000Y-122400000D03*
X146750000Y-119600000D03*
X147250000Y-122400000D03*
X147750000Y-119600000D03*
X148250000Y-122400000D03*
X148750000Y-119600000D03*
%TD*%
D19*
%TO.C,P5*%
X157300000Y-98400000D03*
X157300000Y-95600000D03*
X162800000Y-95600000D03*
X162800000Y-98400000D03*
D20*
X158300000Y-98400000D03*
X158800000Y-95600000D03*
X159300000Y-98400000D03*
X159800000Y-95600000D03*
X160300000Y-98400000D03*
X160800000Y-95600000D03*
X161300000Y-98400000D03*
X161800000Y-95600000D03*
%TD*%
D19*
%TO.C,P6*%
X157250000Y-106400000D03*
X157250000Y-103600000D03*
X162750000Y-103600000D03*
X162750000Y-106400000D03*
D20*
X158250000Y-106400000D03*
X158750000Y-103600000D03*
X159250000Y-106400000D03*
X159750000Y-103600000D03*
X160250000Y-106400000D03*
X160750000Y-103600000D03*
X161250000Y-106400000D03*
X161750000Y-103600000D03*
%TD*%
D19*
%TO.C,P7*%
X157250000Y-114400000D03*
X157250000Y-111600000D03*
X162750000Y-111600000D03*
X162750000Y-114400000D03*
D20*
X158250000Y-114400000D03*
X158750000Y-111600000D03*
X159250000Y-114400000D03*
X159750000Y-111600000D03*
X160250000Y-114400000D03*
X160750000Y-111600000D03*
X161250000Y-114400000D03*
X161750000Y-111600000D03*
%TD*%
D19*
%TO.C,P8*%
X157250000Y-122400000D03*
X157250000Y-119600000D03*
X162750000Y-119600000D03*
X162750000Y-122400000D03*
D20*
X158250000Y-122400000D03*
X158750000Y-119600000D03*
X159250000Y-122400000D03*
X159750000Y-119600000D03*
X160250000Y-122400000D03*
X160750000Y-119600000D03*
X161250000Y-122400000D03*
X161750000Y-119600000D03*
%TD*%
D19*
%TO.C,P9*%
X170250000Y-98400000D03*
X170250000Y-95600000D03*
X175750000Y-95600000D03*
X175750000Y-98400000D03*
D20*
X171250000Y-98400000D03*
X171750000Y-95600000D03*
X172250000Y-98400000D03*
X172750000Y-95600000D03*
X173250000Y-98400000D03*
X173750000Y-95600000D03*
X174250000Y-98400000D03*
X174750000Y-95600000D03*
%TD*%
D19*
%TO.C,P10*%
X170250000Y-106400000D03*
X170250000Y-103600000D03*
X175750000Y-103600000D03*
X175750000Y-106400000D03*
D20*
X171250000Y-106400000D03*
X171750000Y-103600000D03*
X172250000Y-106400000D03*
X172750000Y-103600000D03*
X173250000Y-106400000D03*
X173750000Y-103600000D03*
X174250000Y-106400000D03*
X174750000Y-103600000D03*
%TD*%
D19*
%TO.C,P11*%
X170250000Y-114400000D03*
X170250000Y-111600000D03*
X175750000Y-111600000D03*
X175750000Y-114400000D03*
D20*
X171250000Y-114400000D03*
X171750000Y-111600000D03*
X172250000Y-114400000D03*
X172750000Y-111600000D03*
X173250000Y-114400000D03*
X173750000Y-111600000D03*
X174250000Y-114400000D03*
X174750000Y-111600000D03*
%TD*%
D19*
%TO.C,P12*%
X170250000Y-122400000D03*
X170250000Y-119600000D03*
X175750000Y-119600000D03*
X175750000Y-122400000D03*
D20*
X171250000Y-122400000D03*
X171750000Y-119600000D03*
X172250000Y-122400000D03*
X172750000Y-119600000D03*
X173250000Y-122400000D03*
X173750000Y-119600000D03*
X174250000Y-122400000D03*
X174750000Y-119600000D03*
%TD*%
D21*
%TO.C,FID1*%
X140000000Y-35000000D03*
%TD*%
%TO.C,FID2*%
X180000000Y-35000000D03*
%TD*%
%TO.C,FID3*%
X180000000Y-123000000D03*
%TD*%
%TO.C,FID4*%
X140000000Y-123000000D03*
%TD*%
D22*
%TO.C,MH1*%
X142000000Y-32000000D03*
%TD*%
%TO.C,MH2*%
X178000000Y-32000000D03*
%TD*%
%TO.C,MH3*%
X178000000Y-126000000D03*
%TD*%
%TO.C,MH4*%
X142000000Y-126000000D03*
%TD*%
M02*
