M48
; DRILL file {KiCad 5.1.10-88a1d61d58~88~ubuntu20.10.1} date Fri May 14 12:57:52 2021
; FORMAT={2:4/ absolute / inch / keep zeros}
; #@! TF.CreationDate,2021-05-14T12:57:52-04:00
; #@! TF.GenerationSoftware,Kicad,Pcbnew,5.1.10-88a1d61d58~88~ubuntu20.10.1
FMAT,2
INCH
T1C0.0240
T2C0.0610
T3C0.1300
%
G90
G05
T1
X056919Y-040229
X057185Y-045680
X057319Y-040191
X057389Y-037093
X057403Y-046071
X057452Y-043397
X057867Y-043399
X057888Y-046056
X058334Y-039532
X058350Y-045584
X058563Y-043337
X058715Y-037096
X058816Y-042445
X058849Y-040155
X058931Y-024900
X059711Y-046356
X060031Y-045150
X060250Y-046047
X061282Y-048080
X061984Y-042670
X062030Y-046541
X062534Y-046551
X062570Y-037093
X062771Y-039511
X062899Y-040245
X062917Y-043382
X063011Y-037093
X063221Y-046540
X063293Y-043124
X063484Y-042427
X063592Y-039530
X064392Y-023422
X064499Y-042075
X064644Y-046478
X064816Y-038158
X065191Y-047085
X067301Y-038203
X067618Y-046077
X067625Y-043398
X067643Y-039599
X067814Y-036595
X068012Y-039880
X068026Y-045718
X068122Y-037095
X068123Y-043352
X068125Y-039276
X068209Y-042502
X068503Y-045634
X068525Y-039276
X068553Y-046324
X068905Y-042416
X069276Y-039953
T2
X059992Y-012398
X059992Y-013398
X059992Y-014398
X059992Y-015398
X059992Y-016398
X059992Y-017398
X059992Y-018398
X059992Y-019398
X059992Y-020398
X059992Y-021398
X059992Y-022398
X059992Y-023398
X059992Y-024398
X059992Y-025398
X059992Y-026398
X059992Y-027398
X059992Y-028398
X059992Y-029398
X059992Y-030398
X059992Y-031398
X059992Y-032398
X059992Y-033398
X059992Y-034398
X059992Y-035398
X065992Y-012398
X065992Y-013398
X065992Y-014398
X065992Y-015398
X065992Y-016398
X065992Y-017398
X065992Y-018398
X065992Y-019398
X065992Y-020398
X065992Y-021398
X065992Y-022398
X065992Y-023398
X065992Y-024398
X065992Y-025398
X065992Y-026398
X065992Y-027398
X065992Y-028398
X065992Y-029398
X065992Y-030398
X065992Y-031398
X065992Y-032398
X065992Y-033398
X065992Y-034398
X065992Y-035398
T3
X055906Y-012598
X055906Y-049606
X070079Y-012598
X070079Y-049606
T0
M30
