%FSLAX45Y45*%
G04 Gerber Fmt 4.5, Leading zero omitted, Abs format (unit mm)*
G04 Created by KiCad (PCBNEW 5.1.10-88a1d61d58~88~ubuntu20.10.1) date 2021-05-14 12:57:54*
%MOMM*%
%LPD*%
G01*
G04 APERTURE LIST*
%TA.AperFunction,Profile*%
%ADD10C,0.050000*%
%TD*%
%ADD11C,0.200000*%
%ADD12C,0.300000*%
G04 APERTURE END LIST*
D10*
X13900000Y-12600000D02*
X13900000Y-3200000D01*
X18100000Y-3200000D02*
X18100000Y-12600000D01*
X17800000Y-2900000D02*
X14200000Y-2900000D01*
X17800000Y-2900000D02*
G75*
G02*
X18100000Y-3200000I0J-300000D01*
G01*
X18100000Y-12600000D02*
G75*
G02*
X17800000Y-12900000I-300000J0D01*
G01*
X14200000Y-12900000D02*
X17800000Y-12900000D01*
X14200000Y-12900000D02*
G75*
G02*
X13900000Y-12600000I0J300000D01*
G01*
X13900000Y-3200000D02*
G75*
G02*
X14200000Y-2900000I300000J0D01*
G01*
D11*
X14426910Y-10187770D02*
X14487870Y-10248730D01*
X14487870Y-10187770D02*
X14426910Y-10248730D01*
X14494520Y-11572260D02*
X14555480Y-11633220D01*
X14555480Y-11572260D02*
X14494520Y-11633220D01*
X14528550Y-10178000D02*
X14589510Y-10238960D01*
X14589510Y-10178000D02*
X14528550Y-10238960D01*
X14546360Y-9391260D02*
X14607320Y-9452220D01*
X14607320Y-9391260D02*
X14546360Y-9452220D01*
X14550000Y-11671660D02*
X14610960Y-11732620D01*
X14610960Y-11671660D02*
X14550000Y-11732620D01*
X14562290Y-10992240D02*
X14623250Y-11053200D01*
X14623250Y-10992240D02*
X14562290Y-11053200D01*
X14667770Y-10992830D02*
X14728730Y-11053790D01*
X14728730Y-10992830D02*
X14667770Y-11053790D01*
X14673160Y-11667680D02*
X14734120Y-11728640D01*
X14734120Y-11667680D02*
X14673160Y-11728640D01*
X14786350Y-10010680D02*
X14847310Y-10071640D01*
X14847310Y-10010680D02*
X14786350Y-10071640D01*
X14790420Y-11547820D02*
X14851380Y-11608780D01*
X14851380Y-11547820D02*
X14790420Y-11608780D01*
X14844520Y-10977120D02*
X14905480Y-11038080D01*
X14905480Y-10977120D02*
X14844520Y-11038080D01*
X14883210Y-9391880D02*
X14944170Y-9452840D01*
X14944170Y-9391880D02*
X14883210Y-9452840D01*
X14908850Y-10750540D02*
X14969810Y-10811500D01*
X14969810Y-10750540D02*
X14908850Y-10811500D01*
X14917130Y-10168790D02*
X14978090Y-10229750D01*
X14978090Y-10168790D02*
X14917130Y-10229750D01*
X14938000Y-6294090D02*
X14998960Y-6355050D01*
X14998960Y-6294090D02*
X14938000Y-6355050D01*
X15136000Y-11744010D02*
X15196960Y-11804970D01*
X15196960Y-11744010D02*
X15136000Y-11804970D01*
X15217420Y-11437710D02*
X15278380Y-11498670D01*
X15278380Y-11437710D02*
X15217420Y-11498670D01*
X15272970Y-11665350D02*
X15333930Y-11726310D01*
X15333930Y-11665350D02*
X15272970Y-11726310D01*
X15535140Y-12181900D02*
X15596100Y-12242860D01*
X15596100Y-12181900D02*
X15535140Y-12242860D01*
X15713580Y-10807710D02*
X15774540Y-10868670D01*
X15774540Y-10807710D02*
X15713580Y-10868670D01*
X15725040Y-11790840D02*
X15786000Y-11851800D01*
X15786000Y-11790840D02*
X15725040Y-11851800D01*
X15853260Y-11793440D02*
X15914220Y-11854400D01*
X15914220Y-11793440D02*
X15853260Y-11854400D01*
X15862190Y-9391260D02*
X15923150Y-9452220D01*
X15923150Y-9391260D02*
X15862190Y-9452220D01*
X15913320Y-10005410D02*
X15974280Y-10066370D01*
X15974280Y-10005410D02*
X15913320Y-10066370D01*
X15945980Y-10191720D02*
X16006940Y-10252680D01*
X16006940Y-10191720D02*
X15945980Y-10252680D01*
X15950470Y-10988500D02*
X16011430Y-11049460D01*
X16011430Y-10988500D02*
X15950470Y-11049460D01*
X15974250Y-9391260D02*
X16035210Y-9452220D01*
X16035210Y-9391260D02*
X15974250Y-9452220D01*
X16027730Y-11790690D02*
X16088690Y-11851650D01*
X16088690Y-11790690D02*
X16027730Y-11851650D01*
X16045820Y-10922890D02*
X16106780Y-10983850D01*
X16106780Y-10922890D02*
X16045820Y-10983850D01*
X16094520Y-10746010D02*
X16155480Y-10806970D01*
X16155480Y-10746010D02*
X16094520Y-10806970D01*
X16121780Y-10010160D02*
X16182740Y-10071120D01*
X16182740Y-10010160D02*
X16121780Y-10071120D01*
X16325110Y-5918780D02*
X16386070Y-5979740D01*
X16386070Y-5918780D02*
X16325110Y-5979740D01*
X16352280Y-10656560D02*
X16413240Y-10717520D01*
X16413240Y-10656560D02*
X16352280Y-10717520D01*
X16389040Y-11775020D02*
X16450000Y-11835980D01*
X16450000Y-11775020D02*
X16389040Y-11835980D01*
X16432750Y-9661580D02*
X16493710Y-9722540D01*
X16493710Y-9661580D02*
X16432750Y-9722540D01*
X16528100Y-11929060D02*
X16589060Y-11990020D01*
X16589060Y-11929060D02*
X16528100Y-11990020D01*
X17063850Y-9673200D02*
X17124810Y-9734160D01*
X17124810Y-9673200D02*
X17063850Y-9734160D01*
X17144520Y-11673030D02*
X17205480Y-11733990D01*
X17205480Y-11673030D02*
X17144520Y-11733990D01*
X17146360Y-10992490D02*
X17207320Y-11053450D01*
X17207320Y-10992490D02*
X17146360Y-11053450D01*
X17150890Y-10027680D02*
X17211850Y-10088640D01*
X17211850Y-10027680D02*
X17150890Y-10088640D01*
X17194290Y-9264580D02*
X17255250Y-9325540D01*
X17255250Y-9264580D02*
X17194290Y-9325540D01*
X17244520Y-10099120D02*
X17305480Y-10160080D01*
X17305480Y-10099120D02*
X17244520Y-10160080D01*
X17248220Y-11581910D02*
X17309180Y-11642870D01*
X17309180Y-11581910D02*
X17248220Y-11642870D01*
X17272470Y-9391610D02*
X17333430Y-9452570D01*
X17333430Y-9391610D02*
X17272470Y-9452570D01*
X17272820Y-10980990D02*
X17333780Y-11041950D01*
X17333780Y-10980990D02*
X17272820Y-11041950D01*
X17273290Y-9945690D02*
X17334250Y-10006650D01*
X17334250Y-9945690D02*
X17273290Y-10006650D01*
X17294520Y-10764960D02*
X17355480Y-10825920D01*
X17355480Y-10764960D02*
X17294520Y-10825920D01*
X17369350Y-11560510D02*
X17430310Y-11621470D01*
X17430310Y-11560510D02*
X17369350Y-11621470D01*
X17374930Y-9945690D02*
X17435890Y-10006650D01*
X17435890Y-9945690D02*
X17374930Y-10006650D01*
X17382080Y-11735940D02*
X17443040Y-11796900D01*
X17443040Y-11735940D02*
X17382080Y-11796900D01*
X17471360Y-10743270D02*
X17532320Y-10804230D01*
X17532320Y-10743270D02*
X17471360Y-10804230D01*
X17565540Y-10117470D02*
X17626500Y-10178430D01*
X17626500Y-10117470D02*
X17565540Y-10178430D01*
X15315470Y-3149000D02*
G75*
G03*
X15315470Y-3149000I-77470J0D01*
G01*
X15315470Y-3403000D02*
G75*
G03*
X15315470Y-3403000I-77470J0D01*
G01*
X15315470Y-3657000D02*
G75*
G03*
X15315470Y-3657000I-77470J0D01*
G01*
X15315470Y-3911000D02*
G75*
G03*
X15315470Y-3911000I-77470J0D01*
G01*
X15315470Y-4165000D02*
G75*
G03*
X15315470Y-4165000I-77470J0D01*
G01*
X15315470Y-4419000D02*
G75*
G03*
X15315470Y-4419000I-77470J0D01*
G01*
X15315470Y-4673000D02*
G75*
G03*
X15315470Y-4673000I-77470J0D01*
G01*
X15315470Y-4927000D02*
G75*
G03*
X15315470Y-4927000I-77470J0D01*
G01*
X15315470Y-5181000D02*
G75*
G03*
X15315470Y-5181000I-77470J0D01*
G01*
X15315470Y-5435000D02*
G75*
G03*
X15315470Y-5435000I-77470J0D01*
G01*
X15315470Y-5689000D02*
G75*
G03*
X15315470Y-5689000I-77470J0D01*
G01*
X15315470Y-5943000D02*
G75*
G03*
X15315470Y-5943000I-77470J0D01*
G01*
X15315470Y-6197000D02*
G75*
G03*
X15315470Y-6197000I-77470J0D01*
G01*
X15315470Y-6451000D02*
G75*
G03*
X15315470Y-6451000I-77470J0D01*
G01*
X15315470Y-6705000D02*
G75*
G03*
X15315470Y-6705000I-77470J0D01*
G01*
X15315470Y-6959000D02*
G75*
G03*
X15315470Y-6959000I-77470J0D01*
G01*
X15315470Y-7213000D02*
G75*
G03*
X15315470Y-7213000I-77470J0D01*
G01*
X15315470Y-7467000D02*
G75*
G03*
X15315470Y-7467000I-77470J0D01*
G01*
X15315470Y-7721000D02*
G75*
G03*
X15315470Y-7721000I-77470J0D01*
G01*
X15315470Y-7975000D02*
G75*
G03*
X15315470Y-7975000I-77470J0D01*
G01*
X15315470Y-8229000D02*
G75*
G03*
X15315470Y-8229000I-77470J0D01*
G01*
X15315470Y-8483000D02*
G75*
G03*
X15315470Y-8483000I-77470J0D01*
G01*
X15315470Y-8737000D02*
G75*
G03*
X15315470Y-8737000I-77470J0D01*
G01*
X15315470Y-8991000D02*
G75*
G03*
X15315470Y-8991000I-77470J0D01*
G01*
X16839470Y-3149000D02*
G75*
G03*
X16839470Y-3149000I-77470J0D01*
G01*
X16839470Y-3403000D02*
G75*
G03*
X16839470Y-3403000I-77470J0D01*
G01*
X16839470Y-3657000D02*
G75*
G03*
X16839470Y-3657000I-77470J0D01*
G01*
X16839470Y-3911000D02*
G75*
G03*
X16839470Y-3911000I-77470J0D01*
G01*
X16839470Y-4165000D02*
G75*
G03*
X16839470Y-4165000I-77470J0D01*
G01*
X16839470Y-4419000D02*
G75*
G03*
X16839470Y-4419000I-77470J0D01*
G01*
X16839470Y-4673000D02*
G75*
G03*
X16839470Y-4673000I-77470J0D01*
G01*
X16839470Y-4927000D02*
G75*
G03*
X16839470Y-4927000I-77470J0D01*
G01*
X16839470Y-5181000D02*
G75*
G03*
X16839470Y-5181000I-77470J0D01*
G01*
X16839470Y-5435000D02*
G75*
G03*
X16839470Y-5435000I-77470J0D01*
G01*
X16839470Y-5689000D02*
G75*
G03*
X16839470Y-5689000I-77470J0D01*
G01*
X16839470Y-5943000D02*
G75*
G03*
X16839470Y-5943000I-77470J0D01*
G01*
X16839470Y-6197000D02*
G75*
G03*
X16839470Y-6197000I-77470J0D01*
G01*
X16839470Y-6451000D02*
G75*
G03*
X16839470Y-6451000I-77470J0D01*
G01*
X16839470Y-6705000D02*
G75*
G03*
X16839470Y-6705000I-77470J0D01*
G01*
X16839470Y-6959000D02*
G75*
G03*
X16839470Y-6959000I-77470J0D01*
G01*
X16839470Y-7213000D02*
G75*
G03*
X16839470Y-7213000I-77470J0D01*
G01*
X16839470Y-7467000D02*
G75*
G03*
X16839470Y-7467000I-77470J0D01*
G01*
X16839470Y-7721000D02*
G75*
G03*
X16839470Y-7721000I-77470J0D01*
G01*
X16839470Y-7975000D02*
G75*
G03*
X16839470Y-7975000I-77470J0D01*
G01*
X16839470Y-8229000D02*
G75*
G03*
X16839470Y-8229000I-77470J0D01*
G01*
X16839470Y-8483000D02*
G75*
G03*
X16839470Y-8483000I-77470J0D01*
G01*
X16839470Y-8737000D02*
G75*
G03*
X16839470Y-8737000I-77470J0D01*
G01*
X16839470Y-8991000D02*
G75*
G03*
X16839470Y-8991000I-77470J0D01*
G01*
X14200000Y-3034900D02*
X14200000Y-3365100D01*
X14034900Y-3200000D02*
X14365100Y-3200000D01*
X14200000Y-12434900D02*
X14200000Y-12765100D01*
X14034900Y-12600000D02*
X14365100Y-12600000D01*
X17800000Y-3034900D02*
X17800000Y-3365100D01*
X17634900Y-3200000D02*
X17965100Y-3200000D01*
X17800000Y-12434900D02*
X17800000Y-12765100D01*
X17634900Y-12600000D02*
X17965100Y-12600000D01*
D12*
X14183928Y-13368214D02*
X14183928Y-13068214D01*
X14255357Y-13068214D01*
X14298214Y-13082500D01*
X14326786Y-13111071D01*
X14341071Y-13139643D01*
X14355357Y-13196786D01*
X14355357Y-13239643D01*
X14341071Y-13296786D01*
X14326786Y-13325357D01*
X14298214Y-13353929D01*
X14255357Y-13368214D01*
X14183928Y-13368214D01*
X14483928Y-13368214D02*
X14483928Y-13168214D01*
X14483928Y-13225357D02*
X14498214Y-13196786D01*
X14512500Y-13182500D01*
X14541071Y-13168214D01*
X14569643Y-13168214D01*
X14669643Y-13368214D02*
X14669643Y-13168214D01*
X14669643Y-13068214D02*
X14655357Y-13082500D01*
X14669643Y-13096786D01*
X14683928Y-13082500D01*
X14669643Y-13068214D01*
X14669643Y-13096786D01*
X14855357Y-13368214D02*
X14826786Y-13353929D01*
X14812500Y-13325357D01*
X14812500Y-13068214D01*
X15012500Y-13368214D02*
X14983928Y-13353929D01*
X14969643Y-13325357D01*
X14969643Y-13068214D01*
X15355357Y-13368214D02*
X15355357Y-13068214D01*
X15455357Y-13282500D01*
X15555357Y-13068214D01*
X15555357Y-13368214D01*
X15826786Y-13368214D02*
X15826786Y-13211071D01*
X15812500Y-13182500D01*
X15783928Y-13168214D01*
X15726786Y-13168214D01*
X15698214Y-13182500D01*
X15826786Y-13353929D02*
X15798214Y-13368214D01*
X15726786Y-13368214D01*
X15698214Y-13353929D01*
X15683928Y-13325357D01*
X15683928Y-13296786D01*
X15698214Y-13268214D01*
X15726786Y-13253929D01*
X15798214Y-13253929D01*
X15826786Y-13239643D01*
X15969643Y-13168214D02*
X15969643Y-13468214D01*
X15969643Y-13182500D02*
X15998214Y-13168214D01*
X16055357Y-13168214D01*
X16083928Y-13182500D01*
X16098214Y-13196786D01*
X16112500Y-13225357D01*
X16112500Y-13311071D01*
X16098214Y-13339643D01*
X16083928Y-13353929D01*
X16055357Y-13368214D01*
X15998214Y-13368214D01*
X15969643Y-13353929D01*
X16241071Y-13339643D02*
X16255357Y-13353929D01*
X16241071Y-13368214D01*
X16226786Y-13353929D01*
X16241071Y-13339643D01*
X16241071Y-13368214D01*
X16241071Y-13182500D02*
X16255357Y-13196786D01*
X16241071Y-13211071D01*
X16226786Y-13196786D01*
X16241071Y-13182500D01*
X16241071Y-13211071D01*
X13836540Y-13832020D02*
X13897500Y-13892980D01*
X13897500Y-13832020D02*
X13836540Y-13892980D01*
X14241071Y-13698214D02*
X14269643Y-13698214D01*
X14298214Y-13712500D01*
X14312500Y-13726786D01*
X14326786Y-13755357D01*
X14341071Y-13812500D01*
X14341071Y-13883929D01*
X14326786Y-13941071D01*
X14312500Y-13969643D01*
X14298214Y-13983929D01*
X14269643Y-13998214D01*
X14241071Y-13998214D01*
X14212500Y-13983929D01*
X14198214Y-13969643D01*
X14183928Y-13941071D01*
X14169643Y-13883929D01*
X14169643Y-13812500D01*
X14183928Y-13755357D01*
X14198214Y-13726786D01*
X14212500Y-13712500D01*
X14241071Y-13698214D01*
X14469643Y-13969643D02*
X14483928Y-13983929D01*
X14469643Y-13998214D01*
X14455357Y-13983929D01*
X14469643Y-13969643D01*
X14469643Y-13998214D01*
X14741071Y-13698214D02*
X14683928Y-13698214D01*
X14655357Y-13712500D01*
X14641071Y-13726786D01*
X14612500Y-13769643D01*
X14598214Y-13826786D01*
X14598214Y-13941071D01*
X14612500Y-13969643D01*
X14626786Y-13983929D01*
X14655357Y-13998214D01*
X14712500Y-13998214D01*
X14741071Y-13983929D01*
X14755357Y-13969643D01*
X14769643Y-13941071D01*
X14769643Y-13869643D01*
X14755357Y-13841071D01*
X14741071Y-13826786D01*
X14712500Y-13812500D01*
X14655357Y-13812500D01*
X14626786Y-13826786D01*
X14612500Y-13841071D01*
X14598214Y-13869643D01*
X15055357Y-13998214D02*
X14883928Y-13998214D01*
X14969643Y-13998214D02*
X14969643Y-13698214D01*
X14941071Y-13741071D01*
X14912500Y-13769643D01*
X14883928Y-13783929D01*
X15241071Y-13698214D02*
X15269643Y-13698214D01*
X15298214Y-13712500D01*
X15312500Y-13726786D01*
X15326786Y-13755357D01*
X15341071Y-13812500D01*
X15341071Y-13883929D01*
X15326786Y-13941071D01*
X15312500Y-13969643D01*
X15298214Y-13983929D01*
X15269643Y-13998214D01*
X15241071Y-13998214D01*
X15212500Y-13983929D01*
X15198214Y-13969643D01*
X15183928Y-13941071D01*
X15169643Y-13883929D01*
X15169643Y-13812500D01*
X15183928Y-13755357D01*
X15198214Y-13726786D01*
X15212500Y-13712500D01*
X15241071Y-13698214D01*
X15469643Y-13998214D02*
X15469643Y-13798214D01*
X15469643Y-13826786D02*
X15483928Y-13812500D01*
X15512500Y-13798214D01*
X15555357Y-13798214D01*
X15583928Y-13812500D01*
X15598214Y-13841071D01*
X15598214Y-13998214D01*
X15598214Y-13841071D02*
X15612500Y-13812500D01*
X15641071Y-13798214D01*
X15683928Y-13798214D01*
X15712500Y-13812500D01*
X15726786Y-13841071D01*
X15726786Y-13998214D01*
X15869643Y-13998214D02*
X15869643Y-13798214D01*
X15869643Y-13826786D02*
X15883928Y-13812500D01*
X15912500Y-13798214D01*
X15955357Y-13798214D01*
X15983928Y-13812500D01*
X15998214Y-13841071D01*
X15998214Y-13998214D01*
X15998214Y-13841071D02*
X16012500Y-13812500D01*
X16041071Y-13798214D01*
X16083928Y-13798214D01*
X16112500Y-13812500D01*
X16126786Y-13841071D01*
X16126786Y-13998214D01*
X16712500Y-13683929D02*
X16455357Y-14069643D01*
X17098214Y-13698214D02*
X17126786Y-13698214D01*
X17155357Y-13712500D01*
X17169643Y-13726786D01*
X17183928Y-13755357D01*
X17198214Y-13812500D01*
X17198214Y-13883929D01*
X17183928Y-13941071D01*
X17169643Y-13969643D01*
X17155357Y-13983929D01*
X17126786Y-13998214D01*
X17098214Y-13998214D01*
X17069643Y-13983929D01*
X17055357Y-13969643D01*
X17041071Y-13941071D01*
X17026786Y-13883929D01*
X17026786Y-13812500D01*
X17041071Y-13755357D01*
X17055357Y-13726786D01*
X17069643Y-13712500D01*
X17098214Y-13698214D01*
X17326786Y-13969643D02*
X17341071Y-13983929D01*
X17326786Y-13998214D01*
X17312500Y-13983929D01*
X17326786Y-13969643D01*
X17326786Y-13998214D01*
X17526786Y-13698214D02*
X17555357Y-13698214D01*
X17583928Y-13712500D01*
X17598214Y-13726786D01*
X17612500Y-13755357D01*
X17626786Y-13812500D01*
X17626786Y-13883929D01*
X17612500Y-13941071D01*
X17598214Y-13969643D01*
X17583928Y-13983929D01*
X17555357Y-13998214D01*
X17526786Y-13998214D01*
X17498214Y-13983929D01*
X17483928Y-13969643D01*
X17469643Y-13941071D01*
X17455357Y-13883929D01*
X17455357Y-13812500D01*
X17469643Y-13755357D01*
X17483928Y-13726786D01*
X17498214Y-13712500D01*
X17526786Y-13698214D01*
X17741071Y-13726786D02*
X17755357Y-13712500D01*
X17783928Y-13698214D01*
X17855357Y-13698214D01*
X17883928Y-13712500D01*
X17898214Y-13726786D01*
X17912500Y-13755357D01*
X17912500Y-13783929D01*
X17898214Y-13826786D01*
X17726786Y-13998214D01*
X17912500Y-13998214D01*
X18169643Y-13798214D02*
X18169643Y-13998214D01*
X18098214Y-13683929D02*
X18026786Y-13898214D01*
X18212500Y-13898214D01*
X18383928Y-13698214D02*
X18412500Y-13698214D01*
X18441071Y-13712500D01*
X18455357Y-13726786D01*
X18469643Y-13755357D01*
X18483928Y-13812500D01*
X18483928Y-13883929D01*
X18469643Y-13941071D01*
X18455357Y-13969643D01*
X18441071Y-13983929D01*
X18412500Y-13998214D01*
X18383928Y-13998214D01*
X18355357Y-13983929D01*
X18341071Y-13969643D01*
X18326786Y-13941071D01*
X18312500Y-13883929D01*
X18312500Y-13812500D01*
X18326786Y-13755357D01*
X18341071Y-13726786D01*
X18355357Y-13712500D01*
X18383928Y-13698214D01*
X18598214Y-13698214D02*
X18598214Y-13755357D01*
X18712500Y-13698214D02*
X18712500Y-13755357D01*
X19155357Y-14112500D02*
X19141071Y-14098214D01*
X19112500Y-14055357D01*
X19098214Y-14026786D01*
X19083928Y-13983929D01*
X19069643Y-13912500D01*
X19069643Y-13855357D01*
X19083928Y-13783929D01*
X19098214Y-13741071D01*
X19112500Y-13712500D01*
X19141071Y-13669643D01*
X19155357Y-13655357D01*
X19412500Y-13698214D02*
X19269643Y-13698214D01*
X19255357Y-13841071D01*
X19269643Y-13826786D01*
X19298214Y-13812500D01*
X19369643Y-13812500D01*
X19398214Y-13826786D01*
X19412500Y-13841071D01*
X19426786Y-13869643D01*
X19426786Y-13941071D01*
X19412500Y-13969643D01*
X19398214Y-13983929D01*
X19369643Y-13998214D01*
X19298214Y-13998214D01*
X19269643Y-13983929D01*
X19255357Y-13969643D01*
X19541071Y-13726786D02*
X19555357Y-13712500D01*
X19583928Y-13698214D01*
X19655357Y-13698214D01*
X19683928Y-13712500D01*
X19698214Y-13726786D01*
X19712500Y-13755357D01*
X19712500Y-13783929D01*
X19698214Y-13826786D01*
X19526786Y-13998214D01*
X19712500Y-13998214D01*
X20069643Y-13998214D02*
X20069643Y-13698214D01*
X20198214Y-13998214D02*
X20198214Y-13841071D01*
X20183928Y-13812500D01*
X20155357Y-13798214D01*
X20112500Y-13798214D01*
X20083928Y-13812500D01*
X20069643Y-13826786D01*
X20383928Y-13998214D02*
X20355357Y-13983929D01*
X20341071Y-13969643D01*
X20326786Y-13941071D01*
X20326786Y-13855357D01*
X20341071Y-13826786D01*
X20355357Y-13812500D01*
X20383928Y-13798214D01*
X20426786Y-13798214D01*
X20455357Y-13812500D01*
X20469643Y-13826786D01*
X20483928Y-13855357D01*
X20483928Y-13941071D01*
X20469643Y-13969643D01*
X20455357Y-13983929D01*
X20426786Y-13998214D01*
X20383928Y-13998214D01*
X20655357Y-13998214D02*
X20626786Y-13983929D01*
X20612500Y-13955357D01*
X20612500Y-13698214D01*
X20883928Y-13983929D02*
X20855357Y-13998214D01*
X20798214Y-13998214D01*
X20769643Y-13983929D01*
X20755357Y-13955357D01*
X20755357Y-13841071D01*
X20769643Y-13812500D01*
X20798214Y-13798214D01*
X20855357Y-13798214D01*
X20883928Y-13812500D01*
X20898214Y-13841071D01*
X20898214Y-13869643D01*
X20755357Y-13898214D01*
X21012500Y-13983929D02*
X21041071Y-13998214D01*
X21098214Y-13998214D01*
X21126786Y-13983929D01*
X21141071Y-13955357D01*
X21141071Y-13941071D01*
X21126786Y-13912500D01*
X21098214Y-13898214D01*
X21055357Y-13898214D01*
X21026786Y-13883929D01*
X21012500Y-13855357D01*
X21012500Y-13841071D01*
X21026786Y-13812500D01*
X21055357Y-13798214D01*
X21098214Y-13798214D01*
X21126786Y-13812500D01*
X21241071Y-14112500D02*
X21255357Y-14098214D01*
X21283928Y-14055357D01*
X21298214Y-14026786D01*
X21312500Y-13983929D01*
X21326786Y-13912500D01*
X21326786Y-13855357D01*
X21312500Y-13783929D01*
X21298214Y-13741071D01*
X21283928Y-13712500D01*
X21255357Y-13669643D01*
X21241071Y-13655357D01*
X13897500Y-14258500D02*
G75*
G03*
X13897500Y-14258500I-77470J0D01*
G01*
X14341071Y-14394214D02*
X14169643Y-14394214D01*
X14255357Y-14394214D02*
X14255357Y-14094214D01*
X14226786Y-14137071D01*
X14198214Y-14165643D01*
X14169643Y-14179929D01*
X14469643Y-14365643D02*
X14483928Y-14379929D01*
X14469643Y-14394214D01*
X14455357Y-14379929D01*
X14469643Y-14365643D01*
X14469643Y-14394214D01*
X14755357Y-14094214D02*
X14612500Y-14094214D01*
X14598214Y-14237071D01*
X14612500Y-14222786D01*
X14641071Y-14208500D01*
X14712500Y-14208500D01*
X14741071Y-14222786D01*
X14755357Y-14237071D01*
X14769643Y-14265643D01*
X14769643Y-14337071D01*
X14755357Y-14365643D01*
X14741071Y-14379929D01*
X14712500Y-14394214D01*
X14641071Y-14394214D01*
X14612500Y-14379929D01*
X14598214Y-14365643D01*
X15026786Y-14194214D02*
X15026786Y-14394214D01*
X14955357Y-14079929D02*
X14883928Y-14294214D01*
X15069643Y-14294214D01*
X15198214Y-14394214D02*
X15255357Y-14394214D01*
X15283928Y-14379929D01*
X15298214Y-14365643D01*
X15326786Y-14322786D01*
X15341071Y-14265643D01*
X15341071Y-14151357D01*
X15326786Y-14122786D01*
X15312500Y-14108500D01*
X15283928Y-14094214D01*
X15226786Y-14094214D01*
X15198214Y-14108500D01*
X15183928Y-14122786D01*
X15169643Y-14151357D01*
X15169643Y-14222786D01*
X15183928Y-14251357D01*
X15198214Y-14265643D01*
X15226786Y-14279929D01*
X15283928Y-14279929D01*
X15312500Y-14265643D01*
X15326786Y-14251357D01*
X15341071Y-14222786D01*
X15469643Y-14394214D02*
X15469643Y-14194214D01*
X15469643Y-14222786D02*
X15483928Y-14208500D01*
X15512500Y-14194214D01*
X15555357Y-14194214D01*
X15583928Y-14208500D01*
X15598214Y-14237071D01*
X15598214Y-14394214D01*
X15598214Y-14237071D02*
X15612500Y-14208500D01*
X15641071Y-14194214D01*
X15683928Y-14194214D01*
X15712500Y-14208500D01*
X15726786Y-14237071D01*
X15726786Y-14394214D01*
X15869643Y-14394214D02*
X15869643Y-14194214D01*
X15869643Y-14222786D02*
X15883928Y-14208500D01*
X15912500Y-14194214D01*
X15955357Y-14194214D01*
X15983928Y-14208500D01*
X15998214Y-14237071D01*
X15998214Y-14394214D01*
X15998214Y-14237071D02*
X16012500Y-14208500D01*
X16041071Y-14194214D01*
X16083928Y-14194214D01*
X16112500Y-14208500D01*
X16126786Y-14237071D01*
X16126786Y-14394214D01*
X16712500Y-14079929D02*
X16455357Y-14465643D01*
X17098214Y-14094214D02*
X17126786Y-14094214D01*
X17155357Y-14108500D01*
X17169643Y-14122786D01*
X17183928Y-14151357D01*
X17198214Y-14208500D01*
X17198214Y-14279929D01*
X17183928Y-14337071D01*
X17169643Y-14365643D01*
X17155357Y-14379929D01*
X17126786Y-14394214D01*
X17098214Y-14394214D01*
X17069643Y-14379929D01*
X17055357Y-14365643D01*
X17041071Y-14337071D01*
X17026786Y-14279929D01*
X17026786Y-14208500D01*
X17041071Y-14151357D01*
X17055357Y-14122786D01*
X17069643Y-14108500D01*
X17098214Y-14094214D01*
X17326786Y-14365643D02*
X17341071Y-14379929D01*
X17326786Y-14394214D01*
X17312500Y-14379929D01*
X17326786Y-14365643D01*
X17326786Y-14394214D01*
X17526786Y-14094214D02*
X17555357Y-14094214D01*
X17583928Y-14108500D01*
X17598214Y-14122786D01*
X17612500Y-14151357D01*
X17626786Y-14208500D01*
X17626786Y-14279929D01*
X17612500Y-14337071D01*
X17598214Y-14365643D01*
X17583928Y-14379929D01*
X17555357Y-14394214D01*
X17526786Y-14394214D01*
X17498214Y-14379929D01*
X17483928Y-14365643D01*
X17469643Y-14337071D01*
X17455357Y-14279929D01*
X17455357Y-14208500D01*
X17469643Y-14151357D01*
X17483928Y-14122786D01*
X17498214Y-14108500D01*
X17526786Y-14094214D01*
X17883928Y-14094214D02*
X17826786Y-14094214D01*
X17798214Y-14108500D01*
X17783928Y-14122786D01*
X17755357Y-14165643D01*
X17741071Y-14222786D01*
X17741071Y-14337071D01*
X17755357Y-14365643D01*
X17769643Y-14379929D01*
X17798214Y-14394214D01*
X17855357Y-14394214D01*
X17883928Y-14379929D01*
X17898214Y-14365643D01*
X17912500Y-14337071D01*
X17912500Y-14265643D01*
X17898214Y-14237071D01*
X17883928Y-14222786D01*
X17855357Y-14208500D01*
X17798214Y-14208500D01*
X17769643Y-14222786D01*
X17755357Y-14237071D01*
X17741071Y-14265643D01*
X18198214Y-14394214D02*
X18026786Y-14394214D01*
X18112500Y-14394214D02*
X18112500Y-14094214D01*
X18083928Y-14137071D01*
X18055357Y-14165643D01*
X18026786Y-14179929D01*
X18383928Y-14094214D02*
X18412500Y-14094214D01*
X18441071Y-14108500D01*
X18455357Y-14122786D01*
X18469643Y-14151357D01*
X18483928Y-14208500D01*
X18483928Y-14279929D01*
X18469643Y-14337071D01*
X18455357Y-14365643D01*
X18441071Y-14379929D01*
X18412500Y-14394214D01*
X18383928Y-14394214D01*
X18355357Y-14379929D01*
X18341071Y-14365643D01*
X18326786Y-14337071D01*
X18312500Y-14279929D01*
X18312500Y-14208500D01*
X18326786Y-14151357D01*
X18341071Y-14122786D01*
X18355357Y-14108500D01*
X18383928Y-14094214D01*
X18598214Y-14094214D02*
X18598214Y-14151357D01*
X18712500Y-14094214D02*
X18712500Y-14151357D01*
X19155357Y-14508500D02*
X19141071Y-14494214D01*
X19112500Y-14451357D01*
X19098214Y-14422786D01*
X19083928Y-14379929D01*
X19069643Y-14308500D01*
X19069643Y-14251357D01*
X19083928Y-14179929D01*
X19098214Y-14137071D01*
X19112500Y-14108500D01*
X19141071Y-14065643D01*
X19155357Y-14051357D01*
X19398214Y-14194214D02*
X19398214Y-14394214D01*
X19326786Y-14079929D02*
X19255357Y-14294214D01*
X19441071Y-14294214D01*
X19598214Y-14222786D02*
X19569643Y-14208500D01*
X19555357Y-14194214D01*
X19541071Y-14165643D01*
X19541071Y-14151357D01*
X19555357Y-14122786D01*
X19569643Y-14108500D01*
X19598214Y-14094214D01*
X19655357Y-14094214D01*
X19683928Y-14108500D01*
X19698214Y-14122786D01*
X19712500Y-14151357D01*
X19712500Y-14165643D01*
X19698214Y-14194214D01*
X19683928Y-14208500D01*
X19655357Y-14222786D01*
X19598214Y-14222786D01*
X19569643Y-14237071D01*
X19555357Y-14251357D01*
X19541071Y-14279929D01*
X19541071Y-14337071D01*
X19555357Y-14365643D01*
X19569643Y-14379929D01*
X19598214Y-14394214D01*
X19655357Y-14394214D01*
X19683928Y-14379929D01*
X19698214Y-14365643D01*
X19712500Y-14337071D01*
X19712500Y-14279929D01*
X19698214Y-14251357D01*
X19683928Y-14237071D01*
X19655357Y-14222786D01*
X20069643Y-14394214D02*
X20069643Y-14094214D01*
X20198214Y-14394214D02*
X20198214Y-14237071D01*
X20183928Y-14208500D01*
X20155357Y-14194214D01*
X20112500Y-14194214D01*
X20083928Y-14208500D01*
X20069643Y-14222786D01*
X20383928Y-14394214D02*
X20355357Y-14379929D01*
X20341071Y-14365643D01*
X20326786Y-14337071D01*
X20326786Y-14251357D01*
X20341071Y-14222786D01*
X20355357Y-14208500D01*
X20383928Y-14194214D01*
X20426786Y-14194214D01*
X20455357Y-14208500D01*
X20469643Y-14222786D01*
X20483928Y-14251357D01*
X20483928Y-14337071D01*
X20469643Y-14365643D01*
X20455357Y-14379929D01*
X20426786Y-14394214D01*
X20383928Y-14394214D01*
X20655357Y-14394214D02*
X20626786Y-14379929D01*
X20612500Y-14351357D01*
X20612500Y-14094214D01*
X20883928Y-14379929D02*
X20855357Y-14394214D01*
X20798214Y-14394214D01*
X20769643Y-14379929D01*
X20755357Y-14351357D01*
X20755357Y-14237071D01*
X20769643Y-14208500D01*
X20798214Y-14194214D01*
X20855357Y-14194214D01*
X20883928Y-14208500D01*
X20898214Y-14237071D01*
X20898214Y-14265643D01*
X20755357Y-14294214D01*
X21012500Y-14379929D02*
X21041071Y-14394214D01*
X21098214Y-14394214D01*
X21126786Y-14379929D01*
X21141071Y-14351357D01*
X21141071Y-14337071D01*
X21126786Y-14308500D01*
X21098214Y-14294214D01*
X21055357Y-14294214D01*
X21026786Y-14279929D01*
X21012500Y-14251357D01*
X21012500Y-14237071D01*
X21026786Y-14208500D01*
X21055357Y-14194214D01*
X21098214Y-14194214D01*
X21126786Y-14208500D01*
X21241071Y-14508500D02*
X21255357Y-14494214D01*
X21283928Y-14451357D01*
X21298214Y-14422786D01*
X21312500Y-14379929D01*
X21326786Y-14308500D01*
X21326786Y-14251357D01*
X21312500Y-14179929D01*
X21298214Y-14137071D01*
X21283928Y-14108500D01*
X21255357Y-14065643D01*
X21241071Y-14051357D01*
X13732400Y-14489400D02*
X13732400Y-14819600D01*
X13567300Y-14654500D02*
X13897500Y-14654500D01*
X14155357Y-14490214D02*
X14341071Y-14490214D01*
X14241071Y-14604500D01*
X14283928Y-14604500D01*
X14312500Y-14618786D01*
X14326786Y-14633071D01*
X14341071Y-14661643D01*
X14341071Y-14733071D01*
X14326786Y-14761643D01*
X14312500Y-14775929D01*
X14283928Y-14790214D01*
X14198214Y-14790214D01*
X14169643Y-14775929D01*
X14155357Y-14761643D01*
X14469643Y-14761643D02*
X14483928Y-14775929D01*
X14469643Y-14790214D01*
X14455357Y-14775929D01*
X14469643Y-14761643D01*
X14469643Y-14790214D01*
X14583928Y-14490214D02*
X14769643Y-14490214D01*
X14669643Y-14604500D01*
X14712500Y-14604500D01*
X14741071Y-14618786D01*
X14755357Y-14633071D01*
X14769643Y-14661643D01*
X14769643Y-14733071D01*
X14755357Y-14761643D01*
X14741071Y-14775929D01*
X14712500Y-14790214D01*
X14626786Y-14790214D01*
X14598214Y-14775929D01*
X14583928Y-14761643D01*
X14955357Y-14490214D02*
X14983928Y-14490214D01*
X15012500Y-14504500D01*
X15026786Y-14518786D01*
X15041071Y-14547357D01*
X15055357Y-14604500D01*
X15055357Y-14675929D01*
X15041071Y-14733071D01*
X15026786Y-14761643D01*
X15012500Y-14775929D01*
X14983928Y-14790214D01*
X14955357Y-14790214D01*
X14926786Y-14775929D01*
X14912500Y-14761643D01*
X14898214Y-14733071D01*
X14883928Y-14675929D01*
X14883928Y-14604500D01*
X14898214Y-14547357D01*
X14912500Y-14518786D01*
X14926786Y-14504500D01*
X14955357Y-14490214D01*
X15169643Y-14518786D02*
X15183928Y-14504500D01*
X15212500Y-14490214D01*
X15283928Y-14490214D01*
X15312500Y-14504500D01*
X15326786Y-14518786D01*
X15341071Y-14547357D01*
X15341071Y-14575929D01*
X15326786Y-14618786D01*
X15155357Y-14790214D01*
X15341071Y-14790214D01*
X15469643Y-14790214D02*
X15469643Y-14590214D01*
X15469643Y-14618786D02*
X15483928Y-14604500D01*
X15512500Y-14590214D01*
X15555357Y-14590214D01*
X15583928Y-14604500D01*
X15598214Y-14633071D01*
X15598214Y-14790214D01*
X15598214Y-14633071D02*
X15612500Y-14604500D01*
X15641071Y-14590214D01*
X15683928Y-14590214D01*
X15712500Y-14604500D01*
X15726786Y-14633071D01*
X15726786Y-14790214D01*
X15869643Y-14790214D02*
X15869643Y-14590214D01*
X15869643Y-14618786D02*
X15883928Y-14604500D01*
X15912500Y-14590214D01*
X15955357Y-14590214D01*
X15983928Y-14604500D01*
X15998214Y-14633071D01*
X15998214Y-14790214D01*
X15998214Y-14633071D02*
X16012500Y-14604500D01*
X16041071Y-14590214D01*
X16083928Y-14590214D01*
X16112500Y-14604500D01*
X16126786Y-14633071D01*
X16126786Y-14790214D01*
X16712500Y-14475929D02*
X16455357Y-14861643D01*
X17098214Y-14490214D02*
X17126786Y-14490214D01*
X17155357Y-14504500D01*
X17169643Y-14518786D01*
X17183928Y-14547357D01*
X17198214Y-14604500D01*
X17198214Y-14675929D01*
X17183928Y-14733071D01*
X17169643Y-14761643D01*
X17155357Y-14775929D01*
X17126786Y-14790214D01*
X17098214Y-14790214D01*
X17069643Y-14775929D01*
X17055357Y-14761643D01*
X17041071Y-14733071D01*
X17026786Y-14675929D01*
X17026786Y-14604500D01*
X17041071Y-14547357D01*
X17055357Y-14518786D01*
X17069643Y-14504500D01*
X17098214Y-14490214D01*
X17326786Y-14761643D02*
X17341071Y-14775929D01*
X17326786Y-14790214D01*
X17312500Y-14775929D01*
X17326786Y-14761643D01*
X17326786Y-14790214D01*
X17626786Y-14790214D02*
X17455357Y-14790214D01*
X17541071Y-14790214D02*
X17541071Y-14490214D01*
X17512500Y-14533071D01*
X17483928Y-14561643D01*
X17455357Y-14575929D01*
X17726786Y-14490214D02*
X17912500Y-14490214D01*
X17812500Y-14604500D01*
X17855357Y-14604500D01*
X17883928Y-14618786D01*
X17898214Y-14633071D01*
X17912500Y-14661643D01*
X17912500Y-14733071D01*
X17898214Y-14761643D01*
X17883928Y-14775929D01*
X17855357Y-14790214D01*
X17769643Y-14790214D01*
X17741071Y-14775929D01*
X17726786Y-14761643D01*
X18098214Y-14490214D02*
X18126786Y-14490214D01*
X18155357Y-14504500D01*
X18169643Y-14518786D01*
X18183928Y-14547357D01*
X18198214Y-14604500D01*
X18198214Y-14675929D01*
X18183928Y-14733071D01*
X18169643Y-14761643D01*
X18155357Y-14775929D01*
X18126786Y-14790214D01*
X18098214Y-14790214D01*
X18069643Y-14775929D01*
X18055357Y-14761643D01*
X18041071Y-14733071D01*
X18026786Y-14675929D01*
X18026786Y-14604500D01*
X18041071Y-14547357D01*
X18055357Y-14518786D01*
X18069643Y-14504500D01*
X18098214Y-14490214D01*
X18383928Y-14490214D02*
X18412500Y-14490214D01*
X18441071Y-14504500D01*
X18455357Y-14518786D01*
X18469643Y-14547357D01*
X18483928Y-14604500D01*
X18483928Y-14675929D01*
X18469643Y-14733071D01*
X18455357Y-14761643D01*
X18441071Y-14775929D01*
X18412500Y-14790214D01*
X18383928Y-14790214D01*
X18355357Y-14775929D01*
X18341071Y-14761643D01*
X18326786Y-14733071D01*
X18312500Y-14675929D01*
X18312500Y-14604500D01*
X18326786Y-14547357D01*
X18341071Y-14518786D01*
X18355357Y-14504500D01*
X18383928Y-14490214D01*
X18598214Y-14490214D02*
X18598214Y-14547357D01*
X18712500Y-14490214D02*
X18712500Y-14547357D01*
X19155357Y-14904500D02*
X19141071Y-14890214D01*
X19112500Y-14847357D01*
X19098214Y-14818786D01*
X19083928Y-14775929D01*
X19069643Y-14704500D01*
X19069643Y-14647357D01*
X19083928Y-14575929D01*
X19098214Y-14533071D01*
X19112500Y-14504500D01*
X19141071Y-14461643D01*
X19155357Y-14447357D01*
X19398214Y-14590214D02*
X19398214Y-14790214D01*
X19326786Y-14475929D02*
X19255357Y-14690214D01*
X19441071Y-14690214D01*
X19783928Y-14790214D02*
X19783928Y-14490214D01*
X19912500Y-14790214D02*
X19912500Y-14633071D01*
X19898214Y-14604500D01*
X19869643Y-14590214D01*
X19826786Y-14590214D01*
X19798214Y-14604500D01*
X19783928Y-14618786D01*
X20098214Y-14790214D02*
X20069643Y-14775929D01*
X20055357Y-14761643D01*
X20041071Y-14733071D01*
X20041071Y-14647357D01*
X20055357Y-14618786D01*
X20069643Y-14604500D01*
X20098214Y-14590214D01*
X20141071Y-14590214D01*
X20169643Y-14604500D01*
X20183928Y-14618786D01*
X20198214Y-14647357D01*
X20198214Y-14733071D01*
X20183928Y-14761643D01*
X20169643Y-14775929D01*
X20141071Y-14790214D01*
X20098214Y-14790214D01*
X20369643Y-14790214D02*
X20341071Y-14775929D01*
X20326786Y-14747357D01*
X20326786Y-14490214D01*
X20598214Y-14775929D02*
X20569643Y-14790214D01*
X20512500Y-14790214D01*
X20483928Y-14775929D01*
X20469643Y-14747357D01*
X20469643Y-14633071D01*
X20483928Y-14604500D01*
X20512500Y-14590214D01*
X20569643Y-14590214D01*
X20598214Y-14604500D01*
X20612500Y-14633071D01*
X20612500Y-14661643D01*
X20469643Y-14690214D01*
X20726786Y-14775929D02*
X20755357Y-14790214D01*
X20812500Y-14790214D01*
X20841071Y-14775929D01*
X20855357Y-14747357D01*
X20855357Y-14733071D01*
X20841071Y-14704500D01*
X20812500Y-14690214D01*
X20769643Y-14690214D01*
X20741071Y-14675929D01*
X20726786Y-14647357D01*
X20726786Y-14633071D01*
X20741071Y-14604500D01*
X20769643Y-14590214D01*
X20812500Y-14590214D01*
X20841071Y-14604500D01*
X20955357Y-14904500D02*
X20969643Y-14890214D01*
X20998214Y-14847357D01*
X21012500Y-14818786D01*
X21026786Y-14775929D01*
X21041071Y-14704500D01*
X21041071Y-14647357D01*
X21026786Y-14575929D01*
X21012500Y-14533071D01*
X20998214Y-14504500D01*
X20969643Y-14461643D01*
X20955357Y-14447357D01*
M02*
