%TF.GenerationSoftware,KiCad,Pcbnew,5.1.10-88a1d61d58~88~ubuntu20.10.1*%
%TF.CreationDate,2021-05-14T12:57:49-04:00*%
%TF.ProjectId,lick_detector_interface,6c69636b-5f64-4657-9465-63746f725f69,1.0*%
%TF.SameCoordinates,Original*%
%TF.FileFunction,Paste,Top*%
%TF.FilePolarity,Positive*%
%FSLAX46Y46*%
G04 Gerber Fmt 4.6, Leading zero omitted, Abs format (unit mm)*
G04 Created by KiCad (PCBNEW 5.1.10-88a1d61d58~88~ubuntu20.10.1) date 2021-05-14 12:57:49*
%MOMM*%
%LPD*%
G01*
G04 APERTURE LIST*
%ADD10R,0.800000X1.500000*%
%ADD11R,0.600000X1.500000*%
G04 APERTURE END LIST*
D10*
%TO.C,P1*%
X144250000Y-98400000D03*
X144250000Y-95600000D03*
X149750000Y-95600000D03*
X149750000Y-98400000D03*
D11*
X145250000Y-98400000D03*
X145750000Y-95600000D03*
X146250000Y-98400000D03*
X146750000Y-95600000D03*
X147250000Y-98400000D03*
X147750000Y-95600000D03*
X148250000Y-98400000D03*
X148750000Y-95600000D03*
%TD*%
D10*
%TO.C,P2*%
X144250000Y-106400000D03*
X144250000Y-103600000D03*
X149750000Y-103600000D03*
X149750000Y-106400000D03*
D11*
X145250000Y-106400000D03*
X145750000Y-103600000D03*
X146250000Y-106400000D03*
X146750000Y-103600000D03*
X147250000Y-106400000D03*
X147750000Y-103600000D03*
X148250000Y-106400000D03*
X148750000Y-103600000D03*
%TD*%
D10*
%TO.C,P3*%
X144250000Y-114400000D03*
X144250000Y-111600000D03*
X149750000Y-111600000D03*
X149750000Y-114400000D03*
D11*
X145250000Y-114400000D03*
X145750000Y-111600000D03*
X146250000Y-114400000D03*
X146750000Y-111600000D03*
X147250000Y-114400000D03*
X147750000Y-111600000D03*
X148250000Y-114400000D03*
X148750000Y-111600000D03*
%TD*%
D10*
%TO.C,P4*%
X144250000Y-122400000D03*
X144250000Y-119600000D03*
X149750000Y-119600000D03*
X149750000Y-122400000D03*
D11*
X145250000Y-122400000D03*
X145750000Y-119600000D03*
X146250000Y-122400000D03*
X146750000Y-119600000D03*
X147250000Y-122400000D03*
X147750000Y-119600000D03*
X148250000Y-122400000D03*
X148750000Y-119600000D03*
%TD*%
D10*
%TO.C,P5*%
X157300000Y-98400000D03*
X157300000Y-95600000D03*
X162800000Y-95600000D03*
X162800000Y-98400000D03*
D11*
X158300000Y-98400000D03*
X158800000Y-95600000D03*
X159300000Y-98400000D03*
X159800000Y-95600000D03*
X160300000Y-98400000D03*
X160800000Y-95600000D03*
X161300000Y-98400000D03*
X161800000Y-95600000D03*
%TD*%
D10*
%TO.C,P6*%
X157250000Y-106400000D03*
X157250000Y-103600000D03*
X162750000Y-103600000D03*
X162750000Y-106400000D03*
D11*
X158250000Y-106400000D03*
X158750000Y-103600000D03*
X159250000Y-106400000D03*
X159750000Y-103600000D03*
X160250000Y-106400000D03*
X160750000Y-103600000D03*
X161250000Y-106400000D03*
X161750000Y-103600000D03*
%TD*%
D10*
%TO.C,P7*%
X157250000Y-114400000D03*
X157250000Y-111600000D03*
X162750000Y-111600000D03*
X162750000Y-114400000D03*
D11*
X158250000Y-114400000D03*
X158750000Y-111600000D03*
X159250000Y-114400000D03*
X159750000Y-111600000D03*
X160250000Y-114400000D03*
X160750000Y-111600000D03*
X161250000Y-114400000D03*
X161750000Y-111600000D03*
%TD*%
D10*
%TO.C,P8*%
X157250000Y-122400000D03*
X157250000Y-119600000D03*
X162750000Y-119600000D03*
X162750000Y-122400000D03*
D11*
X158250000Y-122400000D03*
X158750000Y-119600000D03*
X159250000Y-122400000D03*
X159750000Y-119600000D03*
X160250000Y-122400000D03*
X160750000Y-119600000D03*
X161250000Y-122400000D03*
X161750000Y-119600000D03*
%TD*%
D10*
%TO.C,P9*%
X170250000Y-98400000D03*
X170250000Y-95600000D03*
X175750000Y-95600000D03*
X175750000Y-98400000D03*
D11*
X171250000Y-98400000D03*
X171750000Y-95600000D03*
X172250000Y-98400000D03*
X172750000Y-95600000D03*
X173250000Y-98400000D03*
X173750000Y-95600000D03*
X174250000Y-98400000D03*
X174750000Y-95600000D03*
%TD*%
D10*
%TO.C,P10*%
X170250000Y-106400000D03*
X170250000Y-103600000D03*
X175750000Y-103600000D03*
X175750000Y-106400000D03*
D11*
X171250000Y-106400000D03*
X171750000Y-103600000D03*
X172250000Y-106400000D03*
X172750000Y-103600000D03*
X173250000Y-106400000D03*
X173750000Y-103600000D03*
X174250000Y-106400000D03*
X174750000Y-103600000D03*
%TD*%
D10*
%TO.C,P11*%
X170250000Y-114400000D03*
X170250000Y-111600000D03*
X175750000Y-111600000D03*
X175750000Y-114400000D03*
D11*
X171250000Y-114400000D03*
X171750000Y-111600000D03*
X172250000Y-114400000D03*
X172750000Y-111600000D03*
X173250000Y-114400000D03*
X173750000Y-111600000D03*
X174250000Y-114400000D03*
X174750000Y-111600000D03*
%TD*%
D10*
%TO.C,P12*%
X170250000Y-122400000D03*
X170250000Y-119600000D03*
X175750000Y-119600000D03*
X175750000Y-122400000D03*
D11*
X171250000Y-122400000D03*
X171750000Y-119600000D03*
X172250000Y-122400000D03*
X172750000Y-119600000D03*
X173250000Y-122400000D03*
X173750000Y-119600000D03*
X174250000Y-122400000D03*
X174750000Y-119600000D03*
%TD*%
M02*
