%TF.GenerationSoftware,KiCad,Pcbnew,5.1.10-88a1d61d58~88~ubuntu20.10.1*%
%TF.CreationDate,2021-05-14T12:57:49-04:00*%
%TF.ProjectId,lick_detector_interface,6c69636b-5f64-4657-9465-63746f725f69,1.0*%
%TF.SameCoordinates,Original*%
%TF.FileFunction,Soldermask,Bot*%
%TF.FilePolarity,Negative*%
%FSLAX46Y46*%
G04 Gerber Fmt 4.6, Leading zero omitted, Abs format (unit mm)*
G04 Created by KiCad (PCBNEW 5.1.10-88a1d61d58~88~ubuntu20.10.1) date 2021-05-14 12:57:49*
%MOMM*%
%LPD*%
G01*
G04 APERTURE LIST*
%ADD10O,2.540000X2.184400*%
%ADD11R,2.540000X2.184400*%
%ADD12C,3.556000*%
G04 APERTURE END LIST*
D10*
%TO.C,TEENSY1*%
X167620000Y-67050000D03*
X167620000Y-89910000D03*
X167620000Y-87370000D03*
X167620000Y-77210000D03*
X167620000Y-79750000D03*
X167620000Y-69590000D03*
X167620000Y-74670000D03*
X167620000Y-84830000D03*
X167620000Y-82290000D03*
X167620000Y-72130000D03*
X152380000Y-67050000D03*
X152380000Y-89910000D03*
X152380000Y-87370000D03*
X152380000Y-77210000D03*
X152380000Y-84830000D03*
X152380000Y-72130000D03*
X152380000Y-79750000D03*
X152380000Y-82290000D03*
X152380000Y-69590000D03*
X152380000Y-74670000D03*
X167620000Y-31490000D03*
X167620000Y-34030000D03*
X167620000Y-36570000D03*
X167620000Y-39110000D03*
X167620000Y-41650000D03*
X167620000Y-44190000D03*
X167620000Y-46730000D03*
X167620000Y-49270000D03*
X167620000Y-51810000D03*
X167620000Y-54350000D03*
X167620000Y-56890000D03*
X167620000Y-59430000D03*
X167620000Y-61970000D03*
X167620000Y-64510000D03*
X152380000Y-64510000D03*
X152380000Y-61970000D03*
X152380000Y-59430000D03*
X152380000Y-56890000D03*
X152380000Y-54350000D03*
X152380000Y-51810000D03*
X152380000Y-49270000D03*
X152380000Y-46730000D03*
X152380000Y-44190000D03*
X152380000Y-41650000D03*
X152380000Y-39110000D03*
X152380000Y-36570000D03*
X152380000Y-34030000D03*
D11*
X152380000Y-31490000D03*
%TD*%
D12*
%TO.C,MH1*%
X142000000Y-32000000D03*
%TD*%
%TO.C,MH2*%
X178000000Y-32000000D03*
%TD*%
%TO.C,MH3*%
X178000000Y-126000000D03*
%TD*%
%TO.C,MH4*%
X142000000Y-126000000D03*
%TD*%
M02*
