<?xml version="1.0" standalone="no"?>
 <!DOCTYPE svg PUBLIC "-//W3C//DTD SVG 1.1//EN" 
 "http://www.w3.org/Graphics/SVG/1.1/DTD/svg11.dtd"> 
<svg
  xmlns:svg="http://www.w3.org/2000/svg"
  xmlns="http://www.w3.org/2000/svg"
  xmlns:xlink="http://www.w3.org/1999/xlink"
  version="1.1"
  width="6.220460cm" height="10.421620cm" viewBox="0 0 24490 41030">
<title>SVG Picture created as lick_detector_interface-F_SilkS.svg date 2021/05/14 12:58:23 </title>
  <desc>Picture generated by PCBNEW </desc>
<g style="fill:#000000; fill-opacity:1;stroke:#000000; stroke-opacity:1;
stroke-linecap:round; stroke-linejoin:round;"
 transform="translate(0 0) scale(1 1)">
</g>
<g style="fill:#000000; fill-opacity:0.0; 
stroke:#000000; stroke-width:-0.000393701; stroke-opacity:1; 
stroke-linecap:round; stroke-linejoin:round;">
</g>
<g style="fill:#008484; fill-opacity:0.0; 
stroke:#008484; stroke-width:-0.000393701; stroke-opacity:1; 
stroke-linecap:round; stroke-linejoin:round;">
</g>
<g style="fill:#008484; fill-opacity:0.0; 
stroke:#008484; stroke-width:100; stroke-opacity:1; 
stroke-linecap:round; stroke-linejoin:round;">
<g transform="rotate(-90 17452.1 20472.4)">
<text x="17452.1" y="20672.4"
textLength="6899.06" font-size="533.333" lengthAdjust="spacingAndGlyphs"
text-anchor="middle" opacity="0">lick_detector_interface</text>
</g>
<path d="M17633 23710
L17614 23748
L17575 23767
L17233 23767
" />
<path d="M17633 23558
L17366 23558
" />
<path d="M17233 23558
L17252 23577
L17271 23558
L17252 23539
L17233 23558
L17271 23558
" />
<path d="M17614 23196
L17633 23234
L17633 23310
L17614 23348
L17594 23367
L17556 23386
L17442 23386
L17404 23367
L17385 23348
L17366 23310
L17366 23234
L17385 23196
" />
<path d="M17633 23024
L17233 23024
" />
<path d="M17480 22986
L17633 22872
" />
<path d="M17366 22872
L17518 23024
" />
<path d="M17671 22796
L17671 22491
" />
<path d="M17633 22224
L17233 22224
" />
<path d="M17614 22224
L17633 22262
L17633 22339
L17614 22377
L17594 22396
L17556 22415
L17442 22415
L17404 22396
L17385 22377
L17366 22339
L17366 22262
L17385 22224
" />
<path d="M17614 21881
L17633 21920
L17633 21996
L17614 22034
L17575 22053
L17423 22053
L17385 22034
L17366 21996
L17366 21920
L17385 21881
L17423 21862
L17461 21862
L17499 22053
" />
<path d="M17366 21748
L17366 21596
" />
<path d="M17233 21691
L17575 21691
L17614 21672
L17633 21634
L17633 21596
" />
<path d="M17614 21310
L17633 21348
L17633 21424
L17614 21462
L17575 21481
L17423 21481
L17385 21462
L17366 21424
L17366 21348
L17385 21310
L17423 21291
L17461 21291
L17499 21481
" />
<path d="M17614 20948
L17633 20986
L17633 21062
L17614 21101
L17594 21120
L17556 21139
L17442 21139
L17404 21120
L17385 21101
L17366 21062
L17366 20986
L17385 20948
" />
<path d="M17366 20834
L17366 20681
" />
<path d="M17233 20777
L17575 20777
L17614 20758
L17633 20720
L17633 20681
" />
<path d="M17633 20491
L17614 20529
L17594 20548
L17556 20567
L17442 20567
L17404 20548
L17385 20529
L17366 20491
L17366 20434
L17385 20396
L17404 20377
L17442 20358
L17556 20358
L17594 20377
L17614 20396
L17633 20434
L17633 20491
" />
<path d="M17633 20186
L17366 20186
" />
<path d="M17442 20186
L17404 20167
L17385 20148
L17366 20110
L17366 20072
" />
<path d="M17671 20034
L17671 19729
" />
<path d="M17633 19634
L17366 19634
" />
<path d="M17233 19634
L17252 19653
L17271 19634
L17252 19615
L17233 19634
L17271 19634
" />
<path d="M17366 19443
L17633 19443
" />
<path d="M17404 19443
L17385 19424
L17366 19386
L17366 19329
L17385 19291
L17423 19272
L17633 19272
" />
<path d="M17366 19139
L17366 18986
" />
<path d="M17233 19081
L17575 19081
L17614 19062
L17633 19024
L17633 18986
" />
<path d="M17614 18701
L17633 18739
L17633 18815
L17614 18853
L17575 18872
L17423 18872
L17385 18853
L17366 18815
L17366 18739
L17385 18701
L17423 18681
L17461 18681
L17499 18872
" />
<path d="M17633 18510
L17366 18510
" />
<path d="M17442 18510
L17404 18491
L17385 18472
L17366 18434
L17366 18396
" />
<path d="M17366 18320
L17366 18167
" />
<path d="M17633 18262
L17290 18262
L17252 18243
L17233 18205
L17233 18167
" />
<path d="M17633 17862
L17423 17862
L17385 17881
L17366 17920
L17366 17996
L17385 18034
" />
<path d="M17614 17862
L17633 17901
L17633 17996
L17614 18034
L17575 18053
L17537 18053
L17499 18034
L17480 17996
L17480 17901
L17461 17862
" />
<path d="M17614 17501
L17633 17539
L17633 17615
L17614 17653
L17594 17672
L17556 17691
L17442 17691
L17404 17672
L17385 17653
L17366 17615
L17366 17539
L17385 17501
" />
<path d="M17614 17177
L17633 17215
L17633 17291
L17614 17329
L17575 17348
L17423 17348
L17385 17329
L17366 17291
L17366 17215
L17385 17177
L17423 17158
L17461 17158
L17499 17348
" />
<g transform="rotate(-90 18152.1 20472.4)">
<text x="18152.1" y="20672.4"
textLength="2263.33" font-size="533.333" lengthAdjust="spacingAndGlyphs"
text-anchor="middle" opacity="0">Janelia</text>
</g>
<path d="M17933 21329
L18218 21329
L18275 21348
L18314 21386
L18333 21443
L18333 21481
" />
<path d="M18333 20967
L18123 20967
L18085 20986
L18066 21024
L18066 21101
L18085 21139
" />
<path d="M18314 20967
L18333 21005
L18333 21101
L18314 21139
L18275 21158
L18237 21158
L18199 21139
L18180 21101
L18180 21005
L18161 20967
" />
<path d="M18066 20777
L18333 20777
" />
<path d="M18104 20777
L18085 20758
L18066 20720
L18066 20662
L18085 20624
L18123 20605
L18333 20605
" />
<path d="M18314 20262
L18333 20301
L18333 20377
L18314 20415
L18275 20434
L18123 20434
L18085 20415
L18066 20377
L18066 20301
L18085 20262
L18123 20243
L18161 20243
L18199 20434
" />
<path d="M18333 20015
L18314 20053
L18275 20072
L17933 20072
" />
<path d="M18333 19862
L18066 19862
" />
<path d="M17933 19862
L17952 19881
L17971 19862
L17952 19843
L17933 19862
L17971 19862
" />
<path d="M18333 19501
L18123 19501
L18085 19520
L18066 19558
L18066 19634
L18085 19672
" />
<path d="M18314 19501
L18333 19539
L18333 19634
L18314 19672
L18275 19691
L18237 19691
L18199 19672
L18180 19634
L18180 19539
L18161 19501
" />
<g transform="rotate(-90 18852.1 20472.4)">
<text x="18852.1" y="20672.4"
textLength="5291.9" font-size="533.333" lengthAdjust="spacingAndGlyphs"
text-anchor="middle" opacity="0">05/2021 ver 1.0</text>
</g>
<path d="M18633 22881
L18633 22843
L18652 22805
L18671 22786
L18709 22767
L18785 22748
L18880 22748
L18956 22767
L18994 22786
L19014 22805
L19033 22843
L19033 22881
L19014 22920
L18994 22939
L18956 22958
L18880 22977
L18785 22977
L18709 22958
L18671 22939
L18652 22920
L18633 22881
" />
<path d="M18633 22386
L18633 22577
L18823 22596
L18804 22577
L18785 22539
L18785 22443
L18804 22405
L18823 22386
L18861 22367
L18956 22367
L18994 22386
L19014 22405
L19033 22443
L19033 22539
L19014 22577
L18994 22596
" />
<path d="M18614 21910
L19128 22253
" />
<path d="M18671 21796
L18652 21777
L18633 21739
L18633 21643
L18652 21605
L18671 21586
L18709 21567
L18747 21567
L18804 21586
L19033 21815
L19033 21567
" />
<path d="M18633 21320
L18633 21281
L18652 21243
L18671 21224
L18709 21205
L18785 21186
L18880 21186
L18956 21205
L18994 21224
L19014 21243
L19033 21281
L19033 21320
L19014 21358
L18994 21377
L18956 21396
L18880 21415
L18785 21415
L18709 21396
L18671 21377
L18652 21358
L18633 21320
" />
<path d="M18671 21034
L18652 21015
L18633 20977
L18633 20881
L18652 20843
L18671 20824
L18709 20805
L18747 20805
L18804 20824
L19033 21053
L19033 20805
" />
<path d="M19033 20424
L19033 20653
" />
<path d="M19033 20539
L18633 20539
L18690 20577
L18728 20615
L18747 20653
" />
<path d="M18766 19986
L19033 19891
L18766 19796
" />
<path d="M19014 19491
L19033 19529
L19033 19605
L19014 19643
L18975 19662
L18823 19662
L18785 19643
L18766 19605
L18766 19529
L18785 19491
L18823 19472
L18861 19472
L18899 19662
" />
<path d="M19033 19301
L18766 19301
" />
<path d="M18842 19301
L18804 19281
L18785 19262
L18766 19224
L18766 19186
" />
<path d="M19033 18539
L19033 18767
" />
<path d="M19033 18653
L18633 18653
L18690 18691
L18728 18729
L18747 18767
" />
<path d="M18994 18367
L19014 18348
L19033 18367
L19014 18386
L18994 18367
L19033 18367
" />
<path d="M18633 18101
L18633 18062
L18652 18024
L18671 18005
L18709 17986
L18785 17967
L18880 17967
L18956 17986
L18994 18005
L19014 18024
L19033 18062
L19033 18101
L19014 18139
L18994 18158
L18956 18177
L18880 18196
L18785 18196
L18709 18177
L18671 18158
L18652 18139
L18633 18101
" />
</g>
<g style="fill:#008484; fill-opacity:0.0; 
stroke:#008484; stroke-width:70; stroke-opacity:1; 
stroke-linecap:round; stroke-linejoin:round;">
<circle cx="15246.6" cy="15767.7" r="500" /> 
<circle cx="15246.6" cy="17767.7" r="500" /> 
<circle cx="15246.6" cy="21767.7" r="500" /> 
<circle cx="15246.6" cy="22767.7" r="500" /> 
<circle cx="15246.6" cy="18767.7" r="500" /> 
<circle cx="15246.6" cy="16767.7" r="500" /> 
<circle cx="15246.6" cy="24767.7" r="500" /> 
<circle cx="15246.6" cy="19767.7" r="500" /> 
<circle cx="15246.6" cy="20767.7" r="500" /> 
<circle cx="15246.6" cy="23767.7" r="500" /> 
<circle cx="9246.61" cy="21767.7" r="500" /> 
<circle cx="9246.61" cy="20767.7" r="500" /> 
<circle cx="9246.61" cy="19767.7" r="500" /> 
<circle cx="9246.61" cy="24767.7" r="500" /> 
<circle cx="9246.61" cy="23767.7" r="500" /> 
<circle cx="9246.61" cy="22767.7" r="500" /> 
<circle cx="9246.61" cy="18767.7" r="500" /> 
<circle cx="9246.61" cy="17767.7" r="500" /> 
<circle cx="9246.61" cy="15767.7" r="500" /> 
<circle cx="9246.61" cy="16767.7" r="500" /> 
<path d="M14246 10767
L10246 10767
" />
<path d="M14246 14767
L14246 10767
" />
<path d="M10246 14767
L14246 14767
" />
<path d="M10246 10767
L10246 14767
" />
<path d="M9746 2267
L9746 1267
" />
<path d="M8746 2267
L9746 2267
" />
<circle cx="15246.6" cy="14767.7" r="500" /> 
<circle cx="15246.6" cy="13767.7" r="500" /> 
<circle cx="15246.6" cy="12767.7" r="500" /> 
<circle cx="15246.6" cy="11767.7" r="500" /> 
<circle cx="15246.6" cy="10767.7" r="500" /> 
<circle cx="15246.6" cy="9767.72" r="500" /> 
<circle cx="15246.6" cy="8767.72" r="500" /> 
<circle cx="15246.6" cy="7767.72" r="500" /> 
<circle cx="15246.6" cy="6767.72" r="500" /> 
<circle cx="15246.6" cy="5767.72" r="500" /> 
<circle cx="15246.6" cy="4767.72" r="500" /> 
<circle cx="15246.6" cy="3767.72" r="500" /> 
<circle cx="15246.6" cy="2767.72" r="500" /> 
<circle cx="15246.6" cy="1767.72" r="500" /> 
<circle cx="9246.61" cy="14767.7" r="500" /> 
<circle cx="9246.61" cy="13767.7" r="500" /> 
<circle cx="9246.61" cy="12767.7" r="500" /> 
<circle cx="9246.61" cy="11767.7" r="500" /> 
<circle cx="9246.61" cy="10767.7" r="500" /> 
<circle cx="9246.61" cy="9767.72" r="500" /> 
<circle cx="9246.61" cy="8767.72" r="500" /> 
<circle cx="9246.61" cy="7767.72" r="500" /> 
<circle cx="9246.61" cy="6767.72" r="500" /> 
<circle cx="9246.61" cy="5767.72" r="500" /> 
<circle cx="9246.61" cy="4767.72" r="500" /> 
<circle cx="9246.61" cy="3767.72" r="500" /> 
<circle cx="9246.61" cy="2767.72" r="500" /> 
</g>
<g style="fill:#008484; fill-opacity:0.0; 
stroke:#008484; stroke-width:150; stroke-opacity:1; 
stroke-linecap:round; stroke-linejoin:round;">
<circle cx="12246.6" cy="18267.7" r="500" /> 
<path d="M12746 19267
L12746 17267
" />
<path d="M12746 17267
L11746 17267
" />
<path d="M11746 17267
L11746 19267
" />
<path d="M11746 19267
L12746 19267
" />
<path d="M10746 1267
L10746 767
" />
<path d="M10746 767
L13746 767
" />
<path d="M13746 767
L13746 1267
" />
<path d="M8746 1267
L8746 25267
" />
<path d="M8746 25267
L15746 25267
" />
<path d="M15746 25267
L15746 1267
" />
<path d="M15746 1267
L8746 1267
" />
</g>
<g style="fill:#008484; fill-opacity:0.0; 
stroke:#008484; stroke-width:98.4252; stroke-opacity:1; 
stroke-linecap:round; stroke-linejoin:round;">
<path d="M5652 27755
L5750 28011
" />
<path d="M5652 27755
L5553 28011
" />
<path d="M7817 26830
L8880 27106
" />
<path d="M5376 27106
L6439 26830
" />
<path d="M6439 26830
L7817 26830
" />
<path d="M5376 27106
L5376 28011
" />
<path d="M8880 27106
L8880 28011
" />
<path d="M5376 28011
L8880 28011
" />
<path d="M5376 27106
L8880 27106
" />
<path d="M5652 30905
L5750 31161
" />
<path d="M5652 30905
L5553 31161
" />
<path d="M7817 29980
L8880 30255
" />
<path d="M5376 30255
L6439 29980
" />
<path d="M6439 29980
L7817 29980
" />
<path d="M5376 30255
L5376 31161
" />
<path d="M8880 30255
L8880 31161
" />
<path d="M5376 31161
L8880 31161
" />
<path d="M5376 30255
L8880 30255
" />
<path d="M5652 34055
L5750 34311
" />
<path d="M5652 34055
L5553 34311
" />
<path d="M7817 33129
L8880 33405
" />
<path d="M5376 33405
L6439 33129
" />
<path d="M6439 33129
L7817 33129
" />
<path d="M5376 33405
L5376 34311
" />
<path d="M8880 33405
L8880 34311
" />
<path d="M5376 34311
L8880 34311
" />
<path d="M5376 33405
L8880 33405
" />
<path d="M5652 37204
L5750 37460
" />
<path d="M5652 37204
L5553 37460
" />
<path d="M7817 36279
L8880 36555
" />
<path d="M5376 36555
L6439 36279
" />
<path d="M6439 36279
L7817 36279
" />
<path d="M5376 36555
L5376 37460
" />
<path d="M8880 36555
L8880 37460
" />
<path d="M5376 37460
L8880 37460
" />
<path d="M5376 36555
L8880 36555
" />
<path d="M10789 27755
L10888 28011
" />
<path d="M10789 27755
L10691 28011
" />
<path d="M12955 26830
L14018 27106
" />
<path d="M10514 27106
L11577 26830
" />
<path d="M11577 26830
L12955 26830
" />
<path d="M10514 27106
L10514 28011
" />
<path d="M14018 27106
L14018 28011
" />
<path d="M10514 28011
L14018 28011
" />
<path d="M10514 27106
L14018 27106
" />
<path d="M10770 30905
L10868 31161
" />
<path d="M10770 30905
L10671 31161
" />
<path d="M12935 29980
L13998 30255
" />
<path d="M10494 30255
L11557 29980
" />
<path d="M11557 29980
L12935 29980
" />
<path d="M10494 30255
L10494 31161
" />
<path d="M13998 30255
L13998 31161
" />
<path d="M10494 31161
L13998 31161
" />
<path d="M10494 30255
L13998 30255
" />
<path d="M10770 34055
L10868 34311
" />
<path d="M10770 34055
L10671 34311
" />
<path d="M12935 33129
L13998 33405
" />
<path d="M10494 33405
L11557 33129
" />
<path d="M11557 33129
L12935 33129
" />
<path d="M10494 33405
L10494 34311
" />
<path d="M13998 33405
L13998 34311
" />
<path d="M10494 34311
L13998 34311
" />
<path d="M10494 33405
L13998 33405
" />
<path d="M10770 37204
L10868 37460
" />
<path d="M10770 37204
L10671 37460
" />
<path d="M12935 36279
L13998 36555
" />
<path d="M10494 36555
L11557 36279
" />
<path d="M11557 36279
L12935 36279
" />
<path d="M10494 36555
L10494 37460
" />
<path d="M13998 36555
L13998 37460
" />
<path d="M10494 37460
L13998 37460
" />
<path d="M10494 36555
L13998 36555
" />
<path d="M15888 27755
L15986 28011
" />
<path d="M15888 27755
L15789 28011
" />
<path d="M18053 26830
L19116 27106
" />
<path d="M15612 27106
L16675 26830
" />
<path d="M16675 26830
L18053 26830
" />
<path d="M15612 27106
L15612 28011
" />
<path d="M19116 27106
L19116 28011
" />
<path d="M15612 28011
L19116 28011
" />
<path d="M15612 27106
L19116 27106
" />
<path d="M15888 30905
L15986 31161
" />
<path d="M15888 30905
L15789 31161
" />
<path d="M18053 29980
L19116 30255
" />
<path d="M15612 30255
L16675 29980
" />
<path d="M16675 29980
L18053 29980
" />
<path d="M15612 30255
L15612 31161
" />
<path d="M19116 30255
L19116 31161
" />
<path d="M15612 31161
L19116 31161
" />
<path d="M15612 30255
L19116 30255
" />
<path d="M15888 34055
L15986 34311
" />
<path d="M15888 34055
L15789 34311
" />
<path d="M18053 33129
L19116 33405
" />
<path d="M15612 33405
L16675 33129
" />
<path d="M16675 33129
L18053 33129
" />
<path d="M15612 33405
L15612 34311
" />
<path d="M19116 33405
L19116 34311
" />
<path d="M15612 34311
L19116 34311
" />
<path d="M15612 33405
L19116 33405
" />
<path d="M15888 37204
L15986 37460
" />
<path d="M15888 37204
L15789 37460
" />
<path d="M18053 36279
L19116 36555
" />
<path d="M15612 36555
L16675 36279
" />
<path d="M16675 36279
L18053 36279
" />
<path d="M15612 36555
L15612 37460
" />
<path d="M19116 36555
L19116 37460
" />
<path d="M15612 37460
L19116 37460
" />
<path d="M15612 36555
L19116 36555
" />
</g>
<g style="fill:#008484; fill-opacity:0.0; 
stroke:#008484; stroke-width:90; stroke-opacity:1; 
stroke-linecap:round; stroke-linejoin:round;">
<circle cx="5160" cy="1968.5" r="1000" /> 
<circle cx="19333.2" cy="1968.5" r="1000" /> 
<circle cx="19333.2" cy="38976.4" r="1000" /> 
<circle cx="5160" cy="38976.4" r="1000" /> 
</g>
<g style="fill:#008484; fill-opacity:0.0; 
stroke:#008484; stroke-width:100; stroke-opacity:1; 
stroke-linecap:round; stroke-linejoin:round;">
<g transform="rotate(-90 8246.61 13267.7)">
<text x="8246.61" y="13467.7"
textLength="2682.38" font-size="533.333" lengthAdjust="spacingAndGlyphs"
text-anchor="middle" opacity="0">TEENSY1</text>
</g>
<path d="M8027 14505
L8027 14277
" />
<path d="M8427 14391
L8027 14391
" />
<path d="M8218 14143
L8218 14010
" />
<path d="M8427 13953
L8427 14143
L8027 14143
L8027 13953
" />
<path d="M8218 13782
L8218 13648
" />
<path d="M8427 13591
L8427 13782
L8027 13782
L8027 13591
" />
<path d="M8427 13420
L8027 13420
L8427 13191
L8027 13191
" />
<path d="M8408 13020
L8427 12962
L8427 12867
L8408 12829
L8389 12810
L8351 12791
L8313 12791
L8275 12810
L8256 12829
L8237 12867
L8218 12943
L8198 12982
L8179 13001
L8141 13020
L8103 13020
L8065 13001
L8046 12982
L8027 12943
L8027 12848
L8046 12791
" />
<path d="M8237 12543
L8427 12543
" />
<path d="M8027 12677
L8237 12543
L8027 12410
" />
<path d="M8427 12067
L8427 12296
" />
<path d="M8427 12182
L8027 12182
L8084 12220
L8122 12258
L8141 12296
" />
<g transform="rotate(-90 16246.6 13267.7)">
<text x="16246.6" y="13467.7"
textLength="3558.57" font-size="533.333" lengthAdjust="spacingAndGlyphs"
text-anchor="middle" opacity="0">TEENSY_4.1</text>
</g>
<path d="M16027 14943
L16027 14715
" />
<path d="M16427 14829
L16027 14829
" />
<path d="M16218 14582
L16218 14448
" />
<path d="M16427 14391
L16427 14582
L16027 14582
L16027 14391
" />
<path d="M16218 14220
L16218 14086
" />
<path d="M16427 14029
L16427 14220
L16027 14220
L16027 14029
" />
<path d="M16427 13858
L16027 13858
L16427 13629
L16027 13629
" />
<path d="M16408 13458
L16427 13401
L16427 13305
L16408 13267
L16389 13248
L16351 13229
L16313 13229
L16275 13248
L16256 13267
L16237 13305
L16218 13382
L16198 13420
L16179 13439
L16141 13458
L16103 13458
L16065 13439
L16046 13420
L16027 13382
L16027 13286
L16046 13229
" />
<path d="M16237 12982
L16427 12982
" />
<path d="M16027 13115
L16237 12982
L16027 12848
" />
<path d="M16465 12810
L16465 12505
" />
<path d="M16160 12239
L16427 12239
" />
<path d="M16008 12334
L16294 12429
L16294 12182
" />
<path d="M16389 12029
L16408 12010
L16427 12029
L16408 12048
L16389 12029
L16427 12029
" />
<path d="M16427 11629
L16427 11858
" />
<path d="M16427 11743
L16027 11743
L16084 11782
L16122 11820
L16141 11858
" />
</g>
<g style="fill:#008484; fill-opacity:0.0; 
stroke:#008484; stroke-width:47.5; stroke-opacity:1; 
stroke-linecap:round; stroke-linejoin:round;">
<text x="12246.6" y="15967.7"
textLength="5151.43" font-size="253.333" lengthAdjust="spacingAndGlyphs"
text-anchor="middle" opacity="0">&lt;- Insert Pin Rcpts This Side -&gt;</text>
<path d="M9925 15682
L9781 15796
L9925 15910
" />
<path d="M10016 15796
L10161 15796
" />
<path d="M10396 15948
L10396 15548
" />
<path d="M10486 15682
L10486 15948
" />
<path d="M10486 15720
L10495 15701
L10513 15682
L10541 15682
L10559 15701
L10568 15739
L10568 15948
" />
<path d="M10649 15929
L10667 15948
L10703 15948
L10722 15929
L10731 15891
L10731 15872
L10722 15834
L10703 15815
L10676 15815
L10658 15796
L10649 15758
L10649 15739
L10658 15701
L10676 15682
L10703 15682
L10722 15701
" />
<path d="M10884 15929
L10866 15948
L10830 15948
L10812 15929
L10803 15891
L10803 15739
L10812 15701
L10830 15682
L10866 15682
L10884 15701
L10893 15739
L10893 15777
L10803 15815
" />
<path d="M10975 15948
L10975 15682
" />
<path d="M10975 15758
L10984 15720
L10993 15701
L11011 15682
L11029 15682
" />
<path d="M11065 15682
L11138 15682
" />
<path d="M11093 15548
L11093 15891
L11102 15929
L11120 15948
L11138 15948
" />
<path d="M11346 15948
L11346 15548
L11418 15548
L11436 15567
L11445 15586
L11454 15624
L11454 15682
L11445 15720
L11436 15739
L11418 15758
L11346 15758
" />
<path d="M11536 15948
L11536 15682
" />
<path d="M11536 15548
L11527 15567
L11536 15586
L11545 15567
L11536 15548
L11536 15586
" />
<path d="M11626 15682
L11626 15948
" />
<path d="M11626 15720
L11635 15701
L11653 15682
L11681 15682
L11699 15701
L11708 15739
L11708 15948
" />
<path d="M12052 15948
L11988 15758
" />
<path d="M11943 15948
L11943 15548
L12015 15548
L12033 15567
L12043 15586
L12052 15624
L12052 15682
L12043 15720
L12033 15739
L12015 15758
L11943 15758
" />
<path d="M12214 15929
L12196 15948
L12160 15948
L12142 15929
L12133 15910
L12124 15872
L12124 15758
L12133 15720
L12142 15701
L12160 15682
L12196 15682
L12214 15701
" />
<path d="M12296 15682
L12296 16082
" />
<path d="M12296 15701
L12314 15682
L12350 15682
L12368 15701
L12377 15720
L12386 15758
L12386 15872
L12377 15910
L12368 15929
L12350 15948
L12314 15948
L12296 15929
" />
<path d="M12441 15682
L12513 15682
" />
<path d="M12468 15548
L12468 15891
L12477 15929
L12495 15948
L12513 15948
" />
<path d="M12567 15929
L12585 15948
L12622 15948
L12640 15929
L12649 15891
L12649 15872
L12640 15834
L12622 15815
L12594 15815
L12576 15796
L12567 15758
L12567 15739
L12576 15701
L12594 15682
L12622 15682
L12640 15701
" />
<path d="M12848 15548
L12956 15548
" />
<path d="M12902 15948
L12902 15548
" />
<path d="M13020 15948
L13020 15548
" />
<path d="M13101 15948
L13101 15739
L13092 15701
L13074 15682
L13047 15682
L13029 15701
L13020 15720
" />
<path d="M13192 15948
L13192 15682
" />
<path d="M13192 15548
L13183 15567
L13192 15586
L13201 15567
L13192 15548
L13192 15586
" />
<path d="M13273 15929
L13291 15948
L13327 15948
L13345 15929
L13354 15891
L13354 15872
L13345 15834
L13327 15815
L13300 15815
L13282 15796
L13273 15758
L13273 15739
L13282 15701
L13300 15682
L13327 15682
L13345 15701
" />
<path d="M13572 15929
L13599 15948
L13644 15948
L13662 15929
L13671 15910
L13680 15872
L13680 15834
L13671 15796
L13662 15777
L13644 15758
L13608 15739
L13590 15720
L13581 15701
L13572 15662
L13572 15624
L13581 15586
L13590 15567
L13608 15548
L13653 15548
L13680 15567
" />
<path d="M13762 15948
L13762 15682
" />
<path d="M13762 15548
L13753 15567
L13762 15586
L13771 15567
L13762 15548
L13762 15586
" />
<path d="M13933 15948
L13933 15548
" />
<path d="M13933 15929
L13915 15948
L13879 15948
L13861 15929
L13852 15910
L13843 15872
L13843 15758
L13852 15720
L13861 15701
L13879 15682
L13915 15682
L13933 15701
" />
<path d="M14096 15929
L14078 15948
L14042 15948
L14024 15929
L14015 15891
L14015 15739
L14024 15701
L14042 15682
L14078 15682
L14096 15701
L14105 15739
L14105 15777
L14015 15815
" />
<path d="M14332 15796
L14476 15796
" />
<path d="M14567 15682
L14712 15796
L14567 15910
" />
</g>
<g style="fill:#008484; fill-opacity:0.0; 
stroke:#008484; stroke-width:70; stroke-opacity:1; 
stroke-linecap:round; stroke-linejoin:round;">
<text x="12246.6" y="12467.7"
textLength="3318.89" font-size="533.333" lengthAdjust="spacingAndGlyphs"
text-anchor="middle" opacity="0">iMXRT1062</text>
<path d="M10713 12448
L10713 12182
" />
<path d="M10713 12048
L10694 12067
L10713 12086
L10732 12067
L10713 12048
L10713 12086
" />
<path d="M10903 12448
L10903 12048
L11037 12334
L11170 12048
L11170 12448
" />
<path d="M11322 12048
L11589 12448
" />
<path d="M11589 12048
L11322 12448
" />
<path d="M11970 12448
L11837 12258
" />
<path d="M11741 12448
L11741 12048
L11894 12048
L11932 12067
L11951 12086
L11970 12124
L11970 12182
L11951 12220
L11932 12239
L11894 12258
L11741 12258
" />
<path d="M12084 12048
L12313 12048
" />
<path d="M12198 12448
L12198 12048
" />
<path d="M12656 12448
L12427 12448
" />
<path d="M12541 12448
L12541 12048
L12503 12105
L12465 12143
L12427 12162
" />
<path d="M12903 12048
L12941 12048
L12979 12067
L12998 12086
L13018 12124
L13037 12201
L13037 12296
L13018 12372
L12998 12410
L12979 12429
L12941 12448
L12903 12448
L12865 12429
L12846 12410
L12827 12372
L12808 12296
L12808 12201
L12827 12124
L12846 12086
L12865 12067
L12903 12048
" />
<path d="M13379 12048
L13303 12048
L13265 12067
L13246 12086
L13208 12143
L13189 12220
L13189 12372
L13208 12410
L13227 12429
L13265 12448
L13341 12448
L13379 12429
L13398 12410
L13418 12372
L13418 12277
L13398 12239
L13379 12220
L13341 12201
L13265 12201
L13227 12220
L13208 12239
L13189 12277
" />
<path d="M13570 12086
L13589 12067
L13627 12048
L13722 12048
L13760 12067
L13779 12086
L13798 12124
L13798 12162
L13779 12220
L13551 12448
L13798 12448
" />
</g>
<g style="fill:#008484; fill-opacity:0.0; 
stroke:#008484; stroke-width:50; stroke-opacity:1; 
stroke-linecap:round; stroke-linejoin:round;">
<text x="8878.5" y="28409.1"
textLength="481.476" font-size="266.667" lengthAdjust="spacingAndGlyphs"
text-anchor="middle" opacity="0">P1</text>
<path d="M8730 28399
L8730 28199
L8807 28199
L8826 28209
L8835 28218
L8845 28237
L8845 28266
L8835 28285
L8826 28294
L8807 28304
L8730 28304
" />
<path d="M9035 28399
L8921 28399
" />
<path d="M8978 28399
L8978 28199
L8959 28228
L8940 28247
L8921 28256
" />
</g>
<g style="fill:#008484; fill-opacity:0.0; 
stroke:#008484; stroke-width:100; stroke-opacity:1; 
stroke-linecap:round; stroke-linejoin:round;">
<text x="7128.5" y="26509.1"
textLength="445.952" font-size="533.333" lengthAdjust="spacingAndGlyphs"
text-anchor="middle" opacity="0">0</text>
<path d="M7109 26090
L7147 26090
L7185 26109
L7204 26128
L7223 26166
L7242 26242
L7242 26337
L7223 26413
L7204 26451
L7185 26470
L7147 26490
L7109 26490
L7071 26470
L7052 26451
L7033 26413
L7014 26337
L7014 26242
L7033 26166
L7052 26128
L7071 26109
L7109 26090
" />
</g>
<g style="fill:#008484; fill-opacity:0.0; 
stroke:#008484; stroke-width:50; stroke-opacity:1; 
stroke-linecap:round; stroke-linejoin:round;">
<text x="8878.5" y="31558.7"
textLength="520.476" font-size="266.667" lengthAdjust="spacingAndGlyphs"
text-anchor="middle" opacity="0">P2</text>
<path d="M8730 31549
L8730 31349
L8807 31349
L8826 31358
L8835 31368
L8845 31387
L8845 31415
L8835 31434
L8826 31444
L8807 31453
L8730 31453
" />
<path d="M8921 31368
L8930 31358
L8949 31349
L8997 31349
L9016 31358
L9026 31368
L9035 31387
L9035 31406
L9026 31434
L8911 31549
L9035 31549
" />
</g>
<g style="fill:#008484; fill-opacity:0.0; 
stroke:#008484; stroke-width:100; stroke-opacity:1; 
stroke-linecap:round; stroke-linejoin:round;">
<text x="7128.5" y="29658.7"
textLength="445.952" font-size="533.333" lengthAdjust="spacingAndGlyphs"
text-anchor="middle" opacity="0">1</text>
<path d="M7242 29639
L7014 29639
" />
<path d="M7128 29639
L7128 29239
L7090 29296
L7052 29334
L7014 29353
" />
</g>
<g style="fill:#008484; fill-opacity:0.0; 
stroke:#008484; stroke-width:50; stroke-opacity:1; 
stroke-linecap:round; stroke-linejoin:round;">
<text x="8878.5" y="34708.3"
textLength="520.476" font-size="266.667" lengthAdjust="spacingAndGlyphs"
text-anchor="middle" opacity="0">P3</text>
<path d="M8730 34698
L8730 34498
L8807 34498
L8826 34508
L8835 34517
L8845 34536
L8845 34565
L8835 34584
L8826 34593
L8807 34603
L8730 34603
" />
<path d="M8911 34498
L9035 34498
L8968 34574
L8997 34574
L9016 34584
L9026 34593
L9035 34613
L9035 34660
L9026 34679
L9016 34689
L8997 34698
L8940 34698
L8921 34689
L8911 34679
" />
</g>
<g style="fill:#008484; fill-opacity:0.0; 
stroke:#008484; stroke-width:100; stroke-opacity:1; 
stroke-linecap:round; stroke-linejoin:round;">
<text x="7128.5" y="32808.3"
textLength="445.952" font-size="533.333" lengthAdjust="spacingAndGlyphs"
text-anchor="middle" opacity="0">2</text>
<path d="M7014 32427
L7033 32408
L7071 32389
L7166 32389
L7204 32408
L7223 32427
L7242 32465
L7242 32503
L7223 32560
L6995 32789
L7242 32789
" />
</g>
<g style="fill:#008484; fill-opacity:0.0; 
stroke:#008484; stroke-width:50; stroke-opacity:1; 
stroke-linecap:round; stroke-linejoin:round;">
<text x="8878.5" y="37857.9"
textLength="520.476" font-size="266.667" lengthAdjust="spacingAndGlyphs"
text-anchor="middle" opacity="0">P4</text>
<path d="M8730 37848
L8730 37648
L8807 37648
L8826 37657
L8835 37667
L8845 37686
L8845 37715
L8835 37734
L8826 37743
L8807 37753
L8730 37753
" />
<path d="M9016 37715
L9016 37848
" />
<path d="M8968 37638
L8921 37781
L9045 37781
" />
</g>
<g style="fill:#008484; fill-opacity:0.0; 
stroke:#008484; stroke-width:100; stroke-opacity:1; 
stroke-linecap:round; stroke-linejoin:round;">
<text x="7128.5" y="35957.9"
textLength="445.952" font-size="533.333" lengthAdjust="spacingAndGlyphs"
text-anchor="middle" opacity="0">3</text>
<path d="M6995 35538
L7242 35538
L7109 35691
L7166 35691
L7204 35710
L7223 35729
L7242 35767
L7242 35862
L7223 35900
L7204 35919
L7166 35938
L7052 35938
L7014 35919
L6995 35900
" />
</g>
<g style="fill:#008484; fill-opacity:0.0; 
stroke:#008484; stroke-width:50; stroke-opacity:1; 
stroke-linecap:round; stroke-linejoin:round;">
<text x="14016.3" y="28409.1"
textLength="520.476" font-size="266.667" lengthAdjust="spacingAndGlyphs"
text-anchor="middle" opacity="0">P5</text>
<path d="M13868 28399
L13868 28199
L13944 28199
L13963 28209
L13973 28218
L13982 28237
L13982 28266
L13973 28285
L13963 28294
L13944 28304
L13868 28304
" />
<path d="M14163 28199
L14068 28199
L14059 28294
L14068 28285
L14087 28275
L14135 28275
L14154 28285
L14163 28294
L14173 28313
L14173 28361
L14163 28380
L14154 28390
L14135 28399
L14087 28399
L14068 28390
L14059 28380
" />
</g>
<g style="fill:#008484; fill-opacity:0.0; 
stroke:#008484; stroke-width:100; stroke-opacity:1; 
stroke-linecap:round; stroke-linejoin:round;">
<text x="12266.3" y="26509.1"
textLength="445.952" font-size="533.333" lengthAdjust="spacingAndGlyphs"
text-anchor="middle" opacity="0">4</text>
<path d="M12342 26223
L12342 26490
" />
<path d="M12247 26070
L12152 26356
L12399 26356
" />
</g>
<g style="fill:#008484; fill-opacity:0.0; 
stroke:#008484; stroke-width:50; stroke-opacity:1; 
stroke-linecap:round; stroke-linejoin:round;">
<text x="13996.6" y="31558.7"
textLength="520.476" font-size="266.667" lengthAdjust="spacingAndGlyphs"
text-anchor="middle" opacity="0">P6</text>
<path d="M13848 31549
L13848 31349
L13925 31349
L13944 31358
L13953 31368
L13963 31387
L13963 31415
L13953 31434
L13944 31444
L13925 31453
L13848 31453
" />
<path d="M14134 31349
L14096 31349
L14077 31358
L14068 31368
L14048 31396
L14039 31434
L14039 31511
L14048 31530
L14058 31539
L14077 31549
L14115 31549
L14134 31539
L14144 31530
L14153 31511
L14153 31463
L14144 31444
L14134 31434
L14115 31425
L14077 31425
L14058 31434
L14048 31444
L14039 31463
" />
</g>
<g style="fill:#008484; fill-opacity:0.0; 
stroke:#008484; stroke-width:100; stroke-opacity:1; 
stroke-linecap:round; stroke-linejoin:round;">
<text x="12246.6" y="29658.7"
textLength="445.952" font-size="533.333" lengthAdjust="spacingAndGlyphs"
text-anchor="middle" opacity="0">5</text>
<path d="M12341 29239
L12151 29239
L12132 29430
L12151 29411
L12189 29391
L12284 29391
L12322 29411
L12341 29430
L12360 29468
L12360 29563
L12341 29601
L12322 29620
L12284 29639
L12189 29639
L12151 29620
L12132 29601
" />
</g>
<g style="fill:#008484; fill-opacity:0.0; 
stroke:#008484; stroke-width:50; stroke-opacity:1; 
stroke-linecap:round; stroke-linejoin:round;">
<text x="13996.6" y="34708.3"
textLength="520.476" font-size="266.667" lengthAdjust="spacingAndGlyphs"
text-anchor="middle" opacity="0">P7</text>
<path d="M13848 34698
L13848 34498
L13925 34498
L13944 34508
L13953 34517
L13963 34536
L13963 34565
L13953 34584
L13944 34593
L13925 34603
L13848 34603
" />
<path d="M14029 34498
L14163 34498
L14077 34698
" />
</g>
<g style="fill:#008484; fill-opacity:0.0; 
stroke:#008484; stroke-width:100; stroke-opacity:1; 
stroke-linecap:round; stroke-linejoin:round;">
<text x="12246.6" y="32808.3"
textLength="445.952" font-size="533.333" lengthAdjust="spacingAndGlyphs"
text-anchor="middle" opacity="0">6</text>
<path d="M12322 32389
L12246 32389
L12208 32408
L12189 32427
L12151 32484
L12132 32560
L12132 32713
L12151 32751
L12170 32770
L12208 32789
L12284 32789
L12322 32770
L12341 32751
L12360 32713
L12360 32617
L12341 32579
L12322 32560
L12284 32541
L12208 32541
L12170 32560
L12151 32579
L12132 32617
" />
</g>
<g style="fill:#008484; fill-opacity:0.0; 
stroke:#008484; stroke-width:50; stroke-opacity:1; 
stroke-linecap:round; stroke-linejoin:round;">
<text x="13996.6" y="37857.9"
textLength="520.476" font-size="266.667" lengthAdjust="spacingAndGlyphs"
text-anchor="middle" opacity="0">P8</text>
<path d="M13848 37848
L13848 37648
L13925 37648
L13944 37657
L13953 37667
L13963 37686
L13963 37715
L13953 37734
L13944 37743
L13925 37753
L13848 37753
" />
<path d="M14077 37734
L14058 37724
L14048 37715
L14039 37695
L14039 37686
L14048 37667
L14058 37657
L14077 37648
L14115 37648
L14134 37657
L14144 37667
L14153 37686
L14153 37695
L14144 37715
L14134 37724
L14115 37734
L14077 37734
L14058 37743
L14048 37753
L14039 37772
L14039 37810
L14048 37829
L14058 37838
L14077 37848
L14115 37848
L14134 37838
L14144 37829
L14153 37810
L14153 37772
L14144 37753
L14134 37743
L14115 37734
" />
</g>
<g style="fill:#008484; fill-opacity:0.0; 
stroke:#008484; stroke-width:100; stroke-opacity:1; 
stroke-linecap:round; stroke-linejoin:round;">
<text x="12246.6" y="35957.9"
textLength="445.952" font-size="533.333" lengthAdjust="spacingAndGlyphs"
text-anchor="middle" opacity="0">7</text>
<path d="M12113 35538
L12379 35538
L12208 35938
" />
</g>
<g style="fill:#008484; fill-opacity:0.0; 
stroke:#008484; stroke-width:50; stroke-opacity:1; 
stroke-linecap:round; stroke-linejoin:round;">
<text x="19114.7" y="28409.1"
textLength="520.476" font-size="266.667" lengthAdjust="spacingAndGlyphs"
text-anchor="middle" opacity="0">P9</text>
<path d="M18967 28399
L18967 28199
L19043 28199
L19062 28209
L19071 28218
L19081 28237
L19081 28266
L19071 28285
L19062 28294
L19043 28304
L18967 28304
" />
<path d="M19176 28399
L19214 28399
L19233 28390
L19243 28380
L19262 28351
L19271 28313
L19271 28237
L19262 28218
L19252 28209
L19233 28199
L19195 28199
L19176 28209
L19167 28218
L19157 28237
L19157 28285
L19167 28304
L19176 28313
L19195 28323
L19233 28323
L19252 28313
L19262 28304
L19271 28285
" />
</g>
<g style="fill:#008484; fill-opacity:0.0; 
stroke:#008484; stroke-width:100; stroke-opacity:1; 
stroke-linecap:round; stroke-linejoin:round;">
<text x="17364.7" y="26509.1"
textLength="445.952" font-size="533.333" lengthAdjust="spacingAndGlyphs"
text-anchor="middle" opacity="0">8</text>
<path d="M17326 26261
L17288 26242
L17269 26223
L17250 26185
L17250 26166
L17269 26128
L17288 26109
L17326 26090
L17402 26090
L17440 26109
L17459 26128
L17479 26166
L17479 26185
L17459 26223
L17440 26242
L17402 26261
L17326 26261
L17288 26280
L17269 26299
L17250 26337
L17250 26413
L17269 26451
L17288 26470
L17326 26490
L17402 26490
L17440 26470
L17459 26451
L17479 26413
L17479 26337
L17459 26299
L17440 26280
L17402 26261
" />
</g>
<g style="fill:#008484; fill-opacity:0.0; 
stroke:#008484; stroke-width:50; stroke-opacity:1; 
stroke-linecap:round; stroke-linejoin:round;">
<text x="19114.7" y="31558.7"
textLength="710.952" font-size="266.667" lengthAdjust="spacingAndGlyphs"
text-anchor="middle" opacity="0">P10</text>
<path d="M18871 31549
L18871 31349
L18948 31349
L18967 31358
L18976 31368
L18986 31387
L18986 31415
L18976 31434
L18967 31444
L18948 31453
L18871 31453
" />
<path d="M19176 31549
L19062 31549
" />
<path d="M19119 31549
L19119 31349
L19100 31377
L19081 31396
L19062 31406
" />
<path d="M19300 31349
L19319 31349
L19338 31358
L19348 31368
L19357 31387
L19367 31425
L19367 31472
L19357 31511
L19348 31530
L19338 31539
L19319 31549
L19300 31549
L19281 31539
L19271 31530
L19262 31511
L19252 31472
L19252 31425
L19262 31387
L19271 31368
L19281 31358
L19300 31349
" />
</g>
<g style="fill:#008484; fill-opacity:0.0; 
stroke:#008484; stroke-width:100; stroke-opacity:1; 
stroke-linecap:round; stroke-linejoin:round;">
<text x="17364.7" y="29658.7"
textLength="445.952" font-size="533.333" lengthAdjust="spacingAndGlyphs"
text-anchor="middle" opacity="0">9</text>
<path d="M17288 29639
L17364 29639
L17402 29620
L17421 29601
L17459 29544
L17479 29468
L17479 29315
L17459 29277
L17440 29258
L17402 29239
L17326 29239
L17288 29258
L17269 29277
L17250 29315
L17250 29411
L17269 29449
L17288 29468
L17326 29487
L17402 29487
L17440 29468
L17459 29449
L17479 29411
" />
</g>
<g style="fill:#008484; fill-opacity:0.0; 
stroke:#008484; stroke-width:50; stroke-opacity:1; 
stroke-linecap:round; stroke-linejoin:round;">
<text x="19114.7" y="34708.3"
textLength="710.952" font-size="266.667" lengthAdjust="spacingAndGlyphs"
text-anchor="middle" opacity="0">P11</text>
<path d="M18871 34698
L18871 34498
L18948 34498
L18967 34508
L18976 34517
L18986 34536
L18986 34565
L18976 34584
L18967 34593
L18948 34603
L18871 34603
" />
<path d="M19176 34698
L19062 34698
" />
<path d="M19119 34698
L19119 34498
L19100 34527
L19081 34546
L19062 34555
" />
<path d="M19367 34698
L19252 34698
" />
<path d="M19309 34698
L19309 34498
L19290 34527
L19271 34546
L19252 34555
" />
</g>
<g style="fill:#008484; fill-opacity:0.0; 
stroke:#008484; stroke-width:100; stroke-opacity:1; 
stroke-linecap:round; stroke-linejoin:round;">
<text x="17364.7" y="32808.3"
textLength="826.905" font-size="533.333" lengthAdjust="spacingAndGlyphs"
text-anchor="middle" opacity="0">10</text>
<path d="M17288 32789
L17059 32789
" />
<path d="M17174 32789
L17174 32389
L17136 32446
L17098 32484
L17059 32503
" />
<path d="M17536 32389
L17574 32389
L17612 32408
L17631 32427
L17650 32465
L17669 32541
L17669 32636
L17650 32713
L17631 32751
L17612 32770
L17574 32789
L17536 32789
L17498 32770
L17479 32751
L17459 32713
L17440 32636
L17440 32541
L17459 32465
L17479 32427
L17498 32408
L17536 32389
" />
</g>
<g style="fill:#008484; fill-opacity:0.0; 
stroke:#008484; stroke-width:50; stroke-opacity:1; 
stroke-linecap:round; stroke-linejoin:round;">
<text x="19114.7" y="37857.9"
textLength="710.952" font-size="266.667" lengthAdjust="spacingAndGlyphs"
text-anchor="middle" opacity="0">P12</text>
<path d="M18871 37848
L18871 37648
L18948 37648
L18967 37657
L18976 37667
L18986 37686
L18986 37715
L18976 37734
L18967 37743
L18948 37753
L18871 37753
" />
<path d="M19176 37848
L19062 37848
" />
<path d="M19119 37848
L19119 37648
L19100 37676
L19081 37695
L19062 37705
" />
<path d="M19252 37667
L19262 37657
L19281 37648
L19329 37648
L19348 37657
L19357 37667
L19367 37686
L19367 37705
L19357 37734
L19243 37848
L19367 37848
" />
</g>
<g style="fill:#008484; fill-opacity:0.0; 
stroke:#008484; stroke-width:100; stroke-opacity:1; 
stroke-linecap:round; stroke-linejoin:round;">
<text x="17364.7" y="35957.9"
textLength="826.905" font-size="533.333" lengthAdjust="spacingAndGlyphs"
text-anchor="middle" opacity="0">11</text>
<path d="M17288 35938
L17059 35938
" />
<path d="M17174 35938
L17174 35538
L17136 35595
L17098 35634
L17059 35653
" />
<path d="M17669 35938
L17440 35938
" />
<path d="M17555 35938
L17555 35538
L17517 35595
L17479 35634
L17440 35653
" />
<g >
</g>
</g>
<g style="fill:#000000; fill-opacity:0.0; 
stroke:#000000; stroke-width:100; stroke-opacity:1; 
stroke-linecap:round; stroke-linejoin:round;">
</g>
<g style="fill:#C2C200; fill-opacity:0.0; 
stroke:#C2C200; stroke-width:100; stroke-opacity:1; 
stroke-linecap:round; stroke-linejoin:round;">
</g>
<g style="fill:#C2C200; fill-opacity:0.0; 
stroke:#C2C200; stroke-width:19.685; stroke-opacity:1; 
stroke-linecap:round; stroke-linejoin:round;">
<path d="M3978 38976
L3978 1968
" />
<path d="M20514 1968
L20514 38976
" />
<path d="M19333 787
L5160 787
" />
<path d="M20514.3 1968.5 A1181.1 1181.1 0.0 0 0 19333.2 787.402" />
<path d="M19333.2 40157.5 A1181.1 1181.1 0.0 0 0 20514.3 38976.4" />
<path d="M5160 40157
L19333 40157
" />
<path d="M3978.9 38976.4 A1181.1 1181.1 0.0 0 0 5160 40157.5" />
<path d="M5160 787.402 A1181.1 1181.1 0.0 0 0 3978.9 1968.5" />
<g >
</g>
<g >
</g>
<g >
</g>
<g >
</g>
<g >
</g>
<g >
</g>
<g >
</g>
<g >
</g>
<g >
</g>
<g >
</g>
<g >
</g>
<g >
</g>
<g >
</g>
<g >
</g>
<g >
</g>
<g >
</g>
<g >
</g>
<g >
</g>
<g >
</g>
<g >
</g>
<g >
</g>
<g >
</g>
</g> 
</svg>
