%TF.GenerationSoftware,KiCad,Pcbnew,5.1.10-88a1d61d58~88~ubuntu20.10.1*%
%TF.CreationDate,2021-05-14T12:57:49-04:00*%
%TF.ProjectId,lick_detector_interface,6c69636b-5f64-4657-9465-63746f725f69,1.0*%
%TF.SameCoordinates,Original*%
%TF.FileFunction,Copper,L1,Top*%
%TF.FilePolarity,Positive*%
%FSLAX46Y46*%
G04 Gerber Fmt 4.6, Leading zero omitted, Abs format (unit mm)*
G04 Created by KiCad (PCBNEW 5.1.10-88a1d61d58~88~ubuntu20.10.1) date 2021-05-14 12:57:49*
%MOMM*%
%LPD*%
G01*
G04 APERTURE LIST*
%TA.AperFunction,ComponentPad*%
%ADD10O,2.540000X2.184400*%
%TD*%
%TA.AperFunction,ComponentPad*%
%ADD11R,2.540000X2.184400*%
%TD*%
%TA.AperFunction,SMDPad,CuDef*%
%ADD12R,0.800000X1.500000*%
%TD*%
%TA.AperFunction,SMDPad,CuDef*%
%ADD13R,0.600000X1.500000*%
%TD*%
%TA.AperFunction,SMDPad,CuDef*%
%ADD14C,0.500000*%
%TD*%
%TA.AperFunction,ComponentPad*%
%ADD15C,3.556000*%
%TD*%
%TA.AperFunction,ViaPad*%
%ADD16C,0.812800*%
%TD*%
%TA.AperFunction,Conductor*%
%ADD17C,0.304800*%
%TD*%
%TA.AperFunction,Conductor*%
%ADD18C,0.254000*%
%TD*%
%TA.AperFunction,Conductor*%
%ADD19C,0.100000*%
%TD*%
G04 APERTURE END LIST*
D10*
%TO.P,TEENSY1,*%
%TO.N,*%
X167620000Y-67050000D03*
%TO.P,TEENSY1,33*%
%TO.N,/INT1_9*%
X167620000Y-89910000D03*
%TO.P,TEENSY1,34*%
%TO.N,/INT2_9*%
X167620000Y-87370000D03*
%TO.P,TEENSY1,38*%
%TO.N,/~CS_10*%
X167620000Y-77210000D03*
%TO.P,TEENSY1,37*%
%TO.N,/INT2_10*%
X167620000Y-79750000D03*
%TO.P,TEENSY1,41*%
%TO.N,/~CS_11*%
X167620000Y-69590000D03*
%TO.P,TEENSY1,39*%
%TO.N,/INT1_11*%
X167620000Y-74670000D03*
%TO.P,TEENSY1,35*%
%TO.N,/~CS_9*%
X167620000Y-84830000D03*
%TO.P,TEENSY1,36*%
%TO.N,/INT1_10*%
X167620000Y-82290000D03*
%TO.P,TEENSY1,40*%
%TO.N,/INT2_11*%
X167620000Y-72130000D03*
%TO.P,TEENSY1,3V3*%
%TO.N,/VAA*%
X152380000Y-67050000D03*
%TO.P,TEENSY1,32*%
%TO.N,/~CS_6*%
X152380000Y-89910000D03*
%TO.P,TEENSY1,31*%
%TO.N,/INT2_6*%
X152380000Y-87370000D03*
%TO.P,TEENSY1,27*%
%TO.N,/INT1_7*%
X152380000Y-77210000D03*
%TO.P,TEENSY1,30*%
%TO.N,/INT1_6*%
X152380000Y-84830000D03*
%TO.P,TEENSY1,25*%
%TO.N,/INT2_8*%
X152380000Y-72130000D03*
%TO.P,TEENSY1,28*%
%TO.N,/INT2_7*%
X152380000Y-79750000D03*
%TO.P,TEENSY1,29*%
%TO.N,/~CS_7*%
X152380000Y-82290000D03*
%TO.P,TEENSY1,24*%
%TO.N,/INT1_8*%
X152380000Y-69590000D03*
%TO.P,TEENSY1,26*%
%TO.N,/~CS_8*%
X152380000Y-74670000D03*
%TO.P,TEENSY1,V_IN*%
%TO.N,N/C*%
X167620000Y-31490000D03*
%TO.P,TEENSY1,*%
%TO.N,*%
X167620000Y-34030000D03*
%TO.P,TEENSY1,3V3*%
%TO.N,/VAA*%
X167620000Y-36570000D03*
%TO.P,TEENSY1,23*%
%TO.N,N/C*%
X167620000Y-39110000D03*
%TO.P,TEENSY1,22*%
%TO.N,/~CS_5*%
X167620000Y-41650000D03*
%TO.P,TEENSY1,21*%
%TO.N,/INT2_5*%
X167620000Y-44190000D03*
%TO.P,TEENSY1,20*%
%TO.N,/INT1_5*%
X167620000Y-46730000D03*
%TO.P,TEENSY1,19*%
%TO.N,/~CS_4*%
X167620000Y-49270000D03*
%TO.P,TEENSY1,18*%
%TO.N,/INT2_4*%
X167620000Y-51810000D03*
%TO.P,TEENSY1,17*%
%TO.N,/INT1_4*%
X167620000Y-54350000D03*
%TO.P,TEENSY1,16*%
%TO.N,/~CS_3*%
X167620000Y-56890000D03*
%TO.P,TEENSY1,15*%
%TO.N,/INT2_3*%
X167620000Y-59430000D03*
%TO.P,TEENSY1,14*%
%TO.N,/INT1_3*%
X167620000Y-61970000D03*
%TO.P,TEENSY1,13*%
%TO.N,/SCK*%
X167620000Y-64510000D03*
%TO.P,TEENSY1,12*%
%TO.N,/MISO*%
X152380000Y-64510000D03*
%TO.P,TEENSY1,11*%
%TO.N,/MOSI*%
X152380000Y-61970000D03*
%TO.P,TEENSY1,10*%
%TO.N,/~CS_0*%
X152380000Y-59430000D03*
%TO.P,TEENSY1,9*%
%TO.N,/INT2_0*%
X152380000Y-56890000D03*
%TO.P,TEENSY1,8*%
%TO.N,/INT1_0*%
X152380000Y-54350000D03*
%TO.P,TEENSY1,7*%
%TO.N,/~CS_1*%
X152380000Y-51810000D03*
%TO.P,TEENSY1,6*%
%TO.N,/INT2_1*%
X152380000Y-49270000D03*
%TO.P,TEENSY1,5*%
%TO.N,/INT1_1*%
X152380000Y-46730000D03*
%TO.P,TEENSY1,4*%
%TO.N,/~CS_2*%
X152380000Y-44190000D03*
%TO.P,TEENSY1,3*%
%TO.N,/INT2_2*%
X152380000Y-41650000D03*
%TO.P,TEENSY1,2*%
%TO.N,/INT1_2*%
X152380000Y-39110000D03*
%TO.P,TEENSY1,1*%
%TO.N,N/C*%
X152380000Y-36570000D03*
%TO.P,TEENSY1,0*%
X152380000Y-34030000D03*
D11*
%TO.P,TEENSY1,GND*%
%TO.N,/GND*%
X152380000Y-31490000D03*
%TD*%
D12*
%TO.P,P1,*%
%TO.N,*%
X144250000Y-98400000D03*
X144250000Y-95600000D03*
X149750000Y-95600000D03*
X149750000Y-98400000D03*
D13*
%TO.P,P1,1*%
%TO.N,/~CS_0*%
X145250000Y-98400000D03*
%TO.P,P1,2*%
%TO.N,/GND*%
X145750000Y-95600000D03*
%TO.P,P1,3*%
%TO.N,/VAA*%
X146250000Y-98400000D03*
%TO.P,P1,4*%
%TO.N,/SCK*%
X146750000Y-95600000D03*
%TO.P,P1,5*%
%TO.N,/MOSI*%
X147250000Y-98400000D03*
%TO.P,P1,6*%
%TO.N,/MISO*%
X147750000Y-95600000D03*
%TO.P,P1,7*%
%TO.N,/INT2_0*%
X148250000Y-98400000D03*
%TO.P,P1,8*%
%TO.N,/INT1_0*%
X148750000Y-95600000D03*
%TD*%
D12*
%TO.P,P2,*%
%TO.N,*%
X144250000Y-106400000D03*
X144250000Y-103600000D03*
X149750000Y-103600000D03*
X149750000Y-106400000D03*
D13*
%TO.P,P2,1*%
%TO.N,/~CS_1*%
X145250000Y-106400000D03*
%TO.P,P2,2*%
%TO.N,/GND*%
X145750000Y-103600000D03*
%TO.P,P2,3*%
%TO.N,/VAA*%
X146250000Y-106400000D03*
%TO.P,P2,4*%
%TO.N,/SCK*%
X146750000Y-103600000D03*
%TO.P,P2,5*%
%TO.N,/MOSI*%
X147250000Y-106400000D03*
%TO.P,P2,6*%
%TO.N,/MISO*%
X147750000Y-103600000D03*
%TO.P,P2,7*%
%TO.N,/INT2_1*%
X148250000Y-106400000D03*
%TO.P,P2,8*%
%TO.N,/INT1_1*%
X148750000Y-103600000D03*
%TD*%
D12*
%TO.P,P3,*%
%TO.N,*%
X144250000Y-114400000D03*
X144250000Y-111600000D03*
X149750000Y-111600000D03*
X149750000Y-114400000D03*
D13*
%TO.P,P3,1*%
%TO.N,/~CS_2*%
X145250000Y-114400000D03*
%TO.P,P3,2*%
%TO.N,/GND*%
X145750000Y-111600000D03*
%TO.P,P3,3*%
%TO.N,/VAA*%
X146250000Y-114400000D03*
%TO.P,P3,4*%
%TO.N,/SCK*%
X146750000Y-111600000D03*
%TO.P,P3,5*%
%TO.N,/MOSI*%
X147250000Y-114400000D03*
%TO.P,P3,6*%
%TO.N,/MISO*%
X147750000Y-111600000D03*
%TO.P,P3,7*%
%TO.N,/INT2_2*%
X148250000Y-114400000D03*
%TO.P,P3,8*%
%TO.N,/INT1_2*%
X148750000Y-111600000D03*
%TD*%
D12*
%TO.P,P4,*%
%TO.N,*%
X144250000Y-122400000D03*
X144250000Y-119600000D03*
X149750000Y-119600000D03*
X149750000Y-122400000D03*
D13*
%TO.P,P4,1*%
%TO.N,/~CS_3*%
X145250000Y-122400000D03*
%TO.P,P4,2*%
%TO.N,/GND*%
X145750000Y-119600000D03*
%TO.P,P4,3*%
%TO.N,/VAA*%
X146250000Y-122400000D03*
%TO.P,P4,4*%
%TO.N,/SCK*%
X146750000Y-119600000D03*
%TO.P,P4,5*%
%TO.N,/MOSI*%
X147250000Y-122400000D03*
%TO.P,P4,6*%
%TO.N,/MISO*%
X147750000Y-119600000D03*
%TO.P,P4,7*%
%TO.N,/INT2_3*%
X148250000Y-122400000D03*
%TO.P,P4,8*%
%TO.N,/INT1_3*%
X148750000Y-119600000D03*
%TD*%
D12*
%TO.P,P5,*%
%TO.N,*%
X157300000Y-98400000D03*
X157300000Y-95600000D03*
X162800000Y-95600000D03*
X162800000Y-98400000D03*
D13*
%TO.P,P5,1*%
%TO.N,/~CS_4*%
X158300000Y-98400000D03*
%TO.P,P5,2*%
%TO.N,/GND*%
X158800000Y-95600000D03*
%TO.P,P5,3*%
%TO.N,/VAA*%
X159300000Y-98400000D03*
%TO.P,P5,4*%
%TO.N,/SCK*%
X159800000Y-95600000D03*
%TO.P,P5,5*%
%TO.N,/MOSI*%
X160300000Y-98400000D03*
%TO.P,P5,6*%
%TO.N,/MISO*%
X160800000Y-95600000D03*
%TO.P,P5,7*%
%TO.N,/INT2_4*%
X161300000Y-98400000D03*
%TO.P,P5,8*%
%TO.N,/INT1_4*%
X161800000Y-95600000D03*
%TD*%
D12*
%TO.P,P6,*%
%TO.N,*%
X157250000Y-106400000D03*
X157250000Y-103600000D03*
X162750000Y-103600000D03*
X162750000Y-106400000D03*
D13*
%TO.P,P6,1*%
%TO.N,/~CS_5*%
X158250000Y-106400000D03*
%TO.P,P6,2*%
%TO.N,/GND*%
X158750000Y-103600000D03*
%TO.P,P6,3*%
%TO.N,/VAA*%
X159250000Y-106400000D03*
%TO.P,P6,4*%
%TO.N,/SCK*%
X159750000Y-103600000D03*
%TO.P,P6,5*%
%TO.N,/MOSI*%
X160250000Y-106400000D03*
%TO.P,P6,6*%
%TO.N,/MISO*%
X160750000Y-103600000D03*
%TO.P,P6,7*%
%TO.N,/INT2_5*%
X161250000Y-106400000D03*
%TO.P,P6,8*%
%TO.N,/INT1_5*%
X161750000Y-103600000D03*
%TD*%
D12*
%TO.P,P7,*%
%TO.N,*%
X157250000Y-114400000D03*
X157250000Y-111600000D03*
X162750000Y-111600000D03*
X162750000Y-114400000D03*
D13*
%TO.P,P7,1*%
%TO.N,/~CS_6*%
X158250000Y-114400000D03*
%TO.P,P7,2*%
%TO.N,/GND*%
X158750000Y-111600000D03*
%TO.P,P7,3*%
%TO.N,/VAA*%
X159250000Y-114400000D03*
%TO.P,P7,4*%
%TO.N,/SCK*%
X159750000Y-111600000D03*
%TO.P,P7,5*%
%TO.N,/MOSI*%
X160250000Y-114400000D03*
%TO.P,P7,6*%
%TO.N,/MISO*%
X160750000Y-111600000D03*
%TO.P,P7,7*%
%TO.N,/INT2_6*%
X161250000Y-114400000D03*
%TO.P,P7,8*%
%TO.N,/INT1_6*%
X161750000Y-111600000D03*
%TD*%
D12*
%TO.P,P8,*%
%TO.N,*%
X157250000Y-122400000D03*
X157250000Y-119600000D03*
X162750000Y-119600000D03*
X162750000Y-122400000D03*
D13*
%TO.P,P8,1*%
%TO.N,/~CS_7*%
X158250000Y-122400000D03*
%TO.P,P8,2*%
%TO.N,/GND*%
X158750000Y-119600000D03*
%TO.P,P8,3*%
%TO.N,/VAA*%
X159250000Y-122400000D03*
%TO.P,P8,4*%
%TO.N,/SCK*%
X159750000Y-119600000D03*
%TO.P,P8,5*%
%TO.N,/MOSI*%
X160250000Y-122400000D03*
%TO.P,P8,6*%
%TO.N,/MISO*%
X160750000Y-119600000D03*
%TO.P,P8,7*%
%TO.N,/INT2_7*%
X161250000Y-122400000D03*
%TO.P,P8,8*%
%TO.N,/INT1_7*%
X161750000Y-119600000D03*
%TD*%
D12*
%TO.P,P9,*%
%TO.N,*%
X170250000Y-98400000D03*
X170250000Y-95600000D03*
X175750000Y-95600000D03*
X175750000Y-98400000D03*
D13*
%TO.P,P9,1*%
%TO.N,/~CS_8*%
X171250000Y-98400000D03*
%TO.P,P9,2*%
%TO.N,/GND*%
X171750000Y-95600000D03*
%TO.P,P9,3*%
%TO.N,/VAA*%
X172250000Y-98400000D03*
%TO.P,P9,4*%
%TO.N,/SCK*%
X172750000Y-95600000D03*
%TO.P,P9,5*%
%TO.N,/MOSI*%
X173250000Y-98400000D03*
%TO.P,P9,6*%
%TO.N,/MISO*%
X173750000Y-95600000D03*
%TO.P,P9,7*%
%TO.N,/INT2_8*%
X174250000Y-98400000D03*
%TO.P,P9,8*%
%TO.N,/INT1_8*%
X174750000Y-95600000D03*
%TD*%
D12*
%TO.P,P10,*%
%TO.N,*%
X170250000Y-106400000D03*
X170250000Y-103600000D03*
X175750000Y-103600000D03*
X175750000Y-106400000D03*
D13*
%TO.P,P10,1*%
%TO.N,/~CS_9*%
X171250000Y-106400000D03*
%TO.P,P10,2*%
%TO.N,/GND*%
X171750000Y-103600000D03*
%TO.P,P10,3*%
%TO.N,/VAA*%
X172250000Y-106400000D03*
%TO.P,P10,4*%
%TO.N,/SCK*%
X172750000Y-103600000D03*
%TO.P,P10,5*%
%TO.N,/MOSI*%
X173250000Y-106400000D03*
%TO.P,P10,6*%
%TO.N,/MISO*%
X173750000Y-103600000D03*
%TO.P,P10,7*%
%TO.N,/INT2_9*%
X174250000Y-106400000D03*
%TO.P,P10,8*%
%TO.N,/INT1_9*%
X174750000Y-103600000D03*
%TD*%
D12*
%TO.P,P11,*%
%TO.N,*%
X170250000Y-114400000D03*
X170250000Y-111600000D03*
X175750000Y-111600000D03*
X175750000Y-114400000D03*
D13*
%TO.P,P11,1*%
%TO.N,/~CS_10*%
X171250000Y-114400000D03*
%TO.P,P11,2*%
%TO.N,/GND*%
X171750000Y-111600000D03*
%TO.P,P11,3*%
%TO.N,/VAA*%
X172250000Y-114400000D03*
%TO.P,P11,4*%
%TO.N,/SCK*%
X172750000Y-111600000D03*
%TO.P,P11,5*%
%TO.N,/MOSI*%
X173250000Y-114400000D03*
%TO.P,P11,6*%
%TO.N,/MISO*%
X173750000Y-111600000D03*
%TO.P,P11,7*%
%TO.N,/INT2_10*%
X174250000Y-114400000D03*
%TO.P,P11,8*%
%TO.N,/INT1_10*%
X174750000Y-111600000D03*
%TD*%
D12*
%TO.P,P12,*%
%TO.N,*%
X170250000Y-122400000D03*
X170250000Y-119600000D03*
X175750000Y-119600000D03*
X175750000Y-122400000D03*
D13*
%TO.P,P12,1*%
%TO.N,/~CS_11*%
X171250000Y-122400000D03*
%TO.P,P12,2*%
%TO.N,/GND*%
X171750000Y-119600000D03*
%TO.P,P12,3*%
%TO.N,/VAA*%
X172250000Y-122400000D03*
%TO.P,P12,4*%
%TO.N,/SCK*%
X172750000Y-119600000D03*
%TO.P,P12,5*%
%TO.N,/MOSI*%
X173250000Y-122400000D03*
%TO.P,P12,6*%
%TO.N,/MISO*%
X173750000Y-119600000D03*
%TO.P,P12,7*%
%TO.N,/INT2_11*%
X174250000Y-122400000D03*
%TO.P,P12,8*%
%TO.N,/INT1_11*%
X174750000Y-119600000D03*
%TD*%
D14*
%TO.P,FID1,~*%
%TO.N,N/C*%
X140000000Y-35000000D03*
%TD*%
%TO.P,FID2,~*%
%TO.N,N/C*%
X180000000Y-35000000D03*
%TD*%
%TO.P,FID3,~*%
%TO.N,N/C*%
X180000000Y-123000000D03*
%TD*%
%TO.P,FID4,~*%
%TO.N,N/C*%
X140000000Y-123000000D03*
%TD*%
D15*
%TO.P,MH1,1*%
%TO.N,N/C*%
X142000000Y-32000000D03*
%TD*%
%TO.P,MH2,1*%
%TO.N,N/C*%
X178000000Y-32000000D03*
%TD*%
%TO.P,MH3,1*%
%TO.N,N/C*%
X178000000Y-126000000D03*
%TD*%
%TO.P,MH4,1*%
%TO.N,N/C*%
X142000000Y-126000000D03*
%TD*%
D16*
%TO.N,/SCK*%
X157555200Y-118213200D03*
X173033000Y-110114700D03*
X172787000Y-116123900D03*
X146982500Y-110233100D03*
X147036400Y-116981600D03*
X173029500Y-94220900D03*
X172750000Y-101296000D03*
X159764600Y-102222000D03*
X160047300Y-94217400D03*
X159809500Y-110189800D03*
%TO.N,/MOSI*%
X148168300Y-100411600D03*
X164195200Y-118055000D03*
X151664800Y-117744900D03*
X173250000Y-107954400D03*
X173998300Y-115909900D03*
X157440600Y-108381900D03*
X149393300Y-107810200D03*
X159438000Y-100358900D03*
X173037700Y-99761700D03*
%TO.N,/MISO*%
X163827600Y-106870400D03*
X160582100Y-118211700D03*
X174125600Y-117664200D03*
X175960200Y-101479500D03*
X175018400Y-107737500D03*
%TO.N,/GND*%
X160763000Y-109533700D03*
X171813700Y-100581600D03*
X171750000Y-117035100D03*
X171768400Y-110229700D03*
X145804800Y-117021400D03*
X145768400Y-94217400D03*
X145927700Y-110227200D03*
X161522600Y-100406400D03*
X145590300Y-102084800D03*
X158837400Y-118239200D03*
X158926700Y-94217400D03*
%TO.N,/VAA*%
X155656200Y-122123800D03*
X165585800Y-119595400D03*
X144573900Y-102182500D03*
X145250000Y-116027400D03*
%TO.N,/INT2_0*%
X149684800Y-63245700D03*
%TO.N,/INT1_0*%
X149136900Y-94223600D03*
%TO.N,/INT1_1*%
X149476100Y-101992700D03*
%TO.N,/INT2_2*%
X148209000Y-115783000D03*
%TO.N,/INT1_2*%
X148750000Y-110076000D03*
%TO.N,/INT1_3*%
X153034500Y-116958300D03*
%TO.N,/INT1_5*%
X163555900Y-59492600D03*
%TO.N,/INT2_5*%
X161250000Y-107764900D03*
%TO.N,/INT1_6*%
X164632300Y-96920600D03*
%TO.N,/~CS_7*%
X152479000Y-114681900D03*
%TO.N,/~CS_8*%
X170943300Y-97036800D03*
%TO.N,/INT2_8*%
X174054100Y-99761700D03*
%TO.N,/INT1_8*%
X172247700Y-92950600D03*
%TD*%
D17*
%TO.N,/SCK*%
X146750000Y-102494100D02*
X148070200Y-101173900D01*
X148070200Y-101173900D02*
X148491700Y-101173900D01*
X148491700Y-101173900D02*
X148931100Y-100734500D01*
X148931100Y-100734500D02*
X148931100Y-97470600D01*
X148931100Y-97470600D02*
X148166400Y-96705900D01*
X148166400Y-96705900D02*
X146750000Y-96705900D01*
X172750000Y-102494100D02*
X172750000Y-101296000D01*
X159750000Y-120705900D02*
X158295000Y-120705900D01*
X158295000Y-120705900D02*
X158075000Y-120485900D01*
X158075000Y-120485900D02*
X158075000Y-118733000D01*
X158075000Y-118733000D02*
X157555200Y-118213200D01*
X159750000Y-119600000D02*
X159750000Y-120705900D01*
X146982500Y-110233100D02*
X148215600Y-109000000D01*
X148215600Y-109000000D02*
X149296800Y-109000000D01*
X149296800Y-109000000D02*
X150506000Y-107790800D01*
X150506000Y-107790800D02*
X150506000Y-105443000D01*
X150506000Y-105443000D02*
X149768900Y-104705900D01*
X149768900Y-104705900D02*
X146750000Y-104705900D01*
X146750000Y-110494100D02*
X146982500Y-110261600D01*
X146982500Y-110261600D02*
X146982500Y-110233100D01*
X146750000Y-103600000D02*
X146750000Y-104705900D01*
X172750000Y-118494100D02*
X172787000Y-118457100D01*
X172787000Y-118457100D02*
X172787000Y-116123900D01*
X173033000Y-110114700D02*
X173033000Y-110211100D01*
X173033000Y-110211100D02*
X172750000Y-110494100D01*
X172750000Y-111600000D02*
X172750000Y-110494100D01*
X172750000Y-119600000D02*
X172750000Y-118494100D01*
X146750000Y-95600000D02*
X146750000Y-96705900D01*
X146750000Y-103600000D02*
X146750000Y-102494100D01*
X146750000Y-111600000D02*
X146750000Y-110494100D01*
X147036400Y-116981600D02*
X146750000Y-117268000D01*
X146750000Y-117268000D02*
X146750000Y-119600000D01*
X159750000Y-111047000D02*
X159750000Y-111600000D01*
X159750000Y-111047000D02*
X159750000Y-110494100D01*
X172750000Y-95600000D02*
X172750000Y-94494100D01*
X173029500Y-94220900D02*
X172756300Y-94494100D01*
X172756300Y-94494100D02*
X172750000Y-94494100D01*
X159750000Y-110494100D02*
X159750000Y-110249300D01*
X159750000Y-110249300D02*
X159809500Y-110189800D01*
X172750000Y-103600000D02*
X172750000Y-102494100D01*
X159800000Y-94494100D02*
X159800000Y-94464700D01*
X159800000Y-94464700D02*
X160047300Y-94217400D01*
X159750000Y-102494100D02*
X159764600Y-102479500D01*
X159764600Y-102479500D02*
X159764600Y-102222000D01*
X159750000Y-103600000D02*
X159750000Y-102494100D01*
X159800000Y-95600000D02*
X159800000Y-94494100D01*
%TO.N,/MOSI*%
X147250000Y-98400000D02*
X147250000Y-99505900D01*
X148168300Y-100411600D02*
X147262600Y-99505900D01*
X147262600Y-99505900D02*
X147250000Y-99505900D01*
X173250000Y-122400000D02*
X173250000Y-123505900D01*
X164195200Y-122644200D02*
X164195200Y-118055000D01*
X160250000Y-123505900D02*
X163333500Y-123505900D01*
X163333500Y-123505900D02*
X164195200Y-122644200D01*
X173250000Y-123505900D02*
X172709500Y-124046400D01*
X172709500Y-124046400D02*
X165597400Y-124046400D01*
X165597400Y-124046400D02*
X164195200Y-122644200D01*
X151664800Y-120359300D02*
X155352000Y-124046500D01*
X155352000Y-124046500D02*
X159709400Y-124046500D01*
X159709400Y-124046500D02*
X160250000Y-123505900D01*
X160250000Y-113294100D02*
X163317000Y-113294100D01*
X163317000Y-113294100D02*
X164195200Y-114172300D01*
X164195200Y-114172300D02*
X164195200Y-118055000D01*
X151664800Y-120359300D02*
X151664800Y-117744900D01*
X147250000Y-121294100D02*
X150730000Y-121294100D01*
X150730000Y-121294100D02*
X151664800Y-120359300D01*
X160250000Y-122400000D02*
X160250000Y-123505900D01*
X160250000Y-114400000D02*
X160250000Y-113294100D01*
X173250000Y-99505900D02*
X173037700Y-99718200D01*
X173037700Y-99718200D02*
X173037700Y-99761700D01*
X147250000Y-122400000D02*
X147250000Y-121294100D01*
X160250000Y-106400000D02*
X160250000Y-107505900D01*
X160250000Y-107505900D02*
X159374000Y-108381900D01*
X159374000Y-108381900D02*
X157440600Y-108381900D01*
X173998300Y-115909900D02*
X173594300Y-115505900D01*
X173594300Y-115505900D02*
X173250000Y-115505900D01*
X173250000Y-114400000D02*
X173250000Y-115505900D01*
X173250000Y-106400000D02*
X173250000Y-107954400D01*
X148950000Y-107534800D02*
X148470500Y-108014300D01*
X148470500Y-108014300D02*
X147041400Y-108014300D01*
X147041400Y-108014300D02*
X145076100Y-109979600D01*
X145076100Y-109979600D02*
X145076100Y-112495100D01*
X145076100Y-112495100D02*
X145286900Y-112705900D01*
X145286900Y-112705900D02*
X146661800Y-112705900D01*
X146661800Y-112705900D02*
X147250000Y-113294100D01*
X147250000Y-105294100D02*
X148705600Y-105294100D01*
X148705600Y-105294100D02*
X148950000Y-105538500D01*
X148950000Y-105538500D02*
X148950000Y-107534800D01*
X148950000Y-107534800D02*
X149225400Y-107810200D01*
X149225400Y-107810200D02*
X149393300Y-107810200D01*
X147250000Y-114400000D02*
X147250000Y-113294100D01*
X147250000Y-106400000D02*
X147250000Y-105294100D01*
X159438000Y-100358900D02*
X160291000Y-99505900D01*
X160291000Y-99505900D02*
X160300000Y-99505900D01*
X160300000Y-98400000D02*
X160300000Y-99505900D01*
X173250000Y-98400000D02*
X173250000Y-99505900D01*
%TO.N,/MISO*%
X150511600Y-101183100D02*
X150511600Y-94500900D01*
X150511600Y-94500900D02*
X149248600Y-93237900D01*
X149248600Y-93237900D02*
X149202100Y-93237900D01*
X151031200Y-112155900D02*
X151031200Y-101702700D01*
X151031200Y-101702700D02*
X150511600Y-101183100D01*
X150511600Y-101183100D02*
X149207800Y-101183100D01*
X149207800Y-101183100D02*
X147896800Y-102494100D01*
X147896800Y-102494100D02*
X147750000Y-102494100D01*
X147750000Y-103600000D02*
X147750000Y-102494100D01*
X149202100Y-93237900D02*
X149006200Y-93237900D01*
X149006200Y-93237900D02*
X147750000Y-94494100D01*
X152380000Y-64510000D02*
X149202100Y-67687900D01*
X149202100Y-67687900D02*
X149202100Y-93237900D01*
X160582100Y-118211700D02*
X159577000Y-117206600D01*
X159577000Y-117206600D02*
X156081900Y-117206600D01*
X156081900Y-117206600D02*
X151031200Y-112155900D01*
X151031200Y-112155900D02*
X150185900Y-113001200D01*
X150185900Y-113001200D02*
X148994000Y-113001200D01*
X160750000Y-111600000D02*
X160750000Y-110494100D01*
X163827600Y-106870400D02*
X163827600Y-107622600D01*
X163827600Y-107622600D02*
X160956100Y-110494100D01*
X160956100Y-110494100D02*
X160750000Y-110494100D01*
X160750000Y-104705900D02*
X162744400Y-104705900D01*
X162744400Y-104705900D02*
X163827600Y-105789100D01*
X163827600Y-105789100D02*
X163827600Y-106870400D01*
X160750000Y-103600000D02*
X160750000Y-104705900D01*
X160582100Y-118211700D02*
X160582100Y-118326200D01*
X160582100Y-118326200D02*
X160750000Y-118494100D01*
X160750000Y-119600000D02*
X160750000Y-118494100D01*
X148994000Y-113001200D02*
X148045300Y-113001200D01*
X148045300Y-113001200D02*
X147750000Y-112705900D01*
X147750000Y-119600000D02*
X147750000Y-117871700D01*
X147750000Y-117871700D02*
X148994000Y-116627700D01*
X148994000Y-116627700D02*
X148994000Y-113001200D01*
X160750000Y-103600000D02*
X160750000Y-102494100D01*
X160750000Y-102494100D02*
X162303900Y-100940200D01*
X162303900Y-100940200D02*
X162303900Y-99903900D01*
X162303900Y-99903900D02*
X162044000Y-99644000D01*
X162044000Y-99644000D02*
X162044000Y-97504700D01*
X162044000Y-97504700D02*
X160800000Y-96260700D01*
X160800000Y-96260700D02*
X160800000Y-95600000D01*
X147750000Y-95600000D02*
X147750000Y-94494100D01*
X147750000Y-111600000D02*
X147750000Y-112705900D01*
X174125600Y-117664200D02*
X173750000Y-118039800D01*
X173750000Y-118039800D02*
X173750000Y-119600000D01*
X175960200Y-101479500D02*
X176506000Y-100933700D01*
X176506000Y-100933700D02*
X176506000Y-97411500D01*
X176506000Y-97411500D02*
X175800400Y-96705900D01*
X175800400Y-96705900D02*
X173750000Y-96705900D01*
X173750000Y-102494100D02*
X174764600Y-101479500D01*
X174764600Y-101479500D02*
X175960200Y-101479500D01*
X173750000Y-95600000D02*
X173750000Y-96705900D01*
X173750000Y-103600000D02*
X173750000Y-102494100D01*
X173750000Y-110494100D02*
X175018400Y-109225700D01*
X175018400Y-109225700D02*
X175018400Y-107737500D01*
X173750000Y-111600000D02*
X173750000Y-110494100D01*
%TO.N,/~CS_0*%
X145250000Y-97294100D02*
X144283000Y-97294100D01*
X144283000Y-97294100D02*
X143494000Y-96505100D01*
X143494000Y-96505100D02*
X143494000Y-68316000D01*
X143494000Y-68316000D02*
X152380000Y-59430000D01*
X145250000Y-98400000D02*
X145250000Y-97294100D01*
%TO.N,/GND*%
X160763000Y-109422600D02*
X162082400Y-108103200D01*
X162082400Y-108103200D02*
X162082400Y-107519200D01*
X162082400Y-107519200D02*
X161906000Y-107342800D01*
X161906000Y-107342800D02*
X161906000Y-105483100D01*
X161906000Y-105483100D02*
X161716900Y-105294000D01*
X161716900Y-105294000D02*
X160462500Y-105294000D01*
X160462500Y-105294000D02*
X159902700Y-104734200D01*
X159902700Y-104734200D02*
X159305400Y-104734200D01*
X159305400Y-104734200D02*
X158750000Y-104178800D01*
X158750000Y-104178800D02*
X158750000Y-103600000D01*
X171750000Y-96705900D02*
X172298200Y-97254100D01*
X172298200Y-97254100D02*
X174671800Y-97254100D01*
X174671800Y-97254100D02*
X174906000Y-97488300D01*
X174906000Y-97488300D02*
X174906000Y-100013900D01*
X174906000Y-100013900D02*
X174386200Y-100533700D01*
X174386200Y-100533700D02*
X171861600Y-100533700D01*
X171861600Y-100533700D02*
X171813700Y-100581600D01*
X158750000Y-110494100D02*
X158750000Y-110171300D01*
X158750000Y-110171300D02*
X159498700Y-109422600D01*
X159498700Y-109422600D02*
X160763000Y-109422600D01*
X160763000Y-109533700D02*
X160763000Y-109422600D01*
X171750000Y-102494100D02*
X171813700Y-102430400D01*
X171813700Y-102430400D02*
X171813700Y-100581600D01*
X171750000Y-95600000D02*
X171750000Y-96705900D01*
X171750000Y-103600000D02*
X171750000Y-102494100D01*
X171750000Y-119600000D02*
X171750000Y-117035100D01*
X171750000Y-110494100D02*
X171750000Y-110248100D01*
X171750000Y-110248100D02*
X171768400Y-110229700D01*
X171750000Y-111600000D02*
X171750000Y-110494100D01*
X145750000Y-95600000D02*
X145750000Y-94235800D01*
X145750000Y-94235800D02*
X145768400Y-94217400D01*
X145804800Y-117021400D02*
X145750000Y-117076200D01*
X145750000Y-117076200D02*
X145750000Y-119600000D01*
X145927700Y-110227200D02*
X145927700Y-110316400D01*
X145927700Y-110316400D02*
X145750000Y-110494100D01*
X145750000Y-111600000D02*
X145750000Y-110494100D01*
X158750000Y-103600000D02*
X158750000Y-102125100D01*
X158750000Y-102125100D02*
X160468700Y-100406400D01*
X160468700Y-100406400D02*
X161522600Y-100406400D01*
X158750000Y-118494100D02*
X158837400Y-118406700D01*
X158837400Y-118406700D02*
X158837400Y-118239200D01*
X145750000Y-102494100D02*
X145750000Y-102244500D01*
X145750000Y-102244500D02*
X145590300Y-102084800D01*
X145750000Y-103600000D02*
X145750000Y-102494100D01*
X158750000Y-119600000D02*
X158750000Y-118494100D01*
X158800000Y-94494100D02*
X158926700Y-94367400D01*
X158926700Y-94367400D02*
X158926700Y-94217400D01*
X158800000Y-95600000D02*
X158800000Y-94494100D01*
X158750000Y-111600000D02*
X158750000Y-110494100D01*
%TO.N,/VAA*%
X172250000Y-98400000D02*
X172250000Y-99505900D01*
X172250000Y-106400000D02*
X172250000Y-105294100D01*
X172250000Y-105294100D02*
X171661800Y-104705900D01*
X171661800Y-104705900D02*
X171295800Y-104705900D01*
X171295800Y-104705900D02*
X171014300Y-104424400D01*
X171014300Y-104424400D02*
X171014300Y-100224200D01*
X171014300Y-100224200D02*
X171732600Y-99505900D01*
X171732600Y-99505900D02*
X172250000Y-99505900D01*
X172250000Y-113294100D02*
X171741600Y-112785700D01*
X171741600Y-112785700D02*
X171381800Y-112785700D01*
X171381800Y-112785700D02*
X171006000Y-112409900D01*
X171006000Y-112409900D02*
X171006000Y-108898200D01*
X171006000Y-108898200D02*
X172250000Y-107654200D01*
X172250000Y-107654200D02*
X172250000Y-106400000D01*
X156656500Y-107505900D02*
X154841800Y-105691200D01*
X154841800Y-105691200D02*
X154841800Y-69511800D01*
X154841800Y-69511800D02*
X152380000Y-67050000D01*
X159250000Y-122400000D02*
X159250000Y-123505900D01*
X155656200Y-122123800D02*
X155656200Y-122469500D01*
X155656200Y-122469500D02*
X156692600Y-123505900D01*
X156692600Y-123505900D02*
X159250000Y-123505900D01*
X165585800Y-119595400D02*
X169496300Y-123505900D01*
X169496300Y-123505900D02*
X172250000Y-123505900D01*
X159250000Y-113294100D02*
X159798200Y-112745900D01*
X159798200Y-112745900D02*
X163492300Y-112745900D01*
X163492300Y-112745900D02*
X165585800Y-114839400D01*
X165585800Y-114839400D02*
X165585800Y-119595400D01*
X172250000Y-122400000D02*
X172250000Y-123505900D01*
X156656500Y-107505900D02*
X156656500Y-108721900D01*
X156656500Y-108721900D02*
X158006000Y-110071400D01*
X158006000Y-110071400D02*
X158006000Y-112428100D01*
X158006000Y-112428100D02*
X158363700Y-112785800D01*
X158363700Y-112785800D02*
X158741700Y-112785800D01*
X158741700Y-112785800D02*
X159250000Y-113294100D01*
X156656500Y-107505900D02*
X159250000Y-107505900D01*
X159250000Y-114400000D02*
X159250000Y-113294100D01*
X159250000Y-106400000D02*
X159250000Y-107505900D01*
X172250000Y-121847000D02*
X172250000Y-122400000D01*
X172250000Y-121847000D02*
X172250000Y-121294100D01*
X172250000Y-114400000D02*
X172250000Y-115505900D01*
X172250000Y-121294100D02*
X171741600Y-120785700D01*
X171741600Y-120785700D02*
X171324600Y-120785700D01*
X171324600Y-120785700D02*
X171094000Y-120555100D01*
X171094000Y-120555100D02*
X171094000Y-117747000D01*
X171094000Y-117747000D02*
X170941500Y-117594500D01*
X170941500Y-117594500D02*
X170941500Y-116695700D01*
X170941500Y-116695700D02*
X172131300Y-115505900D01*
X172131300Y-115505900D02*
X172250000Y-115505900D01*
X172250000Y-114400000D02*
X172250000Y-113294100D01*
X159300000Y-99505900D02*
X159192500Y-99505900D01*
X159192500Y-99505900D02*
X158059500Y-100638900D01*
X158059500Y-100638900D02*
X158059500Y-104491200D01*
X158059500Y-104491200D02*
X158862400Y-105294100D01*
X158862400Y-105294100D02*
X159250000Y-105294100D01*
X159250000Y-106400000D02*
X159250000Y-105294100D01*
X144828000Y-102182500D02*
X144828000Y-102400500D01*
X144828000Y-102400500D02*
X145058300Y-102630800D01*
X145058300Y-102630800D02*
X145058300Y-104483400D01*
X145058300Y-104483400D02*
X145869000Y-105294100D01*
X145869000Y-105294100D02*
X146250000Y-105294100D01*
X146250000Y-99505900D02*
X144828000Y-100927900D01*
X144828000Y-100927900D02*
X144828000Y-102182500D01*
X144828000Y-102182500D02*
X144573900Y-102182500D01*
X145250000Y-116027400D02*
X145034500Y-116242900D01*
X145034500Y-116242900D02*
X145034500Y-120468200D01*
X145034500Y-120468200D02*
X145860400Y-121294100D01*
X145860400Y-121294100D02*
X146250000Y-121294100D01*
X146250000Y-122400000D02*
X146250000Y-121294100D01*
X145250000Y-116027400D02*
X145728500Y-116027400D01*
X145728500Y-116027400D02*
X146250000Y-115505900D01*
X146250000Y-106400000D02*
X146250000Y-105294100D01*
X146250000Y-114400000D02*
X146250000Y-115505900D01*
X146250000Y-98400000D02*
X146250000Y-99505900D01*
X159300000Y-98400000D02*
X159300000Y-99505900D01*
%TO.N,/INT2_0*%
X148250000Y-98400000D02*
X148250000Y-97772300D01*
X148250000Y-97772300D02*
X147696800Y-97219100D01*
X147696800Y-97219100D02*
X145908700Y-97219100D01*
X145908700Y-97219100D02*
X145395500Y-96705900D01*
X145395500Y-96705900D02*
X145286900Y-96705900D01*
X145286900Y-96705900D02*
X145006000Y-96425000D01*
X145006000Y-96425000D02*
X145006000Y-67924500D01*
X145006000Y-67924500D02*
X149684800Y-63245700D01*
%TO.N,/INT1_0*%
X148750000Y-94494100D02*
X148866400Y-94494100D01*
X148866400Y-94494100D02*
X149136900Y-94223600D01*
X148750000Y-95600000D02*
X148750000Y-94494100D01*
%TO.N,/INT1_1*%
X149476100Y-101992700D02*
X148974700Y-102494100D01*
X148974700Y-102494100D02*
X148750000Y-102494100D01*
X148750000Y-103600000D02*
X148750000Y-102494100D01*
%TO.N,/INT2_1*%
X148250000Y-107505900D02*
X143693400Y-107505900D01*
X143693400Y-107505900D02*
X142424200Y-106236700D01*
X142424200Y-106236700D02*
X142424200Y-59225800D01*
X142424200Y-59225800D02*
X152380000Y-49270000D01*
X148250000Y-106400000D02*
X148250000Y-107505900D01*
%TO.N,/~CS_1*%
X152380000Y-51810000D02*
X142932600Y-61257400D01*
X142932600Y-61257400D02*
X142932600Y-103964700D01*
X142932600Y-103964700D02*
X143673900Y-104706000D01*
X143673900Y-104706000D02*
X144217000Y-104706000D01*
X144217000Y-104706000D02*
X145250000Y-105739000D01*
X145250000Y-105739000D02*
X145250000Y-106400000D01*
%TO.N,/~CS_2*%
X145250000Y-114400000D02*
X145250000Y-113294100D01*
X152380000Y-44190000D02*
X141862600Y-54707400D01*
X141862600Y-54707400D02*
X141862600Y-110897200D01*
X141862600Y-110897200D02*
X144259500Y-113294100D01*
X144259500Y-113294100D02*
X145250000Y-113294100D01*
%TO.N,/INT2_2*%
X148209000Y-115783000D02*
X148250000Y-115742000D01*
X148250000Y-115742000D02*
X148250000Y-114400000D01*
%TO.N,/INT1_2*%
X148750000Y-110076000D02*
X148750000Y-111600000D01*
%TO.N,/INT1_3*%
X148750000Y-119600000D02*
X148750000Y-120705900D01*
X153034500Y-116958300D02*
X151371500Y-116958300D01*
X151371500Y-116958300D02*
X150537200Y-117792600D01*
X150537200Y-117792600D02*
X150537200Y-120471100D01*
X150537200Y-120471100D02*
X150302400Y-120705900D01*
X150302400Y-120705900D02*
X148750000Y-120705900D01*
%TO.N,/INT2_3*%
X148250000Y-123505900D02*
X149298900Y-124554800D01*
X149298900Y-124554800D02*
X175250400Y-124554800D01*
X175250400Y-124554800D02*
X180064300Y-119740900D01*
X180064300Y-119740900D02*
X180064300Y-71874300D01*
X180064300Y-71874300D02*
X167620000Y-59430000D01*
X148250000Y-122400000D02*
X148250000Y-123505900D01*
%TO.N,/~CS_3*%
X145250000Y-123505900D02*
X146808900Y-125064800D01*
X146808900Y-125064800D02*
X175459400Y-125064800D01*
X175459400Y-125064800D02*
X180572600Y-119951600D01*
X180572600Y-119951600D02*
X180572600Y-69842600D01*
X180572600Y-69842600D02*
X167620000Y-56890000D01*
X145250000Y-122400000D02*
X145250000Y-123505900D01*
%TO.N,/~CS_4*%
X158300000Y-98400000D02*
X158300000Y-97695600D01*
X158300000Y-97695600D02*
X157310400Y-96706000D01*
X157310400Y-96706000D02*
X156741600Y-96706000D01*
X156741600Y-96706000D02*
X156544000Y-96508400D01*
X156544000Y-96508400D02*
X156544000Y-60346000D01*
X156544000Y-60346000D02*
X167620000Y-49270000D01*
%TO.N,/INT2_4*%
X161300000Y-98400000D02*
X161300000Y-97774300D01*
X161300000Y-97774300D02*
X160580500Y-97054800D01*
X160580500Y-97054800D02*
X158698800Y-97054800D01*
X158698800Y-97054800D02*
X158136300Y-96492300D01*
X158136300Y-96492300D02*
X158136300Y-61293700D01*
X158136300Y-61293700D02*
X167620000Y-51810000D01*
%TO.N,/INT1_4*%
X167620000Y-54350000D02*
X161800000Y-60170000D01*
X161800000Y-60170000D02*
X161800000Y-94494100D01*
X161800000Y-95600000D02*
X161800000Y-94494100D01*
%TO.N,/INT1_5*%
X161750000Y-102494100D02*
X163555900Y-100688200D01*
X163555900Y-100688200D02*
X163555900Y-59492600D01*
X161750000Y-103600000D02*
X161750000Y-102494100D01*
%TO.N,/INT2_5*%
X161250000Y-107764900D02*
X161250000Y-106400000D01*
%TO.N,/~CS_5*%
X167620000Y-41650000D02*
X156032300Y-53237700D01*
X156032300Y-53237700D02*
X156032300Y-104038400D01*
X156032300Y-104038400D02*
X156699900Y-104706000D01*
X156699900Y-104706000D02*
X157211800Y-104706000D01*
X157211800Y-104706000D02*
X158250000Y-105744200D01*
X158250000Y-105744200D02*
X158250000Y-106400000D01*
%TO.N,/~CS_6*%
X158250000Y-113294100D02*
X157240500Y-113294100D01*
X157240500Y-113294100D02*
X154248900Y-110302500D01*
X154248900Y-110302500D02*
X154248900Y-93227000D01*
X154248900Y-93227000D02*
X152380000Y-91358100D01*
X158250000Y-114400000D02*
X158250000Y-113294100D01*
X152380000Y-89910000D02*
X152380000Y-91358100D01*
%TO.N,/INT2_6*%
X161250000Y-115505900D02*
X156697800Y-115505900D01*
X156697800Y-115505900D02*
X153573000Y-112381100D01*
X153573000Y-112381100D02*
X153573000Y-94261800D01*
X153573000Y-94261800D02*
X150741300Y-91430100D01*
X150741300Y-91430100D02*
X150741300Y-89008700D01*
X150741300Y-89008700D02*
X152380000Y-87370000D01*
X161250000Y-114400000D02*
X161250000Y-115505900D01*
%TO.N,/INT1_6*%
X161750000Y-110494100D02*
X164632300Y-107611800D01*
X164632300Y-107611800D02*
X164632300Y-96920600D01*
X161750000Y-111600000D02*
X161750000Y-110494100D01*
%TO.N,/INT1_7*%
X152380000Y-77210000D02*
X149710400Y-79879600D01*
X149710400Y-79879600D02*
X149710400Y-92652100D01*
X149710400Y-92652100D02*
X151740200Y-94681900D01*
X151740200Y-94681900D02*
X151740200Y-112020900D01*
X151740200Y-112020900D02*
X156244500Y-116525200D01*
X156244500Y-116525200D02*
X160029500Y-116525200D01*
X160029500Y-116525200D02*
X161750000Y-118245700D01*
X161750000Y-118245700D02*
X161750000Y-118494100D01*
X161750000Y-119600000D02*
X161750000Y-118494100D01*
%TO.N,/INT2_7*%
X161250000Y-122400000D02*
X161250000Y-121294100D01*
X152380000Y-79750000D02*
X150232900Y-81897100D01*
X150232900Y-81897100D02*
X150232900Y-92359400D01*
X150232900Y-92359400D02*
X152310100Y-94436600D01*
X152310100Y-94436600D02*
X152310100Y-111871700D01*
X152310100Y-111871700D02*
X156452700Y-116014300D01*
X156452700Y-116014300D02*
X160825400Y-116014300D01*
X160825400Y-116014300D02*
X163506000Y-118694900D01*
X163506000Y-118694900D02*
X163506000Y-120548800D01*
X163506000Y-120548800D02*
X162760700Y-121294100D01*
X162760700Y-121294100D02*
X161250000Y-121294100D01*
%TO.N,/~CS_7*%
X158250000Y-121294100D02*
X157282400Y-121294100D01*
X157282400Y-121294100D02*
X156157300Y-120169000D01*
X156157300Y-120169000D02*
X156157300Y-118360200D01*
X156157300Y-118360200D02*
X152479000Y-114681900D01*
X158250000Y-122400000D02*
X158250000Y-121294100D01*
%TO.N,/~CS_8*%
X171250000Y-97294100D02*
X170992700Y-97036800D01*
X170992700Y-97036800D02*
X170943300Y-97036800D01*
X171250000Y-98400000D02*
X171250000Y-97294100D01*
%TO.N,/INT2_8*%
X174250000Y-99505900D02*
X174054100Y-99701800D01*
X174054100Y-99701800D02*
X174054100Y-99761700D01*
X174250000Y-98400000D02*
X174250000Y-99505900D01*
%TO.N,/INT1_8*%
X172247700Y-92950600D02*
X173206500Y-92950600D01*
X173206500Y-92950600D02*
X174750000Y-94494100D01*
X174750000Y-95600000D02*
X174750000Y-94494100D01*
%TO.N,/INT1_9*%
X174750000Y-103600000D02*
X174750000Y-102494100D01*
X167620000Y-89910000D02*
X171785900Y-89910000D01*
X171785900Y-89910000D02*
X177014500Y-95138600D01*
X177014500Y-95138600D02*
X177014500Y-101537600D01*
X177014500Y-101537600D02*
X176058000Y-102494100D01*
X176058000Y-102494100D02*
X174750000Y-102494100D01*
%TO.N,/INT2_9*%
X174250000Y-105294100D02*
X175712400Y-105294100D01*
X175712400Y-105294100D02*
X177522800Y-103483700D01*
X177522800Y-103483700D02*
X177522800Y-94928100D01*
X177522800Y-94928100D02*
X169964700Y-87370000D01*
X169964700Y-87370000D02*
X169245900Y-87370000D01*
X174250000Y-106400000D02*
X174250000Y-105294100D01*
X167620000Y-87370000D02*
X169245900Y-87370000D01*
%TO.N,/~CS_9*%
X167620000Y-84830000D02*
X165984000Y-86466000D01*
X165984000Y-86466000D02*
X165984000Y-92319200D01*
X165984000Y-92319200D02*
X168477500Y-94812700D01*
X168477500Y-94812700D02*
X168477500Y-103481700D01*
X168477500Y-103481700D02*
X170289900Y-105294100D01*
X170289900Y-105294100D02*
X171250000Y-105294100D01*
X171250000Y-106400000D02*
X171250000Y-105294100D01*
%TO.N,/~CS_10*%
X167620000Y-77210000D02*
X165475600Y-79354400D01*
X165475600Y-79354400D02*
X165475600Y-92529600D01*
X165475600Y-92529600D02*
X167872700Y-94926700D01*
X167872700Y-94926700D02*
X167872700Y-110883200D01*
X167872700Y-110883200D02*
X170283600Y-113294100D01*
X170283600Y-113294100D02*
X171250000Y-113294100D01*
X171250000Y-114400000D02*
X171250000Y-113294100D01*
%TO.N,/INT2_10*%
X174250000Y-113294100D02*
X175732500Y-113294100D01*
X175732500Y-113294100D02*
X178539400Y-110487200D01*
X178539400Y-110487200D02*
X178539400Y-90669400D01*
X178539400Y-90669400D02*
X167620000Y-79750000D01*
X174250000Y-114400000D02*
X174250000Y-113294100D01*
%TO.N,/INT1_10*%
X174750000Y-110494100D02*
X178031100Y-107213000D01*
X178031100Y-107213000D02*
X178031100Y-92701100D01*
X178031100Y-92701100D02*
X167620000Y-82290000D01*
X174750000Y-111600000D02*
X174750000Y-110494100D01*
%TO.N,/INT1_11*%
X174750000Y-118494100D02*
X179047700Y-114196400D01*
X179047700Y-114196400D02*
X179047700Y-86097700D01*
X179047700Y-86097700D02*
X167620000Y-74670000D01*
X174750000Y-119600000D02*
X174750000Y-118494100D01*
%TO.N,/INT2_11*%
X174250000Y-121294100D02*
X175709900Y-121294100D01*
X175709900Y-121294100D02*
X179556000Y-117448000D01*
X179556000Y-117448000D02*
X179556000Y-84066000D01*
X179556000Y-84066000D02*
X167620000Y-72130000D01*
X174250000Y-122400000D02*
X174250000Y-121294100D01*
%TO.N,/~CS_11*%
X171250000Y-122400000D02*
X171250000Y-121294100D01*
X167620000Y-69590000D02*
X164967200Y-72242800D01*
X164967200Y-72242800D02*
X164967200Y-93346500D01*
X164967200Y-93346500D02*
X166348200Y-94727500D01*
X166348200Y-94727500D02*
X166348200Y-117353200D01*
X166348200Y-117353200D02*
X170289100Y-121294100D01*
X170289100Y-121294100D02*
X171250000Y-121294100D01*
%TD*%
D18*
%TO.N,/VAA*%
X178533213Y-29307099D02*
X179046106Y-29461951D01*
X179519161Y-29713477D01*
X179934352Y-30052099D01*
X180275861Y-30464913D01*
X180530682Y-30936196D01*
X180689114Y-31448001D01*
X180746374Y-31992794D01*
X180746400Y-32000310D01*
X180746400Y-69333900D01*
X169024647Y-57612147D01*
X169118284Y-57436963D01*
X169199619Y-57168839D01*
X169227082Y-56890000D01*
X169199619Y-56611161D01*
X169118284Y-56343037D01*
X168986205Y-56095933D01*
X168808455Y-55879345D01*
X168591867Y-55701595D01*
X168439213Y-55620000D01*
X168591867Y-55538405D01*
X168808455Y-55360655D01*
X168986205Y-55144067D01*
X169118284Y-54896963D01*
X169199619Y-54628839D01*
X169227082Y-54350000D01*
X169199619Y-54071161D01*
X169118284Y-53803037D01*
X168986205Y-53555933D01*
X168808455Y-53339345D01*
X168591867Y-53161595D01*
X168439213Y-53080000D01*
X168591867Y-52998405D01*
X168808455Y-52820655D01*
X168986205Y-52604067D01*
X169118284Y-52356963D01*
X169199619Y-52088839D01*
X169227082Y-51810000D01*
X169199619Y-51531161D01*
X169118284Y-51263037D01*
X168986205Y-51015933D01*
X168808455Y-50799345D01*
X168591867Y-50621595D01*
X168439213Y-50540000D01*
X168591867Y-50458405D01*
X168808455Y-50280655D01*
X168986205Y-50064067D01*
X169118284Y-49816963D01*
X169199619Y-49548839D01*
X169227082Y-49270000D01*
X169199619Y-48991161D01*
X169118284Y-48723037D01*
X168986205Y-48475933D01*
X168808455Y-48259345D01*
X168591867Y-48081595D01*
X168439213Y-48000000D01*
X168591867Y-47918405D01*
X168808455Y-47740655D01*
X168986205Y-47524067D01*
X169118284Y-47276963D01*
X169199619Y-47008839D01*
X169227082Y-46730000D01*
X169199619Y-46451161D01*
X169118284Y-46183037D01*
X168986205Y-45935933D01*
X168808455Y-45719345D01*
X168591867Y-45541595D01*
X168439213Y-45460000D01*
X168591867Y-45378405D01*
X168808455Y-45200655D01*
X168986205Y-44984067D01*
X169118284Y-44736963D01*
X169199619Y-44468839D01*
X169227082Y-44190000D01*
X169199619Y-43911161D01*
X169118284Y-43643037D01*
X168986205Y-43395933D01*
X168808455Y-43179345D01*
X168591867Y-43001595D01*
X168439213Y-42920000D01*
X168591867Y-42838405D01*
X168808455Y-42660655D01*
X168986205Y-42444067D01*
X169118284Y-42196963D01*
X169199619Y-41928839D01*
X169227082Y-41650000D01*
X169199619Y-41371161D01*
X169118284Y-41103037D01*
X168986205Y-40855933D01*
X168808455Y-40639345D01*
X168591867Y-40461595D01*
X168439213Y-40380000D01*
X168591867Y-40298405D01*
X168808455Y-40120655D01*
X168986205Y-39904067D01*
X169118284Y-39656963D01*
X169199619Y-39388839D01*
X169227082Y-39110000D01*
X169199619Y-38831161D01*
X169118284Y-38563037D01*
X168986205Y-38315933D01*
X168808455Y-38099345D01*
X168719918Y-38026684D01*
X168934187Y-37874174D01*
X169166783Y-37627417D01*
X169346770Y-37340024D01*
X169467231Y-37023039D01*
X169479251Y-36964899D01*
X169361100Y-36697000D01*
X167747000Y-36697000D01*
X167747000Y-36717000D01*
X167493000Y-36717000D01*
X167493000Y-36697000D01*
X165878900Y-36697000D01*
X165760749Y-36964899D01*
X165772769Y-37023039D01*
X165893230Y-37340024D01*
X166073217Y-37627417D01*
X166305813Y-37874174D01*
X166520082Y-38026684D01*
X166431545Y-38099345D01*
X166253795Y-38315933D01*
X166121716Y-38563037D01*
X166040381Y-38831161D01*
X166012918Y-39110000D01*
X166040381Y-39388839D01*
X166121716Y-39656963D01*
X166253795Y-39904067D01*
X166431545Y-40120655D01*
X166648133Y-40298405D01*
X166800787Y-40380000D01*
X166648133Y-40461595D01*
X166431545Y-40639345D01*
X166253795Y-40855933D01*
X166121716Y-41103037D01*
X166040381Y-41371161D01*
X166012918Y-41650000D01*
X166040381Y-41928839D01*
X166121716Y-42196963D01*
X166215353Y-42372148D01*
X155707818Y-52879683D01*
X155689399Y-52894799D01*
X155629091Y-52968285D01*
X155584278Y-53052124D01*
X155556683Y-53143095D01*
X155549914Y-53211819D01*
X155547365Y-53237700D01*
X155549700Y-53261405D01*
X155549701Y-104014685D01*
X155547365Y-104038400D01*
X155556684Y-104133006D01*
X155584278Y-104223976D01*
X155619134Y-104289186D01*
X155629092Y-104307815D01*
X155689400Y-104381301D01*
X155707813Y-104396412D01*
X156341886Y-105030486D01*
X156356999Y-105048901D01*
X156430485Y-105109209D01*
X156514136Y-105153922D01*
X156514323Y-105154022D01*
X156605293Y-105181617D01*
X156699900Y-105190935D01*
X156723607Y-105188600D01*
X157011901Y-105188600D01*
X157141504Y-105318203D01*
X156850000Y-105318203D01*
X156785270Y-105324578D01*
X156723027Y-105343460D01*
X156665663Y-105374121D01*
X156615384Y-105415384D01*
X156574121Y-105465663D01*
X156543460Y-105523027D01*
X156524578Y-105585270D01*
X156518203Y-105650000D01*
X156518203Y-107150000D01*
X156524578Y-107214730D01*
X156543460Y-107276973D01*
X156574121Y-107334337D01*
X156615384Y-107384616D01*
X156665663Y-107425879D01*
X156723027Y-107456540D01*
X156785270Y-107475422D01*
X156850000Y-107481797D01*
X157650000Y-107481797D01*
X157714730Y-107475422D01*
X157776973Y-107456540D01*
X157800000Y-107444232D01*
X157823027Y-107456540D01*
X157885270Y-107475422D01*
X157950000Y-107481797D01*
X158407331Y-107481797D01*
X158419463Y-107504494D01*
X158498815Y-107601185D01*
X158595506Y-107680537D01*
X158705820Y-107739502D01*
X158825518Y-107775812D01*
X158950000Y-107788072D01*
X158964250Y-107785000D01*
X159123000Y-107626250D01*
X159123000Y-106527000D01*
X159103000Y-106527000D01*
X159103000Y-106273000D01*
X159123000Y-106273000D01*
X159123000Y-106253000D01*
X159377000Y-106253000D01*
X159377000Y-106273000D01*
X159397000Y-106273000D01*
X159397000Y-106527000D01*
X159377000Y-106527000D01*
X159377000Y-107626250D01*
X159412075Y-107661325D01*
X159174101Y-107899300D01*
X157999710Y-107899300D01*
X157910155Y-107809745D01*
X157789511Y-107729134D01*
X157655458Y-107673607D01*
X157513149Y-107645300D01*
X157368051Y-107645300D01*
X157225742Y-107673607D01*
X157091689Y-107729134D01*
X156971045Y-107809745D01*
X156868445Y-107912345D01*
X156787834Y-108032989D01*
X156732307Y-108167042D01*
X156704000Y-108309351D01*
X156704000Y-108454449D01*
X156732307Y-108596758D01*
X156787834Y-108730811D01*
X156868445Y-108851455D01*
X156971045Y-108954055D01*
X157091689Y-109034666D01*
X157225742Y-109090193D01*
X157368051Y-109118500D01*
X157513149Y-109118500D01*
X157655458Y-109090193D01*
X157789511Y-109034666D01*
X157910155Y-108954055D01*
X157999710Y-108864500D01*
X159350295Y-108864500D01*
X159374000Y-108866835D01*
X159397705Y-108864500D01*
X159397707Y-108864500D01*
X159468606Y-108857517D01*
X159559577Y-108829922D01*
X159643415Y-108785109D01*
X159716901Y-108724801D01*
X159732017Y-108706382D01*
X160527926Y-107910474D01*
X160541707Y-107979758D01*
X160597234Y-108113811D01*
X160677845Y-108234455D01*
X160780445Y-108337055D01*
X160901089Y-108417666D01*
X161031441Y-108471660D01*
X160706001Y-108797100D01*
X160690451Y-108797100D01*
X160548142Y-108825407D01*
X160414089Y-108880934D01*
X160325690Y-108940000D01*
X159522407Y-108940000D01*
X159498700Y-108937665D01*
X159404093Y-108946983D01*
X159356088Y-108961545D01*
X159313123Y-108974578D01*
X159229285Y-109019391D01*
X159155799Y-109079699D01*
X159140687Y-109098113D01*
X158425513Y-109813288D01*
X158407100Y-109828399D01*
X158391989Y-109846812D01*
X158391987Y-109846814D01*
X158346792Y-109901885D01*
X158301978Y-109985724D01*
X158294134Y-110011584D01*
X158274383Y-110076694D01*
X158267400Y-110147593D01*
X158265065Y-110171300D01*
X158267400Y-110195005D01*
X158267400Y-110517806D01*
X158267401Y-110517816D01*
X158267401Y-110573192D01*
X158265663Y-110574121D01*
X158215384Y-110615384D01*
X158174121Y-110665663D01*
X158143460Y-110723027D01*
X158124578Y-110785270D01*
X158118203Y-110850000D01*
X158118203Y-112350000D01*
X158124578Y-112414730D01*
X158143460Y-112476973D01*
X158174121Y-112534337D01*
X158215384Y-112584616D01*
X158265663Y-112625879D01*
X158323027Y-112656540D01*
X158385270Y-112675422D01*
X158450000Y-112681797D01*
X159050000Y-112681797D01*
X159114730Y-112675422D01*
X159176973Y-112656540D01*
X159234337Y-112625879D01*
X159250000Y-112613025D01*
X159265663Y-112625879D01*
X159323027Y-112656540D01*
X159385270Y-112675422D01*
X159450000Y-112681797D01*
X160050000Y-112681797D01*
X160114730Y-112675422D01*
X160176973Y-112656540D01*
X160234337Y-112625879D01*
X160250000Y-112613025D01*
X160265663Y-112625879D01*
X160323027Y-112656540D01*
X160385270Y-112675422D01*
X160450000Y-112681797D01*
X161050000Y-112681797D01*
X161114730Y-112675422D01*
X161176973Y-112656540D01*
X161234337Y-112625879D01*
X161250000Y-112613025D01*
X161265663Y-112625879D01*
X161323027Y-112656540D01*
X161385270Y-112675422D01*
X161450000Y-112681797D01*
X162050000Y-112681797D01*
X162114730Y-112675422D01*
X162176973Y-112656540D01*
X162200000Y-112644232D01*
X162223027Y-112656540D01*
X162285270Y-112675422D01*
X162350000Y-112681797D01*
X163150000Y-112681797D01*
X163214730Y-112675422D01*
X163276973Y-112656540D01*
X163334337Y-112625879D01*
X163384616Y-112584616D01*
X163425879Y-112534337D01*
X163456540Y-112476973D01*
X163475422Y-112414730D01*
X163481797Y-112350000D01*
X163481797Y-110850000D01*
X163475422Y-110785270D01*
X163456540Y-110723027D01*
X163425879Y-110665663D01*
X163384616Y-110615384D01*
X163334337Y-110574121D01*
X163276973Y-110543460D01*
X163214730Y-110524578D01*
X163150000Y-110518203D01*
X162408396Y-110518203D01*
X164956788Y-107969812D01*
X164975201Y-107954701D01*
X165035509Y-107881215D01*
X165080322Y-107797377D01*
X165084076Y-107785000D01*
X165107917Y-107706407D01*
X165117235Y-107611800D01*
X165114900Y-107588093D01*
X165114900Y-97479710D01*
X165204455Y-97390155D01*
X165285066Y-97269511D01*
X165340593Y-97135458D01*
X165368900Y-96993149D01*
X165368900Y-96848051D01*
X165340593Y-96705742D01*
X165285066Y-96571689D01*
X165204455Y-96451045D01*
X165101855Y-96348445D01*
X164981211Y-96267834D01*
X164847158Y-96212307D01*
X164704849Y-96184000D01*
X164559751Y-96184000D01*
X164417442Y-96212307D01*
X164283389Y-96267834D01*
X164162745Y-96348445D01*
X164060145Y-96451045D01*
X164038500Y-96483439D01*
X164038500Y-60051710D01*
X164128055Y-59962155D01*
X164208666Y-59841511D01*
X164264193Y-59707458D01*
X164292500Y-59565149D01*
X164292500Y-59420051D01*
X164264193Y-59277742D01*
X164208666Y-59143689D01*
X164128055Y-59023045D01*
X164025455Y-58920445D01*
X163904811Y-58839834D01*
X163839654Y-58812845D01*
X166040276Y-56612223D01*
X166012918Y-56890000D01*
X166040381Y-57168839D01*
X166121716Y-57436963D01*
X166253795Y-57684067D01*
X166431545Y-57900655D01*
X166648133Y-58078405D01*
X166800787Y-58160000D01*
X166648133Y-58241595D01*
X166431545Y-58419345D01*
X166253795Y-58635933D01*
X166121716Y-58883037D01*
X166040381Y-59151161D01*
X166012918Y-59430000D01*
X166040381Y-59708839D01*
X166121716Y-59976963D01*
X166253795Y-60224067D01*
X166431545Y-60440655D01*
X166648133Y-60618405D01*
X166800787Y-60700000D01*
X166648133Y-60781595D01*
X166431545Y-60959345D01*
X166253795Y-61175933D01*
X166121716Y-61423037D01*
X166040381Y-61691161D01*
X166012918Y-61970000D01*
X166040381Y-62248839D01*
X166121716Y-62516963D01*
X166253795Y-62764067D01*
X166431545Y-62980655D01*
X166648133Y-63158405D01*
X166800787Y-63240000D01*
X166648133Y-63321595D01*
X166431545Y-63499345D01*
X166253795Y-63715933D01*
X166121716Y-63963037D01*
X166040381Y-64231161D01*
X166012918Y-64510000D01*
X166040381Y-64788839D01*
X166121716Y-65056963D01*
X166253795Y-65304067D01*
X166431545Y-65520655D01*
X166648133Y-65698405D01*
X166800787Y-65780000D01*
X166648133Y-65861595D01*
X166431545Y-66039345D01*
X166253795Y-66255933D01*
X166121716Y-66503037D01*
X166040381Y-66771161D01*
X166012918Y-67050000D01*
X166040381Y-67328839D01*
X166121716Y-67596963D01*
X166253795Y-67844067D01*
X166431545Y-68060655D01*
X166648133Y-68238405D01*
X166800787Y-68320000D01*
X166648133Y-68401595D01*
X166431545Y-68579345D01*
X166253795Y-68795933D01*
X166121716Y-69043037D01*
X166040381Y-69311161D01*
X166012918Y-69590000D01*
X166040381Y-69868839D01*
X166121716Y-70136963D01*
X166215353Y-70312147D01*
X164642718Y-71884783D01*
X164624299Y-71899899D01*
X164563991Y-71973385D01*
X164519178Y-72057224D01*
X164491583Y-72148195D01*
X164484787Y-72217200D01*
X164482265Y-72242800D01*
X164484600Y-72266505D01*
X164484601Y-93322785D01*
X164482265Y-93346500D01*
X164491584Y-93441106D01*
X164519178Y-93532076D01*
X164563992Y-93615915D01*
X164593151Y-93651445D01*
X164624300Y-93689401D01*
X164642713Y-93704512D01*
X165865600Y-94927400D01*
X165865601Y-117329485D01*
X165863265Y-117353200D01*
X165872584Y-117447806D01*
X165900178Y-117538776D01*
X165944992Y-117622615D01*
X165987299Y-117674166D01*
X166005300Y-117696101D01*
X166023713Y-117711212D01*
X169679322Y-121366821D01*
X169665663Y-121374121D01*
X169615384Y-121415384D01*
X169574121Y-121465663D01*
X169543460Y-121523027D01*
X169524578Y-121585270D01*
X169518203Y-121650000D01*
X169518203Y-123150000D01*
X169524578Y-123214730D01*
X169543460Y-123276973D01*
X169574121Y-123334337D01*
X169615384Y-123384616D01*
X169665663Y-123425879D01*
X169723027Y-123456540D01*
X169785270Y-123475422D01*
X169850000Y-123481797D01*
X170650000Y-123481797D01*
X170714730Y-123475422D01*
X170776973Y-123456540D01*
X170800000Y-123444232D01*
X170823027Y-123456540D01*
X170885270Y-123475422D01*
X170950000Y-123481797D01*
X171407331Y-123481797D01*
X171419463Y-123504494D01*
X171468134Y-123563800D01*
X165797299Y-123563800D01*
X164677800Y-122444301D01*
X164677800Y-118614110D01*
X164767355Y-118524555D01*
X164847966Y-118403911D01*
X164903493Y-118269858D01*
X164931800Y-118127549D01*
X164931800Y-117982451D01*
X164903493Y-117840142D01*
X164847966Y-117706089D01*
X164767355Y-117585445D01*
X164677800Y-117495890D01*
X164677800Y-114195996D01*
X164680134Y-114172299D01*
X164677800Y-114148602D01*
X164677800Y-114148593D01*
X164670817Y-114077694D01*
X164643222Y-113986723D01*
X164598409Y-113902885D01*
X164538101Y-113829399D01*
X164519682Y-113814283D01*
X163675017Y-112969618D01*
X163659901Y-112951199D01*
X163586415Y-112890891D01*
X163502577Y-112846078D01*
X163411606Y-112818483D01*
X163340707Y-112811500D01*
X163340705Y-112811500D01*
X163317000Y-112809165D01*
X163293295Y-112811500D01*
X160273707Y-112811500D01*
X160250000Y-112809165D01*
X160226293Y-112811500D01*
X160155394Y-112818483D01*
X160064423Y-112846078D01*
X159980585Y-112890891D01*
X159907099Y-112951199D01*
X159846791Y-113024685D01*
X159820211Y-113074412D01*
X159794180Y-113060498D01*
X159674482Y-113024188D01*
X159550000Y-113011928D01*
X159535750Y-113015000D01*
X159377000Y-113173750D01*
X159377000Y-114273000D01*
X159397000Y-114273000D01*
X159397000Y-114527000D01*
X159377000Y-114527000D01*
X159377000Y-114547000D01*
X159123000Y-114547000D01*
X159123000Y-114527000D01*
X159103000Y-114527000D01*
X159103000Y-114273000D01*
X159123000Y-114273000D01*
X159123000Y-113173750D01*
X158964250Y-113015000D01*
X158950000Y-113011928D01*
X158825518Y-113024188D01*
X158705820Y-113060498D01*
X158679789Y-113074412D01*
X158653209Y-113024685D01*
X158592901Y-112951199D01*
X158519415Y-112890891D01*
X158435577Y-112846078D01*
X158344606Y-112818483D01*
X158273707Y-112811500D01*
X158250000Y-112809165D01*
X158226293Y-112811500D01*
X157440399Y-112811500D01*
X157310696Y-112681797D01*
X157650000Y-112681797D01*
X157714730Y-112675422D01*
X157776973Y-112656540D01*
X157834337Y-112625879D01*
X157884616Y-112584616D01*
X157925879Y-112534337D01*
X157956540Y-112476973D01*
X157975422Y-112414730D01*
X157981797Y-112350000D01*
X157981797Y-110850000D01*
X157975422Y-110785270D01*
X157956540Y-110723027D01*
X157925879Y-110665663D01*
X157884616Y-110615384D01*
X157834337Y-110574121D01*
X157776973Y-110543460D01*
X157714730Y-110524578D01*
X157650000Y-110518203D01*
X156850000Y-110518203D01*
X156785270Y-110524578D01*
X156723027Y-110543460D01*
X156665663Y-110574121D01*
X156615384Y-110615384D01*
X156574121Y-110665663D01*
X156543460Y-110723027D01*
X156524578Y-110785270D01*
X156518203Y-110850000D01*
X156518203Y-111889304D01*
X154731500Y-110102601D01*
X154731500Y-93250707D01*
X154733835Y-93227000D01*
X154724517Y-93132393D01*
X154696922Y-93041423D01*
X154676705Y-93003600D01*
X154652109Y-92957585D01*
X154591801Y-92884099D01*
X154573388Y-92868988D01*
X152974422Y-91270023D01*
X153104763Y-91230484D01*
X153351867Y-91098405D01*
X153568455Y-90920655D01*
X153746205Y-90704067D01*
X153878284Y-90456963D01*
X153959619Y-90188839D01*
X153987082Y-89910000D01*
X153959619Y-89631161D01*
X153878284Y-89363037D01*
X153746205Y-89115933D01*
X153568455Y-88899345D01*
X153351867Y-88721595D01*
X153199213Y-88640000D01*
X153351867Y-88558405D01*
X153568455Y-88380655D01*
X153746205Y-88164067D01*
X153878284Y-87916963D01*
X153959619Y-87648839D01*
X153987082Y-87370000D01*
X153959619Y-87091161D01*
X153878284Y-86823037D01*
X153746205Y-86575933D01*
X153568455Y-86359345D01*
X153351867Y-86181595D01*
X153199213Y-86100000D01*
X153351867Y-86018405D01*
X153568455Y-85840655D01*
X153746205Y-85624067D01*
X153878284Y-85376963D01*
X153959619Y-85108839D01*
X153987082Y-84830000D01*
X153959619Y-84551161D01*
X153878284Y-84283037D01*
X153746205Y-84035933D01*
X153568455Y-83819345D01*
X153351867Y-83641595D01*
X153199213Y-83560000D01*
X153351867Y-83478405D01*
X153568455Y-83300655D01*
X153746205Y-83084067D01*
X153878284Y-82836963D01*
X153959619Y-82568839D01*
X153987082Y-82290000D01*
X153959619Y-82011161D01*
X153878284Y-81743037D01*
X153746205Y-81495933D01*
X153568455Y-81279345D01*
X153351867Y-81101595D01*
X153199213Y-81020000D01*
X153351867Y-80938405D01*
X153568455Y-80760655D01*
X153746205Y-80544067D01*
X153878284Y-80296963D01*
X153959619Y-80028839D01*
X153987082Y-79750000D01*
X153959619Y-79471161D01*
X153878284Y-79203037D01*
X153746205Y-78955933D01*
X153568455Y-78739345D01*
X153351867Y-78561595D01*
X153199213Y-78480000D01*
X153351867Y-78398405D01*
X153568455Y-78220655D01*
X153746205Y-78004067D01*
X153878284Y-77756963D01*
X153959619Y-77488839D01*
X153987082Y-77210000D01*
X153959619Y-76931161D01*
X153878284Y-76663037D01*
X153746205Y-76415933D01*
X153568455Y-76199345D01*
X153351867Y-76021595D01*
X153199213Y-75940000D01*
X153351867Y-75858405D01*
X153568455Y-75680655D01*
X153746205Y-75464067D01*
X153878284Y-75216963D01*
X153959619Y-74948839D01*
X153987082Y-74670000D01*
X153959619Y-74391161D01*
X153878284Y-74123037D01*
X153746205Y-73875933D01*
X153568455Y-73659345D01*
X153351867Y-73481595D01*
X153199213Y-73400000D01*
X153351867Y-73318405D01*
X153568455Y-73140655D01*
X153746205Y-72924067D01*
X153878284Y-72676963D01*
X153959619Y-72408839D01*
X153987082Y-72130000D01*
X153959619Y-71851161D01*
X153878284Y-71583037D01*
X153746205Y-71335933D01*
X153568455Y-71119345D01*
X153351867Y-70941595D01*
X153199213Y-70860000D01*
X153351867Y-70778405D01*
X153568455Y-70600655D01*
X153746205Y-70384067D01*
X153878284Y-70136963D01*
X153959619Y-69868839D01*
X153987082Y-69590000D01*
X153959619Y-69311161D01*
X153878284Y-69043037D01*
X153746205Y-68795933D01*
X153568455Y-68579345D01*
X153479918Y-68506684D01*
X153694187Y-68354174D01*
X153926783Y-68107417D01*
X154106770Y-67820024D01*
X154227231Y-67503039D01*
X154239251Y-67444899D01*
X154121100Y-67177000D01*
X152507000Y-67177000D01*
X152507000Y-67197000D01*
X152253000Y-67197000D01*
X152253000Y-67177000D01*
X152233000Y-67177000D01*
X152233000Y-66923000D01*
X152253000Y-66923000D01*
X152253000Y-66903000D01*
X152507000Y-66903000D01*
X152507000Y-66923000D01*
X154121100Y-66923000D01*
X154239251Y-66655101D01*
X154227231Y-66596961D01*
X154106770Y-66279976D01*
X153926783Y-65992583D01*
X153694187Y-65745826D01*
X153479918Y-65593316D01*
X153568455Y-65520655D01*
X153746205Y-65304067D01*
X153878284Y-65056963D01*
X153959619Y-64788839D01*
X153987082Y-64510000D01*
X153959619Y-64231161D01*
X153878284Y-63963037D01*
X153746205Y-63715933D01*
X153568455Y-63499345D01*
X153351867Y-63321595D01*
X153199213Y-63240000D01*
X153351867Y-63158405D01*
X153568455Y-62980655D01*
X153746205Y-62764067D01*
X153878284Y-62516963D01*
X153959619Y-62248839D01*
X153987082Y-61970000D01*
X153959619Y-61691161D01*
X153878284Y-61423037D01*
X153746205Y-61175933D01*
X153568455Y-60959345D01*
X153351867Y-60781595D01*
X153199213Y-60700000D01*
X153351867Y-60618405D01*
X153568455Y-60440655D01*
X153746205Y-60224067D01*
X153878284Y-59976963D01*
X153959619Y-59708839D01*
X153987082Y-59430000D01*
X153959619Y-59151161D01*
X153878284Y-58883037D01*
X153746205Y-58635933D01*
X153568455Y-58419345D01*
X153351867Y-58241595D01*
X153199213Y-58160000D01*
X153351867Y-58078405D01*
X153568455Y-57900655D01*
X153746205Y-57684067D01*
X153878284Y-57436963D01*
X153959619Y-57168839D01*
X153987082Y-56890000D01*
X153959619Y-56611161D01*
X153878284Y-56343037D01*
X153746205Y-56095933D01*
X153568455Y-55879345D01*
X153351867Y-55701595D01*
X153199213Y-55620000D01*
X153351867Y-55538405D01*
X153568455Y-55360655D01*
X153746205Y-55144067D01*
X153878284Y-54896963D01*
X153959619Y-54628839D01*
X153987082Y-54350000D01*
X153959619Y-54071161D01*
X153878284Y-53803037D01*
X153746205Y-53555933D01*
X153568455Y-53339345D01*
X153351867Y-53161595D01*
X153199213Y-53080000D01*
X153351867Y-52998405D01*
X153568455Y-52820655D01*
X153746205Y-52604067D01*
X153878284Y-52356963D01*
X153959619Y-52088839D01*
X153987082Y-51810000D01*
X153959619Y-51531161D01*
X153878284Y-51263037D01*
X153746205Y-51015933D01*
X153568455Y-50799345D01*
X153351867Y-50621595D01*
X153199213Y-50540000D01*
X153351867Y-50458405D01*
X153568455Y-50280655D01*
X153746205Y-50064067D01*
X153878284Y-49816963D01*
X153959619Y-49548839D01*
X153987082Y-49270000D01*
X153959619Y-48991161D01*
X153878284Y-48723037D01*
X153746205Y-48475933D01*
X153568455Y-48259345D01*
X153351867Y-48081595D01*
X153199213Y-48000000D01*
X153351867Y-47918405D01*
X153568455Y-47740655D01*
X153746205Y-47524067D01*
X153878284Y-47276963D01*
X153959619Y-47008839D01*
X153987082Y-46730000D01*
X153959619Y-46451161D01*
X153878284Y-46183037D01*
X153746205Y-45935933D01*
X153568455Y-45719345D01*
X153351867Y-45541595D01*
X153199213Y-45460000D01*
X153351867Y-45378405D01*
X153568455Y-45200655D01*
X153746205Y-44984067D01*
X153878284Y-44736963D01*
X153959619Y-44468839D01*
X153987082Y-44190000D01*
X153959619Y-43911161D01*
X153878284Y-43643037D01*
X153746205Y-43395933D01*
X153568455Y-43179345D01*
X153351867Y-43001595D01*
X153199213Y-42920000D01*
X153351867Y-42838405D01*
X153568455Y-42660655D01*
X153746205Y-42444067D01*
X153878284Y-42196963D01*
X153959619Y-41928839D01*
X153987082Y-41650000D01*
X153959619Y-41371161D01*
X153878284Y-41103037D01*
X153746205Y-40855933D01*
X153568455Y-40639345D01*
X153351867Y-40461595D01*
X153199213Y-40380000D01*
X153351867Y-40298405D01*
X153568455Y-40120655D01*
X153746205Y-39904067D01*
X153878284Y-39656963D01*
X153959619Y-39388839D01*
X153987082Y-39110000D01*
X153959619Y-38831161D01*
X153878284Y-38563037D01*
X153746205Y-38315933D01*
X153568455Y-38099345D01*
X153351867Y-37921595D01*
X153199213Y-37840000D01*
X153351867Y-37758405D01*
X153568455Y-37580655D01*
X153746205Y-37364067D01*
X153878284Y-37116963D01*
X153959619Y-36848839D01*
X153987082Y-36570000D01*
X153959619Y-36291161D01*
X153924413Y-36175101D01*
X165760749Y-36175101D01*
X165878900Y-36443000D01*
X167493000Y-36443000D01*
X167493000Y-36423000D01*
X167747000Y-36423000D01*
X167747000Y-36443000D01*
X169361100Y-36443000D01*
X169479251Y-36175101D01*
X169467231Y-36116961D01*
X169346770Y-35799976D01*
X169166783Y-35512583D01*
X168934187Y-35265826D01*
X168719918Y-35113316D01*
X168808455Y-35040655D01*
X168892500Y-34938246D01*
X179373000Y-34938246D01*
X179373000Y-35061754D01*
X179397095Y-35182889D01*
X179444360Y-35296996D01*
X179512977Y-35399689D01*
X179600311Y-35487023D01*
X179703004Y-35555640D01*
X179817111Y-35602905D01*
X179938246Y-35627000D01*
X180061754Y-35627000D01*
X180182889Y-35602905D01*
X180296996Y-35555640D01*
X180399689Y-35487023D01*
X180487023Y-35399689D01*
X180555640Y-35296996D01*
X180602905Y-35182889D01*
X180627000Y-35061754D01*
X180627000Y-34938246D01*
X180602905Y-34817111D01*
X180555640Y-34703004D01*
X180487023Y-34600311D01*
X180399689Y-34512977D01*
X180296996Y-34444360D01*
X180182889Y-34397095D01*
X180061754Y-34373000D01*
X179938246Y-34373000D01*
X179817111Y-34397095D01*
X179703004Y-34444360D01*
X179600311Y-34512977D01*
X179512977Y-34600311D01*
X179444360Y-34703004D01*
X179397095Y-34817111D01*
X179373000Y-34938246D01*
X168892500Y-34938246D01*
X168986205Y-34824067D01*
X169118284Y-34576963D01*
X169199619Y-34308839D01*
X169227082Y-34030000D01*
X169199619Y-33751161D01*
X169118284Y-33483037D01*
X168986205Y-33235933D01*
X168808455Y-33019345D01*
X168591867Y-32841595D01*
X168439213Y-32760000D01*
X168591867Y-32678405D01*
X168808455Y-32500655D01*
X168986205Y-32284067D01*
X169118284Y-32036963D01*
X169192483Y-31792360D01*
X175891800Y-31792360D01*
X175891800Y-32207640D01*
X175972817Y-32614939D01*
X176131737Y-32998607D01*
X176362454Y-33343899D01*
X176656101Y-33637546D01*
X177001393Y-33868263D01*
X177385061Y-34027183D01*
X177792360Y-34108200D01*
X178207640Y-34108200D01*
X178614939Y-34027183D01*
X178998607Y-33868263D01*
X179343899Y-33637546D01*
X179637546Y-33343899D01*
X179868263Y-32998607D01*
X180027183Y-32614939D01*
X180108200Y-32207640D01*
X180108200Y-31792360D01*
X180027183Y-31385061D01*
X179868263Y-31001393D01*
X179637546Y-30656101D01*
X179343899Y-30362454D01*
X178998607Y-30131737D01*
X178614939Y-29972817D01*
X178207640Y-29891800D01*
X177792360Y-29891800D01*
X177385061Y-29972817D01*
X177001393Y-30131737D01*
X176656101Y-30362454D01*
X176362454Y-30656101D01*
X176131737Y-31001393D01*
X175972817Y-31385061D01*
X175891800Y-31792360D01*
X169192483Y-31792360D01*
X169199619Y-31768839D01*
X169227082Y-31490000D01*
X169199619Y-31211161D01*
X169118284Y-30943037D01*
X168986205Y-30695933D01*
X168808455Y-30479345D01*
X168591867Y-30301595D01*
X168344763Y-30169516D01*
X168076639Y-30088181D01*
X167867675Y-30067600D01*
X167372325Y-30067600D01*
X167163361Y-30088181D01*
X166895237Y-30169516D01*
X166648133Y-30301595D01*
X166431545Y-30479345D01*
X166253795Y-30695933D01*
X166121716Y-30943037D01*
X166040381Y-31211161D01*
X166012918Y-31490000D01*
X166040381Y-31768839D01*
X166121716Y-32036963D01*
X166253795Y-32284067D01*
X166431545Y-32500655D01*
X166648133Y-32678405D01*
X166800787Y-32760000D01*
X166648133Y-32841595D01*
X166431545Y-33019345D01*
X166253795Y-33235933D01*
X166121716Y-33483037D01*
X166040381Y-33751161D01*
X166012918Y-34030000D01*
X166040381Y-34308839D01*
X166121716Y-34576963D01*
X166253795Y-34824067D01*
X166431545Y-35040655D01*
X166520082Y-35113316D01*
X166305813Y-35265826D01*
X166073217Y-35512583D01*
X165893230Y-35799976D01*
X165772769Y-36116961D01*
X165760749Y-36175101D01*
X153924413Y-36175101D01*
X153878284Y-36023037D01*
X153746205Y-35775933D01*
X153568455Y-35559345D01*
X153351867Y-35381595D01*
X153199213Y-35300000D01*
X153351867Y-35218405D01*
X153568455Y-35040655D01*
X153746205Y-34824067D01*
X153878284Y-34576963D01*
X153959619Y-34308839D01*
X153987082Y-34030000D01*
X153959619Y-33751161D01*
X153878284Y-33483037D01*
X153746205Y-33235933D01*
X153568455Y-33019345D01*
X153440089Y-32913997D01*
X153650000Y-32913997D01*
X153714730Y-32907622D01*
X153776973Y-32888740D01*
X153834337Y-32858079D01*
X153884616Y-32816816D01*
X153925879Y-32766537D01*
X153956540Y-32709173D01*
X153975422Y-32646930D01*
X153981797Y-32582200D01*
X153981797Y-30397800D01*
X153975422Y-30333070D01*
X153956540Y-30270827D01*
X153925879Y-30213463D01*
X153884616Y-30163184D01*
X153834337Y-30121921D01*
X153776973Y-30091260D01*
X153714730Y-30072378D01*
X153650000Y-30066003D01*
X151110000Y-30066003D01*
X151045270Y-30072378D01*
X150983027Y-30091260D01*
X150925663Y-30121921D01*
X150875384Y-30163184D01*
X150834121Y-30213463D01*
X150803460Y-30270827D01*
X150784578Y-30333070D01*
X150778203Y-30397800D01*
X150778203Y-32582200D01*
X150784578Y-32646930D01*
X150803460Y-32709173D01*
X150834121Y-32766537D01*
X150875384Y-32816816D01*
X150925663Y-32858079D01*
X150983027Y-32888740D01*
X151045270Y-32907622D01*
X151110000Y-32913997D01*
X151319911Y-32913997D01*
X151191545Y-33019345D01*
X151013795Y-33235933D01*
X150881716Y-33483037D01*
X150800381Y-33751161D01*
X150772918Y-34030000D01*
X150800381Y-34308839D01*
X150881716Y-34576963D01*
X151013795Y-34824067D01*
X151191545Y-35040655D01*
X151408133Y-35218405D01*
X151560787Y-35300000D01*
X151408133Y-35381595D01*
X151191545Y-35559345D01*
X151013795Y-35775933D01*
X150881716Y-36023037D01*
X150800381Y-36291161D01*
X150772918Y-36570000D01*
X150800381Y-36848839D01*
X150881716Y-37116963D01*
X151013795Y-37364067D01*
X151191545Y-37580655D01*
X151408133Y-37758405D01*
X151560787Y-37840000D01*
X151408133Y-37921595D01*
X151191545Y-38099345D01*
X151013795Y-38315933D01*
X150881716Y-38563037D01*
X150800381Y-38831161D01*
X150772918Y-39110000D01*
X150800381Y-39388839D01*
X150881716Y-39656963D01*
X151013795Y-39904067D01*
X151191545Y-40120655D01*
X151408133Y-40298405D01*
X151560787Y-40380000D01*
X151408133Y-40461595D01*
X151191545Y-40639345D01*
X151013795Y-40855933D01*
X150881716Y-41103037D01*
X150800381Y-41371161D01*
X150772918Y-41650000D01*
X150800381Y-41928839D01*
X150881716Y-42196963D01*
X151013795Y-42444067D01*
X151191545Y-42660655D01*
X151408133Y-42838405D01*
X151560787Y-42920000D01*
X151408133Y-43001595D01*
X151191545Y-43179345D01*
X151013795Y-43395933D01*
X150881716Y-43643037D01*
X150800381Y-43911161D01*
X150772918Y-44190000D01*
X150800381Y-44468839D01*
X150881716Y-44736963D01*
X150975353Y-44912147D01*
X141538118Y-54349383D01*
X141519699Y-54364499D01*
X141459391Y-54437985D01*
X141414578Y-54521824D01*
X141386983Y-54612795D01*
X141380907Y-54674487D01*
X141377665Y-54707400D01*
X141380000Y-54731105D01*
X141380001Y-110873485D01*
X141377665Y-110897200D01*
X141386984Y-110991806D01*
X141414578Y-111082776D01*
X141459392Y-111166615D01*
X141484157Y-111196791D01*
X141519700Y-111240101D01*
X141538113Y-111255212D01*
X143660917Y-113378016D01*
X143615384Y-113415384D01*
X143574121Y-113465663D01*
X143543460Y-113523027D01*
X143524578Y-113585270D01*
X143518203Y-113650000D01*
X143518203Y-115150000D01*
X143524578Y-115214730D01*
X143543460Y-115276973D01*
X143574121Y-115334337D01*
X143615384Y-115384616D01*
X143665663Y-115425879D01*
X143723027Y-115456540D01*
X143785270Y-115475422D01*
X143850000Y-115481797D01*
X144650000Y-115481797D01*
X144714730Y-115475422D01*
X144776973Y-115456540D01*
X144800000Y-115444232D01*
X144823027Y-115456540D01*
X144885270Y-115475422D01*
X144950000Y-115481797D01*
X145407331Y-115481797D01*
X145419463Y-115504494D01*
X145498815Y-115601185D01*
X145595506Y-115680537D01*
X145705820Y-115739502D01*
X145825518Y-115775812D01*
X145950000Y-115788072D01*
X145964250Y-115785000D01*
X146123000Y-115626250D01*
X146123000Y-114527000D01*
X146103000Y-114527000D01*
X146103000Y-114273000D01*
X146123000Y-114273000D01*
X146123000Y-114253000D01*
X146377000Y-114253000D01*
X146377000Y-114273000D01*
X146397000Y-114273000D01*
X146397000Y-114527000D01*
X146377000Y-114527000D01*
X146377000Y-115626250D01*
X146535750Y-115785000D01*
X146550000Y-115788072D01*
X146674482Y-115775812D01*
X146794180Y-115739502D01*
X146904494Y-115680537D01*
X147001185Y-115601185D01*
X147080537Y-115504494D01*
X147092669Y-115481797D01*
X147536473Y-115481797D01*
X147500707Y-115568142D01*
X147472400Y-115710451D01*
X147472400Y-115855549D01*
X147500707Y-115997858D01*
X147556234Y-116131911D01*
X147636845Y-116252555D01*
X147739445Y-116355155D01*
X147860089Y-116435766D01*
X147994142Y-116491293D01*
X148136451Y-116519600D01*
X148281549Y-116519600D01*
X148423858Y-116491293D01*
X148464913Y-116474287D01*
X147745177Y-117194023D01*
X147773000Y-117054149D01*
X147773000Y-116909051D01*
X147744693Y-116766742D01*
X147689166Y-116632689D01*
X147608555Y-116512045D01*
X147505955Y-116409445D01*
X147385311Y-116328834D01*
X147251258Y-116273307D01*
X147108949Y-116245000D01*
X146963851Y-116245000D01*
X146821542Y-116273307D01*
X146687489Y-116328834D01*
X146566845Y-116409445D01*
X146464245Y-116512045D01*
X146407303Y-116597265D01*
X146376955Y-116551845D01*
X146274355Y-116449245D01*
X146153711Y-116368634D01*
X146019658Y-116313107D01*
X145877349Y-116284800D01*
X145732251Y-116284800D01*
X145589942Y-116313107D01*
X145455889Y-116368634D01*
X145335245Y-116449245D01*
X145232645Y-116551845D01*
X145152034Y-116672489D01*
X145096507Y-116806542D01*
X145068200Y-116948851D01*
X145068200Y-117093949D01*
X145096507Y-117236258D01*
X145152034Y-117370311D01*
X145232645Y-117490955D01*
X145267400Y-117525710D01*
X145267401Y-118573192D01*
X145265663Y-118574121D01*
X145215384Y-118615384D01*
X145174121Y-118665663D01*
X145143460Y-118723027D01*
X145124578Y-118785270D01*
X145118203Y-118850000D01*
X145118203Y-120350000D01*
X145124578Y-120414730D01*
X145143460Y-120476973D01*
X145174121Y-120534337D01*
X145215384Y-120584616D01*
X145265663Y-120625879D01*
X145323027Y-120656540D01*
X145385270Y-120675422D01*
X145450000Y-120681797D01*
X146050000Y-120681797D01*
X146114730Y-120675422D01*
X146176973Y-120656540D01*
X146234337Y-120625879D01*
X146250000Y-120613025D01*
X146265663Y-120625879D01*
X146323027Y-120656540D01*
X146385270Y-120675422D01*
X146450000Y-120681797D01*
X147050000Y-120681797D01*
X147114730Y-120675422D01*
X147176973Y-120656540D01*
X147234337Y-120625879D01*
X147250000Y-120613025D01*
X147265663Y-120625879D01*
X147323027Y-120656540D01*
X147385270Y-120675422D01*
X147450000Y-120681797D01*
X148050000Y-120681797D01*
X148114730Y-120675422D01*
X148176973Y-120656540D01*
X148234337Y-120625879D01*
X148250000Y-120613025D01*
X148265663Y-120625879D01*
X148267401Y-120626808D01*
X148267401Y-120682183D01*
X148265065Y-120705900D01*
X148274383Y-120800506D01*
X148277718Y-120811500D01*
X147273707Y-120811500D01*
X147250000Y-120809165D01*
X147226293Y-120811500D01*
X147155394Y-120818483D01*
X147064423Y-120846078D01*
X146980585Y-120890891D01*
X146907099Y-120951199D01*
X146846791Y-121024685D01*
X146820211Y-121074412D01*
X146794180Y-121060498D01*
X146674482Y-121024188D01*
X146550000Y-121011928D01*
X146535750Y-121015000D01*
X146377000Y-121173750D01*
X146377000Y-122273000D01*
X146397000Y-122273000D01*
X146397000Y-122527000D01*
X146377000Y-122527000D01*
X146377000Y-123626250D01*
X146535750Y-123785000D01*
X146550000Y-123788072D01*
X146674482Y-123775812D01*
X146794180Y-123739502D01*
X146904494Y-123680537D01*
X147001185Y-123601185D01*
X147080537Y-123504494D01*
X147092669Y-123481797D01*
X147550000Y-123481797D01*
X147614730Y-123475422D01*
X147676973Y-123456540D01*
X147734337Y-123425879D01*
X147750000Y-123413025D01*
X147765663Y-123425879D01*
X147767401Y-123426808D01*
X147767401Y-123482185D01*
X147765065Y-123505900D01*
X147774384Y-123600506D01*
X147801978Y-123691476D01*
X147827649Y-123739502D01*
X147846792Y-123775315D01*
X147907100Y-123848801D01*
X147925513Y-123863912D01*
X148643800Y-124582200D01*
X147008800Y-124582200D01*
X146087925Y-123661325D01*
X146123000Y-123626250D01*
X146123000Y-122527000D01*
X146103000Y-122527000D01*
X146103000Y-122273000D01*
X146123000Y-122273000D01*
X146123000Y-121173750D01*
X145964250Y-121015000D01*
X145950000Y-121011928D01*
X145825518Y-121024188D01*
X145705820Y-121060498D01*
X145595506Y-121119463D01*
X145498815Y-121198815D01*
X145419463Y-121295506D01*
X145407331Y-121318203D01*
X144950000Y-121318203D01*
X144885270Y-121324578D01*
X144823027Y-121343460D01*
X144800000Y-121355768D01*
X144776973Y-121343460D01*
X144714730Y-121324578D01*
X144650000Y-121318203D01*
X143850000Y-121318203D01*
X143785270Y-121324578D01*
X143723027Y-121343460D01*
X143665663Y-121374121D01*
X143615384Y-121415384D01*
X143574121Y-121465663D01*
X143543460Y-121523027D01*
X143524578Y-121585270D01*
X143518203Y-121650000D01*
X143518203Y-123150000D01*
X143524578Y-123214730D01*
X143543460Y-123276973D01*
X143574121Y-123334337D01*
X143615384Y-123384616D01*
X143665663Y-123425879D01*
X143723027Y-123456540D01*
X143785270Y-123475422D01*
X143850000Y-123481797D01*
X144650000Y-123481797D01*
X144714730Y-123475422D01*
X144767401Y-123459444D01*
X144767401Y-123482185D01*
X144765065Y-123505900D01*
X144774384Y-123600506D01*
X144801978Y-123691476D01*
X144827649Y-123739502D01*
X144846792Y-123775315D01*
X144907100Y-123848801D01*
X144925513Y-123863912D01*
X146450888Y-125389288D01*
X146465999Y-125407701D01*
X146539485Y-125468009D01*
X146623323Y-125512822D01*
X146714293Y-125540417D01*
X146808900Y-125549735D01*
X146832607Y-125547400D01*
X175435695Y-125547400D01*
X175459400Y-125549735D01*
X175483105Y-125547400D01*
X175483107Y-125547400D01*
X175554006Y-125540417D01*
X175644977Y-125512822D01*
X175728815Y-125468009D01*
X175802301Y-125407701D01*
X175817417Y-125389282D01*
X176079716Y-125126983D01*
X175972817Y-125385061D01*
X175891800Y-125792360D01*
X175891800Y-126207640D01*
X175972817Y-126614939D01*
X176131737Y-126998607D01*
X176362454Y-127343899D01*
X176656101Y-127637546D01*
X177001393Y-127868263D01*
X177385061Y-128027183D01*
X177792360Y-128108200D01*
X178207640Y-128108200D01*
X178614939Y-128027183D01*
X178998607Y-127868263D01*
X179343899Y-127637546D01*
X179637546Y-127343899D01*
X179868263Y-126998607D01*
X180027183Y-126614939D01*
X180108200Y-126207640D01*
X180108200Y-125792360D01*
X180027183Y-125385061D01*
X179868263Y-125001393D01*
X179637546Y-124656101D01*
X179343899Y-124362454D01*
X178998607Y-124131737D01*
X178614939Y-123972817D01*
X178207640Y-123891800D01*
X177792360Y-123891800D01*
X177385061Y-123972817D01*
X177126983Y-124079716D01*
X178268453Y-122938246D01*
X179373000Y-122938246D01*
X179373000Y-123061754D01*
X179397095Y-123182889D01*
X179444360Y-123296996D01*
X179512977Y-123399689D01*
X179600311Y-123487023D01*
X179703004Y-123555640D01*
X179817111Y-123602905D01*
X179938246Y-123627000D01*
X180061754Y-123627000D01*
X180182889Y-123602905D01*
X180296996Y-123555640D01*
X180399689Y-123487023D01*
X180487023Y-123399689D01*
X180555640Y-123296996D01*
X180602905Y-123182889D01*
X180627000Y-123061754D01*
X180627000Y-122938246D01*
X180602905Y-122817111D01*
X180555640Y-122703004D01*
X180487023Y-122600311D01*
X180399689Y-122512977D01*
X180296996Y-122444360D01*
X180182889Y-122397095D01*
X180061754Y-122373000D01*
X179938246Y-122373000D01*
X179817111Y-122397095D01*
X179703004Y-122444360D01*
X179600311Y-122512977D01*
X179512977Y-122600311D01*
X179444360Y-122703004D01*
X179397095Y-122817111D01*
X179373000Y-122938246D01*
X178268453Y-122938246D01*
X180746401Y-120460299D01*
X180746401Y-125987583D01*
X180692901Y-126533212D01*
X180538049Y-127046109D01*
X180286522Y-127519162D01*
X179947901Y-127934352D01*
X179535087Y-128275861D01*
X179063803Y-128530683D01*
X178551995Y-128689114D01*
X178007206Y-128746374D01*
X177999690Y-128746400D01*
X142012407Y-128746400D01*
X141466788Y-128692901D01*
X140953891Y-128538049D01*
X140480838Y-128286522D01*
X140065648Y-127947901D01*
X139724139Y-127535087D01*
X139469317Y-127063803D01*
X139310886Y-126551995D01*
X139253626Y-126007206D01*
X139253600Y-125999690D01*
X139253600Y-125792360D01*
X139891800Y-125792360D01*
X139891800Y-126207640D01*
X139972817Y-126614939D01*
X140131737Y-126998607D01*
X140362454Y-127343899D01*
X140656101Y-127637546D01*
X141001393Y-127868263D01*
X141385061Y-128027183D01*
X141792360Y-128108200D01*
X142207640Y-128108200D01*
X142614939Y-128027183D01*
X142998607Y-127868263D01*
X143343899Y-127637546D01*
X143637546Y-127343899D01*
X143868263Y-126998607D01*
X144027183Y-126614939D01*
X144108200Y-126207640D01*
X144108200Y-125792360D01*
X144027183Y-125385061D01*
X143868263Y-125001393D01*
X143637546Y-124656101D01*
X143343899Y-124362454D01*
X142998607Y-124131737D01*
X142614939Y-123972817D01*
X142207640Y-123891800D01*
X141792360Y-123891800D01*
X141385061Y-123972817D01*
X141001393Y-124131737D01*
X140656101Y-124362454D01*
X140362454Y-124656101D01*
X140131737Y-125001393D01*
X139972817Y-125385061D01*
X139891800Y-125792360D01*
X139253600Y-125792360D01*
X139253600Y-122938246D01*
X139373000Y-122938246D01*
X139373000Y-123061754D01*
X139397095Y-123182889D01*
X139444360Y-123296996D01*
X139512977Y-123399689D01*
X139600311Y-123487023D01*
X139703004Y-123555640D01*
X139817111Y-123602905D01*
X139938246Y-123627000D01*
X140061754Y-123627000D01*
X140182889Y-123602905D01*
X140296996Y-123555640D01*
X140399689Y-123487023D01*
X140487023Y-123399689D01*
X140555640Y-123296996D01*
X140602905Y-123182889D01*
X140627000Y-123061754D01*
X140627000Y-122938246D01*
X140602905Y-122817111D01*
X140555640Y-122703004D01*
X140487023Y-122600311D01*
X140399689Y-122512977D01*
X140296996Y-122444360D01*
X140182889Y-122397095D01*
X140061754Y-122373000D01*
X139938246Y-122373000D01*
X139817111Y-122397095D01*
X139703004Y-122444360D01*
X139600311Y-122512977D01*
X139512977Y-122600311D01*
X139444360Y-122703004D01*
X139397095Y-122817111D01*
X139373000Y-122938246D01*
X139253600Y-122938246D01*
X139253600Y-118850000D01*
X143518203Y-118850000D01*
X143518203Y-120350000D01*
X143524578Y-120414730D01*
X143543460Y-120476973D01*
X143574121Y-120534337D01*
X143615384Y-120584616D01*
X143665663Y-120625879D01*
X143723027Y-120656540D01*
X143785270Y-120675422D01*
X143850000Y-120681797D01*
X144650000Y-120681797D01*
X144714730Y-120675422D01*
X144776973Y-120656540D01*
X144834337Y-120625879D01*
X144884616Y-120584616D01*
X144925879Y-120534337D01*
X144956540Y-120476973D01*
X144975422Y-120414730D01*
X144981797Y-120350000D01*
X144981797Y-118850000D01*
X144975422Y-118785270D01*
X144956540Y-118723027D01*
X144925879Y-118665663D01*
X144884616Y-118615384D01*
X144834337Y-118574121D01*
X144776973Y-118543460D01*
X144714730Y-118524578D01*
X144650000Y-118518203D01*
X143850000Y-118518203D01*
X143785270Y-118524578D01*
X143723027Y-118543460D01*
X143665663Y-118574121D01*
X143615384Y-118615384D01*
X143574121Y-118665663D01*
X143543460Y-118723027D01*
X143524578Y-118785270D01*
X143518203Y-118850000D01*
X139253600Y-118850000D01*
X139253600Y-34938246D01*
X139373000Y-34938246D01*
X139373000Y-35061754D01*
X139397095Y-35182889D01*
X139444360Y-35296996D01*
X139512977Y-35399689D01*
X139600311Y-35487023D01*
X139703004Y-35555640D01*
X139817111Y-35602905D01*
X139938246Y-35627000D01*
X140061754Y-35627000D01*
X140182889Y-35602905D01*
X140296996Y-35555640D01*
X140399689Y-35487023D01*
X140487023Y-35399689D01*
X140555640Y-35296996D01*
X140602905Y-35182889D01*
X140627000Y-35061754D01*
X140627000Y-34938246D01*
X140602905Y-34817111D01*
X140555640Y-34703004D01*
X140487023Y-34600311D01*
X140399689Y-34512977D01*
X140296996Y-34444360D01*
X140182889Y-34397095D01*
X140061754Y-34373000D01*
X139938246Y-34373000D01*
X139817111Y-34397095D01*
X139703004Y-34444360D01*
X139600311Y-34512977D01*
X139512977Y-34600311D01*
X139444360Y-34703004D01*
X139397095Y-34817111D01*
X139373000Y-34938246D01*
X139253600Y-34938246D01*
X139253600Y-32012407D01*
X139275175Y-31792360D01*
X139891800Y-31792360D01*
X139891800Y-32207640D01*
X139972817Y-32614939D01*
X140131737Y-32998607D01*
X140362454Y-33343899D01*
X140656101Y-33637546D01*
X141001393Y-33868263D01*
X141385061Y-34027183D01*
X141792360Y-34108200D01*
X142207640Y-34108200D01*
X142614939Y-34027183D01*
X142998607Y-33868263D01*
X143343899Y-33637546D01*
X143637546Y-33343899D01*
X143868263Y-32998607D01*
X144027183Y-32614939D01*
X144108200Y-32207640D01*
X144108200Y-31792360D01*
X144027183Y-31385061D01*
X143868263Y-31001393D01*
X143637546Y-30656101D01*
X143343899Y-30362454D01*
X142998607Y-30131737D01*
X142614939Y-29972817D01*
X142207640Y-29891800D01*
X141792360Y-29891800D01*
X141385061Y-29972817D01*
X141001393Y-30131737D01*
X140656101Y-30362454D01*
X140362454Y-30656101D01*
X140131737Y-31001393D01*
X139972817Y-31385061D01*
X139891800Y-31792360D01*
X139275175Y-31792360D01*
X139307099Y-31466787D01*
X139461951Y-30953894D01*
X139713477Y-30480839D01*
X140052099Y-30065648D01*
X140464913Y-29724139D01*
X140936196Y-29469318D01*
X141448001Y-29310886D01*
X141992794Y-29253626D01*
X142000310Y-29253600D01*
X177987593Y-29253600D01*
X178533213Y-29307099D01*
%TA.AperFunction,Conductor*%
D19*
G36*
X178533213Y-29307099D02*
G01*
X179046106Y-29461951D01*
X179519161Y-29713477D01*
X179934352Y-30052099D01*
X180275861Y-30464913D01*
X180530682Y-30936196D01*
X180689114Y-31448001D01*
X180746374Y-31992794D01*
X180746400Y-32000310D01*
X180746400Y-69333900D01*
X169024647Y-57612147D01*
X169118284Y-57436963D01*
X169199619Y-57168839D01*
X169227082Y-56890000D01*
X169199619Y-56611161D01*
X169118284Y-56343037D01*
X168986205Y-56095933D01*
X168808455Y-55879345D01*
X168591867Y-55701595D01*
X168439213Y-55620000D01*
X168591867Y-55538405D01*
X168808455Y-55360655D01*
X168986205Y-55144067D01*
X169118284Y-54896963D01*
X169199619Y-54628839D01*
X169227082Y-54350000D01*
X169199619Y-54071161D01*
X169118284Y-53803037D01*
X168986205Y-53555933D01*
X168808455Y-53339345D01*
X168591867Y-53161595D01*
X168439213Y-53080000D01*
X168591867Y-52998405D01*
X168808455Y-52820655D01*
X168986205Y-52604067D01*
X169118284Y-52356963D01*
X169199619Y-52088839D01*
X169227082Y-51810000D01*
X169199619Y-51531161D01*
X169118284Y-51263037D01*
X168986205Y-51015933D01*
X168808455Y-50799345D01*
X168591867Y-50621595D01*
X168439213Y-50540000D01*
X168591867Y-50458405D01*
X168808455Y-50280655D01*
X168986205Y-50064067D01*
X169118284Y-49816963D01*
X169199619Y-49548839D01*
X169227082Y-49270000D01*
X169199619Y-48991161D01*
X169118284Y-48723037D01*
X168986205Y-48475933D01*
X168808455Y-48259345D01*
X168591867Y-48081595D01*
X168439213Y-48000000D01*
X168591867Y-47918405D01*
X168808455Y-47740655D01*
X168986205Y-47524067D01*
X169118284Y-47276963D01*
X169199619Y-47008839D01*
X169227082Y-46730000D01*
X169199619Y-46451161D01*
X169118284Y-46183037D01*
X168986205Y-45935933D01*
X168808455Y-45719345D01*
X168591867Y-45541595D01*
X168439213Y-45460000D01*
X168591867Y-45378405D01*
X168808455Y-45200655D01*
X168986205Y-44984067D01*
X169118284Y-44736963D01*
X169199619Y-44468839D01*
X169227082Y-44190000D01*
X169199619Y-43911161D01*
X169118284Y-43643037D01*
X168986205Y-43395933D01*
X168808455Y-43179345D01*
X168591867Y-43001595D01*
X168439213Y-42920000D01*
X168591867Y-42838405D01*
X168808455Y-42660655D01*
X168986205Y-42444067D01*
X169118284Y-42196963D01*
X169199619Y-41928839D01*
X169227082Y-41650000D01*
X169199619Y-41371161D01*
X169118284Y-41103037D01*
X168986205Y-40855933D01*
X168808455Y-40639345D01*
X168591867Y-40461595D01*
X168439213Y-40380000D01*
X168591867Y-40298405D01*
X168808455Y-40120655D01*
X168986205Y-39904067D01*
X169118284Y-39656963D01*
X169199619Y-39388839D01*
X169227082Y-39110000D01*
X169199619Y-38831161D01*
X169118284Y-38563037D01*
X168986205Y-38315933D01*
X168808455Y-38099345D01*
X168719918Y-38026684D01*
X168934187Y-37874174D01*
X169166783Y-37627417D01*
X169346770Y-37340024D01*
X169467231Y-37023039D01*
X169479251Y-36964899D01*
X169361100Y-36697000D01*
X167747000Y-36697000D01*
X167747000Y-36717000D01*
X167493000Y-36717000D01*
X167493000Y-36697000D01*
X165878900Y-36697000D01*
X165760749Y-36964899D01*
X165772769Y-37023039D01*
X165893230Y-37340024D01*
X166073217Y-37627417D01*
X166305813Y-37874174D01*
X166520082Y-38026684D01*
X166431545Y-38099345D01*
X166253795Y-38315933D01*
X166121716Y-38563037D01*
X166040381Y-38831161D01*
X166012918Y-39110000D01*
X166040381Y-39388839D01*
X166121716Y-39656963D01*
X166253795Y-39904067D01*
X166431545Y-40120655D01*
X166648133Y-40298405D01*
X166800787Y-40380000D01*
X166648133Y-40461595D01*
X166431545Y-40639345D01*
X166253795Y-40855933D01*
X166121716Y-41103037D01*
X166040381Y-41371161D01*
X166012918Y-41650000D01*
X166040381Y-41928839D01*
X166121716Y-42196963D01*
X166215353Y-42372148D01*
X155707818Y-52879683D01*
X155689399Y-52894799D01*
X155629091Y-52968285D01*
X155584278Y-53052124D01*
X155556683Y-53143095D01*
X155549914Y-53211819D01*
X155547365Y-53237700D01*
X155549700Y-53261405D01*
X155549701Y-104014685D01*
X155547365Y-104038400D01*
X155556684Y-104133006D01*
X155584278Y-104223976D01*
X155619134Y-104289186D01*
X155629092Y-104307815D01*
X155689400Y-104381301D01*
X155707813Y-104396412D01*
X156341886Y-105030486D01*
X156356999Y-105048901D01*
X156430485Y-105109209D01*
X156514136Y-105153922D01*
X156514323Y-105154022D01*
X156605293Y-105181617D01*
X156699900Y-105190935D01*
X156723607Y-105188600D01*
X157011901Y-105188600D01*
X157141504Y-105318203D01*
X156850000Y-105318203D01*
X156785270Y-105324578D01*
X156723027Y-105343460D01*
X156665663Y-105374121D01*
X156615384Y-105415384D01*
X156574121Y-105465663D01*
X156543460Y-105523027D01*
X156524578Y-105585270D01*
X156518203Y-105650000D01*
X156518203Y-107150000D01*
X156524578Y-107214730D01*
X156543460Y-107276973D01*
X156574121Y-107334337D01*
X156615384Y-107384616D01*
X156665663Y-107425879D01*
X156723027Y-107456540D01*
X156785270Y-107475422D01*
X156850000Y-107481797D01*
X157650000Y-107481797D01*
X157714730Y-107475422D01*
X157776973Y-107456540D01*
X157800000Y-107444232D01*
X157823027Y-107456540D01*
X157885270Y-107475422D01*
X157950000Y-107481797D01*
X158407331Y-107481797D01*
X158419463Y-107504494D01*
X158498815Y-107601185D01*
X158595506Y-107680537D01*
X158705820Y-107739502D01*
X158825518Y-107775812D01*
X158950000Y-107788072D01*
X158964250Y-107785000D01*
X159123000Y-107626250D01*
X159123000Y-106527000D01*
X159103000Y-106527000D01*
X159103000Y-106273000D01*
X159123000Y-106273000D01*
X159123000Y-106253000D01*
X159377000Y-106253000D01*
X159377000Y-106273000D01*
X159397000Y-106273000D01*
X159397000Y-106527000D01*
X159377000Y-106527000D01*
X159377000Y-107626250D01*
X159412075Y-107661325D01*
X159174101Y-107899300D01*
X157999710Y-107899300D01*
X157910155Y-107809745D01*
X157789511Y-107729134D01*
X157655458Y-107673607D01*
X157513149Y-107645300D01*
X157368051Y-107645300D01*
X157225742Y-107673607D01*
X157091689Y-107729134D01*
X156971045Y-107809745D01*
X156868445Y-107912345D01*
X156787834Y-108032989D01*
X156732307Y-108167042D01*
X156704000Y-108309351D01*
X156704000Y-108454449D01*
X156732307Y-108596758D01*
X156787834Y-108730811D01*
X156868445Y-108851455D01*
X156971045Y-108954055D01*
X157091689Y-109034666D01*
X157225742Y-109090193D01*
X157368051Y-109118500D01*
X157513149Y-109118500D01*
X157655458Y-109090193D01*
X157789511Y-109034666D01*
X157910155Y-108954055D01*
X157999710Y-108864500D01*
X159350295Y-108864500D01*
X159374000Y-108866835D01*
X159397705Y-108864500D01*
X159397707Y-108864500D01*
X159468606Y-108857517D01*
X159559577Y-108829922D01*
X159643415Y-108785109D01*
X159716901Y-108724801D01*
X159732017Y-108706382D01*
X160527926Y-107910474D01*
X160541707Y-107979758D01*
X160597234Y-108113811D01*
X160677845Y-108234455D01*
X160780445Y-108337055D01*
X160901089Y-108417666D01*
X161031441Y-108471660D01*
X160706001Y-108797100D01*
X160690451Y-108797100D01*
X160548142Y-108825407D01*
X160414089Y-108880934D01*
X160325690Y-108940000D01*
X159522407Y-108940000D01*
X159498700Y-108937665D01*
X159404093Y-108946983D01*
X159356088Y-108961545D01*
X159313123Y-108974578D01*
X159229285Y-109019391D01*
X159155799Y-109079699D01*
X159140687Y-109098113D01*
X158425513Y-109813288D01*
X158407100Y-109828399D01*
X158391989Y-109846812D01*
X158391987Y-109846814D01*
X158346792Y-109901885D01*
X158301978Y-109985724D01*
X158294134Y-110011584D01*
X158274383Y-110076694D01*
X158267400Y-110147593D01*
X158265065Y-110171300D01*
X158267400Y-110195005D01*
X158267400Y-110517806D01*
X158267401Y-110517816D01*
X158267401Y-110573192D01*
X158265663Y-110574121D01*
X158215384Y-110615384D01*
X158174121Y-110665663D01*
X158143460Y-110723027D01*
X158124578Y-110785270D01*
X158118203Y-110850000D01*
X158118203Y-112350000D01*
X158124578Y-112414730D01*
X158143460Y-112476973D01*
X158174121Y-112534337D01*
X158215384Y-112584616D01*
X158265663Y-112625879D01*
X158323027Y-112656540D01*
X158385270Y-112675422D01*
X158450000Y-112681797D01*
X159050000Y-112681797D01*
X159114730Y-112675422D01*
X159176973Y-112656540D01*
X159234337Y-112625879D01*
X159250000Y-112613025D01*
X159265663Y-112625879D01*
X159323027Y-112656540D01*
X159385270Y-112675422D01*
X159450000Y-112681797D01*
X160050000Y-112681797D01*
X160114730Y-112675422D01*
X160176973Y-112656540D01*
X160234337Y-112625879D01*
X160250000Y-112613025D01*
X160265663Y-112625879D01*
X160323027Y-112656540D01*
X160385270Y-112675422D01*
X160450000Y-112681797D01*
X161050000Y-112681797D01*
X161114730Y-112675422D01*
X161176973Y-112656540D01*
X161234337Y-112625879D01*
X161250000Y-112613025D01*
X161265663Y-112625879D01*
X161323027Y-112656540D01*
X161385270Y-112675422D01*
X161450000Y-112681797D01*
X162050000Y-112681797D01*
X162114730Y-112675422D01*
X162176973Y-112656540D01*
X162200000Y-112644232D01*
X162223027Y-112656540D01*
X162285270Y-112675422D01*
X162350000Y-112681797D01*
X163150000Y-112681797D01*
X163214730Y-112675422D01*
X163276973Y-112656540D01*
X163334337Y-112625879D01*
X163384616Y-112584616D01*
X163425879Y-112534337D01*
X163456540Y-112476973D01*
X163475422Y-112414730D01*
X163481797Y-112350000D01*
X163481797Y-110850000D01*
X163475422Y-110785270D01*
X163456540Y-110723027D01*
X163425879Y-110665663D01*
X163384616Y-110615384D01*
X163334337Y-110574121D01*
X163276973Y-110543460D01*
X163214730Y-110524578D01*
X163150000Y-110518203D01*
X162408396Y-110518203D01*
X164956788Y-107969812D01*
X164975201Y-107954701D01*
X165035509Y-107881215D01*
X165080322Y-107797377D01*
X165084076Y-107785000D01*
X165107917Y-107706407D01*
X165117235Y-107611800D01*
X165114900Y-107588093D01*
X165114900Y-97479710D01*
X165204455Y-97390155D01*
X165285066Y-97269511D01*
X165340593Y-97135458D01*
X165368900Y-96993149D01*
X165368900Y-96848051D01*
X165340593Y-96705742D01*
X165285066Y-96571689D01*
X165204455Y-96451045D01*
X165101855Y-96348445D01*
X164981211Y-96267834D01*
X164847158Y-96212307D01*
X164704849Y-96184000D01*
X164559751Y-96184000D01*
X164417442Y-96212307D01*
X164283389Y-96267834D01*
X164162745Y-96348445D01*
X164060145Y-96451045D01*
X164038500Y-96483439D01*
X164038500Y-60051710D01*
X164128055Y-59962155D01*
X164208666Y-59841511D01*
X164264193Y-59707458D01*
X164292500Y-59565149D01*
X164292500Y-59420051D01*
X164264193Y-59277742D01*
X164208666Y-59143689D01*
X164128055Y-59023045D01*
X164025455Y-58920445D01*
X163904811Y-58839834D01*
X163839654Y-58812845D01*
X166040276Y-56612223D01*
X166012918Y-56890000D01*
X166040381Y-57168839D01*
X166121716Y-57436963D01*
X166253795Y-57684067D01*
X166431545Y-57900655D01*
X166648133Y-58078405D01*
X166800787Y-58160000D01*
X166648133Y-58241595D01*
X166431545Y-58419345D01*
X166253795Y-58635933D01*
X166121716Y-58883037D01*
X166040381Y-59151161D01*
X166012918Y-59430000D01*
X166040381Y-59708839D01*
X166121716Y-59976963D01*
X166253795Y-60224067D01*
X166431545Y-60440655D01*
X166648133Y-60618405D01*
X166800787Y-60700000D01*
X166648133Y-60781595D01*
X166431545Y-60959345D01*
X166253795Y-61175933D01*
X166121716Y-61423037D01*
X166040381Y-61691161D01*
X166012918Y-61970000D01*
X166040381Y-62248839D01*
X166121716Y-62516963D01*
X166253795Y-62764067D01*
X166431545Y-62980655D01*
X166648133Y-63158405D01*
X166800787Y-63240000D01*
X166648133Y-63321595D01*
X166431545Y-63499345D01*
X166253795Y-63715933D01*
X166121716Y-63963037D01*
X166040381Y-64231161D01*
X166012918Y-64510000D01*
X166040381Y-64788839D01*
X166121716Y-65056963D01*
X166253795Y-65304067D01*
X166431545Y-65520655D01*
X166648133Y-65698405D01*
X166800787Y-65780000D01*
X166648133Y-65861595D01*
X166431545Y-66039345D01*
X166253795Y-66255933D01*
X166121716Y-66503037D01*
X166040381Y-66771161D01*
X166012918Y-67050000D01*
X166040381Y-67328839D01*
X166121716Y-67596963D01*
X166253795Y-67844067D01*
X166431545Y-68060655D01*
X166648133Y-68238405D01*
X166800787Y-68320000D01*
X166648133Y-68401595D01*
X166431545Y-68579345D01*
X166253795Y-68795933D01*
X166121716Y-69043037D01*
X166040381Y-69311161D01*
X166012918Y-69590000D01*
X166040381Y-69868839D01*
X166121716Y-70136963D01*
X166215353Y-70312147D01*
X164642718Y-71884783D01*
X164624299Y-71899899D01*
X164563991Y-71973385D01*
X164519178Y-72057224D01*
X164491583Y-72148195D01*
X164484787Y-72217200D01*
X164482265Y-72242800D01*
X164484600Y-72266505D01*
X164484601Y-93322785D01*
X164482265Y-93346500D01*
X164491584Y-93441106D01*
X164519178Y-93532076D01*
X164563992Y-93615915D01*
X164593151Y-93651445D01*
X164624300Y-93689401D01*
X164642713Y-93704512D01*
X165865600Y-94927400D01*
X165865601Y-117329485D01*
X165863265Y-117353200D01*
X165872584Y-117447806D01*
X165900178Y-117538776D01*
X165944992Y-117622615D01*
X165987299Y-117674166D01*
X166005300Y-117696101D01*
X166023713Y-117711212D01*
X169679322Y-121366821D01*
X169665663Y-121374121D01*
X169615384Y-121415384D01*
X169574121Y-121465663D01*
X169543460Y-121523027D01*
X169524578Y-121585270D01*
X169518203Y-121650000D01*
X169518203Y-123150000D01*
X169524578Y-123214730D01*
X169543460Y-123276973D01*
X169574121Y-123334337D01*
X169615384Y-123384616D01*
X169665663Y-123425879D01*
X169723027Y-123456540D01*
X169785270Y-123475422D01*
X169850000Y-123481797D01*
X170650000Y-123481797D01*
X170714730Y-123475422D01*
X170776973Y-123456540D01*
X170800000Y-123444232D01*
X170823027Y-123456540D01*
X170885270Y-123475422D01*
X170950000Y-123481797D01*
X171407331Y-123481797D01*
X171419463Y-123504494D01*
X171468134Y-123563800D01*
X165797299Y-123563800D01*
X164677800Y-122444301D01*
X164677800Y-118614110D01*
X164767355Y-118524555D01*
X164847966Y-118403911D01*
X164903493Y-118269858D01*
X164931800Y-118127549D01*
X164931800Y-117982451D01*
X164903493Y-117840142D01*
X164847966Y-117706089D01*
X164767355Y-117585445D01*
X164677800Y-117495890D01*
X164677800Y-114195996D01*
X164680134Y-114172299D01*
X164677800Y-114148602D01*
X164677800Y-114148593D01*
X164670817Y-114077694D01*
X164643222Y-113986723D01*
X164598409Y-113902885D01*
X164538101Y-113829399D01*
X164519682Y-113814283D01*
X163675017Y-112969618D01*
X163659901Y-112951199D01*
X163586415Y-112890891D01*
X163502577Y-112846078D01*
X163411606Y-112818483D01*
X163340707Y-112811500D01*
X163340705Y-112811500D01*
X163317000Y-112809165D01*
X163293295Y-112811500D01*
X160273707Y-112811500D01*
X160250000Y-112809165D01*
X160226293Y-112811500D01*
X160155394Y-112818483D01*
X160064423Y-112846078D01*
X159980585Y-112890891D01*
X159907099Y-112951199D01*
X159846791Y-113024685D01*
X159820211Y-113074412D01*
X159794180Y-113060498D01*
X159674482Y-113024188D01*
X159550000Y-113011928D01*
X159535750Y-113015000D01*
X159377000Y-113173750D01*
X159377000Y-114273000D01*
X159397000Y-114273000D01*
X159397000Y-114527000D01*
X159377000Y-114527000D01*
X159377000Y-114547000D01*
X159123000Y-114547000D01*
X159123000Y-114527000D01*
X159103000Y-114527000D01*
X159103000Y-114273000D01*
X159123000Y-114273000D01*
X159123000Y-113173750D01*
X158964250Y-113015000D01*
X158950000Y-113011928D01*
X158825518Y-113024188D01*
X158705820Y-113060498D01*
X158679789Y-113074412D01*
X158653209Y-113024685D01*
X158592901Y-112951199D01*
X158519415Y-112890891D01*
X158435577Y-112846078D01*
X158344606Y-112818483D01*
X158273707Y-112811500D01*
X158250000Y-112809165D01*
X158226293Y-112811500D01*
X157440399Y-112811500D01*
X157310696Y-112681797D01*
X157650000Y-112681797D01*
X157714730Y-112675422D01*
X157776973Y-112656540D01*
X157834337Y-112625879D01*
X157884616Y-112584616D01*
X157925879Y-112534337D01*
X157956540Y-112476973D01*
X157975422Y-112414730D01*
X157981797Y-112350000D01*
X157981797Y-110850000D01*
X157975422Y-110785270D01*
X157956540Y-110723027D01*
X157925879Y-110665663D01*
X157884616Y-110615384D01*
X157834337Y-110574121D01*
X157776973Y-110543460D01*
X157714730Y-110524578D01*
X157650000Y-110518203D01*
X156850000Y-110518203D01*
X156785270Y-110524578D01*
X156723027Y-110543460D01*
X156665663Y-110574121D01*
X156615384Y-110615384D01*
X156574121Y-110665663D01*
X156543460Y-110723027D01*
X156524578Y-110785270D01*
X156518203Y-110850000D01*
X156518203Y-111889304D01*
X154731500Y-110102601D01*
X154731500Y-93250707D01*
X154733835Y-93227000D01*
X154724517Y-93132393D01*
X154696922Y-93041423D01*
X154676705Y-93003600D01*
X154652109Y-92957585D01*
X154591801Y-92884099D01*
X154573388Y-92868988D01*
X152974422Y-91270023D01*
X153104763Y-91230484D01*
X153351867Y-91098405D01*
X153568455Y-90920655D01*
X153746205Y-90704067D01*
X153878284Y-90456963D01*
X153959619Y-90188839D01*
X153987082Y-89910000D01*
X153959619Y-89631161D01*
X153878284Y-89363037D01*
X153746205Y-89115933D01*
X153568455Y-88899345D01*
X153351867Y-88721595D01*
X153199213Y-88640000D01*
X153351867Y-88558405D01*
X153568455Y-88380655D01*
X153746205Y-88164067D01*
X153878284Y-87916963D01*
X153959619Y-87648839D01*
X153987082Y-87370000D01*
X153959619Y-87091161D01*
X153878284Y-86823037D01*
X153746205Y-86575933D01*
X153568455Y-86359345D01*
X153351867Y-86181595D01*
X153199213Y-86100000D01*
X153351867Y-86018405D01*
X153568455Y-85840655D01*
X153746205Y-85624067D01*
X153878284Y-85376963D01*
X153959619Y-85108839D01*
X153987082Y-84830000D01*
X153959619Y-84551161D01*
X153878284Y-84283037D01*
X153746205Y-84035933D01*
X153568455Y-83819345D01*
X153351867Y-83641595D01*
X153199213Y-83560000D01*
X153351867Y-83478405D01*
X153568455Y-83300655D01*
X153746205Y-83084067D01*
X153878284Y-82836963D01*
X153959619Y-82568839D01*
X153987082Y-82290000D01*
X153959619Y-82011161D01*
X153878284Y-81743037D01*
X153746205Y-81495933D01*
X153568455Y-81279345D01*
X153351867Y-81101595D01*
X153199213Y-81020000D01*
X153351867Y-80938405D01*
X153568455Y-80760655D01*
X153746205Y-80544067D01*
X153878284Y-80296963D01*
X153959619Y-80028839D01*
X153987082Y-79750000D01*
X153959619Y-79471161D01*
X153878284Y-79203037D01*
X153746205Y-78955933D01*
X153568455Y-78739345D01*
X153351867Y-78561595D01*
X153199213Y-78480000D01*
X153351867Y-78398405D01*
X153568455Y-78220655D01*
X153746205Y-78004067D01*
X153878284Y-77756963D01*
X153959619Y-77488839D01*
X153987082Y-77210000D01*
X153959619Y-76931161D01*
X153878284Y-76663037D01*
X153746205Y-76415933D01*
X153568455Y-76199345D01*
X153351867Y-76021595D01*
X153199213Y-75940000D01*
X153351867Y-75858405D01*
X153568455Y-75680655D01*
X153746205Y-75464067D01*
X153878284Y-75216963D01*
X153959619Y-74948839D01*
X153987082Y-74670000D01*
X153959619Y-74391161D01*
X153878284Y-74123037D01*
X153746205Y-73875933D01*
X153568455Y-73659345D01*
X153351867Y-73481595D01*
X153199213Y-73400000D01*
X153351867Y-73318405D01*
X153568455Y-73140655D01*
X153746205Y-72924067D01*
X153878284Y-72676963D01*
X153959619Y-72408839D01*
X153987082Y-72130000D01*
X153959619Y-71851161D01*
X153878284Y-71583037D01*
X153746205Y-71335933D01*
X153568455Y-71119345D01*
X153351867Y-70941595D01*
X153199213Y-70860000D01*
X153351867Y-70778405D01*
X153568455Y-70600655D01*
X153746205Y-70384067D01*
X153878284Y-70136963D01*
X153959619Y-69868839D01*
X153987082Y-69590000D01*
X153959619Y-69311161D01*
X153878284Y-69043037D01*
X153746205Y-68795933D01*
X153568455Y-68579345D01*
X153479918Y-68506684D01*
X153694187Y-68354174D01*
X153926783Y-68107417D01*
X154106770Y-67820024D01*
X154227231Y-67503039D01*
X154239251Y-67444899D01*
X154121100Y-67177000D01*
X152507000Y-67177000D01*
X152507000Y-67197000D01*
X152253000Y-67197000D01*
X152253000Y-67177000D01*
X152233000Y-67177000D01*
X152233000Y-66923000D01*
X152253000Y-66923000D01*
X152253000Y-66903000D01*
X152507000Y-66903000D01*
X152507000Y-66923000D01*
X154121100Y-66923000D01*
X154239251Y-66655101D01*
X154227231Y-66596961D01*
X154106770Y-66279976D01*
X153926783Y-65992583D01*
X153694187Y-65745826D01*
X153479918Y-65593316D01*
X153568455Y-65520655D01*
X153746205Y-65304067D01*
X153878284Y-65056963D01*
X153959619Y-64788839D01*
X153987082Y-64510000D01*
X153959619Y-64231161D01*
X153878284Y-63963037D01*
X153746205Y-63715933D01*
X153568455Y-63499345D01*
X153351867Y-63321595D01*
X153199213Y-63240000D01*
X153351867Y-63158405D01*
X153568455Y-62980655D01*
X153746205Y-62764067D01*
X153878284Y-62516963D01*
X153959619Y-62248839D01*
X153987082Y-61970000D01*
X153959619Y-61691161D01*
X153878284Y-61423037D01*
X153746205Y-61175933D01*
X153568455Y-60959345D01*
X153351867Y-60781595D01*
X153199213Y-60700000D01*
X153351867Y-60618405D01*
X153568455Y-60440655D01*
X153746205Y-60224067D01*
X153878284Y-59976963D01*
X153959619Y-59708839D01*
X153987082Y-59430000D01*
X153959619Y-59151161D01*
X153878284Y-58883037D01*
X153746205Y-58635933D01*
X153568455Y-58419345D01*
X153351867Y-58241595D01*
X153199213Y-58160000D01*
X153351867Y-58078405D01*
X153568455Y-57900655D01*
X153746205Y-57684067D01*
X153878284Y-57436963D01*
X153959619Y-57168839D01*
X153987082Y-56890000D01*
X153959619Y-56611161D01*
X153878284Y-56343037D01*
X153746205Y-56095933D01*
X153568455Y-55879345D01*
X153351867Y-55701595D01*
X153199213Y-55620000D01*
X153351867Y-55538405D01*
X153568455Y-55360655D01*
X153746205Y-55144067D01*
X153878284Y-54896963D01*
X153959619Y-54628839D01*
X153987082Y-54350000D01*
X153959619Y-54071161D01*
X153878284Y-53803037D01*
X153746205Y-53555933D01*
X153568455Y-53339345D01*
X153351867Y-53161595D01*
X153199213Y-53080000D01*
X153351867Y-52998405D01*
X153568455Y-52820655D01*
X153746205Y-52604067D01*
X153878284Y-52356963D01*
X153959619Y-52088839D01*
X153987082Y-51810000D01*
X153959619Y-51531161D01*
X153878284Y-51263037D01*
X153746205Y-51015933D01*
X153568455Y-50799345D01*
X153351867Y-50621595D01*
X153199213Y-50540000D01*
X153351867Y-50458405D01*
X153568455Y-50280655D01*
X153746205Y-50064067D01*
X153878284Y-49816963D01*
X153959619Y-49548839D01*
X153987082Y-49270000D01*
X153959619Y-48991161D01*
X153878284Y-48723037D01*
X153746205Y-48475933D01*
X153568455Y-48259345D01*
X153351867Y-48081595D01*
X153199213Y-48000000D01*
X153351867Y-47918405D01*
X153568455Y-47740655D01*
X153746205Y-47524067D01*
X153878284Y-47276963D01*
X153959619Y-47008839D01*
X153987082Y-46730000D01*
X153959619Y-46451161D01*
X153878284Y-46183037D01*
X153746205Y-45935933D01*
X153568455Y-45719345D01*
X153351867Y-45541595D01*
X153199213Y-45460000D01*
X153351867Y-45378405D01*
X153568455Y-45200655D01*
X153746205Y-44984067D01*
X153878284Y-44736963D01*
X153959619Y-44468839D01*
X153987082Y-44190000D01*
X153959619Y-43911161D01*
X153878284Y-43643037D01*
X153746205Y-43395933D01*
X153568455Y-43179345D01*
X153351867Y-43001595D01*
X153199213Y-42920000D01*
X153351867Y-42838405D01*
X153568455Y-42660655D01*
X153746205Y-42444067D01*
X153878284Y-42196963D01*
X153959619Y-41928839D01*
X153987082Y-41650000D01*
X153959619Y-41371161D01*
X153878284Y-41103037D01*
X153746205Y-40855933D01*
X153568455Y-40639345D01*
X153351867Y-40461595D01*
X153199213Y-40380000D01*
X153351867Y-40298405D01*
X153568455Y-40120655D01*
X153746205Y-39904067D01*
X153878284Y-39656963D01*
X153959619Y-39388839D01*
X153987082Y-39110000D01*
X153959619Y-38831161D01*
X153878284Y-38563037D01*
X153746205Y-38315933D01*
X153568455Y-38099345D01*
X153351867Y-37921595D01*
X153199213Y-37840000D01*
X153351867Y-37758405D01*
X153568455Y-37580655D01*
X153746205Y-37364067D01*
X153878284Y-37116963D01*
X153959619Y-36848839D01*
X153987082Y-36570000D01*
X153959619Y-36291161D01*
X153924413Y-36175101D01*
X165760749Y-36175101D01*
X165878900Y-36443000D01*
X167493000Y-36443000D01*
X167493000Y-36423000D01*
X167747000Y-36423000D01*
X167747000Y-36443000D01*
X169361100Y-36443000D01*
X169479251Y-36175101D01*
X169467231Y-36116961D01*
X169346770Y-35799976D01*
X169166783Y-35512583D01*
X168934187Y-35265826D01*
X168719918Y-35113316D01*
X168808455Y-35040655D01*
X168892500Y-34938246D01*
X179373000Y-34938246D01*
X179373000Y-35061754D01*
X179397095Y-35182889D01*
X179444360Y-35296996D01*
X179512977Y-35399689D01*
X179600311Y-35487023D01*
X179703004Y-35555640D01*
X179817111Y-35602905D01*
X179938246Y-35627000D01*
X180061754Y-35627000D01*
X180182889Y-35602905D01*
X180296996Y-35555640D01*
X180399689Y-35487023D01*
X180487023Y-35399689D01*
X180555640Y-35296996D01*
X180602905Y-35182889D01*
X180627000Y-35061754D01*
X180627000Y-34938246D01*
X180602905Y-34817111D01*
X180555640Y-34703004D01*
X180487023Y-34600311D01*
X180399689Y-34512977D01*
X180296996Y-34444360D01*
X180182889Y-34397095D01*
X180061754Y-34373000D01*
X179938246Y-34373000D01*
X179817111Y-34397095D01*
X179703004Y-34444360D01*
X179600311Y-34512977D01*
X179512977Y-34600311D01*
X179444360Y-34703004D01*
X179397095Y-34817111D01*
X179373000Y-34938246D01*
X168892500Y-34938246D01*
X168986205Y-34824067D01*
X169118284Y-34576963D01*
X169199619Y-34308839D01*
X169227082Y-34030000D01*
X169199619Y-33751161D01*
X169118284Y-33483037D01*
X168986205Y-33235933D01*
X168808455Y-33019345D01*
X168591867Y-32841595D01*
X168439213Y-32760000D01*
X168591867Y-32678405D01*
X168808455Y-32500655D01*
X168986205Y-32284067D01*
X169118284Y-32036963D01*
X169192483Y-31792360D01*
X175891800Y-31792360D01*
X175891800Y-32207640D01*
X175972817Y-32614939D01*
X176131737Y-32998607D01*
X176362454Y-33343899D01*
X176656101Y-33637546D01*
X177001393Y-33868263D01*
X177385061Y-34027183D01*
X177792360Y-34108200D01*
X178207640Y-34108200D01*
X178614939Y-34027183D01*
X178998607Y-33868263D01*
X179343899Y-33637546D01*
X179637546Y-33343899D01*
X179868263Y-32998607D01*
X180027183Y-32614939D01*
X180108200Y-32207640D01*
X180108200Y-31792360D01*
X180027183Y-31385061D01*
X179868263Y-31001393D01*
X179637546Y-30656101D01*
X179343899Y-30362454D01*
X178998607Y-30131737D01*
X178614939Y-29972817D01*
X178207640Y-29891800D01*
X177792360Y-29891800D01*
X177385061Y-29972817D01*
X177001393Y-30131737D01*
X176656101Y-30362454D01*
X176362454Y-30656101D01*
X176131737Y-31001393D01*
X175972817Y-31385061D01*
X175891800Y-31792360D01*
X169192483Y-31792360D01*
X169199619Y-31768839D01*
X169227082Y-31490000D01*
X169199619Y-31211161D01*
X169118284Y-30943037D01*
X168986205Y-30695933D01*
X168808455Y-30479345D01*
X168591867Y-30301595D01*
X168344763Y-30169516D01*
X168076639Y-30088181D01*
X167867675Y-30067600D01*
X167372325Y-30067600D01*
X167163361Y-30088181D01*
X166895237Y-30169516D01*
X166648133Y-30301595D01*
X166431545Y-30479345D01*
X166253795Y-30695933D01*
X166121716Y-30943037D01*
X166040381Y-31211161D01*
X166012918Y-31490000D01*
X166040381Y-31768839D01*
X166121716Y-32036963D01*
X166253795Y-32284067D01*
X166431545Y-32500655D01*
X166648133Y-32678405D01*
X166800787Y-32760000D01*
X166648133Y-32841595D01*
X166431545Y-33019345D01*
X166253795Y-33235933D01*
X166121716Y-33483037D01*
X166040381Y-33751161D01*
X166012918Y-34030000D01*
X166040381Y-34308839D01*
X166121716Y-34576963D01*
X166253795Y-34824067D01*
X166431545Y-35040655D01*
X166520082Y-35113316D01*
X166305813Y-35265826D01*
X166073217Y-35512583D01*
X165893230Y-35799976D01*
X165772769Y-36116961D01*
X165760749Y-36175101D01*
X153924413Y-36175101D01*
X153878284Y-36023037D01*
X153746205Y-35775933D01*
X153568455Y-35559345D01*
X153351867Y-35381595D01*
X153199213Y-35300000D01*
X153351867Y-35218405D01*
X153568455Y-35040655D01*
X153746205Y-34824067D01*
X153878284Y-34576963D01*
X153959619Y-34308839D01*
X153987082Y-34030000D01*
X153959619Y-33751161D01*
X153878284Y-33483037D01*
X153746205Y-33235933D01*
X153568455Y-33019345D01*
X153440089Y-32913997D01*
X153650000Y-32913997D01*
X153714730Y-32907622D01*
X153776973Y-32888740D01*
X153834337Y-32858079D01*
X153884616Y-32816816D01*
X153925879Y-32766537D01*
X153956540Y-32709173D01*
X153975422Y-32646930D01*
X153981797Y-32582200D01*
X153981797Y-30397800D01*
X153975422Y-30333070D01*
X153956540Y-30270827D01*
X153925879Y-30213463D01*
X153884616Y-30163184D01*
X153834337Y-30121921D01*
X153776973Y-30091260D01*
X153714730Y-30072378D01*
X153650000Y-30066003D01*
X151110000Y-30066003D01*
X151045270Y-30072378D01*
X150983027Y-30091260D01*
X150925663Y-30121921D01*
X150875384Y-30163184D01*
X150834121Y-30213463D01*
X150803460Y-30270827D01*
X150784578Y-30333070D01*
X150778203Y-30397800D01*
X150778203Y-32582200D01*
X150784578Y-32646930D01*
X150803460Y-32709173D01*
X150834121Y-32766537D01*
X150875384Y-32816816D01*
X150925663Y-32858079D01*
X150983027Y-32888740D01*
X151045270Y-32907622D01*
X151110000Y-32913997D01*
X151319911Y-32913997D01*
X151191545Y-33019345D01*
X151013795Y-33235933D01*
X150881716Y-33483037D01*
X150800381Y-33751161D01*
X150772918Y-34030000D01*
X150800381Y-34308839D01*
X150881716Y-34576963D01*
X151013795Y-34824067D01*
X151191545Y-35040655D01*
X151408133Y-35218405D01*
X151560787Y-35300000D01*
X151408133Y-35381595D01*
X151191545Y-35559345D01*
X151013795Y-35775933D01*
X150881716Y-36023037D01*
X150800381Y-36291161D01*
X150772918Y-36570000D01*
X150800381Y-36848839D01*
X150881716Y-37116963D01*
X151013795Y-37364067D01*
X151191545Y-37580655D01*
X151408133Y-37758405D01*
X151560787Y-37840000D01*
X151408133Y-37921595D01*
X151191545Y-38099345D01*
X151013795Y-38315933D01*
X150881716Y-38563037D01*
X150800381Y-38831161D01*
X150772918Y-39110000D01*
X150800381Y-39388839D01*
X150881716Y-39656963D01*
X151013795Y-39904067D01*
X151191545Y-40120655D01*
X151408133Y-40298405D01*
X151560787Y-40380000D01*
X151408133Y-40461595D01*
X151191545Y-40639345D01*
X151013795Y-40855933D01*
X150881716Y-41103037D01*
X150800381Y-41371161D01*
X150772918Y-41650000D01*
X150800381Y-41928839D01*
X150881716Y-42196963D01*
X151013795Y-42444067D01*
X151191545Y-42660655D01*
X151408133Y-42838405D01*
X151560787Y-42920000D01*
X151408133Y-43001595D01*
X151191545Y-43179345D01*
X151013795Y-43395933D01*
X150881716Y-43643037D01*
X150800381Y-43911161D01*
X150772918Y-44190000D01*
X150800381Y-44468839D01*
X150881716Y-44736963D01*
X150975353Y-44912147D01*
X141538118Y-54349383D01*
X141519699Y-54364499D01*
X141459391Y-54437985D01*
X141414578Y-54521824D01*
X141386983Y-54612795D01*
X141380907Y-54674487D01*
X141377665Y-54707400D01*
X141380000Y-54731105D01*
X141380001Y-110873485D01*
X141377665Y-110897200D01*
X141386984Y-110991806D01*
X141414578Y-111082776D01*
X141459392Y-111166615D01*
X141484157Y-111196791D01*
X141519700Y-111240101D01*
X141538113Y-111255212D01*
X143660917Y-113378016D01*
X143615384Y-113415384D01*
X143574121Y-113465663D01*
X143543460Y-113523027D01*
X143524578Y-113585270D01*
X143518203Y-113650000D01*
X143518203Y-115150000D01*
X143524578Y-115214730D01*
X143543460Y-115276973D01*
X143574121Y-115334337D01*
X143615384Y-115384616D01*
X143665663Y-115425879D01*
X143723027Y-115456540D01*
X143785270Y-115475422D01*
X143850000Y-115481797D01*
X144650000Y-115481797D01*
X144714730Y-115475422D01*
X144776973Y-115456540D01*
X144800000Y-115444232D01*
X144823027Y-115456540D01*
X144885270Y-115475422D01*
X144950000Y-115481797D01*
X145407331Y-115481797D01*
X145419463Y-115504494D01*
X145498815Y-115601185D01*
X145595506Y-115680537D01*
X145705820Y-115739502D01*
X145825518Y-115775812D01*
X145950000Y-115788072D01*
X145964250Y-115785000D01*
X146123000Y-115626250D01*
X146123000Y-114527000D01*
X146103000Y-114527000D01*
X146103000Y-114273000D01*
X146123000Y-114273000D01*
X146123000Y-114253000D01*
X146377000Y-114253000D01*
X146377000Y-114273000D01*
X146397000Y-114273000D01*
X146397000Y-114527000D01*
X146377000Y-114527000D01*
X146377000Y-115626250D01*
X146535750Y-115785000D01*
X146550000Y-115788072D01*
X146674482Y-115775812D01*
X146794180Y-115739502D01*
X146904494Y-115680537D01*
X147001185Y-115601185D01*
X147080537Y-115504494D01*
X147092669Y-115481797D01*
X147536473Y-115481797D01*
X147500707Y-115568142D01*
X147472400Y-115710451D01*
X147472400Y-115855549D01*
X147500707Y-115997858D01*
X147556234Y-116131911D01*
X147636845Y-116252555D01*
X147739445Y-116355155D01*
X147860089Y-116435766D01*
X147994142Y-116491293D01*
X148136451Y-116519600D01*
X148281549Y-116519600D01*
X148423858Y-116491293D01*
X148464913Y-116474287D01*
X147745177Y-117194023D01*
X147773000Y-117054149D01*
X147773000Y-116909051D01*
X147744693Y-116766742D01*
X147689166Y-116632689D01*
X147608555Y-116512045D01*
X147505955Y-116409445D01*
X147385311Y-116328834D01*
X147251258Y-116273307D01*
X147108949Y-116245000D01*
X146963851Y-116245000D01*
X146821542Y-116273307D01*
X146687489Y-116328834D01*
X146566845Y-116409445D01*
X146464245Y-116512045D01*
X146407303Y-116597265D01*
X146376955Y-116551845D01*
X146274355Y-116449245D01*
X146153711Y-116368634D01*
X146019658Y-116313107D01*
X145877349Y-116284800D01*
X145732251Y-116284800D01*
X145589942Y-116313107D01*
X145455889Y-116368634D01*
X145335245Y-116449245D01*
X145232645Y-116551845D01*
X145152034Y-116672489D01*
X145096507Y-116806542D01*
X145068200Y-116948851D01*
X145068200Y-117093949D01*
X145096507Y-117236258D01*
X145152034Y-117370311D01*
X145232645Y-117490955D01*
X145267400Y-117525710D01*
X145267401Y-118573192D01*
X145265663Y-118574121D01*
X145215384Y-118615384D01*
X145174121Y-118665663D01*
X145143460Y-118723027D01*
X145124578Y-118785270D01*
X145118203Y-118850000D01*
X145118203Y-120350000D01*
X145124578Y-120414730D01*
X145143460Y-120476973D01*
X145174121Y-120534337D01*
X145215384Y-120584616D01*
X145265663Y-120625879D01*
X145323027Y-120656540D01*
X145385270Y-120675422D01*
X145450000Y-120681797D01*
X146050000Y-120681797D01*
X146114730Y-120675422D01*
X146176973Y-120656540D01*
X146234337Y-120625879D01*
X146250000Y-120613025D01*
X146265663Y-120625879D01*
X146323027Y-120656540D01*
X146385270Y-120675422D01*
X146450000Y-120681797D01*
X147050000Y-120681797D01*
X147114730Y-120675422D01*
X147176973Y-120656540D01*
X147234337Y-120625879D01*
X147250000Y-120613025D01*
X147265663Y-120625879D01*
X147323027Y-120656540D01*
X147385270Y-120675422D01*
X147450000Y-120681797D01*
X148050000Y-120681797D01*
X148114730Y-120675422D01*
X148176973Y-120656540D01*
X148234337Y-120625879D01*
X148250000Y-120613025D01*
X148265663Y-120625879D01*
X148267401Y-120626808D01*
X148267401Y-120682183D01*
X148265065Y-120705900D01*
X148274383Y-120800506D01*
X148277718Y-120811500D01*
X147273707Y-120811500D01*
X147250000Y-120809165D01*
X147226293Y-120811500D01*
X147155394Y-120818483D01*
X147064423Y-120846078D01*
X146980585Y-120890891D01*
X146907099Y-120951199D01*
X146846791Y-121024685D01*
X146820211Y-121074412D01*
X146794180Y-121060498D01*
X146674482Y-121024188D01*
X146550000Y-121011928D01*
X146535750Y-121015000D01*
X146377000Y-121173750D01*
X146377000Y-122273000D01*
X146397000Y-122273000D01*
X146397000Y-122527000D01*
X146377000Y-122527000D01*
X146377000Y-123626250D01*
X146535750Y-123785000D01*
X146550000Y-123788072D01*
X146674482Y-123775812D01*
X146794180Y-123739502D01*
X146904494Y-123680537D01*
X147001185Y-123601185D01*
X147080537Y-123504494D01*
X147092669Y-123481797D01*
X147550000Y-123481797D01*
X147614730Y-123475422D01*
X147676973Y-123456540D01*
X147734337Y-123425879D01*
X147750000Y-123413025D01*
X147765663Y-123425879D01*
X147767401Y-123426808D01*
X147767401Y-123482185D01*
X147765065Y-123505900D01*
X147774384Y-123600506D01*
X147801978Y-123691476D01*
X147827649Y-123739502D01*
X147846792Y-123775315D01*
X147907100Y-123848801D01*
X147925513Y-123863912D01*
X148643800Y-124582200D01*
X147008800Y-124582200D01*
X146087925Y-123661325D01*
X146123000Y-123626250D01*
X146123000Y-122527000D01*
X146103000Y-122527000D01*
X146103000Y-122273000D01*
X146123000Y-122273000D01*
X146123000Y-121173750D01*
X145964250Y-121015000D01*
X145950000Y-121011928D01*
X145825518Y-121024188D01*
X145705820Y-121060498D01*
X145595506Y-121119463D01*
X145498815Y-121198815D01*
X145419463Y-121295506D01*
X145407331Y-121318203D01*
X144950000Y-121318203D01*
X144885270Y-121324578D01*
X144823027Y-121343460D01*
X144800000Y-121355768D01*
X144776973Y-121343460D01*
X144714730Y-121324578D01*
X144650000Y-121318203D01*
X143850000Y-121318203D01*
X143785270Y-121324578D01*
X143723027Y-121343460D01*
X143665663Y-121374121D01*
X143615384Y-121415384D01*
X143574121Y-121465663D01*
X143543460Y-121523027D01*
X143524578Y-121585270D01*
X143518203Y-121650000D01*
X143518203Y-123150000D01*
X143524578Y-123214730D01*
X143543460Y-123276973D01*
X143574121Y-123334337D01*
X143615384Y-123384616D01*
X143665663Y-123425879D01*
X143723027Y-123456540D01*
X143785270Y-123475422D01*
X143850000Y-123481797D01*
X144650000Y-123481797D01*
X144714730Y-123475422D01*
X144767401Y-123459444D01*
X144767401Y-123482185D01*
X144765065Y-123505900D01*
X144774384Y-123600506D01*
X144801978Y-123691476D01*
X144827649Y-123739502D01*
X144846792Y-123775315D01*
X144907100Y-123848801D01*
X144925513Y-123863912D01*
X146450888Y-125389288D01*
X146465999Y-125407701D01*
X146539485Y-125468009D01*
X146623323Y-125512822D01*
X146714293Y-125540417D01*
X146808900Y-125549735D01*
X146832607Y-125547400D01*
X175435695Y-125547400D01*
X175459400Y-125549735D01*
X175483105Y-125547400D01*
X175483107Y-125547400D01*
X175554006Y-125540417D01*
X175644977Y-125512822D01*
X175728815Y-125468009D01*
X175802301Y-125407701D01*
X175817417Y-125389282D01*
X176079716Y-125126983D01*
X175972817Y-125385061D01*
X175891800Y-125792360D01*
X175891800Y-126207640D01*
X175972817Y-126614939D01*
X176131737Y-126998607D01*
X176362454Y-127343899D01*
X176656101Y-127637546D01*
X177001393Y-127868263D01*
X177385061Y-128027183D01*
X177792360Y-128108200D01*
X178207640Y-128108200D01*
X178614939Y-128027183D01*
X178998607Y-127868263D01*
X179343899Y-127637546D01*
X179637546Y-127343899D01*
X179868263Y-126998607D01*
X180027183Y-126614939D01*
X180108200Y-126207640D01*
X180108200Y-125792360D01*
X180027183Y-125385061D01*
X179868263Y-125001393D01*
X179637546Y-124656101D01*
X179343899Y-124362454D01*
X178998607Y-124131737D01*
X178614939Y-123972817D01*
X178207640Y-123891800D01*
X177792360Y-123891800D01*
X177385061Y-123972817D01*
X177126983Y-124079716D01*
X178268453Y-122938246D01*
X179373000Y-122938246D01*
X179373000Y-123061754D01*
X179397095Y-123182889D01*
X179444360Y-123296996D01*
X179512977Y-123399689D01*
X179600311Y-123487023D01*
X179703004Y-123555640D01*
X179817111Y-123602905D01*
X179938246Y-123627000D01*
X180061754Y-123627000D01*
X180182889Y-123602905D01*
X180296996Y-123555640D01*
X180399689Y-123487023D01*
X180487023Y-123399689D01*
X180555640Y-123296996D01*
X180602905Y-123182889D01*
X180627000Y-123061754D01*
X180627000Y-122938246D01*
X180602905Y-122817111D01*
X180555640Y-122703004D01*
X180487023Y-122600311D01*
X180399689Y-122512977D01*
X180296996Y-122444360D01*
X180182889Y-122397095D01*
X180061754Y-122373000D01*
X179938246Y-122373000D01*
X179817111Y-122397095D01*
X179703004Y-122444360D01*
X179600311Y-122512977D01*
X179512977Y-122600311D01*
X179444360Y-122703004D01*
X179397095Y-122817111D01*
X179373000Y-122938246D01*
X178268453Y-122938246D01*
X180746401Y-120460299D01*
X180746401Y-125987583D01*
X180692901Y-126533212D01*
X180538049Y-127046109D01*
X180286522Y-127519162D01*
X179947901Y-127934352D01*
X179535087Y-128275861D01*
X179063803Y-128530683D01*
X178551995Y-128689114D01*
X178007206Y-128746374D01*
X177999690Y-128746400D01*
X142012407Y-128746400D01*
X141466788Y-128692901D01*
X140953891Y-128538049D01*
X140480838Y-128286522D01*
X140065648Y-127947901D01*
X139724139Y-127535087D01*
X139469317Y-127063803D01*
X139310886Y-126551995D01*
X139253626Y-126007206D01*
X139253600Y-125999690D01*
X139253600Y-125792360D01*
X139891800Y-125792360D01*
X139891800Y-126207640D01*
X139972817Y-126614939D01*
X140131737Y-126998607D01*
X140362454Y-127343899D01*
X140656101Y-127637546D01*
X141001393Y-127868263D01*
X141385061Y-128027183D01*
X141792360Y-128108200D01*
X142207640Y-128108200D01*
X142614939Y-128027183D01*
X142998607Y-127868263D01*
X143343899Y-127637546D01*
X143637546Y-127343899D01*
X143868263Y-126998607D01*
X144027183Y-126614939D01*
X144108200Y-126207640D01*
X144108200Y-125792360D01*
X144027183Y-125385061D01*
X143868263Y-125001393D01*
X143637546Y-124656101D01*
X143343899Y-124362454D01*
X142998607Y-124131737D01*
X142614939Y-123972817D01*
X142207640Y-123891800D01*
X141792360Y-123891800D01*
X141385061Y-123972817D01*
X141001393Y-124131737D01*
X140656101Y-124362454D01*
X140362454Y-124656101D01*
X140131737Y-125001393D01*
X139972817Y-125385061D01*
X139891800Y-125792360D01*
X139253600Y-125792360D01*
X139253600Y-122938246D01*
X139373000Y-122938246D01*
X139373000Y-123061754D01*
X139397095Y-123182889D01*
X139444360Y-123296996D01*
X139512977Y-123399689D01*
X139600311Y-123487023D01*
X139703004Y-123555640D01*
X139817111Y-123602905D01*
X139938246Y-123627000D01*
X140061754Y-123627000D01*
X140182889Y-123602905D01*
X140296996Y-123555640D01*
X140399689Y-123487023D01*
X140487023Y-123399689D01*
X140555640Y-123296996D01*
X140602905Y-123182889D01*
X140627000Y-123061754D01*
X140627000Y-122938246D01*
X140602905Y-122817111D01*
X140555640Y-122703004D01*
X140487023Y-122600311D01*
X140399689Y-122512977D01*
X140296996Y-122444360D01*
X140182889Y-122397095D01*
X140061754Y-122373000D01*
X139938246Y-122373000D01*
X139817111Y-122397095D01*
X139703004Y-122444360D01*
X139600311Y-122512977D01*
X139512977Y-122600311D01*
X139444360Y-122703004D01*
X139397095Y-122817111D01*
X139373000Y-122938246D01*
X139253600Y-122938246D01*
X139253600Y-118850000D01*
X143518203Y-118850000D01*
X143518203Y-120350000D01*
X143524578Y-120414730D01*
X143543460Y-120476973D01*
X143574121Y-120534337D01*
X143615384Y-120584616D01*
X143665663Y-120625879D01*
X143723027Y-120656540D01*
X143785270Y-120675422D01*
X143850000Y-120681797D01*
X144650000Y-120681797D01*
X144714730Y-120675422D01*
X144776973Y-120656540D01*
X144834337Y-120625879D01*
X144884616Y-120584616D01*
X144925879Y-120534337D01*
X144956540Y-120476973D01*
X144975422Y-120414730D01*
X144981797Y-120350000D01*
X144981797Y-118850000D01*
X144975422Y-118785270D01*
X144956540Y-118723027D01*
X144925879Y-118665663D01*
X144884616Y-118615384D01*
X144834337Y-118574121D01*
X144776973Y-118543460D01*
X144714730Y-118524578D01*
X144650000Y-118518203D01*
X143850000Y-118518203D01*
X143785270Y-118524578D01*
X143723027Y-118543460D01*
X143665663Y-118574121D01*
X143615384Y-118615384D01*
X143574121Y-118665663D01*
X143543460Y-118723027D01*
X143524578Y-118785270D01*
X143518203Y-118850000D01*
X139253600Y-118850000D01*
X139253600Y-34938246D01*
X139373000Y-34938246D01*
X139373000Y-35061754D01*
X139397095Y-35182889D01*
X139444360Y-35296996D01*
X139512977Y-35399689D01*
X139600311Y-35487023D01*
X139703004Y-35555640D01*
X139817111Y-35602905D01*
X139938246Y-35627000D01*
X140061754Y-35627000D01*
X140182889Y-35602905D01*
X140296996Y-35555640D01*
X140399689Y-35487023D01*
X140487023Y-35399689D01*
X140555640Y-35296996D01*
X140602905Y-35182889D01*
X140627000Y-35061754D01*
X140627000Y-34938246D01*
X140602905Y-34817111D01*
X140555640Y-34703004D01*
X140487023Y-34600311D01*
X140399689Y-34512977D01*
X140296996Y-34444360D01*
X140182889Y-34397095D01*
X140061754Y-34373000D01*
X139938246Y-34373000D01*
X139817111Y-34397095D01*
X139703004Y-34444360D01*
X139600311Y-34512977D01*
X139512977Y-34600311D01*
X139444360Y-34703004D01*
X139397095Y-34817111D01*
X139373000Y-34938246D01*
X139253600Y-34938246D01*
X139253600Y-32012407D01*
X139275175Y-31792360D01*
X139891800Y-31792360D01*
X139891800Y-32207640D01*
X139972817Y-32614939D01*
X140131737Y-32998607D01*
X140362454Y-33343899D01*
X140656101Y-33637546D01*
X141001393Y-33868263D01*
X141385061Y-34027183D01*
X141792360Y-34108200D01*
X142207640Y-34108200D01*
X142614939Y-34027183D01*
X142998607Y-33868263D01*
X143343899Y-33637546D01*
X143637546Y-33343899D01*
X143868263Y-32998607D01*
X144027183Y-32614939D01*
X144108200Y-32207640D01*
X144108200Y-31792360D01*
X144027183Y-31385061D01*
X143868263Y-31001393D01*
X143637546Y-30656101D01*
X143343899Y-30362454D01*
X142998607Y-30131737D01*
X142614939Y-29972817D01*
X142207640Y-29891800D01*
X141792360Y-29891800D01*
X141385061Y-29972817D01*
X141001393Y-30131737D01*
X140656101Y-30362454D01*
X140362454Y-30656101D01*
X140131737Y-31001393D01*
X139972817Y-31385061D01*
X139891800Y-31792360D01*
X139275175Y-31792360D01*
X139307099Y-31466787D01*
X139461951Y-30953894D01*
X139713477Y-30480839D01*
X140052099Y-30065648D01*
X140464913Y-29724139D01*
X140936196Y-29469318D01*
X141448001Y-29310886D01*
X141992794Y-29253626D01*
X142000310Y-29253600D01*
X177987593Y-29253600D01*
X178533213Y-29307099D01*
G37*
%TD.AperFunction*%
D18*
X155674701Y-118560101D02*
X155674700Y-120145295D01*
X155672365Y-120169000D01*
X155674700Y-120192705D01*
X155674700Y-120192706D01*
X155681683Y-120263605D01*
X155709278Y-120354576D01*
X155754091Y-120438415D01*
X155814399Y-120511901D01*
X155832818Y-120527017D01*
X156674955Y-121369155D01*
X156665663Y-121374121D01*
X156615384Y-121415384D01*
X156574121Y-121465663D01*
X156543460Y-121523027D01*
X156524578Y-121585270D01*
X156518203Y-121650000D01*
X156518203Y-123150000D01*
X156524578Y-123214730D01*
X156543460Y-123276973D01*
X156574121Y-123334337D01*
X156615384Y-123384616D01*
X156665663Y-123425879D01*
X156723027Y-123456540D01*
X156785270Y-123475422D01*
X156850000Y-123481797D01*
X157650000Y-123481797D01*
X157714730Y-123475422D01*
X157776973Y-123456540D01*
X157800000Y-123444232D01*
X157823027Y-123456540D01*
X157885270Y-123475422D01*
X157950000Y-123481797D01*
X158407331Y-123481797D01*
X158419463Y-123504494D01*
X158468216Y-123563900D01*
X155551899Y-123563900D01*
X152147400Y-120159401D01*
X152147400Y-118304010D01*
X152236955Y-118214455D01*
X152317566Y-118093811D01*
X152373093Y-117959758D01*
X152401400Y-117817449D01*
X152401400Y-117672351D01*
X152373093Y-117530042D01*
X152336169Y-117440900D01*
X152475390Y-117440900D01*
X152564945Y-117530455D01*
X152685589Y-117611066D01*
X152819642Y-117666593D01*
X152961951Y-117694900D01*
X153107049Y-117694900D01*
X153249358Y-117666593D01*
X153383411Y-117611066D01*
X153504055Y-117530455D01*
X153606655Y-117427855D01*
X153687266Y-117307211D01*
X153742793Y-117173158D01*
X153771100Y-117030849D01*
X153771100Y-116885751D01*
X153742793Y-116743442D01*
X153687266Y-116609389D01*
X153613319Y-116498718D01*
X155674701Y-118560101D01*
%TA.AperFunction,Conductor*%
D19*
G36*
X155674701Y-118560101D02*
G01*
X155674700Y-120145295D01*
X155672365Y-120169000D01*
X155674700Y-120192705D01*
X155674700Y-120192706D01*
X155681683Y-120263605D01*
X155709278Y-120354576D01*
X155754091Y-120438415D01*
X155814399Y-120511901D01*
X155832818Y-120527017D01*
X156674955Y-121369155D01*
X156665663Y-121374121D01*
X156615384Y-121415384D01*
X156574121Y-121465663D01*
X156543460Y-121523027D01*
X156524578Y-121585270D01*
X156518203Y-121650000D01*
X156518203Y-123150000D01*
X156524578Y-123214730D01*
X156543460Y-123276973D01*
X156574121Y-123334337D01*
X156615384Y-123384616D01*
X156665663Y-123425879D01*
X156723027Y-123456540D01*
X156785270Y-123475422D01*
X156850000Y-123481797D01*
X157650000Y-123481797D01*
X157714730Y-123475422D01*
X157776973Y-123456540D01*
X157800000Y-123444232D01*
X157823027Y-123456540D01*
X157885270Y-123475422D01*
X157950000Y-123481797D01*
X158407331Y-123481797D01*
X158419463Y-123504494D01*
X158468216Y-123563900D01*
X155551899Y-123563900D01*
X152147400Y-120159401D01*
X152147400Y-118304010D01*
X152236955Y-118214455D01*
X152317566Y-118093811D01*
X152373093Y-117959758D01*
X152401400Y-117817449D01*
X152401400Y-117672351D01*
X152373093Y-117530042D01*
X152336169Y-117440900D01*
X152475390Y-117440900D01*
X152564945Y-117530455D01*
X152685589Y-117611066D01*
X152819642Y-117666593D01*
X152961951Y-117694900D01*
X153107049Y-117694900D01*
X153249358Y-117666593D01*
X153383411Y-117611066D01*
X153504055Y-117530455D01*
X153606655Y-117427855D01*
X153687266Y-117307211D01*
X153742793Y-117173158D01*
X153771100Y-117030849D01*
X153771100Y-116885751D01*
X153742793Y-116743442D01*
X153687266Y-116609389D01*
X153613319Y-116498718D01*
X155674701Y-118560101D01*
G37*
%TD.AperFunction*%
D18*
X159377000Y-122273000D02*
X159397000Y-122273000D01*
X159397000Y-122527000D01*
X159377000Y-122527000D01*
X159377000Y-122547000D01*
X159123000Y-122547000D01*
X159123000Y-122527000D01*
X159103000Y-122527000D01*
X159103000Y-122273000D01*
X159123000Y-122273000D01*
X159123000Y-122253000D01*
X159377000Y-122253000D01*
X159377000Y-122273000D01*
%TA.AperFunction,Conductor*%
D19*
G36*
X159377000Y-122273000D02*
G01*
X159397000Y-122273000D01*
X159397000Y-122527000D01*
X159377000Y-122527000D01*
X159377000Y-122547000D01*
X159123000Y-122547000D01*
X159123000Y-122527000D01*
X159103000Y-122527000D01*
X159103000Y-122273000D01*
X159123000Y-122273000D01*
X159123000Y-122253000D01*
X159377000Y-122253000D01*
X159377000Y-122273000D01*
G37*
%TD.AperFunction*%
D18*
X167390100Y-95126599D02*
X167390101Y-110859485D01*
X167387765Y-110883200D01*
X167397084Y-110977806D01*
X167424678Y-111068776D01*
X167432162Y-111082777D01*
X167469492Y-111152615D01*
X167529800Y-111226101D01*
X167548213Y-111241212D01*
X169675737Y-113368736D01*
X169665663Y-113374121D01*
X169615384Y-113415384D01*
X169574121Y-113465663D01*
X169543460Y-113523027D01*
X169524578Y-113585270D01*
X169518203Y-113650000D01*
X169518203Y-115150000D01*
X169524578Y-115214730D01*
X169543460Y-115276973D01*
X169574121Y-115334337D01*
X169615384Y-115384616D01*
X169665663Y-115425879D01*
X169723027Y-115456540D01*
X169785270Y-115475422D01*
X169850000Y-115481797D01*
X170650000Y-115481797D01*
X170714730Y-115475422D01*
X170776973Y-115456540D01*
X170800000Y-115444232D01*
X170823027Y-115456540D01*
X170885270Y-115475422D01*
X170950000Y-115481797D01*
X171407331Y-115481797D01*
X171419463Y-115504494D01*
X171498815Y-115601185D01*
X171595506Y-115680537D01*
X171705820Y-115739502D01*
X171825518Y-115775812D01*
X171950000Y-115788072D01*
X171964250Y-115785000D01*
X172122998Y-115626252D01*
X172122998Y-115785000D01*
X172130087Y-115785000D01*
X172078707Y-115909042D01*
X172050400Y-116051351D01*
X172050400Y-116196449D01*
X172078707Y-116338758D01*
X172096311Y-116381257D01*
X171964858Y-116326807D01*
X171822549Y-116298500D01*
X171677451Y-116298500D01*
X171535142Y-116326807D01*
X171401089Y-116382334D01*
X171280445Y-116462945D01*
X171177845Y-116565545D01*
X171097234Y-116686189D01*
X171041707Y-116820242D01*
X171013400Y-116962551D01*
X171013400Y-117107649D01*
X171041707Y-117249958D01*
X171097234Y-117384011D01*
X171177845Y-117504655D01*
X171267401Y-117594211D01*
X171267400Y-118573192D01*
X171265663Y-118574121D01*
X171215384Y-118615384D01*
X171174121Y-118665663D01*
X171143460Y-118723027D01*
X171124578Y-118785270D01*
X171118203Y-118850000D01*
X171118203Y-120350000D01*
X171124578Y-120414730D01*
X171143460Y-120476973D01*
X171174121Y-120534337D01*
X171215384Y-120584616D01*
X171265663Y-120625879D01*
X171323027Y-120656540D01*
X171385270Y-120675422D01*
X171450000Y-120681797D01*
X172050000Y-120681797D01*
X172114730Y-120675422D01*
X172176973Y-120656540D01*
X172234337Y-120625879D01*
X172250000Y-120613025D01*
X172265663Y-120625879D01*
X172323027Y-120656540D01*
X172385270Y-120675422D01*
X172450000Y-120681797D01*
X173050000Y-120681797D01*
X173114730Y-120675422D01*
X173176973Y-120656540D01*
X173234337Y-120625879D01*
X173250000Y-120613025D01*
X173265663Y-120625879D01*
X173323027Y-120656540D01*
X173385270Y-120675422D01*
X173450000Y-120681797D01*
X174050000Y-120681797D01*
X174114730Y-120675422D01*
X174176973Y-120656540D01*
X174234337Y-120625879D01*
X174250000Y-120613025D01*
X174265663Y-120625879D01*
X174323027Y-120656540D01*
X174385270Y-120675422D01*
X174450000Y-120681797D01*
X175050000Y-120681797D01*
X175114730Y-120675422D01*
X175176973Y-120656540D01*
X175200000Y-120644232D01*
X175223027Y-120656540D01*
X175285270Y-120675422D01*
X175350000Y-120681797D01*
X175639704Y-120681797D01*
X175510001Y-120811500D01*
X174273707Y-120811500D01*
X174250000Y-120809165D01*
X174226293Y-120811500D01*
X174155394Y-120818483D01*
X174064423Y-120846078D01*
X173980585Y-120890891D01*
X173907099Y-120951199D01*
X173846791Y-121024685D01*
X173801978Y-121108523D01*
X173774383Y-121199494D01*
X173765065Y-121294100D01*
X173767401Y-121317817D01*
X173767401Y-121373192D01*
X173765663Y-121374121D01*
X173750000Y-121386975D01*
X173734337Y-121374121D01*
X173676973Y-121343460D01*
X173614730Y-121324578D01*
X173550000Y-121318203D01*
X173092669Y-121318203D01*
X173080537Y-121295506D01*
X173001185Y-121198815D01*
X172904494Y-121119463D01*
X172794180Y-121060498D01*
X172674482Y-121024188D01*
X172550000Y-121011928D01*
X172535750Y-121015000D01*
X172377000Y-121173750D01*
X172377000Y-122273000D01*
X172397000Y-122273000D01*
X172397000Y-122527000D01*
X172377000Y-122527000D01*
X172377000Y-122547000D01*
X172123000Y-122547000D01*
X172123000Y-122527000D01*
X172103000Y-122527000D01*
X172103000Y-122273000D01*
X172123000Y-122273000D01*
X172123000Y-121173750D01*
X171964250Y-121015000D01*
X171950000Y-121011928D01*
X171825518Y-121024188D01*
X171705820Y-121060498D01*
X171679789Y-121074412D01*
X171653209Y-121024685D01*
X171592901Y-120951199D01*
X171519415Y-120890891D01*
X171435577Y-120846078D01*
X171344606Y-120818483D01*
X171273707Y-120811500D01*
X171250000Y-120809165D01*
X171226293Y-120811500D01*
X170488999Y-120811500D01*
X170359296Y-120681797D01*
X170650000Y-120681797D01*
X170714730Y-120675422D01*
X170776973Y-120656540D01*
X170834337Y-120625879D01*
X170884616Y-120584616D01*
X170925879Y-120534337D01*
X170956540Y-120476973D01*
X170975422Y-120414730D01*
X170981797Y-120350000D01*
X170981797Y-118850000D01*
X170975422Y-118785270D01*
X170956540Y-118723027D01*
X170925879Y-118665663D01*
X170884616Y-118615384D01*
X170834337Y-118574121D01*
X170776973Y-118543460D01*
X170714730Y-118524578D01*
X170650000Y-118518203D01*
X169850000Y-118518203D01*
X169785270Y-118524578D01*
X169723027Y-118543460D01*
X169665663Y-118574121D01*
X169615384Y-118615384D01*
X169574121Y-118665663D01*
X169543460Y-118723027D01*
X169524578Y-118785270D01*
X169518203Y-118850000D01*
X169518203Y-119840704D01*
X166830800Y-117153301D01*
X166830800Y-94751207D01*
X166833135Y-94727500D01*
X166823817Y-94632893D01*
X166796222Y-94541923D01*
X166785655Y-94522154D01*
X167390100Y-95126599D01*
%TA.AperFunction,Conductor*%
D19*
G36*
X167390100Y-95126599D02*
G01*
X167390101Y-110859485D01*
X167387765Y-110883200D01*
X167397084Y-110977806D01*
X167424678Y-111068776D01*
X167432162Y-111082777D01*
X167469492Y-111152615D01*
X167529800Y-111226101D01*
X167548213Y-111241212D01*
X169675737Y-113368736D01*
X169665663Y-113374121D01*
X169615384Y-113415384D01*
X169574121Y-113465663D01*
X169543460Y-113523027D01*
X169524578Y-113585270D01*
X169518203Y-113650000D01*
X169518203Y-115150000D01*
X169524578Y-115214730D01*
X169543460Y-115276973D01*
X169574121Y-115334337D01*
X169615384Y-115384616D01*
X169665663Y-115425879D01*
X169723027Y-115456540D01*
X169785270Y-115475422D01*
X169850000Y-115481797D01*
X170650000Y-115481797D01*
X170714730Y-115475422D01*
X170776973Y-115456540D01*
X170800000Y-115444232D01*
X170823027Y-115456540D01*
X170885270Y-115475422D01*
X170950000Y-115481797D01*
X171407331Y-115481797D01*
X171419463Y-115504494D01*
X171498815Y-115601185D01*
X171595506Y-115680537D01*
X171705820Y-115739502D01*
X171825518Y-115775812D01*
X171950000Y-115788072D01*
X171964250Y-115785000D01*
X172122998Y-115626252D01*
X172122998Y-115785000D01*
X172130087Y-115785000D01*
X172078707Y-115909042D01*
X172050400Y-116051351D01*
X172050400Y-116196449D01*
X172078707Y-116338758D01*
X172096311Y-116381257D01*
X171964858Y-116326807D01*
X171822549Y-116298500D01*
X171677451Y-116298500D01*
X171535142Y-116326807D01*
X171401089Y-116382334D01*
X171280445Y-116462945D01*
X171177845Y-116565545D01*
X171097234Y-116686189D01*
X171041707Y-116820242D01*
X171013400Y-116962551D01*
X171013400Y-117107649D01*
X171041707Y-117249958D01*
X171097234Y-117384011D01*
X171177845Y-117504655D01*
X171267401Y-117594211D01*
X171267400Y-118573192D01*
X171265663Y-118574121D01*
X171215384Y-118615384D01*
X171174121Y-118665663D01*
X171143460Y-118723027D01*
X171124578Y-118785270D01*
X171118203Y-118850000D01*
X171118203Y-120350000D01*
X171124578Y-120414730D01*
X171143460Y-120476973D01*
X171174121Y-120534337D01*
X171215384Y-120584616D01*
X171265663Y-120625879D01*
X171323027Y-120656540D01*
X171385270Y-120675422D01*
X171450000Y-120681797D01*
X172050000Y-120681797D01*
X172114730Y-120675422D01*
X172176973Y-120656540D01*
X172234337Y-120625879D01*
X172250000Y-120613025D01*
X172265663Y-120625879D01*
X172323027Y-120656540D01*
X172385270Y-120675422D01*
X172450000Y-120681797D01*
X173050000Y-120681797D01*
X173114730Y-120675422D01*
X173176973Y-120656540D01*
X173234337Y-120625879D01*
X173250000Y-120613025D01*
X173265663Y-120625879D01*
X173323027Y-120656540D01*
X173385270Y-120675422D01*
X173450000Y-120681797D01*
X174050000Y-120681797D01*
X174114730Y-120675422D01*
X174176973Y-120656540D01*
X174234337Y-120625879D01*
X174250000Y-120613025D01*
X174265663Y-120625879D01*
X174323027Y-120656540D01*
X174385270Y-120675422D01*
X174450000Y-120681797D01*
X175050000Y-120681797D01*
X175114730Y-120675422D01*
X175176973Y-120656540D01*
X175200000Y-120644232D01*
X175223027Y-120656540D01*
X175285270Y-120675422D01*
X175350000Y-120681797D01*
X175639704Y-120681797D01*
X175510001Y-120811500D01*
X174273707Y-120811500D01*
X174250000Y-120809165D01*
X174226293Y-120811500D01*
X174155394Y-120818483D01*
X174064423Y-120846078D01*
X173980585Y-120890891D01*
X173907099Y-120951199D01*
X173846791Y-121024685D01*
X173801978Y-121108523D01*
X173774383Y-121199494D01*
X173765065Y-121294100D01*
X173767401Y-121317817D01*
X173767401Y-121373192D01*
X173765663Y-121374121D01*
X173750000Y-121386975D01*
X173734337Y-121374121D01*
X173676973Y-121343460D01*
X173614730Y-121324578D01*
X173550000Y-121318203D01*
X173092669Y-121318203D01*
X173080537Y-121295506D01*
X173001185Y-121198815D01*
X172904494Y-121119463D01*
X172794180Y-121060498D01*
X172674482Y-121024188D01*
X172550000Y-121011928D01*
X172535750Y-121015000D01*
X172377000Y-121173750D01*
X172377000Y-122273000D01*
X172397000Y-122273000D01*
X172397000Y-122527000D01*
X172377000Y-122527000D01*
X172377000Y-122547000D01*
X172123000Y-122547000D01*
X172123000Y-122527000D01*
X172103000Y-122527000D01*
X172103000Y-122273000D01*
X172123000Y-122273000D01*
X172123000Y-121173750D01*
X171964250Y-121015000D01*
X171950000Y-121011928D01*
X171825518Y-121024188D01*
X171705820Y-121060498D01*
X171679789Y-121074412D01*
X171653209Y-121024685D01*
X171592901Y-120951199D01*
X171519415Y-120890891D01*
X171435577Y-120846078D01*
X171344606Y-120818483D01*
X171273707Y-120811500D01*
X171250000Y-120809165D01*
X171226293Y-120811500D01*
X170488999Y-120811500D01*
X170359296Y-120681797D01*
X170650000Y-120681797D01*
X170714730Y-120675422D01*
X170776973Y-120656540D01*
X170834337Y-120625879D01*
X170884616Y-120584616D01*
X170925879Y-120534337D01*
X170956540Y-120476973D01*
X170975422Y-120414730D01*
X170981797Y-120350000D01*
X170981797Y-118850000D01*
X170975422Y-118785270D01*
X170956540Y-118723027D01*
X170925879Y-118665663D01*
X170884616Y-118615384D01*
X170834337Y-118574121D01*
X170776973Y-118543460D01*
X170714730Y-118524578D01*
X170650000Y-118518203D01*
X169850000Y-118518203D01*
X169785270Y-118524578D01*
X169723027Y-118543460D01*
X169665663Y-118574121D01*
X169615384Y-118615384D01*
X169574121Y-118665663D01*
X169543460Y-118723027D01*
X169524578Y-118785270D01*
X169518203Y-118850000D01*
X169518203Y-119840704D01*
X166830800Y-117153301D01*
X166830800Y-94751207D01*
X166833135Y-94727500D01*
X166823817Y-94632893D01*
X166796222Y-94541923D01*
X166785655Y-94522154D01*
X167390100Y-95126599D01*
G37*
%TD.AperFunction*%
D18*
X175711603Y-94518203D02*
X175350000Y-94518203D01*
X175285270Y-94524578D01*
X175232600Y-94540556D01*
X175232600Y-94517806D01*
X175234935Y-94494100D01*
X175225617Y-94399493D01*
X175198022Y-94308523D01*
X175178924Y-94272794D01*
X175153209Y-94224685D01*
X175118034Y-94181824D01*
X175108013Y-94169613D01*
X175108012Y-94169612D01*
X175092901Y-94151199D01*
X175074488Y-94136088D01*
X173564517Y-92626118D01*
X173549401Y-92607699D01*
X173475915Y-92547391D01*
X173392077Y-92502578D01*
X173301106Y-92474983D01*
X173230207Y-92468000D01*
X173230205Y-92468000D01*
X173206500Y-92465665D01*
X173182795Y-92468000D01*
X172806810Y-92468000D01*
X172717255Y-92378445D01*
X172596611Y-92297834D01*
X172462558Y-92242307D01*
X172320249Y-92214000D01*
X172175151Y-92214000D01*
X172032842Y-92242307D01*
X171898789Y-92297834D01*
X171778145Y-92378445D01*
X171675545Y-92481045D01*
X171594934Y-92601689D01*
X171539407Y-92735742D01*
X171511100Y-92878051D01*
X171511100Y-93023149D01*
X171539407Y-93165458D01*
X171594934Y-93299511D01*
X171675545Y-93420155D01*
X171778145Y-93522755D01*
X171898789Y-93603366D01*
X172032842Y-93658893D01*
X172175151Y-93687200D01*
X172320249Y-93687200D01*
X172462558Y-93658893D01*
X172596611Y-93603366D01*
X172717255Y-93522755D01*
X172806810Y-93433200D01*
X173006601Y-93433200D01*
X173057701Y-93484300D01*
X172956951Y-93484300D01*
X172814642Y-93512607D01*
X172680589Y-93568134D01*
X172559945Y-93648745D01*
X172457345Y-93751345D01*
X172376734Y-93871989D01*
X172321207Y-94006042D01*
X172292900Y-94148351D01*
X172292900Y-94293449D01*
X172298306Y-94320628D01*
X172274383Y-94399494D01*
X172265065Y-94494100D01*
X172267401Y-94517817D01*
X172267401Y-94573192D01*
X172265663Y-94574121D01*
X172250000Y-94586975D01*
X172234337Y-94574121D01*
X172176973Y-94543460D01*
X172114730Y-94524578D01*
X172050000Y-94518203D01*
X171450000Y-94518203D01*
X171385270Y-94524578D01*
X171323027Y-94543460D01*
X171265663Y-94574121D01*
X171215384Y-94615384D01*
X171174121Y-94665663D01*
X171143460Y-94723027D01*
X171124578Y-94785270D01*
X171118203Y-94850000D01*
X171118203Y-96320559D01*
X171015849Y-96300200D01*
X170981797Y-96300200D01*
X170981797Y-94850000D01*
X170975422Y-94785270D01*
X170956540Y-94723027D01*
X170925879Y-94665663D01*
X170884616Y-94615384D01*
X170834337Y-94574121D01*
X170776973Y-94543460D01*
X170714730Y-94524578D01*
X170650000Y-94518203D01*
X169850000Y-94518203D01*
X169785270Y-94524578D01*
X169723027Y-94543460D01*
X169665663Y-94574121D01*
X169615384Y-94615384D01*
X169574121Y-94665663D01*
X169543460Y-94723027D01*
X169524578Y-94785270D01*
X169518203Y-94850000D01*
X169518203Y-96350000D01*
X169524578Y-96414730D01*
X169543460Y-96476973D01*
X169574121Y-96534337D01*
X169615384Y-96584616D01*
X169665663Y-96625879D01*
X169723027Y-96656540D01*
X169785270Y-96675422D01*
X169850000Y-96681797D01*
X170294605Y-96681797D01*
X170290534Y-96687889D01*
X170235007Y-96821942D01*
X170206700Y-96964251D01*
X170206700Y-97109349D01*
X170235007Y-97251658D01*
X170262571Y-97318203D01*
X169850000Y-97318203D01*
X169785270Y-97324578D01*
X169723027Y-97343460D01*
X169665663Y-97374121D01*
X169615384Y-97415384D01*
X169574121Y-97465663D01*
X169543460Y-97523027D01*
X169524578Y-97585270D01*
X169518203Y-97650000D01*
X169518203Y-99150000D01*
X169524578Y-99214730D01*
X169543460Y-99276973D01*
X169574121Y-99334337D01*
X169615384Y-99384616D01*
X169665663Y-99425879D01*
X169723027Y-99456540D01*
X169785270Y-99475422D01*
X169850000Y-99481797D01*
X170650000Y-99481797D01*
X170714730Y-99475422D01*
X170776973Y-99456540D01*
X170800000Y-99444232D01*
X170823027Y-99456540D01*
X170885270Y-99475422D01*
X170950000Y-99481797D01*
X171407331Y-99481797D01*
X171419463Y-99504494D01*
X171498815Y-99601185D01*
X171595506Y-99680537D01*
X171705820Y-99739502D01*
X171825518Y-99775812D01*
X171950000Y-99788072D01*
X171964250Y-99785000D01*
X172123000Y-99626250D01*
X172123000Y-98527000D01*
X172103000Y-98527000D01*
X172103000Y-98273000D01*
X172123000Y-98273000D01*
X172123000Y-98253000D01*
X172377000Y-98253000D01*
X172377000Y-98273000D01*
X172397000Y-98273000D01*
X172397000Y-98527000D01*
X172377000Y-98527000D01*
X172377000Y-99431943D01*
X172329407Y-99546842D01*
X172301100Y-99689151D01*
X172301100Y-99834249D01*
X172329407Y-99976558D01*
X172360284Y-100051100D01*
X172324910Y-100051100D01*
X172283255Y-100009445D01*
X172162611Y-99928834D01*
X172028558Y-99873307D01*
X171886249Y-99845000D01*
X171741151Y-99845000D01*
X171598842Y-99873307D01*
X171464789Y-99928834D01*
X171344145Y-100009445D01*
X171241545Y-100112045D01*
X171160934Y-100232689D01*
X171105407Y-100366742D01*
X171077100Y-100509051D01*
X171077100Y-100654149D01*
X171105407Y-100796458D01*
X171160934Y-100930511D01*
X171241545Y-101051155D01*
X171331101Y-101140711D01*
X171331100Y-102254042D01*
X171301978Y-102308524D01*
X171274384Y-102399494D01*
X171265065Y-102494100D01*
X171267401Y-102517815D01*
X171267401Y-102573192D01*
X171265663Y-102574121D01*
X171215384Y-102615384D01*
X171174121Y-102665663D01*
X171143460Y-102723027D01*
X171124578Y-102785270D01*
X171118203Y-102850000D01*
X171118203Y-104350000D01*
X171124578Y-104414730D01*
X171143460Y-104476973D01*
X171174121Y-104534337D01*
X171215384Y-104584616D01*
X171265663Y-104625879D01*
X171323027Y-104656540D01*
X171385270Y-104675422D01*
X171450000Y-104681797D01*
X172050000Y-104681797D01*
X172114730Y-104675422D01*
X172176973Y-104656540D01*
X172234337Y-104625879D01*
X172250000Y-104613025D01*
X172265663Y-104625879D01*
X172323027Y-104656540D01*
X172385270Y-104675422D01*
X172450000Y-104681797D01*
X173050000Y-104681797D01*
X173114730Y-104675422D01*
X173176973Y-104656540D01*
X173234337Y-104625879D01*
X173250000Y-104613025D01*
X173265663Y-104625879D01*
X173323027Y-104656540D01*
X173385270Y-104675422D01*
X173450000Y-104681797D01*
X174050000Y-104681797D01*
X174114730Y-104675422D01*
X174176973Y-104656540D01*
X174234337Y-104625879D01*
X174250000Y-104613025D01*
X174265663Y-104625879D01*
X174323027Y-104656540D01*
X174385270Y-104675422D01*
X174450000Y-104681797D01*
X175050000Y-104681797D01*
X175114730Y-104675422D01*
X175176973Y-104656540D01*
X175200000Y-104644232D01*
X175223027Y-104656540D01*
X175285270Y-104675422D01*
X175350000Y-104681797D01*
X175642204Y-104681797D01*
X175512501Y-104811500D01*
X174273707Y-104811500D01*
X174250000Y-104809165D01*
X174226293Y-104811500D01*
X174155394Y-104818483D01*
X174064423Y-104846078D01*
X173980585Y-104890891D01*
X173907099Y-104951199D01*
X173846791Y-105024685D01*
X173801978Y-105108523D01*
X173774383Y-105199494D01*
X173765065Y-105294100D01*
X173767401Y-105317817D01*
X173767401Y-105373192D01*
X173765663Y-105374121D01*
X173750000Y-105386975D01*
X173734337Y-105374121D01*
X173676973Y-105343460D01*
X173614730Y-105324578D01*
X173550000Y-105318203D01*
X173092669Y-105318203D01*
X173080537Y-105295506D01*
X173001185Y-105198815D01*
X172904494Y-105119463D01*
X172794180Y-105060498D01*
X172674482Y-105024188D01*
X172550000Y-105011928D01*
X172535750Y-105015000D01*
X172377000Y-105173750D01*
X172377000Y-106273000D01*
X172397000Y-106273000D01*
X172397000Y-106527000D01*
X172377000Y-106527000D01*
X172377000Y-107626250D01*
X172533177Y-107782427D01*
X172513400Y-107881851D01*
X172513400Y-108026949D01*
X172541707Y-108169258D01*
X172597234Y-108303311D01*
X172677845Y-108423955D01*
X172780445Y-108526555D01*
X172901089Y-108607166D01*
X173035142Y-108662693D01*
X173177451Y-108691000D01*
X173322549Y-108691000D01*
X173464858Y-108662693D01*
X173598911Y-108607166D01*
X173719555Y-108526555D01*
X173822155Y-108423955D01*
X173902766Y-108303311D01*
X173958293Y-108169258D01*
X173986600Y-108026949D01*
X173986600Y-107881851D01*
X173958293Y-107739542D01*
X173902766Y-107605489D01*
X173822155Y-107484845D01*
X173751866Y-107414556D01*
X173765663Y-107425879D01*
X173823027Y-107456540D01*
X173885270Y-107475422D01*
X173950000Y-107481797D01*
X174327026Y-107481797D01*
X174310107Y-107522642D01*
X174281800Y-107664951D01*
X174281800Y-107810049D01*
X174310107Y-107952358D01*
X174365634Y-108086411D01*
X174446245Y-108207055D01*
X174535801Y-108296611D01*
X174535800Y-109025801D01*
X173717998Y-109843603D01*
X173685766Y-109765789D01*
X173605155Y-109645145D01*
X173502555Y-109542545D01*
X173381911Y-109461934D01*
X173247858Y-109406407D01*
X173105549Y-109378100D01*
X172960451Y-109378100D01*
X172818142Y-109406407D01*
X172684089Y-109461934D01*
X172563445Y-109542545D01*
X172460845Y-109645145D01*
X172380234Y-109765789D01*
X172366493Y-109798964D01*
X172340555Y-109760145D01*
X172237955Y-109657545D01*
X172117311Y-109576934D01*
X171983258Y-109521407D01*
X171840949Y-109493100D01*
X171695851Y-109493100D01*
X171553542Y-109521407D01*
X171419489Y-109576934D01*
X171298845Y-109657545D01*
X171196245Y-109760145D01*
X171115634Y-109880789D01*
X171060107Y-110014842D01*
X171031800Y-110157151D01*
X171031800Y-110302249D01*
X171060107Y-110444558D01*
X171115634Y-110578611D01*
X171173978Y-110665930D01*
X171143460Y-110723027D01*
X171124578Y-110785270D01*
X171118203Y-110850000D01*
X171118203Y-112350000D01*
X171124578Y-112414730D01*
X171143460Y-112476973D01*
X171174121Y-112534337D01*
X171215384Y-112584616D01*
X171265663Y-112625879D01*
X171323027Y-112656540D01*
X171385270Y-112675422D01*
X171450000Y-112681797D01*
X172050000Y-112681797D01*
X172114730Y-112675422D01*
X172176973Y-112656540D01*
X172234337Y-112625879D01*
X172250000Y-112613025D01*
X172265663Y-112625879D01*
X172323027Y-112656540D01*
X172385270Y-112675422D01*
X172450000Y-112681797D01*
X173050000Y-112681797D01*
X173114730Y-112675422D01*
X173176973Y-112656540D01*
X173234337Y-112625879D01*
X173250000Y-112613025D01*
X173265663Y-112625879D01*
X173323027Y-112656540D01*
X173385270Y-112675422D01*
X173450000Y-112681797D01*
X174050000Y-112681797D01*
X174114730Y-112675422D01*
X174176973Y-112656540D01*
X174234337Y-112625879D01*
X174250000Y-112613025D01*
X174265663Y-112625879D01*
X174323027Y-112656540D01*
X174385270Y-112675422D01*
X174450000Y-112681797D01*
X175050000Y-112681797D01*
X175114730Y-112675422D01*
X175176973Y-112656540D01*
X175200000Y-112644232D01*
X175223027Y-112656540D01*
X175285270Y-112675422D01*
X175350000Y-112681797D01*
X175662304Y-112681797D01*
X175532601Y-112811500D01*
X174273707Y-112811500D01*
X174250000Y-112809165D01*
X174226293Y-112811500D01*
X174155394Y-112818483D01*
X174064423Y-112846078D01*
X173980585Y-112890891D01*
X173907099Y-112951199D01*
X173846791Y-113024685D01*
X173801978Y-113108523D01*
X173774383Y-113199494D01*
X173765065Y-113294100D01*
X173767401Y-113317817D01*
X173767401Y-113373192D01*
X173765663Y-113374121D01*
X173750000Y-113386975D01*
X173734337Y-113374121D01*
X173676973Y-113343460D01*
X173614730Y-113324578D01*
X173550000Y-113318203D01*
X173092669Y-113318203D01*
X173080537Y-113295506D01*
X173001185Y-113198815D01*
X172904494Y-113119463D01*
X172794180Y-113060498D01*
X172674482Y-113024188D01*
X172550000Y-113011928D01*
X172535750Y-113015000D01*
X172377000Y-113173750D01*
X172377000Y-114273000D01*
X172397000Y-114273000D01*
X172397000Y-114527000D01*
X172377000Y-114527000D01*
X172377000Y-114547000D01*
X172123000Y-114547000D01*
X172123000Y-114527000D01*
X172103000Y-114527000D01*
X172103000Y-114273000D01*
X172123000Y-114273000D01*
X172123000Y-113173750D01*
X171964250Y-113015000D01*
X171950000Y-113011928D01*
X171825518Y-113024188D01*
X171705820Y-113060498D01*
X171679789Y-113074412D01*
X171653209Y-113024685D01*
X171592901Y-112951199D01*
X171519415Y-112890891D01*
X171435577Y-112846078D01*
X171344606Y-112818483D01*
X171273707Y-112811500D01*
X171250000Y-112809165D01*
X171226293Y-112811500D01*
X170483499Y-112811500D01*
X170353796Y-112681797D01*
X170650000Y-112681797D01*
X170714730Y-112675422D01*
X170776973Y-112656540D01*
X170834337Y-112625879D01*
X170884616Y-112584616D01*
X170925879Y-112534337D01*
X170956540Y-112476973D01*
X170975422Y-112414730D01*
X170981797Y-112350000D01*
X170981797Y-110850000D01*
X170975422Y-110785270D01*
X170956540Y-110723027D01*
X170925879Y-110665663D01*
X170884616Y-110615384D01*
X170834337Y-110574121D01*
X170776973Y-110543460D01*
X170714730Y-110524578D01*
X170650000Y-110518203D01*
X169850000Y-110518203D01*
X169785270Y-110524578D01*
X169723027Y-110543460D01*
X169665663Y-110574121D01*
X169615384Y-110615384D01*
X169574121Y-110665663D01*
X169543460Y-110723027D01*
X169524578Y-110785270D01*
X169518203Y-110850000D01*
X169518203Y-111846204D01*
X168355300Y-110683301D01*
X168355300Y-104041999D01*
X169679842Y-105366542D01*
X169665663Y-105374121D01*
X169615384Y-105415384D01*
X169574121Y-105465663D01*
X169543460Y-105523027D01*
X169524578Y-105585270D01*
X169518203Y-105650000D01*
X169518203Y-107150000D01*
X169524578Y-107214730D01*
X169543460Y-107276973D01*
X169574121Y-107334337D01*
X169615384Y-107384616D01*
X169665663Y-107425879D01*
X169723027Y-107456540D01*
X169785270Y-107475422D01*
X169850000Y-107481797D01*
X170650000Y-107481797D01*
X170714730Y-107475422D01*
X170776973Y-107456540D01*
X170800000Y-107444232D01*
X170823027Y-107456540D01*
X170885270Y-107475422D01*
X170950000Y-107481797D01*
X171407331Y-107481797D01*
X171419463Y-107504494D01*
X171498815Y-107601185D01*
X171595506Y-107680537D01*
X171705820Y-107739502D01*
X171825518Y-107775812D01*
X171950000Y-107788072D01*
X171964250Y-107785000D01*
X172123000Y-107626250D01*
X172123000Y-106527000D01*
X172103000Y-106527000D01*
X172103000Y-106273000D01*
X172123000Y-106273000D01*
X172123000Y-105173750D01*
X171964250Y-105015000D01*
X171950000Y-105011928D01*
X171825518Y-105024188D01*
X171705820Y-105060498D01*
X171679789Y-105074412D01*
X171653209Y-105024685D01*
X171592901Y-104951199D01*
X171519415Y-104890891D01*
X171435577Y-104846078D01*
X171344606Y-104818483D01*
X171273707Y-104811500D01*
X171250000Y-104809165D01*
X171226293Y-104811500D01*
X170489800Y-104811500D01*
X170360097Y-104681797D01*
X170650000Y-104681797D01*
X170714730Y-104675422D01*
X170776973Y-104656540D01*
X170834337Y-104625879D01*
X170884616Y-104584616D01*
X170925879Y-104534337D01*
X170956540Y-104476973D01*
X170975422Y-104414730D01*
X170981797Y-104350000D01*
X170981797Y-102850000D01*
X170975422Y-102785270D01*
X170956540Y-102723027D01*
X170925879Y-102665663D01*
X170884616Y-102615384D01*
X170834337Y-102574121D01*
X170776973Y-102543460D01*
X170714730Y-102524578D01*
X170650000Y-102518203D01*
X169850000Y-102518203D01*
X169785270Y-102524578D01*
X169723027Y-102543460D01*
X169665663Y-102574121D01*
X169615384Y-102615384D01*
X169574121Y-102665663D01*
X169543460Y-102723027D01*
X169524578Y-102785270D01*
X169518203Y-102850000D01*
X169518203Y-103839904D01*
X168960100Y-103281801D01*
X168960100Y-94836407D01*
X168962435Y-94812700D01*
X168953117Y-94718093D01*
X168925522Y-94627123D01*
X168904233Y-94587295D01*
X168880709Y-94543285D01*
X168820401Y-94469799D01*
X168801988Y-94454688D01*
X166466600Y-92119301D01*
X166466600Y-90949424D01*
X166648133Y-91098405D01*
X166895237Y-91230484D01*
X167163361Y-91311819D01*
X167372325Y-91332400D01*
X167867675Y-91332400D01*
X168076639Y-91311819D01*
X168344763Y-91230484D01*
X168591867Y-91098405D01*
X168808455Y-90920655D01*
X168986205Y-90704067D01*
X169118284Y-90456963D01*
X169137808Y-90392600D01*
X171586001Y-90392600D01*
X175711603Y-94518203D01*
%TA.AperFunction,Conductor*%
D19*
G36*
X175711603Y-94518203D02*
G01*
X175350000Y-94518203D01*
X175285270Y-94524578D01*
X175232600Y-94540556D01*
X175232600Y-94517806D01*
X175234935Y-94494100D01*
X175225617Y-94399493D01*
X175198022Y-94308523D01*
X175178924Y-94272794D01*
X175153209Y-94224685D01*
X175118034Y-94181824D01*
X175108013Y-94169613D01*
X175108012Y-94169612D01*
X175092901Y-94151199D01*
X175074488Y-94136088D01*
X173564517Y-92626118D01*
X173549401Y-92607699D01*
X173475915Y-92547391D01*
X173392077Y-92502578D01*
X173301106Y-92474983D01*
X173230207Y-92468000D01*
X173230205Y-92468000D01*
X173206500Y-92465665D01*
X173182795Y-92468000D01*
X172806810Y-92468000D01*
X172717255Y-92378445D01*
X172596611Y-92297834D01*
X172462558Y-92242307D01*
X172320249Y-92214000D01*
X172175151Y-92214000D01*
X172032842Y-92242307D01*
X171898789Y-92297834D01*
X171778145Y-92378445D01*
X171675545Y-92481045D01*
X171594934Y-92601689D01*
X171539407Y-92735742D01*
X171511100Y-92878051D01*
X171511100Y-93023149D01*
X171539407Y-93165458D01*
X171594934Y-93299511D01*
X171675545Y-93420155D01*
X171778145Y-93522755D01*
X171898789Y-93603366D01*
X172032842Y-93658893D01*
X172175151Y-93687200D01*
X172320249Y-93687200D01*
X172462558Y-93658893D01*
X172596611Y-93603366D01*
X172717255Y-93522755D01*
X172806810Y-93433200D01*
X173006601Y-93433200D01*
X173057701Y-93484300D01*
X172956951Y-93484300D01*
X172814642Y-93512607D01*
X172680589Y-93568134D01*
X172559945Y-93648745D01*
X172457345Y-93751345D01*
X172376734Y-93871989D01*
X172321207Y-94006042D01*
X172292900Y-94148351D01*
X172292900Y-94293449D01*
X172298306Y-94320628D01*
X172274383Y-94399494D01*
X172265065Y-94494100D01*
X172267401Y-94517817D01*
X172267401Y-94573192D01*
X172265663Y-94574121D01*
X172250000Y-94586975D01*
X172234337Y-94574121D01*
X172176973Y-94543460D01*
X172114730Y-94524578D01*
X172050000Y-94518203D01*
X171450000Y-94518203D01*
X171385270Y-94524578D01*
X171323027Y-94543460D01*
X171265663Y-94574121D01*
X171215384Y-94615384D01*
X171174121Y-94665663D01*
X171143460Y-94723027D01*
X171124578Y-94785270D01*
X171118203Y-94850000D01*
X171118203Y-96320559D01*
X171015849Y-96300200D01*
X170981797Y-96300200D01*
X170981797Y-94850000D01*
X170975422Y-94785270D01*
X170956540Y-94723027D01*
X170925879Y-94665663D01*
X170884616Y-94615384D01*
X170834337Y-94574121D01*
X170776973Y-94543460D01*
X170714730Y-94524578D01*
X170650000Y-94518203D01*
X169850000Y-94518203D01*
X169785270Y-94524578D01*
X169723027Y-94543460D01*
X169665663Y-94574121D01*
X169615384Y-94615384D01*
X169574121Y-94665663D01*
X169543460Y-94723027D01*
X169524578Y-94785270D01*
X169518203Y-94850000D01*
X169518203Y-96350000D01*
X169524578Y-96414730D01*
X169543460Y-96476973D01*
X169574121Y-96534337D01*
X169615384Y-96584616D01*
X169665663Y-96625879D01*
X169723027Y-96656540D01*
X169785270Y-96675422D01*
X169850000Y-96681797D01*
X170294605Y-96681797D01*
X170290534Y-96687889D01*
X170235007Y-96821942D01*
X170206700Y-96964251D01*
X170206700Y-97109349D01*
X170235007Y-97251658D01*
X170262571Y-97318203D01*
X169850000Y-97318203D01*
X169785270Y-97324578D01*
X169723027Y-97343460D01*
X169665663Y-97374121D01*
X169615384Y-97415384D01*
X169574121Y-97465663D01*
X169543460Y-97523027D01*
X169524578Y-97585270D01*
X169518203Y-97650000D01*
X169518203Y-99150000D01*
X169524578Y-99214730D01*
X169543460Y-99276973D01*
X169574121Y-99334337D01*
X169615384Y-99384616D01*
X169665663Y-99425879D01*
X169723027Y-99456540D01*
X169785270Y-99475422D01*
X169850000Y-99481797D01*
X170650000Y-99481797D01*
X170714730Y-99475422D01*
X170776973Y-99456540D01*
X170800000Y-99444232D01*
X170823027Y-99456540D01*
X170885270Y-99475422D01*
X170950000Y-99481797D01*
X171407331Y-99481797D01*
X171419463Y-99504494D01*
X171498815Y-99601185D01*
X171595506Y-99680537D01*
X171705820Y-99739502D01*
X171825518Y-99775812D01*
X171950000Y-99788072D01*
X171964250Y-99785000D01*
X172123000Y-99626250D01*
X172123000Y-98527000D01*
X172103000Y-98527000D01*
X172103000Y-98273000D01*
X172123000Y-98273000D01*
X172123000Y-98253000D01*
X172377000Y-98253000D01*
X172377000Y-98273000D01*
X172397000Y-98273000D01*
X172397000Y-98527000D01*
X172377000Y-98527000D01*
X172377000Y-99431943D01*
X172329407Y-99546842D01*
X172301100Y-99689151D01*
X172301100Y-99834249D01*
X172329407Y-99976558D01*
X172360284Y-100051100D01*
X172324910Y-100051100D01*
X172283255Y-100009445D01*
X172162611Y-99928834D01*
X172028558Y-99873307D01*
X171886249Y-99845000D01*
X171741151Y-99845000D01*
X171598842Y-99873307D01*
X171464789Y-99928834D01*
X171344145Y-100009445D01*
X171241545Y-100112045D01*
X171160934Y-100232689D01*
X171105407Y-100366742D01*
X171077100Y-100509051D01*
X171077100Y-100654149D01*
X171105407Y-100796458D01*
X171160934Y-100930511D01*
X171241545Y-101051155D01*
X171331101Y-101140711D01*
X171331100Y-102254042D01*
X171301978Y-102308524D01*
X171274384Y-102399494D01*
X171265065Y-102494100D01*
X171267401Y-102517815D01*
X171267401Y-102573192D01*
X171265663Y-102574121D01*
X171215384Y-102615384D01*
X171174121Y-102665663D01*
X171143460Y-102723027D01*
X171124578Y-102785270D01*
X171118203Y-102850000D01*
X171118203Y-104350000D01*
X171124578Y-104414730D01*
X171143460Y-104476973D01*
X171174121Y-104534337D01*
X171215384Y-104584616D01*
X171265663Y-104625879D01*
X171323027Y-104656540D01*
X171385270Y-104675422D01*
X171450000Y-104681797D01*
X172050000Y-104681797D01*
X172114730Y-104675422D01*
X172176973Y-104656540D01*
X172234337Y-104625879D01*
X172250000Y-104613025D01*
X172265663Y-104625879D01*
X172323027Y-104656540D01*
X172385270Y-104675422D01*
X172450000Y-104681797D01*
X173050000Y-104681797D01*
X173114730Y-104675422D01*
X173176973Y-104656540D01*
X173234337Y-104625879D01*
X173250000Y-104613025D01*
X173265663Y-104625879D01*
X173323027Y-104656540D01*
X173385270Y-104675422D01*
X173450000Y-104681797D01*
X174050000Y-104681797D01*
X174114730Y-104675422D01*
X174176973Y-104656540D01*
X174234337Y-104625879D01*
X174250000Y-104613025D01*
X174265663Y-104625879D01*
X174323027Y-104656540D01*
X174385270Y-104675422D01*
X174450000Y-104681797D01*
X175050000Y-104681797D01*
X175114730Y-104675422D01*
X175176973Y-104656540D01*
X175200000Y-104644232D01*
X175223027Y-104656540D01*
X175285270Y-104675422D01*
X175350000Y-104681797D01*
X175642204Y-104681797D01*
X175512501Y-104811500D01*
X174273707Y-104811500D01*
X174250000Y-104809165D01*
X174226293Y-104811500D01*
X174155394Y-104818483D01*
X174064423Y-104846078D01*
X173980585Y-104890891D01*
X173907099Y-104951199D01*
X173846791Y-105024685D01*
X173801978Y-105108523D01*
X173774383Y-105199494D01*
X173765065Y-105294100D01*
X173767401Y-105317817D01*
X173767401Y-105373192D01*
X173765663Y-105374121D01*
X173750000Y-105386975D01*
X173734337Y-105374121D01*
X173676973Y-105343460D01*
X173614730Y-105324578D01*
X173550000Y-105318203D01*
X173092669Y-105318203D01*
X173080537Y-105295506D01*
X173001185Y-105198815D01*
X172904494Y-105119463D01*
X172794180Y-105060498D01*
X172674482Y-105024188D01*
X172550000Y-105011928D01*
X172535750Y-105015000D01*
X172377000Y-105173750D01*
X172377000Y-106273000D01*
X172397000Y-106273000D01*
X172397000Y-106527000D01*
X172377000Y-106527000D01*
X172377000Y-107626250D01*
X172533177Y-107782427D01*
X172513400Y-107881851D01*
X172513400Y-108026949D01*
X172541707Y-108169258D01*
X172597234Y-108303311D01*
X172677845Y-108423955D01*
X172780445Y-108526555D01*
X172901089Y-108607166D01*
X173035142Y-108662693D01*
X173177451Y-108691000D01*
X173322549Y-108691000D01*
X173464858Y-108662693D01*
X173598911Y-108607166D01*
X173719555Y-108526555D01*
X173822155Y-108423955D01*
X173902766Y-108303311D01*
X173958293Y-108169258D01*
X173986600Y-108026949D01*
X173986600Y-107881851D01*
X173958293Y-107739542D01*
X173902766Y-107605489D01*
X173822155Y-107484845D01*
X173751866Y-107414556D01*
X173765663Y-107425879D01*
X173823027Y-107456540D01*
X173885270Y-107475422D01*
X173950000Y-107481797D01*
X174327026Y-107481797D01*
X174310107Y-107522642D01*
X174281800Y-107664951D01*
X174281800Y-107810049D01*
X174310107Y-107952358D01*
X174365634Y-108086411D01*
X174446245Y-108207055D01*
X174535801Y-108296611D01*
X174535800Y-109025801D01*
X173717998Y-109843603D01*
X173685766Y-109765789D01*
X173605155Y-109645145D01*
X173502555Y-109542545D01*
X173381911Y-109461934D01*
X173247858Y-109406407D01*
X173105549Y-109378100D01*
X172960451Y-109378100D01*
X172818142Y-109406407D01*
X172684089Y-109461934D01*
X172563445Y-109542545D01*
X172460845Y-109645145D01*
X172380234Y-109765789D01*
X172366493Y-109798964D01*
X172340555Y-109760145D01*
X172237955Y-109657545D01*
X172117311Y-109576934D01*
X171983258Y-109521407D01*
X171840949Y-109493100D01*
X171695851Y-109493100D01*
X171553542Y-109521407D01*
X171419489Y-109576934D01*
X171298845Y-109657545D01*
X171196245Y-109760145D01*
X171115634Y-109880789D01*
X171060107Y-110014842D01*
X171031800Y-110157151D01*
X171031800Y-110302249D01*
X171060107Y-110444558D01*
X171115634Y-110578611D01*
X171173978Y-110665930D01*
X171143460Y-110723027D01*
X171124578Y-110785270D01*
X171118203Y-110850000D01*
X171118203Y-112350000D01*
X171124578Y-112414730D01*
X171143460Y-112476973D01*
X171174121Y-112534337D01*
X171215384Y-112584616D01*
X171265663Y-112625879D01*
X171323027Y-112656540D01*
X171385270Y-112675422D01*
X171450000Y-112681797D01*
X172050000Y-112681797D01*
X172114730Y-112675422D01*
X172176973Y-112656540D01*
X172234337Y-112625879D01*
X172250000Y-112613025D01*
X172265663Y-112625879D01*
X172323027Y-112656540D01*
X172385270Y-112675422D01*
X172450000Y-112681797D01*
X173050000Y-112681797D01*
X173114730Y-112675422D01*
X173176973Y-112656540D01*
X173234337Y-112625879D01*
X173250000Y-112613025D01*
X173265663Y-112625879D01*
X173323027Y-112656540D01*
X173385270Y-112675422D01*
X173450000Y-112681797D01*
X174050000Y-112681797D01*
X174114730Y-112675422D01*
X174176973Y-112656540D01*
X174234337Y-112625879D01*
X174250000Y-112613025D01*
X174265663Y-112625879D01*
X174323027Y-112656540D01*
X174385270Y-112675422D01*
X174450000Y-112681797D01*
X175050000Y-112681797D01*
X175114730Y-112675422D01*
X175176973Y-112656540D01*
X175200000Y-112644232D01*
X175223027Y-112656540D01*
X175285270Y-112675422D01*
X175350000Y-112681797D01*
X175662304Y-112681797D01*
X175532601Y-112811500D01*
X174273707Y-112811500D01*
X174250000Y-112809165D01*
X174226293Y-112811500D01*
X174155394Y-112818483D01*
X174064423Y-112846078D01*
X173980585Y-112890891D01*
X173907099Y-112951199D01*
X173846791Y-113024685D01*
X173801978Y-113108523D01*
X173774383Y-113199494D01*
X173765065Y-113294100D01*
X173767401Y-113317817D01*
X173767401Y-113373192D01*
X173765663Y-113374121D01*
X173750000Y-113386975D01*
X173734337Y-113374121D01*
X173676973Y-113343460D01*
X173614730Y-113324578D01*
X173550000Y-113318203D01*
X173092669Y-113318203D01*
X173080537Y-113295506D01*
X173001185Y-113198815D01*
X172904494Y-113119463D01*
X172794180Y-113060498D01*
X172674482Y-113024188D01*
X172550000Y-113011928D01*
X172535750Y-113015000D01*
X172377000Y-113173750D01*
X172377000Y-114273000D01*
X172397000Y-114273000D01*
X172397000Y-114527000D01*
X172377000Y-114527000D01*
X172377000Y-114547000D01*
X172123000Y-114547000D01*
X172123000Y-114527000D01*
X172103000Y-114527000D01*
X172103000Y-114273000D01*
X172123000Y-114273000D01*
X172123000Y-113173750D01*
X171964250Y-113015000D01*
X171950000Y-113011928D01*
X171825518Y-113024188D01*
X171705820Y-113060498D01*
X171679789Y-113074412D01*
X171653209Y-113024685D01*
X171592901Y-112951199D01*
X171519415Y-112890891D01*
X171435577Y-112846078D01*
X171344606Y-112818483D01*
X171273707Y-112811500D01*
X171250000Y-112809165D01*
X171226293Y-112811500D01*
X170483499Y-112811500D01*
X170353796Y-112681797D01*
X170650000Y-112681797D01*
X170714730Y-112675422D01*
X170776973Y-112656540D01*
X170834337Y-112625879D01*
X170884616Y-112584616D01*
X170925879Y-112534337D01*
X170956540Y-112476973D01*
X170975422Y-112414730D01*
X170981797Y-112350000D01*
X170981797Y-110850000D01*
X170975422Y-110785270D01*
X170956540Y-110723027D01*
X170925879Y-110665663D01*
X170884616Y-110615384D01*
X170834337Y-110574121D01*
X170776973Y-110543460D01*
X170714730Y-110524578D01*
X170650000Y-110518203D01*
X169850000Y-110518203D01*
X169785270Y-110524578D01*
X169723027Y-110543460D01*
X169665663Y-110574121D01*
X169615384Y-110615384D01*
X169574121Y-110665663D01*
X169543460Y-110723027D01*
X169524578Y-110785270D01*
X169518203Y-110850000D01*
X169518203Y-111846204D01*
X168355300Y-110683301D01*
X168355300Y-104041999D01*
X169679842Y-105366542D01*
X169665663Y-105374121D01*
X169615384Y-105415384D01*
X169574121Y-105465663D01*
X169543460Y-105523027D01*
X169524578Y-105585270D01*
X169518203Y-105650000D01*
X169518203Y-107150000D01*
X169524578Y-107214730D01*
X169543460Y-107276973D01*
X169574121Y-107334337D01*
X169615384Y-107384616D01*
X169665663Y-107425879D01*
X169723027Y-107456540D01*
X169785270Y-107475422D01*
X169850000Y-107481797D01*
X170650000Y-107481797D01*
X170714730Y-107475422D01*
X170776973Y-107456540D01*
X170800000Y-107444232D01*
X170823027Y-107456540D01*
X170885270Y-107475422D01*
X170950000Y-107481797D01*
X171407331Y-107481797D01*
X171419463Y-107504494D01*
X171498815Y-107601185D01*
X171595506Y-107680537D01*
X171705820Y-107739502D01*
X171825518Y-107775812D01*
X171950000Y-107788072D01*
X171964250Y-107785000D01*
X172123000Y-107626250D01*
X172123000Y-106527000D01*
X172103000Y-106527000D01*
X172103000Y-106273000D01*
X172123000Y-106273000D01*
X172123000Y-105173750D01*
X171964250Y-105015000D01*
X171950000Y-105011928D01*
X171825518Y-105024188D01*
X171705820Y-105060498D01*
X171679789Y-105074412D01*
X171653209Y-105024685D01*
X171592901Y-104951199D01*
X171519415Y-104890891D01*
X171435577Y-104846078D01*
X171344606Y-104818483D01*
X171273707Y-104811500D01*
X171250000Y-104809165D01*
X171226293Y-104811500D01*
X170489800Y-104811500D01*
X170360097Y-104681797D01*
X170650000Y-104681797D01*
X170714730Y-104675422D01*
X170776973Y-104656540D01*
X170834337Y-104625879D01*
X170884616Y-104584616D01*
X170925879Y-104534337D01*
X170956540Y-104476973D01*
X170975422Y-104414730D01*
X170981797Y-104350000D01*
X170981797Y-102850000D01*
X170975422Y-102785270D01*
X170956540Y-102723027D01*
X170925879Y-102665663D01*
X170884616Y-102615384D01*
X170834337Y-102574121D01*
X170776973Y-102543460D01*
X170714730Y-102524578D01*
X170650000Y-102518203D01*
X169850000Y-102518203D01*
X169785270Y-102524578D01*
X169723027Y-102543460D01*
X169665663Y-102574121D01*
X169615384Y-102615384D01*
X169574121Y-102665663D01*
X169543460Y-102723027D01*
X169524578Y-102785270D01*
X169518203Y-102850000D01*
X169518203Y-103839904D01*
X168960100Y-103281801D01*
X168960100Y-94836407D01*
X168962435Y-94812700D01*
X168953117Y-94718093D01*
X168925522Y-94627123D01*
X168904233Y-94587295D01*
X168880709Y-94543285D01*
X168820401Y-94469799D01*
X168801988Y-94454688D01*
X166466600Y-92119301D01*
X166466600Y-90949424D01*
X166648133Y-91098405D01*
X166895237Y-91230484D01*
X167163361Y-91311819D01*
X167372325Y-91332400D01*
X167867675Y-91332400D01*
X168076639Y-91311819D01*
X168344763Y-91230484D01*
X168591867Y-91098405D01*
X168808455Y-90920655D01*
X168986205Y-90704067D01*
X169118284Y-90456963D01*
X169137808Y-90392600D01*
X171586001Y-90392600D01*
X175711603Y-94518203D01*
G37*
%TD.AperFunction*%
D18*
X143675346Y-97368945D02*
X143665663Y-97374121D01*
X143615384Y-97415384D01*
X143574121Y-97465663D01*
X143543460Y-97523027D01*
X143524578Y-97585270D01*
X143518203Y-97650000D01*
X143518203Y-99150000D01*
X143524578Y-99214730D01*
X143543460Y-99276973D01*
X143574121Y-99334337D01*
X143615384Y-99384616D01*
X143665663Y-99425879D01*
X143723027Y-99456540D01*
X143785270Y-99475422D01*
X143850000Y-99481797D01*
X144650000Y-99481797D01*
X144714730Y-99475422D01*
X144776973Y-99456540D01*
X144800000Y-99444232D01*
X144823027Y-99456540D01*
X144885270Y-99475422D01*
X144950000Y-99481797D01*
X145407331Y-99481797D01*
X145419463Y-99504494D01*
X145498815Y-99601185D01*
X145595506Y-99680537D01*
X145705820Y-99739502D01*
X145825518Y-99775812D01*
X145950000Y-99788072D01*
X145964250Y-99785000D01*
X146123000Y-99626250D01*
X146123000Y-98527000D01*
X146103000Y-98527000D01*
X146103000Y-98273000D01*
X146123000Y-98273000D01*
X146123000Y-98253000D01*
X146377000Y-98253000D01*
X146377000Y-98273000D01*
X146397000Y-98273000D01*
X146397000Y-98527000D01*
X146377000Y-98527000D01*
X146377000Y-99626250D01*
X146535750Y-99785000D01*
X146550000Y-99788072D01*
X146674482Y-99775812D01*
X146794180Y-99739502D01*
X146820211Y-99725588D01*
X146846791Y-99775315D01*
X146907099Y-99848801D01*
X146980585Y-99909109D01*
X146986439Y-99912238D01*
X147431700Y-100357499D01*
X147431700Y-100484149D01*
X147460007Y-100626458D01*
X147515534Y-100760511D01*
X147596145Y-100881155D01*
X147638295Y-100923305D01*
X146425513Y-102136088D01*
X146407100Y-102151199D01*
X146391989Y-102169612D01*
X146391987Y-102169614D01*
X146346792Y-102224685D01*
X146301978Y-102308524D01*
X146274384Y-102399494D01*
X146265065Y-102494100D01*
X146267401Y-102517815D01*
X146267401Y-102573192D01*
X146265663Y-102574121D01*
X146250000Y-102586975D01*
X146234337Y-102574121D01*
X146232600Y-102573193D01*
X146232600Y-102449375D01*
X146243066Y-102433711D01*
X146298593Y-102299658D01*
X146326900Y-102157349D01*
X146326900Y-102012251D01*
X146298593Y-101869942D01*
X146243066Y-101735889D01*
X146162455Y-101615245D01*
X146059855Y-101512645D01*
X145939211Y-101432034D01*
X145805158Y-101376507D01*
X145662849Y-101348200D01*
X145517751Y-101348200D01*
X145375442Y-101376507D01*
X145241389Y-101432034D01*
X145120745Y-101512645D01*
X145018145Y-101615245D01*
X144937534Y-101735889D01*
X144882007Y-101869942D01*
X144853700Y-102012251D01*
X144853700Y-102157349D01*
X144882007Y-102299658D01*
X144937534Y-102433711D01*
X145018145Y-102554355D01*
X145120745Y-102656955D01*
X145163504Y-102685526D01*
X145143460Y-102723027D01*
X145124578Y-102785270D01*
X145118203Y-102850000D01*
X145118203Y-104350000D01*
X145124578Y-104414730D01*
X145143460Y-104476973D01*
X145174121Y-104534337D01*
X145215384Y-104584616D01*
X145265663Y-104625879D01*
X145323027Y-104656540D01*
X145385270Y-104675422D01*
X145450000Y-104681797D01*
X146050000Y-104681797D01*
X146114730Y-104675422D01*
X146176973Y-104656540D01*
X146234337Y-104625879D01*
X146250000Y-104613025D01*
X146265663Y-104625879D01*
X146267401Y-104626808D01*
X146267401Y-104682183D01*
X146265065Y-104705900D01*
X146274383Y-104800506D01*
X146301978Y-104891477D01*
X146346791Y-104975315D01*
X146407099Y-105048801D01*
X146459195Y-105091555D01*
X146377000Y-105173750D01*
X146377000Y-106273000D01*
X146397000Y-106273000D01*
X146397000Y-106527000D01*
X146377000Y-106527000D01*
X146377000Y-106547000D01*
X146123000Y-106547000D01*
X146123000Y-106527000D01*
X146103000Y-106527000D01*
X146103000Y-106273000D01*
X146123000Y-106273000D01*
X146123000Y-105173750D01*
X145964250Y-105015000D01*
X145950000Y-105011928D01*
X145825518Y-105024188D01*
X145705820Y-105060498D01*
X145595506Y-105119463D01*
X145498815Y-105198815D01*
X145450810Y-105257310D01*
X144824589Y-104631089D01*
X144834337Y-104625879D01*
X144884616Y-104584616D01*
X144925879Y-104534337D01*
X144956540Y-104476973D01*
X144975422Y-104414730D01*
X144981797Y-104350000D01*
X144981797Y-102850000D01*
X144975422Y-102785270D01*
X144956540Y-102723027D01*
X144925879Y-102665663D01*
X144884616Y-102615384D01*
X144834337Y-102574121D01*
X144776973Y-102543460D01*
X144714730Y-102524578D01*
X144650000Y-102518203D01*
X143850000Y-102518203D01*
X143785270Y-102524578D01*
X143723027Y-102543460D01*
X143665663Y-102574121D01*
X143615384Y-102615384D01*
X143574121Y-102665663D01*
X143543460Y-102723027D01*
X143524578Y-102785270D01*
X143518203Y-102850000D01*
X143518203Y-103867804D01*
X143415200Y-103764801D01*
X143415200Y-97108799D01*
X143675346Y-97368945D01*
%TA.AperFunction,Conductor*%
D19*
G36*
X143675346Y-97368945D02*
G01*
X143665663Y-97374121D01*
X143615384Y-97415384D01*
X143574121Y-97465663D01*
X143543460Y-97523027D01*
X143524578Y-97585270D01*
X143518203Y-97650000D01*
X143518203Y-99150000D01*
X143524578Y-99214730D01*
X143543460Y-99276973D01*
X143574121Y-99334337D01*
X143615384Y-99384616D01*
X143665663Y-99425879D01*
X143723027Y-99456540D01*
X143785270Y-99475422D01*
X143850000Y-99481797D01*
X144650000Y-99481797D01*
X144714730Y-99475422D01*
X144776973Y-99456540D01*
X144800000Y-99444232D01*
X144823027Y-99456540D01*
X144885270Y-99475422D01*
X144950000Y-99481797D01*
X145407331Y-99481797D01*
X145419463Y-99504494D01*
X145498815Y-99601185D01*
X145595506Y-99680537D01*
X145705820Y-99739502D01*
X145825518Y-99775812D01*
X145950000Y-99788072D01*
X145964250Y-99785000D01*
X146123000Y-99626250D01*
X146123000Y-98527000D01*
X146103000Y-98527000D01*
X146103000Y-98273000D01*
X146123000Y-98273000D01*
X146123000Y-98253000D01*
X146377000Y-98253000D01*
X146377000Y-98273000D01*
X146397000Y-98273000D01*
X146397000Y-98527000D01*
X146377000Y-98527000D01*
X146377000Y-99626250D01*
X146535750Y-99785000D01*
X146550000Y-99788072D01*
X146674482Y-99775812D01*
X146794180Y-99739502D01*
X146820211Y-99725588D01*
X146846791Y-99775315D01*
X146907099Y-99848801D01*
X146980585Y-99909109D01*
X146986439Y-99912238D01*
X147431700Y-100357499D01*
X147431700Y-100484149D01*
X147460007Y-100626458D01*
X147515534Y-100760511D01*
X147596145Y-100881155D01*
X147638295Y-100923305D01*
X146425513Y-102136088D01*
X146407100Y-102151199D01*
X146391989Y-102169612D01*
X146391987Y-102169614D01*
X146346792Y-102224685D01*
X146301978Y-102308524D01*
X146274384Y-102399494D01*
X146265065Y-102494100D01*
X146267401Y-102517815D01*
X146267401Y-102573192D01*
X146265663Y-102574121D01*
X146250000Y-102586975D01*
X146234337Y-102574121D01*
X146232600Y-102573193D01*
X146232600Y-102449375D01*
X146243066Y-102433711D01*
X146298593Y-102299658D01*
X146326900Y-102157349D01*
X146326900Y-102012251D01*
X146298593Y-101869942D01*
X146243066Y-101735889D01*
X146162455Y-101615245D01*
X146059855Y-101512645D01*
X145939211Y-101432034D01*
X145805158Y-101376507D01*
X145662849Y-101348200D01*
X145517751Y-101348200D01*
X145375442Y-101376507D01*
X145241389Y-101432034D01*
X145120745Y-101512645D01*
X145018145Y-101615245D01*
X144937534Y-101735889D01*
X144882007Y-101869942D01*
X144853700Y-102012251D01*
X144853700Y-102157349D01*
X144882007Y-102299658D01*
X144937534Y-102433711D01*
X145018145Y-102554355D01*
X145120745Y-102656955D01*
X145163504Y-102685526D01*
X145143460Y-102723027D01*
X145124578Y-102785270D01*
X145118203Y-102850000D01*
X145118203Y-104350000D01*
X145124578Y-104414730D01*
X145143460Y-104476973D01*
X145174121Y-104534337D01*
X145215384Y-104584616D01*
X145265663Y-104625879D01*
X145323027Y-104656540D01*
X145385270Y-104675422D01*
X145450000Y-104681797D01*
X146050000Y-104681797D01*
X146114730Y-104675422D01*
X146176973Y-104656540D01*
X146234337Y-104625879D01*
X146250000Y-104613025D01*
X146265663Y-104625879D01*
X146267401Y-104626808D01*
X146267401Y-104682183D01*
X146265065Y-104705900D01*
X146274383Y-104800506D01*
X146301978Y-104891477D01*
X146346791Y-104975315D01*
X146407099Y-105048801D01*
X146459195Y-105091555D01*
X146377000Y-105173750D01*
X146377000Y-106273000D01*
X146397000Y-106273000D01*
X146397000Y-106527000D01*
X146377000Y-106527000D01*
X146377000Y-106547000D01*
X146123000Y-106547000D01*
X146123000Y-106527000D01*
X146103000Y-106527000D01*
X146103000Y-106273000D01*
X146123000Y-106273000D01*
X146123000Y-105173750D01*
X145964250Y-105015000D01*
X145950000Y-105011928D01*
X145825518Y-105024188D01*
X145705820Y-105060498D01*
X145595506Y-105119463D01*
X145498815Y-105198815D01*
X145450810Y-105257310D01*
X144824589Y-104631089D01*
X144834337Y-104625879D01*
X144884616Y-104584616D01*
X144925879Y-104534337D01*
X144956540Y-104476973D01*
X144975422Y-104414730D01*
X144981797Y-104350000D01*
X144981797Y-102850000D01*
X144975422Y-102785270D01*
X144956540Y-102723027D01*
X144925879Y-102665663D01*
X144884616Y-102615384D01*
X144834337Y-102574121D01*
X144776973Y-102543460D01*
X144714730Y-102524578D01*
X144650000Y-102518203D01*
X143850000Y-102518203D01*
X143785270Y-102524578D01*
X143723027Y-102543460D01*
X143665663Y-102574121D01*
X143615384Y-102615384D01*
X143574121Y-102665663D01*
X143543460Y-102723027D01*
X143524578Y-102785270D01*
X143518203Y-102850000D01*
X143518203Y-103867804D01*
X143415200Y-103764801D01*
X143415200Y-97108799D01*
X143675346Y-97368945D01*
G37*
%TD.AperFunction*%
D18*
X156521293Y-97135458D02*
X156556023Y-97154022D01*
X156646993Y-97181617D01*
X156741600Y-97190935D01*
X156765307Y-97188600D01*
X157110501Y-97188600D01*
X157240104Y-97318203D01*
X156900000Y-97318203D01*
X156835270Y-97324578D01*
X156773027Y-97343460D01*
X156715663Y-97374121D01*
X156665384Y-97415384D01*
X156624121Y-97465663D01*
X156593460Y-97523027D01*
X156574578Y-97585270D01*
X156568203Y-97650000D01*
X156568203Y-99150000D01*
X156574578Y-99214730D01*
X156593460Y-99276973D01*
X156624121Y-99334337D01*
X156665384Y-99384616D01*
X156715663Y-99425879D01*
X156773027Y-99456540D01*
X156835270Y-99475422D01*
X156900000Y-99481797D01*
X157700000Y-99481797D01*
X157764730Y-99475422D01*
X157826973Y-99456540D01*
X157850000Y-99444232D01*
X157873027Y-99456540D01*
X157935270Y-99475422D01*
X158000000Y-99481797D01*
X158457331Y-99481797D01*
X158469463Y-99504494D01*
X158548815Y-99601185D01*
X158645506Y-99680537D01*
X158755820Y-99739502D01*
X158875518Y-99775812D01*
X158970768Y-99785193D01*
X158968445Y-99786745D01*
X158865845Y-99889345D01*
X158785234Y-100009989D01*
X158729707Y-100144042D01*
X158701400Y-100286351D01*
X158701400Y-100431449D01*
X158729707Y-100573758D01*
X158785234Y-100707811D01*
X158865845Y-100828455D01*
X158968445Y-100931055D01*
X159089089Y-101011666D01*
X159154033Y-101038567D01*
X158425513Y-101767088D01*
X158407100Y-101782199D01*
X158391989Y-101800612D01*
X158391987Y-101800614D01*
X158346792Y-101855685D01*
X158301978Y-101939524D01*
X158274384Y-102030494D01*
X158265065Y-102125100D01*
X158267401Y-102148815D01*
X158267401Y-102573192D01*
X158265663Y-102574121D01*
X158215384Y-102615384D01*
X158174121Y-102665663D01*
X158143460Y-102723027D01*
X158124578Y-102785270D01*
X158118203Y-102850000D01*
X158118203Y-104350000D01*
X158124578Y-104414730D01*
X158143460Y-104476973D01*
X158174121Y-104534337D01*
X158215384Y-104584616D01*
X158265663Y-104625879D01*
X158323027Y-104656540D01*
X158385270Y-104675422D01*
X158450000Y-104681797D01*
X158570498Y-104681797D01*
X158905055Y-105016354D01*
X158825518Y-105024188D01*
X158705820Y-105060498D01*
X158595506Y-105119463D01*
X158498815Y-105198815D01*
X158448466Y-105260166D01*
X157821200Y-104632901D01*
X157834337Y-104625879D01*
X157884616Y-104584616D01*
X157925879Y-104534337D01*
X157956540Y-104476973D01*
X157975422Y-104414730D01*
X157981797Y-104350000D01*
X157981797Y-102850000D01*
X157975422Y-102785270D01*
X157956540Y-102723027D01*
X157925879Y-102665663D01*
X157884616Y-102615384D01*
X157834337Y-102574121D01*
X157776973Y-102543460D01*
X157714730Y-102524578D01*
X157650000Y-102518203D01*
X156850000Y-102518203D01*
X156785270Y-102524578D01*
X156723027Y-102543460D01*
X156665663Y-102574121D01*
X156615384Y-102615384D01*
X156574121Y-102665663D01*
X156543460Y-102723027D01*
X156524578Y-102785270D01*
X156518203Y-102850000D01*
X156518203Y-103841804D01*
X156514900Y-103838501D01*
X156514900Y-97132041D01*
X156521293Y-97135458D01*
%TA.AperFunction,Conductor*%
D19*
G36*
X156521293Y-97135458D02*
G01*
X156556023Y-97154022D01*
X156646993Y-97181617D01*
X156741600Y-97190935D01*
X156765307Y-97188600D01*
X157110501Y-97188600D01*
X157240104Y-97318203D01*
X156900000Y-97318203D01*
X156835270Y-97324578D01*
X156773027Y-97343460D01*
X156715663Y-97374121D01*
X156665384Y-97415384D01*
X156624121Y-97465663D01*
X156593460Y-97523027D01*
X156574578Y-97585270D01*
X156568203Y-97650000D01*
X156568203Y-99150000D01*
X156574578Y-99214730D01*
X156593460Y-99276973D01*
X156624121Y-99334337D01*
X156665384Y-99384616D01*
X156715663Y-99425879D01*
X156773027Y-99456540D01*
X156835270Y-99475422D01*
X156900000Y-99481797D01*
X157700000Y-99481797D01*
X157764730Y-99475422D01*
X157826973Y-99456540D01*
X157850000Y-99444232D01*
X157873027Y-99456540D01*
X157935270Y-99475422D01*
X158000000Y-99481797D01*
X158457331Y-99481797D01*
X158469463Y-99504494D01*
X158548815Y-99601185D01*
X158645506Y-99680537D01*
X158755820Y-99739502D01*
X158875518Y-99775812D01*
X158970768Y-99785193D01*
X158968445Y-99786745D01*
X158865845Y-99889345D01*
X158785234Y-100009989D01*
X158729707Y-100144042D01*
X158701400Y-100286351D01*
X158701400Y-100431449D01*
X158729707Y-100573758D01*
X158785234Y-100707811D01*
X158865845Y-100828455D01*
X158968445Y-100931055D01*
X159089089Y-101011666D01*
X159154033Y-101038567D01*
X158425513Y-101767088D01*
X158407100Y-101782199D01*
X158391989Y-101800612D01*
X158391987Y-101800614D01*
X158346792Y-101855685D01*
X158301978Y-101939524D01*
X158274384Y-102030494D01*
X158265065Y-102125100D01*
X158267401Y-102148815D01*
X158267401Y-102573192D01*
X158265663Y-102574121D01*
X158215384Y-102615384D01*
X158174121Y-102665663D01*
X158143460Y-102723027D01*
X158124578Y-102785270D01*
X158118203Y-102850000D01*
X158118203Y-104350000D01*
X158124578Y-104414730D01*
X158143460Y-104476973D01*
X158174121Y-104534337D01*
X158215384Y-104584616D01*
X158265663Y-104625879D01*
X158323027Y-104656540D01*
X158385270Y-104675422D01*
X158450000Y-104681797D01*
X158570498Y-104681797D01*
X158905055Y-105016354D01*
X158825518Y-105024188D01*
X158705820Y-105060498D01*
X158595506Y-105119463D01*
X158498815Y-105198815D01*
X158448466Y-105260166D01*
X157821200Y-104632901D01*
X157834337Y-104625879D01*
X157884616Y-104584616D01*
X157925879Y-104534337D01*
X157956540Y-104476973D01*
X157975422Y-104414730D01*
X157981797Y-104350000D01*
X157981797Y-102850000D01*
X157975422Y-102785270D01*
X157956540Y-102723027D01*
X157925879Y-102665663D01*
X157884616Y-102615384D01*
X157834337Y-102574121D01*
X157776973Y-102543460D01*
X157714730Y-102524578D01*
X157650000Y-102518203D01*
X156850000Y-102518203D01*
X156785270Y-102524578D01*
X156723027Y-102543460D01*
X156665663Y-102574121D01*
X156615384Y-102615384D01*
X156574121Y-102665663D01*
X156543460Y-102723027D01*
X156524578Y-102785270D01*
X156518203Y-102850000D01*
X156518203Y-103841804D01*
X156514900Y-103838501D01*
X156514900Y-97132041D01*
X156521293Y-97135458D01*
G37*
%TD.AperFunction*%
D18*
X159172998Y-99671377D02*
X159095964Y-99703286D01*
X159172998Y-99626252D01*
X159172998Y-99671377D01*
%TA.AperFunction,Conductor*%
D19*
G36*
X159172998Y-99671377D02*
G01*
X159095964Y-99703286D01*
X159172998Y-99626252D01*
X159172998Y-99671377D01*
G37*
%TD.AperFunction*%
D18*
X159427000Y-98273000D02*
X159447000Y-98273000D01*
X159447000Y-98527000D01*
X159427000Y-98527000D01*
X159427000Y-98547000D01*
X159173000Y-98547000D01*
X159173000Y-98527000D01*
X159153000Y-98527000D01*
X159153000Y-98273000D01*
X159173000Y-98273000D01*
X159173000Y-98253000D01*
X159427000Y-98253000D01*
X159427000Y-98273000D01*
%TA.AperFunction,Conductor*%
D19*
G36*
X159427000Y-98273000D02*
G01*
X159447000Y-98273000D01*
X159447000Y-98527000D01*
X159427000Y-98527000D01*
X159427000Y-98547000D01*
X159173000Y-98547000D01*
X159173000Y-98527000D01*
X159153000Y-98527000D01*
X159153000Y-98273000D01*
X159173000Y-98273000D01*
X159173000Y-98253000D01*
X159427000Y-98253000D01*
X159427000Y-98273000D01*
G37*
%TD.AperFunction*%
%TD*%
M02*
